%TF.GenerationSoftware,KiCad,Pcbnew,7.0.1-3b83917a11~172~ubuntu22.04.1*%
%TF.CreationDate,2023-03-26T14:08:46+09:00*%
%TF.ProjectId,Akashi-13,416b6173-6869-42d3-9133-2e6b69636164,rev?*%
%TF.SameCoordinates,Original*%
%TF.FileFunction,Legend,Bot*%
%TF.FilePolarity,Positive*%
%FSLAX46Y46*%
G04 Gerber Fmt 4.6, Leading zero omitted, Abs format (unit mm)*
G04 Created by KiCad (PCBNEW 7.0.1-3b83917a11~172~ubuntu22.04.1) date 2023-03-26 14:08:46*
%MOMM*%
%LPD*%
G01*
G04 APERTURE LIST*
%ADD10C,0.150000*%
%ADD11C,0.120000*%
G04 APERTURE END LIST*
D10*
%TO.C,R5*%
X124166666Y-124462619D02*
X124499999Y-123986428D01*
X124738094Y-124462619D02*
X124738094Y-123462619D01*
X124738094Y-123462619D02*
X124357142Y-123462619D01*
X124357142Y-123462619D02*
X124261904Y-123510238D01*
X124261904Y-123510238D02*
X124214285Y-123557857D01*
X124214285Y-123557857D02*
X124166666Y-123653095D01*
X124166666Y-123653095D02*
X124166666Y-123795952D01*
X124166666Y-123795952D02*
X124214285Y-123891190D01*
X124214285Y-123891190D02*
X124261904Y-123938809D01*
X124261904Y-123938809D02*
X124357142Y-123986428D01*
X124357142Y-123986428D02*
X124738094Y-123986428D01*
X123261904Y-123462619D02*
X123738094Y-123462619D01*
X123738094Y-123462619D02*
X123785713Y-123938809D01*
X123785713Y-123938809D02*
X123738094Y-123891190D01*
X123738094Y-123891190D02*
X123642856Y-123843571D01*
X123642856Y-123843571D02*
X123404761Y-123843571D01*
X123404761Y-123843571D02*
X123309523Y-123891190D01*
X123309523Y-123891190D02*
X123261904Y-123938809D01*
X123261904Y-123938809D02*
X123214285Y-124034047D01*
X123214285Y-124034047D02*
X123214285Y-124272142D01*
X123214285Y-124272142D02*
X123261904Y-124367380D01*
X123261904Y-124367380D02*
X123309523Y-124415000D01*
X123309523Y-124415000D02*
X123404761Y-124462619D01*
X123404761Y-124462619D02*
X123642856Y-124462619D01*
X123642856Y-124462619D02*
X123738094Y-124415000D01*
X123738094Y-124415000D02*
X123785713Y-124367380D01*
%TO.C,C15*%
X122260357Y-107867380D02*
X122307976Y-107915000D01*
X122307976Y-107915000D02*
X122450833Y-107962619D01*
X122450833Y-107962619D02*
X122546071Y-107962619D01*
X122546071Y-107962619D02*
X122688928Y-107915000D01*
X122688928Y-107915000D02*
X122784166Y-107819761D01*
X122784166Y-107819761D02*
X122831785Y-107724523D01*
X122831785Y-107724523D02*
X122879404Y-107534047D01*
X122879404Y-107534047D02*
X122879404Y-107391190D01*
X122879404Y-107391190D02*
X122831785Y-107200714D01*
X122831785Y-107200714D02*
X122784166Y-107105476D01*
X122784166Y-107105476D02*
X122688928Y-107010238D01*
X122688928Y-107010238D02*
X122546071Y-106962619D01*
X122546071Y-106962619D02*
X122450833Y-106962619D01*
X122450833Y-106962619D02*
X122307976Y-107010238D01*
X122307976Y-107010238D02*
X122260357Y-107057857D01*
X121307976Y-107962619D02*
X121879404Y-107962619D01*
X121593690Y-107962619D02*
X121593690Y-106962619D01*
X121593690Y-106962619D02*
X121688928Y-107105476D01*
X121688928Y-107105476D02*
X121784166Y-107200714D01*
X121784166Y-107200714D02*
X121879404Y-107248333D01*
X120403214Y-106962619D02*
X120879404Y-106962619D01*
X120879404Y-106962619D02*
X120927023Y-107438809D01*
X120927023Y-107438809D02*
X120879404Y-107391190D01*
X120879404Y-107391190D02*
X120784166Y-107343571D01*
X120784166Y-107343571D02*
X120546071Y-107343571D01*
X120546071Y-107343571D02*
X120450833Y-107391190D01*
X120450833Y-107391190D02*
X120403214Y-107438809D01*
X120403214Y-107438809D02*
X120355595Y-107534047D01*
X120355595Y-107534047D02*
X120355595Y-107772142D01*
X120355595Y-107772142D02*
X120403214Y-107867380D01*
X120403214Y-107867380D02*
X120450833Y-107915000D01*
X120450833Y-107915000D02*
X120546071Y-107962619D01*
X120546071Y-107962619D02*
X120784166Y-107962619D01*
X120784166Y-107962619D02*
X120879404Y-107915000D01*
X120879404Y-107915000D02*
X120927023Y-107867380D01*
%TO.C,C13*%
X130867380Y-120857142D02*
X130915000Y-120809523D01*
X130915000Y-120809523D02*
X130962619Y-120666666D01*
X130962619Y-120666666D02*
X130962619Y-120571428D01*
X130962619Y-120571428D02*
X130915000Y-120428571D01*
X130915000Y-120428571D02*
X130819761Y-120333333D01*
X130819761Y-120333333D02*
X130724523Y-120285714D01*
X130724523Y-120285714D02*
X130534047Y-120238095D01*
X130534047Y-120238095D02*
X130391190Y-120238095D01*
X130391190Y-120238095D02*
X130200714Y-120285714D01*
X130200714Y-120285714D02*
X130105476Y-120333333D01*
X130105476Y-120333333D02*
X130010238Y-120428571D01*
X130010238Y-120428571D02*
X129962619Y-120571428D01*
X129962619Y-120571428D02*
X129962619Y-120666666D01*
X129962619Y-120666666D02*
X130010238Y-120809523D01*
X130010238Y-120809523D02*
X130057857Y-120857142D01*
X130962619Y-121809523D02*
X130962619Y-121238095D01*
X130962619Y-121523809D02*
X129962619Y-121523809D01*
X129962619Y-121523809D02*
X130105476Y-121428571D01*
X130105476Y-121428571D02*
X130200714Y-121333333D01*
X130200714Y-121333333D02*
X130248333Y-121238095D01*
X129962619Y-122142857D02*
X129962619Y-122761904D01*
X129962619Y-122761904D02*
X130343571Y-122428571D01*
X130343571Y-122428571D02*
X130343571Y-122571428D01*
X130343571Y-122571428D02*
X130391190Y-122666666D01*
X130391190Y-122666666D02*
X130438809Y-122714285D01*
X130438809Y-122714285D02*
X130534047Y-122761904D01*
X130534047Y-122761904D02*
X130772142Y-122761904D01*
X130772142Y-122761904D02*
X130867380Y-122714285D01*
X130867380Y-122714285D02*
X130915000Y-122666666D01*
X130915000Y-122666666D02*
X130962619Y-122571428D01*
X130962619Y-122571428D02*
X130962619Y-122285714D01*
X130962619Y-122285714D02*
X130915000Y-122190476D01*
X130915000Y-122190476D02*
X130867380Y-122142857D01*
%TO.C,C16*%
X130617380Y-96857142D02*
X130665000Y-96809523D01*
X130665000Y-96809523D02*
X130712619Y-96666666D01*
X130712619Y-96666666D02*
X130712619Y-96571428D01*
X130712619Y-96571428D02*
X130665000Y-96428571D01*
X130665000Y-96428571D02*
X130569761Y-96333333D01*
X130569761Y-96333333D02*
X130474523Y-96285714D01*
X130474523Y-96285714D02*
X130284047Y-96238095D01*
X130284047Y-96238095D02*
X130141190Y-96238095D01*
X130141190Y-96238095D02*
X129950714Y-96285714D01*
X129950714Y-96285714D02*
X129855476Y-96333333D01*
X129855476Y-96333333D02*
X129760238Y-96428571D01*
X129760238Y-96428571D02*
X129712619Y-96571428D01*
X129712619Y-96571428D02*
X129712619Y-96666666D01*
X129712619Y-96666666D02*
X129760238Y-96809523D01*
X129760238Y-96809523D02*
X129807857Y-96857142D01*
X130712619Y-97809523D02*
X130712619Y-97238095D01*
X130712619Y-97523809D02*
X129712619Y-97523809D01*
X129712619Y-97523809D02*
X129855476Y-97428571D01*
X129855476Y-97428571D02*
X129950714Y-97333333D01*
X129950714Y-97333333D02*
X129998333Y-97238095D01*
X129712619Y-98666666D02*
X129712619Y-98476190D01*
X129712619Y-98476190D02*
X129760238Y-98380952D01*
X129760238Y-98380952D02*
X129807857Y-98333333D01*
X129807857Y-98333333D02*
X129950714Y-98238095D01*
X129950714Y-98238095D02*
X130141190Y-98190476D01*
X130141190Y-98190476D02*
X130522142Y-98190476D01*
X130522142Y-98190476D02*
X130617380Y-98238095D01*
X130617380Y-98238095D02*
X130665000Y-98285714D01*
X130665000Y-98285714D02*
X130712619Y-98380952D01*
X130712619Y-98380952D02*
X130712619Y-98571428D01*
X130712619Y-98571428D02*
X130665000Y-98666666D01*
X130665000Y-98666666D02*
X130617380Y-98714285D01*
X130617380Y-98714285D02*
X130522142Y-98761904D01*
X130522142Y-98761904D02*
X130284047Y-98761904D01*
X130284047Y-98761904D02*
X130188809Y-98714285D01*
X130188809Y-98714285D02*
X130141190Y-98666666D01*
X130141190Y-98666666D02*
X130093571Y-98571428D01*
X130093571Y-98571428D02*
X130093571Y-98380952D01*
X130093571Y-98380952D02*
X130141190Y-98285714D01*
X130141190Y-98285714D02*
X130188809Y-98238095D01*
X130188809Y-98238095D02*
X130284047Y-98190476D01*
%TO.C,R6*%
X138166666Y-129462619D02*
X138499999Y-128986428D01*
X138738094Y-129462619D02*
X138738094Y-128462619D01*
X138738094Y-128462619D02*
X138357142Y-128462619D01*
X138357142Y-128462619D02*
X138261904Y-128510238D01*
X138261904Y-128510238D02*
X138214285Y-128557857D01*
X138214285Y-128557857D02*
X138166666Y-128653095D01*
X138166666Y-128653095D02*
X138166666Y-128795952D01*
X138166666Y-128795952D02*
X138214285Y-128891190D01*
X138214285Y-128891190D02*
X138261904Y-128938809D01*
X138261904Y-128938809D02*
X138357142Y-128986428D01*
X138357142Y-128986428D02*
X138738094Y-128986428D01*
X137309523Y-128462619D02*
X137499999Y-128462619D01*
X137499999Y-128462619D02*
X137595237Y-128510238D01*
X137595237Y-128510238D02*
X137642856Y-128557857D01*
X137642856Y-128557857D02*
X137738094Y-128700714D01*
X137738094Y-128700714D02*
X137785713Y-128891190D01*
X137785713Y-128891190D02*
X137785713Y-129272142D01*
X137785713Y-129272142D02*
X137738094Y-129367380D01*
X137738094Y-129367380D02*
X137690475Y-129415000D01*
X137690475Y-129415000D02*
X137595237Y-129462619D01*
X137595237Y-129462619D02*
X137404761Y-129462619D01*
X137404761Y-129462619D02*
X137309523Y-129415000D01*
X137309523Y-129415000D02*
X137261904Y-129367380D01*
X137261904Y-129367380D02*
X137214285Y-129272142D01*
X137214285Y-129272142D02*
X137214285Y-129034047D01*
X137214285Y-129034047D02*
X137261904Y-128938809D01*
X137261904Y-128938809D02*
X137309523Y-128891190D01*
X137309523Y-128891190D02*
X137404761Y-128843571D01*
X137404761Y-128843571D02*
X137595237Y-128843571D01*
X137595237Y-128843571D02*
X137690475Y-128891190D01*
X137690475Y-128891190D02*
X137738094Y-128938809D01*
X137738094Y-128938809D02*
X137785713Y-129034047D01*
%TO.C,R11*%
X132962619Y-121107142D02*
X132486428Y-120773809D01*
X132962619Y-120535714D02*
X131962619Y-120535714D01*
X131962619Y-120535714D02*
X131962619Y-120916666D01*
X131962619Y-120916666D02*
X132010238Y-121011904D01*
X132010238Y-121011904D02*
X132057857Y-121059523D01*
X132057857Y-121059523D02*
X132153095Y-121107142D01*
X132153095Y-121107142D02*
X132295952Y-121107142D01*
X132295952Y-121107142D02*
X132391190Y-121059523D01*
X132391190Y-121059523D02*
X132438809Y-121011904D01*
X132438809Y-121011904D02*
X132486428Y-120916666D01*
X132486428Y-120916666D02*
X132486428Y-120535714D01*
X132962619Y-122059523D02*
X132962619Y-121488095D01*
X132962619Y-121773809D02*
X131962619Y-121773809D01*
X131962619Y-121773809D02*
X132105476Y-121678571D01*
X132105476Y-121678571D02*
X132200714Y-121583333D01*
X132200714Y-121583333D02*
X132248333Y-121488095D01*
X132962619Y-123011904D02*
X132962619Y-122440476D01*
X132962619Y-122726190D02*
X131962619Y-122726190D01*
X131962619Y-122726190D02*
X132105476Y-122630952D01*
X132105476Y-122630952D02*
X132200714Y-122535714D01*
X132200714Y-122535714D02*
X132248333Y-122440476D01*
%TO.C,C1*%
X138079166Y-126367380D02*
X138126785Y-126415000D01*
X138126785Y-126415000D02*
X138269642Y-126462619D01*
X138269642Y-126462619D02*
X138364880Y-126462619D01*
X138364880Y-126462619D02*
X138507737Y-126415000D01*
X138507737Y-126415000D02*
X138602975Y-126319761D01*
X138602975Y-126319761D02*
X138650594Y-126224523D01*
X138650594Y-126224523D02*
X138698213Y-126034047D01*
X138698213Y-126034047D02*
X138698213Y-125891190D01*
X138698213Y-125891190D02*
X138650594Y-125700714D01*
X138650594Y-125700714D02*
X138602975Y-125605476D01*
X138602975Y-125605476D02*
X138507737Y-125510238D01*
X138507737Y-125510238D02*
X138364880Y-125462619D01*
X138364880Y-125462619D02*
X138269642Y-125462619D01*
X138269642Y-125462619D02*
X138126785Y-125510238D01*
X138126785Y-125510238D02*
X138079166Y-125557857D01*
X137126785Y-126462619D02*
X137698213Y-126462619D01*
X137412499Y-126462619D02*
X137412499Y-125462619D01*
X137412499Y-125462619D02*
X137507737Y-125605476D01*
X137507737Y-125605476D02*
X137602975Y-125700714D01*
X137602975Y-125700714D02*
X137698213Y-125748333D01*
%TO.C,C9*%
X142666666Y-113367380D02*
X142714285Y-113415000D01*
X142714285Y-113415000D02*
X142857142Y-113462619D01*
X142857142Y-113462619D02*
X142952380Y-113462619D01*
X142952380Y-113462619D02*
X143095237Y-113415000D01*
X143095237Y-113415000D02*
X143190475Y-113319761D01*
X143190475Y-113319761D02*
X143238094Y-113224523D01*
X143238094Y-113224523D02*
X143285713Y-113034047D01*
X143285713Y-113034047D02*
X143285713Y-112891190D01*
X143285713Y-112891190D02*
X143238094Y-112700714D01*
X143238094Y-112700714D02*
X143190475Y-112605476D01*
X143190475Y-112605476D02*
X143095237Y-112510238D01*
X143095237Y-112510238D02*
X142952380Y-112462619D01*
X142952380Y-112462619D02*
X142857142Y-112462619D01*
X142857142Y-112462619D02*
X142714285Y-112510238D01*
X142714285Y-112510238D02*
X142666666Y-112557857D01*
X142190475Y-113462619D02*
X141999999Y-113462619D01*
X141999999Y-113462619D02*
X141904761Y-113415000D01*
X141904761Y-113415000D02*
X141857142Y-113367380D01*
X141857142Y-113367380D02*
X141761904Y-113224523D01*
X141761904Y-113224523D02*
X141714285Y-113034047D01*
X141714285Y-113034047D02*
X141714285Y-112653095D01*
X141714285Y-112653095D02*
X141761904Y-112557857D01*
X141761904Y-112557857D02*
X141809523Y-112510238D01*
X141809523Y-112510238D02*
X141904761Y-112462619D01*
X141904761Y-112462619D02*
X142095237Y-112462619D01*
X142095237Y-112462619D02*
X142190475Y-112510238D01*
X142190475Y-112510238D02*
X142238094Y-112557857D01*
X142238094Y-112557857D02*
X142285713Y-112653095D01*
X142285713Y-112653095D02*
X142285713Y-112891190D01*
X142285713Y-112891190D02*
X142238094Y-112986428D01*
X142238094Y-112986428D02*
X142190475Y-113034047D01*
X142190475Y-113034047D02*
X142095237Y-113081666D01*
X142095237Y-113081666D02*
X141904761Y-113081666D01*
X141904761Y-113081666D02*
X141809523Y-113034047D01*
X141809523Y-113034047D02*
X141761904Y-112986428D01*
X141761904Y-112986428D02*
X141714285Y-112891190D01*
%TO.C,C12*%
X143642857Y-115117380D02*
X143690476Y-115165000D01*
X143690476Y-115165000D02*
X143833333Y-115212619D01*
X143833333Y-115212619D02*
X143928571Y-115212619D01*
X143928571Y-115212619D02*
X144071428Y-115165000D01*
X144071428Y-115165000D02*
X144166666Y-115069761D01*
X144166666Y-115069761D02*
X144214285Y-114974523D01*
X144214285Y-114974523D02*
X144261904Y-114784047D01*
X144261904Y-114784047D02*
X144261904Y-114641190D01*
X144261904Y-114641190D02*
X144214285Y-114450714D01*
X144214285Y-114450714D02*
X144166666Y-114355476D01*
X144166666Y-114355476D02*
X144071428Y-114260238D01*
X144071428Y-114260238D02*
X143928571Y-114212619D01*
X143928571Y-114212619D02*
X143833333Y-114212619D01*
X143833333Y-114212619D02*
X143690476Y-114260238D01*
X143690476Y-114260238D02*
X143642857Y-114307857D01*
X142690476Y-115212619D02*
X143261904Y-115212619D01*
X142976190Y-115212619D02*
X142976190Y-114212619D01*
X142976190Y-114212619D02*
X143071428Y-114355476D01*
X143071428Y-114355476D02*
X143166666Y-114450714D01*
X143166666Y-114450714D02*
X143261904Y-114498333D01*
X142309523Y-114307857D02*
X142261904Y-114260238D01*
X142261904Y-114260238D02*
X142166666Y-114212619D01*
X142166666Y-114212619D02*
X141928571Y-114212619D01*
X141928571Y-114212619D02*
X141833333Y-114260238D01*
X141833333Y-114260238D02*
X141785714Y-114307857D01*
X141785714Y-114307857D02*
X141738095Y-114403095D01*
X141738095Y-114403095D02*
X141738095Y-114498333D01*
X141738095Y-114498333D02*
X141785714Y-114641190D01*
X141785714Y-114641190D02*
X142357142Y-115212619D01*
X142357142Y-115212619D02*
X141738095Y-115212619D01*
%TO.C,C4*%
X124029166Y-131367380D02*
X124076785Y-131415000D01*
X124076785Y-131415000D02*
X124219642Y-131462619D01*
X124219642Y-131462619D02*
X124314880Y-131462619D01*
X124314880Y-131462619D02*
X124457737Y-131415000D01*
X124457737Y-131415000D02*
X124552975Y-131319761D01*
X124552975Y-131319761D02*
X124600594Y-131224523D01*
X124600594Y-131224523D02*
X124648213Y-131034047D01*
X124648213Y-131034047D02*
X124648213Y-130891190D01*
X124648213Y-130891190D02*
X124600594Y-130700714D01*
X124600594Y-130700714D02*
X124552975Y-130605476D01*
X124552975Y-130605476D02*
X124457737Y-130510238D01*
X124457737Y-130510238D02*
X124314880Y-130462619D01*
X124314880Y-130462619D02*
X124219642Y-130462619D01*
X124219642Y-130462619D02*
X124076785Y-130510238D01*
X124076785Y-130510238D02*
X124029166Y-130557857D01*
X123172023Y-130795952D02*
X123172023Y-131462619D01*
X123410118Y-130415000D02*
X123648213Y-131129285D01*
X123648213Y-131129285D02*
X123029166Y-131129285D01*
%TO.C,C10*%
X121625357Y-111367380D02*
X121672976Y-111415000D01*
X121672976Y-111415000D02*
X121815833Y-111462619D01*
X121815833Y-111462619D02*
X121911071Y-111462619D01*
X121911071Y-111462619D02*
X122053928Y-111415000D01*
X122053928Y-111415000D02*
X122149166Y-111319761D01*
X122149166Y-111319761D02*
X122196785Y-111224523D01*
X122196785Y-111224523D02*
X122244404Y-111034047D01*
X122244404Y-111034047D02*
X122244404Y-110891190D01*
X122244404Y-110891190D02*
X122196785Y-110700714D01*
X122196785Y-110700714D02*
X122149166Y-110605476D01*
X122149166Y-110605476D02*
X122053928Y-110510238D01*
X122053928Y-110510238D02*
X121911071Y-110462619D01*
X121911071Y-110462619D02*
X121815833Y-110462619D01*
X121815833Y-110462619D02*
X121672976Y-110510238D01*
X121672976Y-110510238D02*
X121625357Y-110557857D01*
X120672976Y-111462619D02*
X121244404Y-111462619D01*
X120958690Y-111462619D02*
X120958690Y-110462619D01*
X120958690Y-110462619D02*
X121053928Y-110605476D01*
X121053928Y-110605476D02*
X121149166Y-110700714D01*
X121149166Y-110700714D02*
X121244404Y-110748333D01*
X120053928Y-110462619D02*
X119958690Y-110462619D01*
X119958690Y-110462619D02*
X119863452Y-110510238D01*
X119863452Y-110510238D02*
X119815833Y-110557857D01*
X119815833Y-110557857D02*
X119768214Y-110653095D01*
X119768214Y-110653095D02*
X119720595Y-110843571D01*
X119720595Y-110843571D02*
X119720595Y-111081666D01*
X119720595Y-111081666D02*
X119768214Y-111272142D01*
X119768214Y-111272142D02*
X119815833Y-111367380D01*
X119815833Y-111367380D02*
X119863452Y-111415000D01*
X119863452Y-111415000D02*
X119958690Y-111462619D01*
X119958690Y-111462619D02*
X120053928Y-111462619D01*
X120053928Y-111462619D02*
X120149166Y-111415000D01*
X120149166Y-111415000D02*
X120196785Y-111367380D01*
X120196785Y-111367380D02*
X120244404Y-111272142D01*
X120244404Y-111272142D02*
X120292023Y-111081666D01*
X120292023Y-111081666D02*
X120292023Y-110843571D01*
X120292023Y-110843571D02*
X120244404Y-110653095D01*
X120244404Y-110653095D02*
X120196785Y-110557857D01*
X120196785Y-110557857D02*
X120149166Y-110510238D01*
X120149166Y-110510238D02*
X120053928Y-110462619D01*
%TO.C,C7*%
X142666666Y-111867380D02*
X142714285Y-111915000D01*
X142714285Y-111915000D02*
X142857142Y-111962619D01*
X142857142Y-111962619D02*
X142952380Y-111962619D01*
X142952380Y-111962619D02*
X143095237Y-111915000D01*
X143095237Y-111915000D02*
X143190475Y-111819761D01*
X143190475Y-111819761D02*
X143238094Y-111724523D01*
X143238094Y-111724523D02*
X143285713Y-111534047D01*
X143285713Y-111534047D02*
X143285713Y-111391190D01*
X143285713Y-111391190D02*
X143238094Y-111200714D01*
X143238094Y-111200714D02*
X143190475Y-111105476D01*
X143190475Y-111105476D02*
X143095237Y-111010238D01*
X143095237Y-111010238D02*
X142952380Y-110962619D01*
X142952380Y-110962619D02*
X142857142Y-110962619D01*
X142857142Y-110962619D02*
X142714285Y-111010238D01*
X142714285Y-111010238D02*
X142666666Y-111057857D01*
X142333332Y-110962619D02*
X141666666Y-110962619D01*
X141666666Y-110962619D02*
X142095237Y-111962619D01*
%TO.C,C6*%
X138416666Y-121117380D02*
X138464285Y-121165000D01*
X138464285Y-121165000D02*
X138607142Y-121212619D01*
X138607142Y-121212619D02*
X138702380Y-121212619D01*
X138702380Y-121212619D02*
X138845237Y-121165000D01*
X138845237Y-121165000D02*
X138940475Y-121069761D01*
X138940475Y-121069761D02*
X138988094Y-120974523D01*
X138988094Y-120974523D02*
X139035713Y-120784047D01*
X139035713Y-120784047D02*
X139035713Y-120641190D01*
X139035713Y-120641190D02*
X138988094Y-120450714D01*
X138988094Y-120450714D02*
X138940475Y-120355476D01*
X138940475Y-120355476D02*
X138845237Y-120260238D01*
X138845237Y-120260238D02*
X138702380Y-120212619D01*
X138702380Y-120212619D02*
X138607142Y-120212619D01*
X138607142Y-120212619D02*
X138464285Y-120260238D01*
X138464285Y-120260238D02*
X138416666Y-120307857D01*
X137559523Y-120212619D02*
X137749999Y-120212619D01*
X137749999Y-120212619D02*
X137845237Y-120260238D01*
X137845237Y-120260238D02*
X137892856Y-120307857D01*
X137892856Y-120307857D02*
X137988094Y-120450714D01*
X137988094Y-120450714D02*
X138035713Y-120641190D01*
X138035713Y-120641190D02*
X138035713Y-121022142D01*
X138035713Y-121022142D02*
X137988094Y-121117380D01*
X137988094Y-121117380D02*
X137940475Y-121165000D01*
X137940475Y-121165000D02*
X137845237Y-121212619D01*
X137845237Y-121212619D02*
X137654761Y-121212619D01*
X137654761Y-121212619D02*
X137559523Y-121165000D01*
X137559523Y-121165000D02*
X137511904Y-121117380D01*
X137511904Y-121117380D02*
X137464285Y-121022142D01*
X137464285Y-121022142D02*
X137464285Y-120784047D01*
X137464285Y-120784047D02*
X137511904Y-120688809D01*
X137511904Y-120688809D02*
X137559523Y-120641190D01*
X137559523Y-120641190D02*
X137654761Y-120593571D01*
X137654761Y-120593571D02*
X137845237Y-120593571D01*
X137845237Y-120593571D02*
X137940475Y-120641190D01*
X137940475Y-120641190D02*
X137988094Y-120688809D01*
X137988094Y-120688809D02*
X138035713Y-120784047D01*
%TO.C,C11*%
X107530357Y-85547380D02*
X107577976Y-85595000D01*
X107577976Y-85595000D02*
X107720833Y-85642619D01*
X107720833Y-85642619D02*
X107816071Y-85642619D01*
X107816071Y-85642619D02*
X107958928Y-85595000D01*
X107958928Y-85595000D02*
X108054166Y-85499761D01*
X108054166Y-85499761D02*
X108101785Y-85404523D01*
X108101785Y-85404523D02*
X108149404Y-85214047D01*
X108149404Y-85214047D02*
X108149404Y-85071190D01*
X108149404Y-85071190D02*
X108101785Y-84880714D01*
X108101785Y-84880714D02*
X108054166Y-84785476D01*
X108054166Y-84785476D02*
X107958928Y-84690238D01*
X107958928Y-84690238D02*
X107816071Y-84642619D01*
X107816071Y-84642619D02*
X107720833Y-84642619D01*
X107720833Y-84642619D02*
X107577976Y-84690238D01*
X107577976Y-84690238D02*
X107530357Y-84737857D01*
X106577976Y-85642619D02*
X107149404Y-85642619D01*
X106863690Y-85642619D02*
X106863690Y-84642619D01*
X106863690Y-84642619D02*
X106958928Y-84785476D01*
X106958928Y-84785476D02*
X107054166Y-84880714D01*
X107054166Y-84880714D02*
X107149404Y-84928333D01*
X105625595Y-85642619D02*
X106197023Y-85642619D01*
X105911309Y-85642619D02*
X105911309Y-84642619D01*
X105911309Y-84642619D02*
X106006547Y-84785476D01*
X106006547Y-84785476D02*
X106101785Y-84880714D01*
X106101785Y-84880714D02*
X106197023Y-84928333D01*
%TO.C,J2*%
X157178333Y-65502619D02*
X157178333Y-66216904D01*
X157178333Y-66216904D02*
X157225952Y-66359761D01*
X157225952Y-66359761D02*
X157321190Y-66455000D01*
X157321190Y-66455000D02*
X157464047Y-66502619D01*
X157464047Y-66502619D02*
X157559285Y-66502619D01*
X156749761Y-65597857D02*
X156702142Y-65550238D01*
X156702142Y-65550238D02*
X156606904Y-65502619D01*
X156606904Y-65502619D02*
X156368809Y-65502619D01*
X156368809Y-65502619D02*
X156273571Y-65550238D01*
X156273571Y-65550238D02*
X156225952Y-65597857D01*
X156225952Y-65597857D02*
X156178333Y-65693095D01*
X156178333Y-65693095D02*
X156178333Y-65788333D01*
X156178333Y-65788333D02*
X156225952Y-65931190D01*
X156225952Y-65931190D02*
X156797380Y-66502619D01*
X156797380Y-66502619D02*
X156178333Y-66502619D01*
%TO.C,C3*%
X137941666Y-131367380D02*
X137989285Y-131415000D01*
X137989285Y-131415000D02*
X138132142Y-131462619D01*
X138132142Y-131462619D02*
X138227380Y-131462619D01*
X138227380Y-131462619D02*
X138370237Y-131415000D01*
X138370237Y-131415000D02*
X138465475Y-131319761D01*
X138465475Y-131319761D02*
X138513094Y-131224523D01*
X138513094Y-131224523D02*
X138560713Y-131034047D01*
X138560713Y-131034047D02*
X138560713Y-130891190D01*
X138560713Y-130891190D02*
X138513094Y-130700714D01*
X138513094Y-130700714D02*
X138465475Y-130605476D01*
X138465475Y-130605476D02*
X138370237Y-130510238D01*
X138370237Y-130510238D02*
X138227380Y-130462619D01*
X138227380Y-130462619D02*
X138132142Y-130462619D01*
X138132142Y-130462619D02*
X137989285Y-130510238D01*
X137989285Y-130510238D02*
X137941666Y-130557857D01*
X137608332Y-130462619D02*
X136989285Y-130462619D01*
X136989285Y-130462619D02*
X137322618Y-130843571D01*
X137322618Y-130843571D02*
X137179761Y-130843571D01*
X137179761Y-130843571D02*
X137084523Y-130891190D01*
X137084523Y-130891190D02*
X137036904Y-130938809D01*
X137036904Y-130938809D02*
X136989285Y-131034047D01*
X136989285Y-131034047D02*
X136989285Y-131272142D01*
X136989285Y-131272142D02*
X137036904Y-131367380D01*
X137036904Y-131367380D02*
X137084523Y-131415000D01*
X137084523Y-131415000D02*
X137179761Y-131462619D01*
X137179761Y-131462619D02*
X137465475Y-131462619D01*
X137465475Y-131462619D02*
X137560713Y-131415000D01*
X137560713Y-131415000D02*
X137608332Y-131367380D01*
%TO.C,R4*%
X138166666Y-124462619D02*
X138499999Y-123986428D01*
X138738094Y-124462619D02*
X138738094Y-123462619D01*
X138738094Y-123462619D02*
X138357142Y-123462619D01*
X138357142Y-123462619D02*
X138261904Y-123510238D01*
X138261904Y-123510238D02*
X138214285Y-123557857D01*
X138214285Y-123557857D02*
X138166666Y-123653095D01*
X138166666Y-123653095D02*
X138166666Y-123795952D01*
X138166666Y-123795952D02*
X138214285Y-123891190D01*
X138214285Y-123891190D02*
X138261904Y-123938809D01*
X138261904Y-123938809D02*
X138357142Y-123986428D01*
X138357142Y-123986428D02*
X138738094Y-123986428D01*
X137309523Y-123795952D02*
X137309523Y-124462619D01*
X137547618Y-123415000D02*
X137785713Y-124129285D01*
X137785713Y-124129285D02*
X137166666Y-124129285D01*
%TO.C,C2*%
X124029166Y-126367380D02*
X124076785Y-126415000D01*
X124076785Y-126415000D02*
X124219642Y-126462619D01*
X124219642Y-126462619D02*
X124314880Y-126462619D01*
X124314880Y-126462619D02*
X124457737Y-126415000D01*
X124457737Y-126415000D02*
X124552975Y-126319761D01*
X124552975Y-126319761D02*
X124600594Y-126224523D01*
X124600594Y-126224523D02*
X124648213Y-126034047D01*
X124648213Y-126034047D02*
X124648213Y-125891190D01*
X124648213Y-125891190D02*
X124600594Y-125700714D01*
X124600594Y-125700714D02*
X124552975Y-125605476D01*
X124552975Y-125605476D02*
X124457737Y-125510238D01*
X124457737Y-125510238D02*
X124314880Y-125462619D01*
X124314880Y-125462619D02*
X124219642Y-125462619D01*
X124219642Y-125462619D02*
X124076785Y-125510238D01*
X124076785Y-125510238D02*
X124029166Y-125557857D01*
X123648213Y-125557857D02*
X123600594Y-125510238D01*
X123600594Y-125510238D02*
X123505356Y-125462619D01*
X123505356Y-125462619D02*
X123267261Y-125462619D01*
X123267261Y-125462619D02*
X123172023Y-125510238D01*
X123172023Y-125510238D02*
X123124404Y-125557857D01*
X123124404Y-125557857D02*
X123076785Y-125653095D01*
X123076785Y-125653095D02*
X123076785Y-125748333D01*
X123076785Y-125748333D02*
X123124404Y-125891190D01*
X123124404Y-125891190D02*
X123695832Y-126462619D01*
X123695832Y-126462619D02*
X123076785Y-126462619D01*
%TO.C,C8*%
X134867380Y-114833333D02*
X134915000Y-114785714D01*
X134915000Y-114785714D02*
X134962619Y-114642857D01*
X134962619Y-114642857D02*
X134962619Y-114547619D01*
X134962619Y-114547619D02*
X134915000Y-114404762D01*
X134915000Y-114404762D02*
X134819761Y-114309524D01*
X134819761Y-114309524D02*
X134724523Y-114261905D01*
X134724523Y-114261905D02*
X134534047Y-114214286D01*
X134534047Y-114214286D02*
X134391190Y-114214286D01*
X134391190Y-114214286D02*
X134200714Y-114261905D01*
X134200714Y-114261905D02*
X134105476Y-114309524D01*
X134105476Y-114309524D02*
X134010238Y-114404762D01*
X134010238Y-114404762D02*
X133962619Y-114547619D01*
X133962619Y-114547619D02*
X133962619Y-114642857D01*
X133962619Y-114642857D02*
X134010238Y-114785714D01*
X134010238Y-114785714D02*
X134057857Y-114833333D01*
X134391190Y-115404762D02*
X134343571Y-115309524D01*
X134343571Y-115309524D02*
X134295952Y-115261905D01*
X134295952Y-115261905D02*
X134200714Y-115214286D01*
X134200714Y-115214286D02*
X134153095Y-115214286D01*
X134153095Y-115214286D02*
X134057857Y-115261905D01*
X134057857Y-115261905D02*
X134010238Y-115309524D01*
X134010238Y-115309524D02*
X133962619Y-115404762D01*
X133962619Y-115404762D02*
X133962619Y-115595238D01*
X133962619Y-115595238D02*
X134010238Y-115690476D01*
X134010238Y-115690476D02*
X134057857Y-115738095D01*
X134057857Y-115738095D02*
X134153095Y-115785714D01*
X134153095Y-115785714D02*
X134200714Y-115785714D01*
X134200714Y-115785714D02*
X134295952Y-115738095D01*
X134295952Y-115738095D02*
X134343571Y-115690476D01*
X134343571Y-115690476D02*
X134391190Y-115595238D01*
X134391190Y-115595238D02*
X134391190Y-115404762D01*
X134391190Y-115404762D02*
X134438809Y-115309524D01*
X134438809Y-115309524D02*
X134486428Y-115261905D01*
X134486428Y-115261905D02*
X134581666Y-115214286D01*
X134581666Y-115214286D02*
X134772142Y-115214286D01*
X134772142Y-115214286D02*
X134867380Y-115261905D01*
X134867380Y-115261905D02*
X134915000Y-115309524D01*
X134915000Y-115309524D02*
X134962619Y-115404762D01*
X134962619Y-115404762D02*
X134962619Y-115595238D01*
X134962619Y-115595238D02*
X134915000Y-115690476D01*
X134915000Y-115690476D02*
X134867380Y-115738095D01*
X134867380Y-115738095D02*
X134772142Y-115785714D01*
X134772142Y-115785714D02*
X134581666Y-115785714D01*
X134581666Y-115785714D02*
X134486428Y-115738095D01*
X134486428Y-115738095D02*
X134438809Y-115690476D01*
X134438809Y-115690476D02*
X134391190Y-115595238D01*
%TO.C,C14*%
X136617380Y-113857142D02*
X136665000Y-113809523D01*
X136665000Y-113809523D02*
X136712619Y-113666666D01*
X136712619Y-113666666D02*
X136712619Y-113571428D01*
X136712619Y-113571428D02*
X136665000Y-113428571D01*
X136665000Y-113428571D02*
X136569761Y-113333333D01*
X136569761Y-113333333D02*
X136474523Y-113285714D01*
X136474523Y-113285714D02*
X136284047Y-113238095D01*
X136284047Y-113238095D02*
X136141190Y-113238095D01*
X136141190Y-113238095D02*
X135950714Y-113285714D01*
X135950714Y-113285714D02*
X135855476Y-113333333D01*
X135855476Y-113333333D02*
X135760238Y-113428571D01*
X135760238Y-113428571D02*
X135712619Y-113571428D01*
X135712619Y-113571428D02*
X135712619Y-113666666D01*
X135712619Y-113666666D02*
X135760238Y-113809523D01*
X135760238Y-113809523D02*
X135807857Y-113857142D01*
X136712619Y-114809523D02*
X136712619Y-114238095D01*
X136712619Y-114523809D02*
X135712619Y-114523809D01*
X135712619Y-114523809D02*
X135855476Y-114428571D01*
X135855476Y-114428571D02*
X135950714Y-114333333D01*
X135950714Y-114333333D02*
X135998333Y-114238095D01*
X136045952Y-115666666D02*
X136712619Y-115666666D01*
X135665000Y-115428571D02*
X136379285Y-115190476D01*
X136379285Y-115190476D02*
X136379285Y-115809523D01*
%TO.C,R7*%
X124166666Y-129462619D02*
X124499999Y-128986428D01*
X124738094Y-129462619D02*
X124738094Y-128462619D01*
X124738094Y-128462619D02*
X124357142Y-128462619D01*
X124357142Y-128462619D02*
X124261904Y-128510238D01*
X124261904Y-128510238D02*
X124214285Y-128557857D01*
X124214285Y-128557857D02*
X124166666Y-128653095D01*
X124166666Y-128653095D02*
X124166666Y-128795952D01*
X124166666Y-128795952D02*
X124214285Y-128891190D01*
X124214285Y-128891190D02*
X124261904Y-128938809D01*
X124261904Y-128938809D02*
X124357142Y-128986428D01*
X124357142Y-128986428D02*
X124738094Y-128986428D01*
X123833332Y-128462619D02*
X123166666Y-128462619D01*
X123166666Y-128462619D02*
X123595237Y-129462619D01*
%TO.C,C17*%
X134617380Y-96969642D02*
X134665000Y-96922023D01*
X134665000Y-96922023D02*
X134712619Y-96779166D01*
X134712619Y-96779166D02*
X134712619Y-96683928D01*
X134712619Y-96683928D02*
X134665000Y-96541071D01*
X134665000Y-96541071D02*
X134569761Y-96445833D01*
X134569761Y-96445833D02*
X134474523Y-96398214D01*
X134474523Y-96398214D02*
X134284047Y-96350595D01*
X134284047Y-96350595D02*
X134141190Y-96350595D01*
X134141190Y-96350595D02*
X133950714Y-96398214D01*
X133950714Y-96398214D02*
X133855476Y-96445833D01*
X133855476Y-96445833D02*
X133760238Y-96541071D01*
X133760238Y-96541071D02*
X133712619Y-96683928D01*
X133712619Y-96683928D02*
X133712619Y-96779166D01*
X133712619Y-96779166D02*
X133760238Y-96922023D01*
X133760238Y-96922023D02*
X133807857Y-96969642D01*
X134712619Y-97922023D02*
X134712619Y-97350595D01*
X134712619Y-97636309D02*
X133712619Y-97636309D01*
X133712619Y-97636309D02*
X133855476Y-97541071D01*
X133855476Y-97541071D02*
X133950714Y-97445833D01*
X133950714Y-97445833D02*
X133998333Y-97350595D01*
X133712619Y-98255357D02*
X133712619Y-98922023D01*
X133712619Y-98922023D02*
X134712619Y-98493452D01*
%TO.C,J1*%
X106378333Y-65502619D02*
X106378333Y-66216904D01*
X106378333Y-66216904D02*
X106425952Y-66359761D01*
X106425952Y-66359761D02*
X106521190Y-66455000D01*
X106521190Y-66455000D02*
X106664047Y-66502619D01*
X106664047Y-66502619D02*
X106759285Y-66502619D01*
X105378333Y-66502619D02*
X105949761Y-66502619D01*
X105664047Y-66502619D02*
X105664047Y-65502619D01*
X105664047Y-65502619D02*
X105759285Y-65645476D01*
X105759285Y-65645476D02*
X105854523Y-65740714D01*
X105854523Y-65740714D02*
X105949761Y-65788333D01*
D11*
%TO.C,J3*%
X125959000Y-137595000D02*
G75*
G03*
X125959000Y-137595000I-381000J0D01*
G01*
%TO.C,R5*%
X126745276Y-123477500D02*
X127254724Y-123477500D01*
X126745276Y-124522500D02*
X127254724Y-124522500D01*
%TO.C,C15*%
X125013767Y-108010000D02*
X124721233Y-108010000D01*
X125013767Y-106990000D02*
X124721233Y-106990000D01*
%TO.C,C13*%
X130760000Y-117853733D02*
X130760000Y-118146267D01*
X129740000Y-117853733D02*
X129740000Y-118146267D01*
%TO.C,C16*%
X129740000Y-100896267D02*
X129740000Y-100603733D01*
X130760000Y-100896267D02*
X130760000Y-100603733D01*
%TO.C,R6*%
X135167224Y-129522500D02*
X134657776Y-129522500D01*
X135167224Y-128477500D02*
X134657776Y-128477500D01*
%TO.C,R11*%
X133022500Y-117745276D02*
X133022500Y-118254724D01*
X131977500Y-117745276D02*
X131977500Y-118254724D01*
%TO.C,C1*%
X134766233Y-125490000D02*
X135058767Y-125490000D01*
X134766233Y-126510000D02*
X135058767Y-126510000D01*
%TO.C,C9*%
X139603733Y-112490000D02*
X139896267Y-112490000D01*
X139603733Y-113510000D02*
X139896267Y-113510000D01*
%TO.C,C12*%
X139603733Y-114240000D02*
X139896267Y-114240000D01*
X139603733Y-115260000D02*
X139896267Y-115260000D01*
%TO.C,C4*%
X127146267Y-131510000D02*
X126853733Y-131510000D01*
X127146267Y-130490000D02*
X126853733Y-130490000D01*
%TO.C,C10*%
X124378767Y-111510000D02*
X124086233Y-111510000D01*
X124378767Y-110490000D02*
X124086233Y-110490000D01*
%TO.C,C7*%
X139603733Y-110740000D02*
X139896267Y-110740000D01*
X139603733Y-111760000D02*
X139896267Y-111760000D01*
%TO.C,C6*%
X135353733Y-120240000D02*
X135646267Y-120240000D01*
X135353733Y-121260000D02*
X135646267Y-121260000D01*
%TO.C,C11*%
X106741233Y-83240000D02*
X107033767Y-83240000D01*
X106741233Y-84260000D02*
X107033767Y-84260000D01*
%TO.C,J2*%
X163890000Y-153730000D02*
X158690000Y-153730000D01*
X163890000Y-64710000D02*
X163890000Y-153730000D01*
X163890000Y-64710000D02*
X161290000Y-64710000D01*
X161290000Y-67310000D02*
X158690000Y-67310000D01*
X161290000Y-64710000D02*
X161290000Y-67310000D01*
X160020000Y-64710000D02*
X158690000Y-64710000D01*
X158690000Y-67310000D02*
X158690000Y-153730000D01*
X158690000Y-64710000D02*
X158690000Y-66040000D01*
%TO.C,C3*%
X134766233Y-130490000D02*
X135058767Y-130490000D01*
X134766233Y-131510000D02*
X135058767Y-131510000D01*
%TO.C,R4*%
X135167224Y-124522500D02*
X134657776Y-124522500D01*
X135167224Y-123477500D02*
X134657776Y-123477500D01*
%TO.C,C2*%
X127146267Y-126510000D02*
X126853733Y-126510000D01*
X127146267Y-125490000D02*
X126853733Y-125490000D01*
%TO.C,C8*%
X135010000Y-117853733D02*
X135010000Y-118146267D01*
X133990000Y-117853733D02*
X133990000Y-118146267D01*
%TO.C,C14*%
X136760000Y-117853733D02*
X136760000Y-118146267D01*
X135740000Y-117853733D02*
X135740000Y-118146267D01*
%TO.C,R7*%
X126745276Y-128477500D02*
X127254724Y-128477500D01*
X126745276Y-129522500D02*
X127254724Y-129522500D01*
%TO.C,C17*%
X133740000Y-101008767D02*
X133740000Y-100716233D01*
X134760000Y-101008767D02*
X134760000Y-100716233D01*
%TO.C,J1*%
X104180000Y-153730000D02*
X98980000Y-153730000D01*
X104180000Y-64710000D02*
X104180000Y-153730000D01*
X104180000Y-64710000D02*
X101580000Y-64710000D01*
X101580000Y-67310000D02*
X98980000Y-67310000D01*
X101580000Y-64710000D02*
X101580000Y-67310000D01*
X100310000Y-64710000D02*
X98980000Y-64710000D01*
X98980000Y-67310000D02*
X98980000Y-153730000D01*
X98980000Y-64710000D02*
X98980000Y-66040000D01*
%TD*%
M02*
