%TF.GenerationSoftware,KiCad,Pcbnew,7.0.1-3b83917a11~172~ubuntu22.04.1*%
%TF.CreationDate,2023-03-26T14:08:46+09:00*%
%TF.ProjectId,Akashi-13,416b6173-6869-42d3-9133-2e6b69636164,rev?*%
%TF.SameCoordinates,Original*%
%TF.FileFunction,Soldermask,Top*%
%TF.FilePolarity,Negative*%
%FSLAX46Y46*%
G04 Gerber Fmt 4.6, Leading zero omitted, Abs format (unit mm)*
G04 Created by KiCad (PCBNEW 7.0.1-3b83917a11~172~ubuntu22.04.1) date 2023-03-26 14:08:46*
%MOMM*%
%LPD*%
G01*
G04 APERTURE LIST*
G04 Aperture macros list*
%AMRoundRect*
0 Rectangle with rounded corners*
0 $1 Rounding radius*
0 $2 $3 $4 $5 $6 $7 $8 $9 X,Y pos of 4 corners*
0 Add a 4 corners polygon primitive as box body*
4,1,4,$2,$3,$4,$5,$6,$7,$8,$9,$2,$3,0*
0 Add four circle primitives for the rounded corners*
1,1,$1+$1,$2,$3*
1,1,$1+$1,$4,$5*
1,1,$1+$1,$6,$7*
1,1,$1+$1,$8,$9*
0 Add four rect primitives between the rounded corners*
20,1,$1+$1,$2,$3,$4,$5,0*
20,1,$1+$1,$4,$5,$6,$7,0*
20,1,$1+$1,$6,$7,$8,$9,0*
20,1,$1+$1,$8,$9,$2,$3,0*%
%AMFreePoly0*
4,1,6,1.000000,0.000000,0.500000,-0.750000,-0.500000,-0.750000,-0.500000,0.750000,0.500000,0.750000,1.000000,0.000000,1.000000,0.000000,$1*%
%AMFreePoly1*
4,1,6,0.500000,-0.750000,-0.650000,-0.750000,-0.150000,0.000000,-0.650000,0.750000,0.500000,0.750000,0.500000,-0.750000,0.500000,-0.750000,$1*%
G04 Aperture macros list end*
%ADD10RoundRect,0.237500X-0.237500X0.250000X-0.237500X-0.250000X0.237500X-0.250000X0.237500X0.250000X0*%
%ADD11RoundRect,0.062500X0.375000X0.062500X-0.375000X0.062500X-0.375000X-0.062500X0.375000X-0.062500X0*%
%ADD12RoundRect,0.062500X0.062500X0.375000X-0.062500X0.375000X-0.062500X-0.375000X0.062500X-0.375000X0*%
%ADD13R,5.900000X5.900000*%
%ADD14RoundRect,0.150000X-0.512500X-0.150000X0.512500X-0.150000X0.512500X0.150000X-0.512500X0.150000X0*%
%ADD15R,1.200000X1.500000*%
%ADD16R,1.800000X1.800000*%
%ADD17C,1.800000*%
%ADD18C,1.397000*%
%ADD19C,3.759200*%
%ADD20C,2.108200*%
%ADD21RoundRect,0.237500X0.300000X0.237500X-0.300000X0.237500X-0.300000X-0.237500X0.300000X-0.237500X0*%
%ADD22FreePoly0,270.000000*%
%ADD23FreePoly1,270.000000*%
%ADD24RoundRect,0.237500X0.237500X-0.300000X0.237500X0.300000X-0.237500X0.300000X-0.237500X-0.300000X0*%
%ADD25RoundRect,0.237500X0.237500X-0.250000X0.237500X0.250000X-0.237500X0.250000X-0.237500X-0.250000X0*%
%ADD26R,1.700000X1.700000*%
%ADD27O,1.700000X1.700000*%
G04 APERTURE END LIST*
D10*
%TO.C,R1*%
X143000000Y-145500000D03*
X143000000Y-147325000D03*
%TD*%
%TO.C,R10*%
X120750000Y-116837500D03*
X120750000Y-118662500D03*
%TD*%
D11*
%TO.C,U1*%
X135937500Y-113510000D03*
X135937500Y-113010000D03*
X135937500Y-112510000D03*
X135937500Y-112010000D03*
X135937500Y-111510000D03*
X135937500Y-111010000D03*
X135937500Y-110510000D03*
X135937500Y-110010000D03*
X135937500Y-109510000D03*
X135937500Y-109010000D03*
X135937500Y-108510000D03*
X135937500Y-108010000D03*
X135937500Y-107510000D03*
X135937500Y-107010000D03*
D12*
X135250000Y-106322500D03*
X134750000Y-106322500D03*
X134250000Y-106322500D03*
X133750000Y-106322500D03*
X133250000Y-106322500D03*
X132750000Y-106322500D03*
X132250000Y-106322500D03*
X131750000Y-106322500D03*
X131250000Y-106322500D03*
X130750000Y-106322500D03*
X130250000Y-106322500D03*
X129750000Y-106322500D03*
X129250000Y-106322500D03*
X128750000Y-106322500D03*
D11*
X128062500Y-107010000D03*
X128062500Y-107510000D03*
X128062500Y-108010000D03*
X128062500Y-108510000D03*
X128062500Y-109010000D03*
X128062500Y-109510000D03*
X128062500Y-110010000D03*
X128062500Y-110510000D03*
X128062500Y-111010000D03*
X128062500Y-111510000D03*
X128062500Y-112010000D03*
X128062500Y-112510000D03*
X128062500Y-113010000D03*
X128062500Y-113510000D03*
D12*
X128750000Y-114197500D03*
X129250000Y-114197500D03*
X129750000Y-114197500D03*
X130250000Y-114197500D03*
X130750000Y-114197500D03*
X131250000Y-114197500D03*
X131750000Y-114197500D03*
X132250000Y-114197500D03*
X132750000Y-114197500D03*
X133250000Y-114197500D03*
X133750000Y-114197500D03*
X134250000Y-114197500D03*
X134750000Y-114197500D03*
X135250000Y-114197500D03*
D13*
X132000000Y-110260000D03*
%TD*%
D10*
%TO.C,R8*%
X112500000Y-115837500D03*
X112500000Y-117662500D03*
%TD*%
D14*
%TO.C,U2*%
X115612500Y-115800000D03*
X115612500Y-116750000D03*
X115612500Y-117700000D03*
X117887500Y-117700000D03*
X117887500Y-116750000D03*
X117887500Y-115800000D03*
%TD*%
D15*
%TO.C,X1*%
X137800000Y-122250000D03*
X137800000Y-118150000D03*
X135000000Y-118150000D03*
X135000000Y-122250000D03*
%TD*%
D16*
%TO.C,D1*%
X149860000Y-144780000D03*
D17*
X149860000Y-147320000D03*
%TD*%
D18*
%TO.C,J3*%
X127483000Y-137590000D03*
X128753000Y-135050000D03*
X130023000Y-137590000D03*
X131293000Y-135050000D03*
X132563000Y-137590000D03*
X133833000Y-135050000D03*
X135103000Y-137590000D03*
X136373000Y-135050000D03*
X125730000Y-148840000D03*
X128270000Y-147320000D03*
X135586000Y-148840000D03*
X138126000Y-147320000D03*
D19*
X137643000Y-143940000D03*
X126213000Y-143940000D03*
D20*
X139802998Y-140890000D03*
X124053002Y-140890000D03*
%TD*%
D10*
%TO.C,R2*%
X120500000Y-145587500D03*
X120500000Y-147412500D03*
%TD*%
D21*
%TO.C,C5*%
X116725000Y-113750000D03*
X115000000Y-113750000D03*
%TD*%
D22*
%TO.C,JP1*%
X127250000Y-117275000D03*
D23*
X127250000Y-118725000D03*
%TD*%
D10*
%TO.C,R12*%
X154940000Y-145495000D03*
X154940000Y-147320000D03*
%TD*%
D24*
%TO.C,C19*%
X120500000Y-133362500D03*
X120500000Y-131637500D03*
%TD*%
D25*
%TO.C,R3*%
X120500000Y-138325000D03*
X120500000Y-136500000D03*
%TD*%
%TO.C,R9*%
X118000000Y-121825000D03*
X118000000Y-120000000D03*
%TD*%
D26*
%TO.C,J2*%
X160020000Y-66040000D03*
D27*
X162560000Y-66040000D03*
X160020000Y-68580000D03*
X162560000Y-68580000D03*
X160020000Y-71120000D03*
X162560000Y-71120000D03*
X160020000Y-73660000D03*
X162560000Y-73660000D03*
X160020000Y-76200000D03*
X162560000Y-76200000D03*
X160020000Y-78740000D03*
X162560000Y-78740000D03*
X160020000Y-81280000D03*
X162560000Y-81280000D03*
X160020000Y-83820000D03*
X162560000Y-83820000D03*
X160020000Y-86360000D03*
X162560000Y-86360000D03*
X160020000Y-88900000D03*
X162560000Y-88900000D03*
X160020000Y-91440000D03*
X162560000Y-91440000D03*
X160020000Y-93980000D03*
X162560000Y-93980000D03*
X160020000Y-96520000D03*
X162560000Y-96520000D03*
X160020000Y-99060000D03*
X162560000Y-99060000D03*
X160020000Y-101600000D03*
X162560000Y-101600000D03*
X160020000Y-104140000D03*
X162560000Y-104140000D03*
X160020000Y-106680000D03*
X162560000Y-106680000D03*
X160020000Y-109220000D03*
X162560000Y-109220000D03*
X160020000Y-111760000D03*
X162560000Y-111760000D03*
X160020000Y-114300000D03*
X162560000Y-114300000D03*
X160020000Y-116840000D03*
X162560000Y-116840000D03*
X160020000Y-119380000D03*
X162560000Y-119380000D03*
X160020000Y-121920000D03*
X162560000Y-121920000D03*
X160020000Y-124460000D03*
X162560000Y-124460000D03*
X160020000Y-127000000D03*
X162560000Y-127000000D03*
X160020000Y-129540000D03*
X162560000Y-129540000D03*
X160020000Y-132080000D03*
X162560000Y-132080000D03*
X160020000Y-134620000D03*
X162560000Y-134620000D03*
X160020000Y-137160000D03*
X162560000Y-137160000D03*
X160020000Y-139700000D03*
X162560000Y-139700000D03*
X160020000Y-142240000D03*
X162560000Y-142240000D03*
X160020000Y-144780000D03*
X162560000Y-144780000D03*
X160020000Y-147320000D03*
X162560000Y-147320000D03*
X160020000Y-149860000D03*
X162560000Y-149860000D03*
X160020000Y-152400000D03*
X162560000Y-152400000D03*
%TD*%
D26*
%TO.C,J1*%
X100310000Y-66040000D03*
D27*
X102850000Y-66040000D03*
X100310000Y-68580000D03*
X102850000Y-68580000D03*
X100310000Y-71120000D03*
X102850000Y-71120000D03*
X100310000Y-73660000D03*
X102850000Y-73660000D03*
X100310000Y-76200000D03*
X102850000Y-76200000D03*
X100310000Y-78740000D03*
X102850000Y-78740000D03*
X100310000Y-81280000D03*
X102850000Y-81280000D03*
X100310000Y-83820000D03*
X102850000Y-83820000D03*
X100310000Y-86360000D03*
X102850000Y-86360000D03*
X100310000Y-88900000D03*
X102850000Y-88900000D03*
X100310000Y-91440000D03*
X102850000Y-91440000D03*
X100310000Y-93980000D03*
X102850000Y-93980000D03*
X100310000Y-96520000D03*
X102850000Y-96520000D03*
X100310000Y-99060000D03*
X102850000Y-99060000D03*
X100310000Y-101600000D03*
X102850000Y-101600000D03*
X100310000Y-104140000D03*
X102850000Y-104140000D03*
X100310000Y-106680000D03*
X102850000Y-106680000D03*
X100310000Y-109220000D03*
X102850000Y-109220000D03*
X100310000Y-111760000D03*
X102850000Y-111760000D03*
X100310000Y-114300000D03*
X102850000Y-114300000D03*
X100310000Y-116840000D03*
X102850000Y-116840000D03*
X100310000Y-119380000D03*
X102850000Y-119380000D03*
X100310000Y-121920000D03*
X102850000Y-121920000D03*
X100310000Y-124460000D03*
X102850000Y-124460000D03*
X100310000Y-127000000D03*
X102850000Y-127000000D03*
X100310000Y-129540000D03*
X102850000Y-129540000D03*
X100310000Y-132080000D03*
X102850000Y-132080000D03*
X100310000Y-134620000D03*
X102850000Y-134620000D03*
X100310000Y-137160000D03*
X102850000Y-137160000D03*
X100310000Y-139700000D03*
X102850000Y-139700000D03*
X100310000Y-142240000D03*
X102850000Y-142240000D03*
X100310000Y-144780000D03*
X102850000Y-144780000D03*
X100310000Y-147320000D03*
X102850000Y-147320000D03*
X100310000Y-149860000D03*
X102850000Y-149860000D03*
X100310000Y-152400000D03*
X102850000Y-152400000D03*
%TD*%
M02*
