M48
; DRILL file {KiCad 7.0.1-3b83917a11~172~ubuntu22.04.1} date 2023年03月26日 14時08分54秒
; FORMAT={-:-/ absolute / inch / decimal}
; #@! TF.CreationDate,2023-03-26T14:08:54+09:00
; #@! TF.GenerationSoftware,Kicad,Pcbnew,7.0.1-3b83917a11~172~ubuntu22.04.1
; #@! TF.FileFunction,Plated,1,4,PTH
FMAT,2
INCH
; #@! TA.AperFunction,Plated,PTH,ViaDrill
T1C0.0079
; #@! TA.AperFunction,Plated,PTH,ViaDrill
T2C0.0157
; #@! TA.AperFunction,Plated,PTH,ComponentDrill
T3C0.0350
; #@! TA.AperFunction,Plated,PTH,ComponentDrill
T4C0.0354
; #@! TA.AperFunction,Plated,PTH,ComponentDrill
T5C0.0394
; #@! TA.AperFunction,Plated,PTH,ComponentDrill
T6C0.0630
; #@! TA.AperFunction,Plated,PTH,ComponentDrill
T7C0.1280
%
G90
G05
T1
X4.4169Y-4.7944
X4.4654Y-4.5295
X4.4898Y-4.6179
X4.5329Y-4.5233
X4.5612Y-4.89
X4.5644Y-4.5199
X4.5708Y-4.7289
X4.5949Y-4.6741
X4.6053Y-4.8347
X4.6098Y-4.1762
X4.6213Y-4.3485
X4.6554Y-4.9274
X4.7091Y-4.5925
X4.7101Y-4.3084
X4.7289Y-4.5394
X4.7342Y-4.2382
X4.7385Y-5.0836
X4.775Y-4.5594
X4.8031Y-4.3406
X4.8114Y-4.38
X4.819Y-4.0159
X4.8255Y-4.5748
X4.8331Y-5.2706
X4.8408Y-4.2532
X4.8448Y-3.8288
X4.8448Y-4.1782
X4.8501Y-4.4359
X4.8573Y-4.6423
X4.8623Y-5.0423
X4.8623Y-5.4277
X4.8631Y-4.7786
X4.8724Y-4.4137
X4.8968Y-4.1936
X4.9088Y-4.472
X4.9205Y-4.5521
X4.9482Y-4.1555
X4.9506Y-4.6231
X4.9604Y-4.6751
X4.9803Y-4.3701
X4.999Y-4.5629
X5.0Y-4.225
X5.0054Y-4.172
X5.0162Y-4.0639
X5.0475Y-4.1496
X5.0485Y-4.0747
X5.05Y-4.5291
X5.0502Y-4.7547
X5.0502Y-4.8049
X5.0895Y-4.7006
X5.0989Y-3.9671
X5.126Y-4.5667
X5.1378Y-4.0354
X5.15Y-4.7729
X5.1712Y-4.8321
X5.175Y-3.975
X5.1839Y-4.6436
X5.2096Y-4.5669
X5.2194Y-3.9579
X5.2443Y-3.3303
X5.2443Y-3.9131
X5.25Y-4.7292
X5.2687Y-4.0945
X5.2854Y-4.5669
X5.3196Y-4.1297
X5.3326Y-4.7201
X5.3379Y-4.002
X5.3511Y-4.1244
X5.3642Y-4.5571
X5.3644Y-3.639
X5.3839Y-4.213
X5.386Y-5.035
X5.3881Y-4.8721
X5.389Y-4.0321
X5.4134Y-4.2224
X5.42Y-4.4521
X5.4232Y-4.5177
X5.4398Y-4.7378
X5.4814Y-4.2065
X5.4844Y-4.2443
X5.5Y-5.35
X5.521Y-4.2625
X5.569Y-4.306
X5.575Y-4.775
X5.6045Y-5.6712
X5.6112Y-4.7876
X5.6729Y-4.3168
X6.0741Y-5.6711
X6.1576Y-5.1964
T2
X4.3012Y-3.2972
T3
X4.95Y-5.8598
X5.019Y-5.4169
X5.05Y-5.8
X5.069Y-5.3169
X5.119Y-5.4169
X5.169Y-5.3169
X5.219Y-5.4169
X5.269Y-5.3169
X5.319Y-5.4169
X5.338Y-5.8598
X5.369Y-5.3169
X5.438Y-5.8
T4
X5.9Y-5.7
X5.9Y-5.8
T5
X3.9492Y-2.6
X3.9492Y-2.7
X3.9492Y-2.8
X3.9492Y-2.9
X3.9492Y-3.0
X3.9492Y-3.1
X3.9492Y-3.2
X3.9492Y-3.3
X3.9492Y-3.4
X3.9492Y-3.5
X3.9492Y-3.6
X3.9492Y-3.7
X3.9492Y-3.8
X3.9492Y-3.9
X3.9492Y-4.0
X3.9492Y-4.1
X3.9492Y-4.2
X3.9492Y-4.3
X3.9492Y-4.4
X3.9492Y-4.5
X3.9492Y-4.6
X3.9492Y-4.7
X3.9492Y-4.8
X3.9492Y-4.9
X3.9492Y-5.0
X3.9492Y-5.1
X3.9492Y-5.2
X3.9492Y-5.3
X3.9492Y-5.4
X3.9492Y-5.5
X3.9492Y-5.6
X3.9492Y-5.7
X3.9492Y-5.8
X3.9492Y-5.9
X3.9492Y-6.0
X4.0492Y-2.6
X4.0492Y-2.7
X4.0492Y-2.8
X4.0492Y-2.9
X4.0492Y-3.0
X4.0492Y-3.1
X4.0492Y-3.2
X4.0492Y-3.3
X4.0492Y-3.4
X4.0492Y-3.5
X4.0492Y-3.6
X4.0492Y-3.7
X4.0492Y-3.8
X4.0492Y-3.9
X4.0492Y-4.0
X4.0492Y-4.1
X4.0492Y-4.2
X4.0492Y-4.3
X4.0492Y-4.4
X4.0492Y-4.5
X4.0492Y-4.6
X4.0492Y-4.7
X4.0492Y-4.8
X4.0492Y-4.9
X4.0492Y-5.0
X4.0492Y-5.1
X4.0492Y-5.2
X4.0492Y-5.3
X4.0492Y-5.4
X4.0492Y-5.5
X4.0492Y-5.6
X4.0492Y-5.7
X4.0492Y-5.8
X4.0492Y-5.9
X4.0492Y-6.0
X6.3Y-2.6
X6.3Y-2.7
X6.3Y-2.8
X6.3Y-2.9
X6.3Y-3.0
X6.3Y-3.1
X6.3Y-3.2
X6.3Y-3.3
X6.3Y-3.4
X6.3Y-3.5
X6.3Y-3.6
X6.3Y-3.7
X6.3Y-3.8
X6.3Y-3.9
X6.3Y-4.0
X6.3Y-4.1
X6.3Y-4.2
X6.3Y-4.3
X6.3Y-4.4
X6.3Y-4.5
X6.3Y-4.6
X6.3Y-4.7
X6.3Y-4.8
X6.3Y-4.9
X6.3Y-5.0
X6.3Y-5.1
X6.3Y-5.2
X6.3Y-5.3
X6.3Y-5.4
X6.3Y-5.5
X6.3Y-5.6
X6.3Y-5.7
X6.3Y-5.8
X6.3Y-5.9
X6.3Y-6.0
X6.4Y-2.6
X6.4Y-2.7
X6.4Y-2.8
X6.4Y-2.9
X6.4Y-3.0
X6.4Y-3.1
X6.4Y-3.2
X6.4Y-3.3
X6.4Y-3.4
X6.4Y-3.5
X6.4Y-3.6
X6.4Y-3.7
X6.4Y-3.8
X6.4Y-3.9
X6.4Y-4.0
X6.4Y-4.1
X6.4Y-4.2
X6.4Y-4.3
X6.4Y-4.4
X6.4Y-4.5
X6.4Y-4.6
X6.4Y-4.7
X6.4Y-4.8
X6.4Y-4.9
X6.4Y-5.0
X6.4Y-5.1
X6.4Y-5.2
X6.4Y-5.3
X6.4Y-5.4
X6.4Y-5.5
X6.4Y-5.6
X6.4Y-5.7
X6.4Y-5.8
X6.4Y-5.9
X6.4Y-6.0
T6
X4.884Y-5.5469
X5.5041Y-5.5469
T7
X4.969Y-5.6669
X5.419Y-5.6669
T0
M30
