M48
; DRILL file {KiCad 7.0.1-3b83917a11~172~ubuntu22.04.1} date 2023年04月09日 22時29分53秒
; FORMAT={-:-/ absolute / metric / decimal}
; #@! TF.CreationDate,2023-04-09T22:29:53+09:00
; #@! TF.GenerationSoftware,Kicad,Pcbnew,7.0.1-3b83917a11~172~ubuntu22.04.1
; #@! TF.FileFunction,MixedPlating,1,4
FMAT,2
METRIC
; #@! TA.AperFunction,Plated,PTH,ViaDrill
T1C0.200
; #@! TA.AperFunction,Plated,PTH,ViaDrill
T2C0.400
; #@! TA.AperFunction,Plated,PTH,ComponentDrill
T3C0.889
; #@! TA.AperFunction,Plated,PTH,ComponentDrill
T4C0.900
; #@! TA.AperFunction,Plated,PTH,ComponentDrill
T5C1.000
; #@! TA.AperFunction,Plated,PTH,ComponentDrill
T6C1.600
; #@! TA.AperFunction,Plated,PTH,ComponentDrill
T7C3.251
%
G90
G05
T1
X112.189Y-121.779
X113.421Y-115.049
X114.042Y-117.295
X115.136Y-114.891
X115.855Y-124.206
X115.936Y-114.804
X116.099Y-120.114
X116.709Y-118.721
X116.976Y-122.801
X117.089Y-106.076
X117.381Y-110.451
X118.247Y-125.157
X119.612Y-116.65
X119.637Y-109.433
X120.114Y-115.301
X120.25Y-107.65
X120.358Y-129.124
X121.285Y-115.808
X122.0Y-110.25
X122.211Y-111.252
X122.402Y-102.003
X122.569Y-116.199
X122.761Y-133.874
X122.956Y-108.031
X123.057Y-97.253
X123.057Y-106.127
X123.194Y-112.672
X123.375Y-117.914
X123.503Y-128.074
X123.503Y-137.864
X123.523Y-121.378
X123.76Y-112.107
X124.379Y-106.517
X124.684Y-113.588
X124.981Y-115.624
X125.684Y-105.55
X125.744Y-117.426
X125.994Y-118.747
X126.5Y-111.0
X126.974Y-115.899
X127.0Y-107.315
X127.138Y-105.968
X127.41Y-103.224
X128.207Y-105.4
X128.231Y-103.496
X128.27Y-115.039
X128.275Y-120.769
X128.275Y-122.045
X129.273Y-119.396
X129.512Y-100.765
X130.2Y-115.994
X130.5Y-102.5
X130.81Y-121.231
X131.349Y-122.736
X131.445Y-100.965
X131.671Y-117.948
X132.324Y-116.0
X132.573Y-100.529
X133.206Y-84.59
X133.206Y-99.394
X133.35Y-120.121
X133.824Y-104.0
X134.25Y-116.0
X135.118Y-104.894
X135.448Y-119.89
X135.583Y-101.652
X135.918Y-104.759
X136.25Y-115.75
X136.255Y-92.43
X136.75Y-107.01
X136.805Y-127.889
X136.858Y-123.75
X136.88Y-102.414
X137.5Y-107.25
X137.669Y-113.084
X137.75Y-114.75
X138.171Y-120.34
X139.227Y-106.844
X139.305Y-107.805
X139.7Y-135.89
X140.233Y-108.267
X141.453Y-109.372
X141.605Y-121.285
X142.355Y-144.049
X142.524Y-121.606
X144.092Y-109.646
X154.282Y-144.047
X156.403Y-131.989
T2
X109.25Y-83.75
X130.0Y-109.0
X130.0Y-111.0
X132.0Y-109.0
X132.0Y-111.0
X134.0Y-109.0
X134.0Y-111.0
T3
X125.73Y-148.84
X127.483Y-137.59
X128.27Y-147.32
X128.753Y-135.05
X130.023Y-137.59
X131.293Y-135.05
X132.563Y-137.59
X133.833Y-135.05
X135.103Y-137.59
X135.586Y-148.84
X136.373Y-135.05
X138.126Y-147.32
T4
X149.86Y-144.78
X149.86Y-147.32
T5
X100.31Y-66.04
X100.31Y-68.58
X100.31Y-71.12
X100.31Y-73.66
X100.31Y-76.2
X100.31Y-78.74
X100.31Y-81.28
X100.31Y-83.82
X100.31Y-86.36
X100.31Y-88.9
X100.31Y-91.44
X100.31Y-93.98
X100.31Y-96.52
X100.31Y-99.06
X100.31Y-101.6
X100.31Y-104.14
X100.31Y-106.68
X100.31Y-109.22
X100.31Y-111.76
X100.31Y-114.3
X100.31Y-116.84
X100.31Y-119.38
X100.31Y-121.92
X100.31Y-124.46
X100.31Y-127.0
X100.31Y-129.54
X100.31Y-132.08
X100.31Y-134.62
X100.31Y-137.16
X100.31Y-139.7
X100.31Y-142.24
X100.31Y-144.78
X100.31Y-147.32
X100.31Y-149.86
X100.31Y-152.4
X102.85Y-66.04
X102.85Y-68.58
X102.85Y-71.12
X102.85Y-73.66
X102.85Y-76.2
X102.85Y-78.74
X102.85Y-81.28
X102.85Y-83.82
X102.85Y-86.36
X102.85Y-88.9
X102.85Y-91.44
X102.85Y-93.98
X102.85Y-96.52
X102.85Y-99.06
X102.85Y-101.6
X102.85Y-104.14
X102.85Y-106.68
X102.85Y-109.22
X102.85Y-111.76
X102.85Y-114.3
X102.85Y-116.84
X102.85Y-119.38
X102.85Y-121.92
X102.85Y-124.46
X102.85Y-127.0
X102.85Y-129.54
X102.85Y-132.08
X102.85Y-134.62
X102.85Y-137.16
X102.85Y-139.7
X102.85Y-142.24
X102.85Y-144.78
X102.85Y-147.32
X102.85Y-149.86
X102.85Y-152.4
X160.02Y-66.04
X160.02Y-68.58
X160.02Y-71.12
X160.02Y-73.66
X160.02Y-76.2
X160.02Y-78.74
X160.02Y-81.28
X160.02Y-83.82
X160.02Y-86.36
X160.02Y-88.9
X160.02Y-91.44
X160.02Y-93.98
X160.02Y-96.52
X160.02Y-99.06
X160.02Y-101.6
X160.02Y-104.14
X160.02Y-106.68
X160.02Y-109.22
X160.02Y-111.76
X160.02Y-114.3
X160.02Y-116.84
X160.02Y-119.38
X160.02Y-121.92
X160.02Y-124.46
X160.02Y-127.0
X160.02Y-129.54
X160.02Y-132.08
X160.02Y-134.62
X160.02Y-137.16
X160.02Y-139.7
X160.02Y-142.24
X160.02Y-144.78
X160.02Y-147.32
X160.02Y-149.86
X160.02Y-152.4
X162.56Y-66.04
X162.56Y-68.58
X162.56Y-71.12
X162.56Y-73.66
X162.56Y-76.2
X162.56Y-78.74
X162.56Y-81.28
X162.56Y-83.82
X162.56Y-86.36
X162.56Y-88.9
X162.56Y-91.44
X162.56Y-93.98
X162.56Y-96.52
X162.56Y-99.06
X162.56Y-101.6
X162.56Y-104.14
X162.56Y-106.68
X162.56Y-109.22
X162.56Y-111.76
X162.56Y-114.3
X162.56Y-116.84
X162.56Y-119.38
X162.56Y-121.92
X162.56Y-124.46
X162.56Y-127.0
X162.56Y-129.54
X162.56Y-132.08
X162.56Y-134.62
X162.56Y-137.16
X162.56Y-139.7
X162.56Y-142.24
X162.56Y-144.78
X162.56Y-147.32
X162.56Y-149.86
X162.56Y-152.4
T6
X124.053Y-140.89
X139.803Y-140.89
T7
X126.213Y-143.94
X137.643Y-143.94
T0
M30
