G04 #@! TF.GenerationSoftware,KiCad,Pcbnew,7.0.1-3b83917a11~172~ubuntu22.04.1*
G04 #@! TF.CreationDate,2023-04-09T22:29:48+09:00*
G04 #@! TF.ProjectId,Akashi-13,416b6173-6869-42d3-9133-2e6b69636164,rev?*
G04 #@! TF.SameCoordinates,Original*
G04 #@! TF.FileFunction,Copper,L2,Inr*
G04 #@! TF.FilePolarity,Positive*
%FSLAX46Y46*%
G04 Gerber Fmt 4.6, Leading zero omitted, Abs format (unit mm)*
G04 Created by KiCad (PCBNEW 7.0.1-3b83917a11~172~ubuntu22.04.1) date 2023-04-09 22:29:48*
%MOMM*%
%LPD*%
G01*
G04 APERTURE LIST*
G04 #@! TA.AperFunction,ComponentPad*
%ADD10R,1.800000X1.800000*%
G04 #@! TD*
G04 #@! TA.AperFunction,ComponentPad*
%ADD11C,1.800000*%
G04 #@! TD*
G04 #@! TA.AperFunction,ComponentPad*
%ADD12C,1.397000*%
G04 #@! TD*
G04 #@! TA.AperFunction,ComponentPad*
%ADD13C,3.759200*%
G04 #@! TD*
G04 #@! TA.AperFunction,ComponentPad*
%ADD14C,2.108200*%
G04 #@! TD*
G04 #@! TA.AperFunction,ComponentPad*
%ADD15R,1.700000X1.700000*%
G04 #@! TD*
G04 #@! TA.AperFunction,ComponentPad*
%ADD16O,1.700000X1.700000*%
G04 #@! TD*
G04 #@! TA.AperFunction,ViaPad*
%ADD17C,0.800000*%
G04 #@! TD*
G04 #@! TA.AperFunction,ViaPad*
%ADD18C,0.600000*%
G04 #@! TD*
G04 #@! TA.AperFunction,ViaPad*
%ADD19C,0.500000*%
G04 #@! TD*
G04 APERTURE END LIST*
D10*
X149860000Y-144780000D03*
D11*
X149860000Y-147320000D03*
D12*
X127483000Y-137590000D03*
X128753000Y-135050000D03*
X130023000Y-137590000D03*
X131293000Y-135050000D03*
X132563000Y-137590000D03*
X133833000Y-135050000D03*
X135103000Y-137590000D03*
X136373000Y-135050000D03*
X125730000Y-148840000D03*
X128270000Y-147320000D03*
X135586000Y-148840000D03*
X138126000Y-147320000D03*
D13*
X137643000Y-143940000D03*
X126213000Y-143940000D03*
D14*
X139802998Y-140890000D03*
X124053002Y-140890000D03*
D15*
X160020000Y-66040000D03*
D16*
X162560000Y-66040000D03*
X160020000Y-68580000D03*
X162560000Y-68580000D03*
X160020000Y-71120000D03*
X162560000Y-71120000D03*
X160020000Y-73660000D03*
X162560000Y-73660000D03*
X160020000Y-76200000D03*
X162560000Y-76200000D03*
X160020000Y-78740000D03*
X162560000Y-78740000D03*
X160020000Y-81280000D03*
X162560000Y-81280000D03*
X160020000Y-83820000D03*
X162560000Y-83820000D03*
X160020000Y-86360000D03*
X162560000Y-86360000D03*
X160020000Y-88900000D03*
X162560000Y-88900000D03*
X160020000Y-91440000D03*
X162560000Y-91440000D03*
X160020000Y-93980000D03*
X162560000Y-93980000D03*
X160020000Y-96520000D03*
X162560000Y-96520000D03*
X160020000Y-99060000D03*
X162560000Y-99060000D03*
X160020000Y-101600000D03*
X162560000Y-101600000D03*
X160020000Y-104140000D03*
X162560000Y-104140000D03*
X160020000Y-106680000D03*
X162560000Y-106680000D03*
X160020000Y-109220000D03*
X162560000Y-109220000D03*
X160020000Y-111760000D03*
X162560000Y-111760000D03*
X160020000Y-114300000D03*
X162560000Y-114300000D03*
X160020000Y-116840000D03*
X162560000Y-116840000D03*
X160020000Y-119380000D03*
X162560000Y-119380000D03*
X160020000Y-121920000D03*
X162560000Y-121920000D03*
X160020000Y-124460000D03*
X162560000Y-124460000D03*
X160020000Y-127000000D03*
X162560000Y-127000000D03*
X160020000Y-129540000D03*
X162560000Y-129540000D03*
X160020000Y-132080000D03*
X162560000Y-132080000D03*
X160020000Y-134620000D03*
X162560000Y-134620000D03*
X160020000Y-137160000D03*
X162560000Y-137160000D03*
X160020000Y-139700000D03*
X162560000Y-139700000D03*
X160020000Y-142240000D03*
X162560000Y-142240000D03*
X160020000Y-144780000D03*
X162560000Y-144780000D03*
X160020000Y-147320000D03*
X162560000Y-147320000D03*
X160020000Y-149860000D03*
X162560000Y-149860000D03*
X160020000Y-152400000D03*
X162560000Y-152400000D03*
D15*
X100310000Y-66040000D03*
D16*
X102850000Y-66040000D03*
X100310000Y-68580000D03*
X102850000Y-68580000D03*
X100310000Y-71120000D03*
X102850000Y-71120000D03*
X100310000Y-73660000D03*
X102850000Y-73660000D03*
X100310000Y-76200000D03*
X102850000Y-76200000D03*
X100310000Y-78740000D03*
X102850000Y-78740000D03*
X100310000Y-81280000D03*
X102850000Y-81280000D03*
X100310000Y-83820000D03*
X102850000Y-83820000D03*
X100310000Y-86360000D03*
X102850000Y-86360000D03*
X100310000Y-88900000D03*
X102850000Y-88900000D03*
X100310000Y-91440000D03*
X102850000Y-91440000D03*
X100310000Y-93980000D03*
X102850000Y-93980000D03*
X100310000Y-96520000D03*
X102850000Y-96520000D03*
X100310000Y-99060000D03*
X102850000Y-99060000D03*
X100310000Y-101600000D03*
X102850000Y-101600000D03*
X100310000Y-104140000D03*
X102850000Y-104140000D03*
X100310000Y-106680000D03*
X102850000Y-106680000D03*
X100310000Y-109220000D03*
X102850000Y-109220000D03*
X100310000Y-111760000D03*
X102850000Y-111760000D03*
X100310000Y-114300000D03*
X102850000Y-114300000D03*
X100310000Y-116840000D03*
X102850000Y-116840000D03*
X100310000Y-119380000D03*
X102850000Y-119380000D03*
X100310000Y-121920000D03*
X102850000Y-121920000D03*
X100310000Y-124460000D03*
X102850000Y-124460000D03*
X100310000Y-127000000D03*
X102850000Y-127000000D03*
X100310000Y-129540000D03*
X102850000Y-129540000D03*
X100310000Y-132080000D03*
X102850000Y-132080000D03*
X100310000Y-134620000D03*
X102850000Y-134620000D03*
X100310000Y-137160000D03*
X102850000Y-137160000D03*
X100310000Y-139700000D03*
X102850000Y-139700000D03*
X100310000Y-142240000D03*
X102850000Y-142240000D03*
X100310000Y-144780000D03*
X102850000Y-144780000D03*
X100310000Y-147320000D03*
X102850000Y-147320000D03*
X100310000Y-149860000D03*
X102850000Y-149860000D03*
X100310000Y-152400000D03*
X102850000Y-152400000D03*
D17*
X134000000Y-109000000D03*
X130000000Y-111000000D03*
X132000000Y-111000000D03*
X134000000Y-111000000D03*
X132000000Y-109000000D03*
X130000000Y-109000000D03*
D18*
X130810000Y-121230700D03*
X116975700Y-122801400D03*
X126974300Y-115898900D03*
D17*
X109250000Y-83750000D03*
D18*
X125994200Y-118747000D03*
D19*
X137500000Y-107250000D03*
D18*
X123523500Y-121377600D03*
X136880200Y-102414100D03*
X120358100Y-129124100D03*
X138171000Y-120340200D03*
D19*
X136750000Y-107010000D03*
D18*
X123760200Y-112107300D03*
X124684500Y-113587800D03*
X115136300Y-114890800D03*
X129272500Y-119396400D03*
X139304781Y-107804781D03*
X140233300Y-108267000D03*
X120113700Y-115300900D03*
X121285000Y-115807900D03*
X132573400Y-100529400D03*
X133206200Y-84589600D03*
X133206200Y-99393900D03*
X142523600Y-121606000D03*
X156402700Y-131988900D03*
X141453100Y-109371900D03*
X123057500Y-97252600D03*
X123057500Y-106127300D03*
X124379200Y-106517300D03*
X122956200Y-108030900D03*
X117381100Y-110451500D03*
X117088600Y-106075900D03*
X122210700Y-111252000D03*
X119637300Y-109432700D03*
X122401800Y-102002700D03*
X128206700Y-105400300D03*
X144092000Y-109646400D03*
X139227000Y-106844100D03*
X122000000Y-110250000D03*
X128230700Y-103496300D03*
X129511600Y-100764900D03*
X127410300Y-103224100D03*
X131445000Y-100965000D03*
X125684200Y-105549800D03*
X127137800Y-105968100D03*
X141605000Y-121285000D03*
X128270000Y-115039200D03*
X112189000Y-121778900D03*
X136805400Y-127889000D03*
X135447700Y-119889800D03*
D19*
X133824000Y-104000000D03*
D18*
X131671400Y-117947600D03*
D19*
X136250000Y-115750000D03*
D18*
X118247500Y-125157000D03*
X123502800Y-137863700D03*
D19*
X130500000Y-102500000D03*
D18*
X136857700Y-123750500D03*
X120249900Y-107649600D03*
X154281600Y-144046700D03*
D19*
X137750000Y-114750000D03*
D18*
X142354800Y-144049200D03*
X135583000Y-101652000D03*
X123502800Y-128074100D03*
D19*
X127000000Y-107315000D03*
D18*
X122761100Y-133874100D03*
D19*
X130200000Y-115994000D03*
X126500000Y-111000000D03*
D18*
X122568500Y-116198800D03*
X128275200Y-122045400D03*
X123374700Y-117913900D03*
X131348800Y-122736500D03*
D19*
X137669000Y-113084000D03*
X134250000Y-116000000D03*
D18*
X139700000Y-135890000D03*
X128275200Y-120769300D03*
X133350000Y-120121500D03*
X113421300Y-115049400D03*
X115936500Y-114804300D03*
X123193600Y-112672300D03*
X114042000Y-117294600D03*
X116099300Y-120114200D03*
X124981500Y-115624300D03*
D19*
X132324000Y-116000000D03*
D18*
X119611700Y-116650000D03*
X116709200Y-118721500D03*
X115854500Y-124206100D03*
X125744400Y-117426400D03*
X135917700Y-104758600D03*
X135117500Y-104893700D03*
X136255100Y-92429900D03*
G04 #@! TA.AperFunction,Conductor*
G36*
X111063000Y-64151613D02*
G01*
X111108387Y-64197000D01*
X111125000Y-64259000D01*
X111125000Y-78105000D01*
X151765000Y-78105000D01*
X151765000Y-64259000D01*
X151781613Y-64197000D01*
X151827000Y-64151613D01*
X151889000Y-64135000D01*
X164341000Y-64135000D01*
X164403000Y-64151613D01*
X164448387Y-64197000D01*
X164465000Y-64259000D01*
X164465000Y-154181000D01*
X164448387Y-154243000D01*
X164403000Y-154288387D01*
X164341000Y-154305000D01*
X98549000Y-154305000D01*
X98487000Y-154288387D01*
X98441613Y-154243000D01*
X98425000Y-154181000D01*
X98425000Y-152400000D01*
X98954340Y-152400000D01*
X98974936Y-152635407D01*
X99019709Y-152802502D01*
X99036097Y-152863663D01*
X99135965Y-153077830D01*
X99271505Y-153271401D01*
X99438599Y-153438495D01*
X99632170Y-153574035D01*
X99846337Y-153673903D01*
X100074591Y-153735062D01*
X100074592Y-153735063D01*
X100309999Y-153755659D01*
X100309999Y-153755658D01*
X100310000Y-153755659D01*
X100545408Y-153735063D01*
X100773663Y-153673903D01*
X100987830Y-153574035D01*
X101181401Y-153438495D01*
X101348495Y-153271401D01*
X101478426Y-153085839D01*
X101522743Y-153046975D01*
X101580000Y-153032964D01*
X101637257Y-153046975D01*
X101681573Y-153085839D01*
X101811505Y-153271401D01*
X101978599Y-153438495D01*
X102172170Y-153574035D01*
X102386337Y-153673903D01*
X102614591Y-153735062D01*
X102614592Y-153735063D01*
X102849999Y-153755659D01*
X102849999Y-153755658D01*
X102850000Y-153755659D01*
X103085408Y-153735063D01*
X103313663Y-153673903D01*
X103527830Y-153574035D01*
X103721401Y-153438495D01*
X103888495Y-153271401D01*
X104024035Y-153077830D01*
X104123903Y-152863663D01*
X104185063Y-152635408D01*
X104205659Y-152400000D01*
X104205659Y-152399999D01*
X158664340Y-152399999D01*
X158684936Y-152635407D01*
X158729709Y-152802501D01*
X158746097Y-152863663D01*
X158845965Y-153077830D01*
X158981505Y-153271401D01*
X159148599Y-153438495D01*
X159342170Y-153574035D01*
X159556337Y-153673903D01*
X159784591Y-153735062D01*
X159784592Y-153735063D01*
X160019999Y-153755659D01*
X160019999Y-153755658D01*
X160020000Y-153755659D01*
X160255408Y-153735063D01*
X160483663Y-153673903D01*
X160697830Y-153574035D01*
X160891401Y-153438495D01*
X161058495Y-153271401D01*
X161188426Y-153085839D01*
X161232743Y-153046975D01*
X161290000Y-153032964D01*
X161347257Y-153046975D01*
X161391573Y-153085839D01*
X161521505Y-153271401D01*
X161688599Y-153438495D01*
X161882170Y-153574035D01*
X162096337Y-153673903D01*
X162324591Y-153735062D01*
X162324592Y-153735063D01*
X162559999Y-153755659D01*
X162559999Y-153755658D01*
X162560000Y-153755659D01*
X162795408Y-153735063D01*
X163023663Y-153673903D01*
X163237830Y-153574035D01*
X163431401Y-153438495D01*
X163598495Y-153271401D01*
X163734035Y-153077830D01*
X163833903Y-152863663D01*
X163895063Y-152635408D01*
X163915659Y-152400000D01*
X163895063Y-152164592D01*
X163833903Y-151936337D01*
X163734035Y-151722171D01*
X163598495Y-151528599D01*
X163431401Y-151361505D01*
X163245839Y-151231573D01*
X163206975Y-151187257D01*
X163192964Y-151130000D01*
X163206975Y-151072743D01*
X163245839Y-151028426D01*
X163431401Y-150898495D01*
X163598495Y-150731401D01*
X163734035Y-150537830D01*
X163833903Y-150323663D01*
X163895063Y-150095408D01*
X163915659Y-149860000D01*
X163895063Y-149624592D01*
X163833903Y-149396337D01*
X163734035Y-149182171D01*
X163598495Y-148988599D01*
X163431401Y-148821505D01*
X163245839Y-148691573D01*
X163206975Y-148647257D01*
X163192964Y-148590000D01*
X163206975Y-148532743D01*
X163245839Y-148488426D01*
X163431401Y-148358495D01*
X163598495Y-148191401D01*
X163734035Y-147997830D01*
X163833903Y-147783663D01*
X163895063Y-147555408D01*
X163915659Y-147320000D01*
X163895063Y-147084592D01*
X163833903Y-146856337D01*
X163734035Y-146642171D01*
X163598495Y-146448599D01*
X163431401Y-146281505D01*
X163245839Y-146151573D01*
X163206976Y-146107257D01*
X163192965Y-146050000D01*
X163206976Y-145992743D01*
X163245839Y-145948426D01*
X163431401Y-145818495D01*
X163598495Y-145651401D01*
X163734035Y-145457830D01*
X163833903Y-145243663D01*
X163895063Y-145015408D01*
X163915659Y-144780000D01*
X163895063Y-144544592D01*
X163833903Y-144316337D01*
X163734035Y-144102171D01*
X163598495Y-143908599D01*
X163431401Y-143741505D01*
X163245839Y-143611573D01*
X163206975Y-143567257D01*
X163192964Y-143510000D01*
X163206975Y-143452743D01*
X163245839Y-143408426D01*
X163431401Y-143278495D01*
X163598495Y-143111401D01*
X163734035Y-142917830D01*
X163833903Y-142703663D01*
X163895063Y-142475408D01*
X163915659Y-142240000D01*
X163908176Y-142154476D01*
X163895063Y-142004592D01*
X163860165Y-141874350D01*
X163833903Y-141776337D01*
X163734035Y-141562171D01*
X163598495Y-141368599D01*
X163431401Y-141201505D01*
X163245839Y-141071573D01*
X163206975Y-141027257D01*
X163192964Y-140970000D01*
X163206975Y-140912743D01*
X163245839Y-140868426D01*
X163431401Y-140738495D01*
X163598495Y-140571401D01*
X163734035Y-140377830D01*
X163833903Y-140163663D01*
X163895063Y-139935408D01*
X163915659Y-139700000D01*
X163895063Y-139464592D01*
X163833903Y-139236337D01*
X163734035Y-139022171D01*
X163598495Y-138828599D01*
X163431401Y-138661505D01*
X163245839Y-138531573D01*
X163206974Y-138487255D01*
X163192964Y-138429999D01*
X163206975Y-138372742D01*
X163245837Y-138328428D01*
X163431401Y-138198495D01*
X163598495Y-138031401D01*
X163734035Y-137837830D01*
X163833903Y-137623663D01*
X163895063Y-137395408D01*
X163915659Y-137160000D01*
X163895063Y-136924592D01*
X163833903Y-136696337D01*
X163734035Y-136482171D01*
X163598495Y-136288599D01*
X163431401Y-136121505D01*
X163245839Y-135991573D01*
X163206975Y-135947257D01*
X163192964Y-135890000D01*
X163206975Y-135832743D01*
X163245839Y-135788426D01*
X163431401Y-135658495D01*
X163598495Y-135491401D01*
X163734035Y-135297830D01*
X163833903Y-135083663D01*
X163895063Y-134855408D01*
X163915659Y-134620000D01*
X163895063Y-134384592D01*
X163833903Y-134156337D01*
X163734035Y-133942171D01*
X163598495Y-133748599D01*
X163431401Y-133581505D01*
X163245402Y-133451267D01*
X163206539Y-133406951D01*
X163192528Y-133349694D01*
X163206539Y-133292437D01*
X163245405Y-133248119D01*
X163431078Y-133118109D01*
X163598106Y-132951081D01*
X163733600Y-132757576D01*
X163833430Y-132543492D01*
X163890636Y-132330000D01*
X162434000Y-132330000D01*
X162372000Y-132313387D01*
X162326613Y-132268000D01*
X162310000Y-132206000D01*
X162310000Y-131954000D01*
X162326613Y-131892000D01*
X162372000Y-131846613D01*
X162434000Y-131830000D01*
X163890636Y-131830000D01*
X163890635Y-131829999D01*
X163833430Y-131616507D01*
X163733599Y-131402421D01*
X163598109Y-131208921D01*
X163431081Y-131041893D01*
X163245404Y-130911880D01*
X163206539Y-130867562D01*
X163192528Y-130810305D01*
X163206539Y-130753048D01*
X163245402Y-130708732D01*
X163431401Y-130578495D01*
X163598495Y-130411401D01*
X163734035Y-130217830D01*
X163833903Y-130003663D01*
X163895063Y-129775408D01*
X163915659Y-129540000D01*
X163895063Y-129304592D01*
X163833903Y-129076337D01*
X163734035Y-128862171D01*
X163598495Y-128668599D01*
X163431401Y-128501505D01*
X163245839Y-128371573D01*
X163206976Y-128327257D01*
X163192965Y-128270000D01*
X163206976Y-128212743D01*
X163245839Y-128168426D01*
X163431401Y-128038495D01*
X163598495Y-127871401D01*
X163734035Y-127677830D01*
X163833903Y-127463663D01*
X163895063Y-127235408D01*
X163915659Y-127000000D01*
X163895063Y-126764592D01*
X163833903Y-126536337D01*
X163734035Y-126322171D01*
X163598495Y-126128599D01*
X163431401Y-125961505D01*
X163245839Y-125831573D01*
X163206975Y-125787257D01*
X163192964Y-125730000D01*
X163206975Y-125672743D01*
X163245839Y-125628426D01*
X163431401Y-125498495D01*
X163598495Y-125331401D01*
X163734035Y-125137830D01*
X163833903Y-124923663D01*
X163895063Y-124695408D01*
X163915659Y-124460000D01*
X163906160Y-124351434D01*
X163895063Y-124224592D01*
X163842077Y-124026845D01*
X163833903Y-123996337D01*
X163734035Y-123782171D01*
X163598495Y-123588599D01*
X163431401Y-123421505D01*
X163245839Y-123291573D01*
X163206975Y-123247257D01*
X163192964Y-123190000D01*
X163206975Y-123132743D01*
X163245839Y-123088426D01*
X163431401Y-122958495D01*
X163598495Y-122791401D01*
X163734035Y-122597830D01*
X163833903Y-122383663D01*
X163895063Y-122155408D01*
X163915659Y-121920000D01*
X163895063Y-121684592D01*
X163833903Y-121456337D01*
X163734035Y-121242171D01*
X163598495Y-121048599D01*
X163431401Y-120881505D01*
X163245839Y-120751573D01*
X163206974Y-120707255D01*
X163192964Y-120649999D01*
X163206975Y-120592742D01*
X163245837Y-120548428D01*
X163431401Y-120418495D01*
X163598495Y-120251401D01*
X163734035Y-120057830D01*
X163833903Y-119843663D01*
X163895063Y-119615408D01*
X163915659Y-119380000D01*
X163895063Y-119144592D01*
X163833903Y-118916337D01*
X163734035Y-118702171D01*
X163598495Y-118508599D01*
X163431401Y-118341505D01*
X163245839Y-118211573D01*
X163206974Y-118167255D01*
X163192964Y-118109999D01*
X163206975Y-118052742D01*
X163245837Y-118008428D01*
X163431401Y-117878495D01*
X163598495Y-117711401D01*
X163734035Y-117517830D01*
X163833903Y-117303663D01*
X163895063Y-117075408D01*
X163915659Y-116840000D01*
X163895063Y-116604592D01*
X163833903Y-116376337D01*
X163734035Y-116162171D01*
X163598495Y-115968599D01*
X163431401Y-115801505D01*
X163245839Y-115671573D01*
X163206975Y-115627257D01*
X163192964Y-115570000D01*
X163206975Y-115512743D01*
X163245839Y-115468426D01*
X163431401Y-115338495D01*
X163598495Y-115171401D01*
X163734035Y-114977830D01*
X163833903Y-114763663D01*
X163895063Y-114535408D01*
X163915659Y-114300000D01*
X163895063Y-114064592D01*
X163833903Y-113836337D01*
X163734035Y-113622171D01*
X163598495Y-113428599D01*
X163431401Y-113261505D01*
X163245839Y-113131573D01*
X163206975Y-113087257D01*
X163192964Y-113030000D01*
X163206975Y-112972743D01*
X163245839Y-112928426D01*
X163431401Y-112798495D01*
X163598495Y-112631401D01*
X163734035Y-112437830D01*
X163833903Y-112223663D01*
X163895063Y-111995408D01*
X163915659Y-111760000D01*
X163895063Y-111524592D01*
X163833903Y-111296337D01*
X163734035Y-111082171D01*
X163598495Y-110888599D01*
X163431401Y-110721505D01*
X163245839Y-110591573D01*
X163206975Y-110547257D01*
X163192964Y-110490000D01*
X163206975Y-110432743D01*
X163245839Y-110388426D01*
X163431401Y-110258495D01*
X163598495Y-110091401D01*
X163734035Y-109897830D01*
X163833903Y-109683663D01*
X163895063Y-109455408D01*
X163915659Y-109220000D01*
X163895063Y-108984592D01*
X163833903Y-108756337D01*
X163734035Y-108542171D01*
X163598495Y-108348599D01*
X163431401Y-108181505D01*
X163245839Y-108051573D01*
X163206975Y-108007257D01*
X163192964Y-107950000D01*
X163206975Y-107892743D01*
X163245839Y-107848426D01*
X163431401Y-107718495D01*
X163598495Y-107551401D01*
X163734035Y-107357830D01*
X163833903Y-107143663D01*
X163895063Y-106915408D01*
X163915659Y-106680000D01*
X163895063Y-106444592D01*
X163833903Y-106216337D01*
X163734035Y-106002171D01*
X163598495Y-105808599D01*
X163431401Y-105641505D01*
X163245402Y-105511267D01*
X163206539Y-105466951D01*
X163192528Y-105409694D01*
X163206539Y-105352437D01*
X163245405Y-105308119D01*
X163431078Y-105178109D01*
X163598106Y-105011081D01*
X163733600Y-104817576D01*
X163833430Y-104603492D01*
X163890636Y-104390000D01*
X162434000Y-104390000D01*
X162372000Y-104373387D01*
X162326613Y-104328000D01*
X162310000Y-104266000D01*
X162310000Y-104014000D01*
X162326613Y-103952000D01*
X162372000Y-103906613D01*
X162434000Y-103890000D01*
X163890636Y-103890000D01*
X163890635Y-103889999D01*
X163833430Y-103676507D01*
X163733599Y-103462421D01*
X163598109Y-103268921D01*
X163431081Y-103101893D01*
X163245404Y-102971880D01*
X163206539Y-102927562D01*
X163192528Y-102870305D01*
X163206539Y-102813048D01*
X163245402Y-102768732D01*
X163431401Y-102638495D01*
X163598495Y-102471401D01*
X163734035Y-102277830D01*
X163833903Y-102063663D01*
X163895063Y-101835408D01*
X163915659Y-101600000D01*
X163895063Y-101364592D01*
X163833903Y-101136337D01*
X163734035Y-100922171D01*
X163598495Y-100728599D01*
X163431401Y-100561505D01*
X163245839Y-100431573D01*
X163206974Y-100387255D01*
X163192964Y-100329999D01*
X163206975Y-100272742D01*
X163245837Y-100228428D01*
X163431401Y-100098495D01*
X163598495Y-99931401D01*
X163734035Y-99737830D01*
X163833903Y-99523663D01*
X163895063Y-99295408D01*
X163915659Y-99060000D01*
X163895063Y-98824592D01*
X163833903Y-98596337D01*
X163734035Y-98382171D01*
X163598495Y-98188599D01*
X163431401Y-98021505D01*
X163245839Y-97891573D01*
X163206976Y-97847257D01*
X163192965Y-97790000D01*
X163206976Y-97732743D01*
X163245839Y-97688426D01*
X163431401Y-97558495D01*
X163598495Y-97391401D01*
X163734035Y-97197830D01*
X163833903Y-96983663D01*
X163895063Y-96755408D01*
X163915659Y-96520000D01*
X163895063Y-96284592D01*
X163833903Y-96056337D01*
X163734035Y-95842171D01*
X163598495Y-95648599D01*
X163431401Y-95481505D01*
X163245839Y-95351573D01*
X163206975Y-95307257D01*
X163192964Y-95250000D01*
X163206975Y-95192743D01*
X163245839Y-95148426D01*
X163431401Y-95018495D01*
X163598495Y-94851401D01*
X163734035Y-94657830D01*
X163833903Y-94443663D01*
X163895063Y-94215408D01*
X163915659Y-93980000D01*
X163895063Y-93744592D01*
X163833903Y-93516337D01*
X163734035Y-93302171D01*
X163598495Y-93108599D01*
X163431401Y-92941505D01*
X163245839Y-92811573D01*
X163206974Y-92767255D01*
X163192964Y-92709999D01*
X163206975Y-92652742D01*
X163245837Y-92608428D01*
X163431401Y-92478495D01*
X163598495Y-92311401D01*
X163734035Y-92117830D01*
X163833903Y-91903663D01*
X163895063Y-91675408D01*
X163915659Y-91440000D01*
X163895063Y-91204592D01*
X163833903Y-90976337D01*
X163734035Y-90762171D01*
X163598495Y-90568599D01*
X163431401Y-90401505D01*
X163245402Y-90271267D01*
X163206539Y-90226951D01*
X163192528Y-90169694D01*
X163206539Y-90112437D01*
X163245405Y-90068119D01*
X163431078Y-89938109D01*
X163598106Y-89771081D01*
X163733600Y-89577576D01*
X163833430Y-89363492D01*
X163890636Y-89150000D01*
X162434000Y-89150000D01*
X162372000Y-89133387D01*
X162326613Y-89088000D01*
X162310000Y-89026000D01*
X162310000Y-88774000D01*
X162326613Y-88712000D01*
X162372000Y-88666613D01*
X162434000Y-88650000D01*
X163890636Y-88650000D01*
X163890635Y-88649999D01*
X163833430Y-88436507D01*
X163733599Y-88222421D01*
X163598109Y-88028921D01*
X163431081Y-87861893D01*
X163245404Y-87731880D01*
X163206539Y-87687562D01*
X163192528Y-87630305D01*
X163206539Y-87573048D01*
X163245402Y-87528732D01*
X163431401Y-87398495D01*
X163598495Y-87231401D01*
X163734035Y-87037830D01*
X163833903Y-86823663D01*
X163895063Y-86595408D01*
X163915659Y-86360000D01*
X163895063Y-86124592D01*
X163833903Y-85896337D01*
X163734035Y-85682171D01*
X163598495Y-85488599D01*
X163431401Y-85321505D01*
X163245839Y-85191573D01*
X163206975Y-85147257D01*
X163192964Y-85090000D01*
X163206975Y-85032743D01*
X163245839Y-84988426D01*
X163431401Y-84858495D01*
X163598495Y-84691401D01*
X163734035Y-84497830D01*
X163833903Y-84283663D01*
X163895063Y-84055408D01*
X163915659Y-83820000D01*
X163895063Y-83584592D01*
X163833903Y-83356337D01*
X163734035Y-83142171D01*
X163598495Y-82948599D01*
X163431401Y-82781505D01*
X163245839Y-82651573D01*
X163206975Y-82607257D01*
X163192964Y-82550000D01*
X163206975Y-82492743D01*
X163245839Y-82448426D01*
X163431401Y-82318495D01*
X163598495Y-82151401D01*
X163734035Y-81957830D01*
X163833903Y-81743663D01*
X163895063Y-81515408D01*
X163915659Y-81280000D01*
X163895063Y-81044592D01*
X163833903Y-80816337D01*
X163734035Y-80602171D01*
X163598495Y-80408599D01*
X163431401Y-80241505D01*
X163245839Y-80111573D01*
X163206976Y-80067257D01*
X163192965Y-80010000D01*
X163206976Y-79952743D01*
X163245839Y-79908426D01*
X163431401Y-79778495D01*
X163598495Y-79611401D01*
X163734035Y-79417830D01*
X163833903Y-79203663D01*
X163895063Y-78975408D01*
X163915659Y-78740000D01*
X163895063Y-78504592D01*
X163833903Y-78276337D01*
X163734035Y-78062171D01*
X163598495Y-77868599D01*
X163431401Y-77701505D01*
X163245839Y-77571573D01*
X163206975Y-77527257D01*
X163192964Y-77470000D01*
X163206975Y-77412743D01*
X163245839Y-77368426D01*
X163431401Y-77238495D01*
X163598495Y-77071401D01*
X163734035Y-76877830D01*
X163833903Y-76663663D01*
X163895063Y-76435408D01*
X163915659Y-76200000D01*
X163895063Y-75964592D01*
X163833903Y-75736337D01*
X163734035Y-75522171D01*
X163598495Y-75328599D01*
X163431401Y-75161505D01*
X163245839Y-75031573D01*
X163206975Y-74987257D01*
X163192964Y-74930000D01*
X163206975Y-74872743D01*
X163245839Y-74828426D01*
X163431401Y-74698495D01*
X163598495Y-74531401D01*
X163734035Y-74337830D01*
X163833903Y-74123663D01*
X163895063Y-73895408D01*
X163915659Y-73660000D01*
X163895063Y-73424592D01*
X163833903Y-73196337D01*
X163734035Y-72982171D01*
X163598495Y-72788599D01*
X163431401Y-72621505D01*
X163245839Y-72491573D01*
X163206975Y-72447257D01*
X163192964Y-72390000D01*
X163206975Y-72332743D01*
X163245839Y-72288426D01*
X163431401Y-72158495D01*
X163598495Y-71991401D01*
X163734035Y-71797830D01*
X163833903Y-71583663D01*
X163895063Y-71355408D01*
X163915659Y-71120000D01*
X163895063Y-70884592D01*
X163833903Y-70656337D01*
X163734035Y-70442171D01*
X163598495Y-70248599D01*
X163431401Y-70081505D01*
X163245839Y-69951573D01*
X163206975Y-69907257D01*
X163192964Y-69850000D01*
X163206975Y-69792743D01*
X163245839Y-69748426D01*
X163431401Y-69618495D01*
X163598495Y-69451401D01*
X163734035Y-69257830D01*
X163833903Y-69043663D01*
X163895063Y-68815408D01*
X163915659Y-68580000D01*
X163895063Y-68344592D01*
X163833903Y-68116337D01*
X163734035Y-67902171D01*
X163598495Y-67708599D01*
X163431401Y-67541505D01*
X163245839Y-67411573D01*
X163206975Y-67367257D01*
X163192964Y-67310000D01*
X163206975Y-67252743D01*
X163245839Y-67208426D01*
X163431401Y-67078495D01*
X163598495Y-66911401D01*
X163734035Y-66717830D01*
X163833903Y-66503663D01*
X163895063Y-66275408D01*
X163915659Y-66040000D01*
X163895063Y-65804592D01*
X163833903Y-65576337D01*
X163734035Y-65362171D01*
X163598495Y-65168599D01*
X163431401Y-65001505D01*
X163237830Y-64865965D01*
X163023663Y-64766097D01*
X162962502Y-64749709D01*
X162795407Y-64704936D01*
X162560000Y-64684340D01*
X162324592Y-64704936D01*
X162096336Y-64766097D01*
X161882170Y-64865965D01*
X161688601Y-65001503D01*
X161566673Y-65123431D01*
X161513926Y-65154726D01*
X161452634Y-65156915D01*
X161397789Y-65129462D01*
X161362810Y-65079082D01*
X161355658Y-65059907D01*
X161313796Y-64947669D01*
X161227546Y-64832454D01*
X161112331Y-64746204D01*
X160977483Y-64695909D01*
X160917873Y-64689500D01*
X160917869Y-64689500D01*
X159122130Y-64689500D01*
X159062515Y-64695909D01*
X158927669Y-64746204D01*
X158812454Y-64832454D01*
X158726204Y-64947668D01*
X158675909Y-65082516D01*
X158669500Y-65142130D01*
X158669500Y-66937869D01*
X158675909Y-66997484D01*
X158701056Y-67064906D01*
X158726204Y-67132331D01*
X158812454Y-67247546D01*
X158927669Y-67333796D01*
X159017383Y-67367257D01*
X159059082Y-67382810D01*
X159109462Y-67417789D01*
X159136915Y-67472634D01*
X159134726Y-67533926D01*
X159103431Y-67586673D01*
X158981503Y-67708601D01*
X158845965Y-67902170D01*
X158746097Y-68116336D01*
X158684936Y-68344592D01*
X158664340Y-68579999D01*
X158684936Y-68815407D01*
X158729709Y-68982501D01*
X158746097Y-69043663D01*
X158845965Y-69257830D01*
X158981505Y-69451401D01*
X159148599Y-69618495D01*
X159334160Y-69748426D01*
X159373024Y-69792743D01*
X159387035Y-69850000D01*
X159373024Y-69907257D01*
X159334159Y-69951575D01*
X159148595Y-70081508D01*
X158981505Y-70248598D01*
X158845965Y-70442170D01*
X158746097Y-70656336D01*
X158684936Y-70884592D01*
X158664340Y-71120000D01*
X158684936Y-71355407D01*
X158729709Y-71522502D01*
X158746097Y-71583663D01*
X158845965Y-71797830D01*
X158981505Y-71991401D01*
X159148599Y-72158495D01*
X159334160Y-72288426D01*
X159373024Y-72332743D01*
X159387035Y-72390000D01*
X159373024Y-72447257D01*
X159334159Y-72491575D01*
X159148595Y-72621508D01*
X158981505Y-72788598D01*
X158845965Y-72982170D01*
X158746097Y-73196336D01*
X158684936Y-73424592D01*
X158664340Y-73659999D01*
X158684936Y-73895407D01*
X158729709Y-74062501D01*
X158746097Y-74123663D01*
X158845965Y-74337830D01*
X158981505Y-74531401D01*
X159148599Y-74698495D01*
X159334597Y-74828732D01*
X159373460Y-74873048D01*
X159387471Y-74930305D01*
X159373461Y-74987561D01*
X159334595Y-75031880D01*
X159148919Y-75161892D01*
X158981890Y-75328921D01*
X158846400Y-75522421D01*
X158746569Y-75736507D01*
X158689364Y-75949999D01*
X158689364Y-75950000D01*
X160146000Y-75950000D01*
X160208000Y-75966613D01*
X160253387Y-76012000D01*
X160270000Y-76074000D01*
X160270000Y-76326000D01*
X160253387Y-76388000D01*
X160208000Y-76433387D01*
X160146000Y-76450000D01*
X158689364Y-76450000D01*
X158746569Y-76663492D01*
X158846399Y-76877576D01*
X158981893Y-77071081D01*
X159148918Y-77238106D01*
X159334595Y-77368119D01*
X159373460Y-77412437D01*
X159387471Y-77469694D01*
X159373460Y-77526951D01*
X159334595Y-77571269D01*
X159148595Y-77701508D01*
X158981505Y-77868598D01*
X158845965Y-78062170D01*
X158746097Y-78276336D01*
X158684936Y-78504592D01*
X158664340Y-78739999D01*
X158684936Y-78975407D01*
X158729709Y-79142502D01*
X158746097Y-79203663D01*
X158845965Y-79417830D01*
X158981505Y-79611401D01*
X159148599Y-79778495D01*
X159334160Y-79908426D01*
X159373024Y-79952743D01*
X159387035Y-80010000D01*
X159373024Y-80067257D01*
X159334159Y-80111575D01*
X159148595Y-80241508D01*
X158981505Y-80408598D01*
X158845965Y-80602170D01*
X158746097Y-80816336D01*
X158684936Y-81044592D01*
X158664340Y-81280000D01*
X158684936Y-81515407D01*
X158729709Y-81682502D01*
X158746097Y-81743663D01*
X158845965Y-81957830D01*
X158981505Y-82151401D01*
X159148599Y-82318495D01*
X159334160Y-82448426D01*
X159373024Y-82492743D01*
X159387035Y-82550000D01*
X159373024Y-82607257D01*
X159334159Y-82651575D01*
X159148595Y-82781508D01*
X158981505Y-82948598D01*
X158845965Y-83142170D01*
X158746097Y-83356336D01*
X158684936Y-83584592D01*
X158664340Y-83820000D01*
X158684936Y-84055407D01*
X158729709Y-84222501D01*
X158746097Y-84283663D01*
X158845965Y-84497830D01*
X158981505Y-84691401D01*
X159148599Y-84858495D01*
X159334160Y-84988426D01*
X159373024Y-85032743D01*
X159387035Y-85090000D01*
X159373024Y-85147257D01*
X159334158Y-85191575D01*
X159157337Y-85315387D01*
X159148595Y-85321508D01*
X158981505Y-85488598D01*
X158845965Y-85682170D01*
X158746097Y-85896336D01*
X158684936Y-86124592D01*
X158664340Y-86360000D01*
X158684936Y-86595407D01*
X158729709Y-86762501D01*
X158746097Y-86823663D01*
X158845965Y-87037830D01*
X158981505Y-87231401D01*
X159148599Y-87398495D01*
X159334160Y-87528426D01*
X159373024Y-87572743D01*
X159387035Y-87630000D01*
X159373024Y-87687257D01*
X159334159Y-87731575D01*
X159148595Y-87861508D01*
X158981505Y-88028598D01*
X158845965Y-88222170D01*
X158746097Y-88436336D01*
X158684936Y-88664592D01*
X158664340Y-88899999D01*
X158684936Y-89135407D01*
X158729709Y-89302501D01*
X158746097Y-89363663D01*
X158845965Y-89577830D01*
X158981505Y-89771401D01*
X159148599Y-89938495D01*
X159334160Y-90068426D01*
X159373024Y-90112743D01*
X159387035Y-90170000D01*
X159373024Y-90227257D01*
X159334159Y-90271575D01*
X159148595Y-90401508D01*
X158981505Y-90568598D01*
X158845965Y-90762170D01*
X158746097Y-90976336D01*
X158684936Y-91204592D01*
X158664340Y-91439999D01*
X158684936Y-91675407D01*
X158692628Y-91704112D01*
X158746097Y-91903663D01*
X158845965Y-92117830D01*
X158981505Y-92311401D01*
X159148599Y-92478495D01*
X159334160Y-92608426D01*
X159373024Y-92652743D01*
X159387035Y-92710000D01*
X159373024Y-92767257D01*
X159334160Y-92811574D01*
X159161940Y-92932164D01*
X159148595Y-92941508D01*
X158981505Y-93108598D01*
X158845965Y-93302170D01*
X158746097Y-93516336D01*
X158684936Y-93744592D01*
X158664340Y-93980000D01*
X158684936Y-94215407D01*
X158729709Y-94382501D01*
X158746097Y-94443663D01*
X158845965Y-94657830D01*
X158981505Y-94851401D01*
X159148599Y-95018495D01*
X159334160Y-95148426D01*
X159373024Y-95192743D01*
X159387035Y-95250000D01*
X159373024Y-95307257D01*
X159334159Y-95351575D01*
X159148595Y-95481508D01*
X158981505Y-95648598D01*
X158845965Y-95842170D01*
X158746097Y-96056336D01*
X158684936Y-96284592D01*
X158664340Y-96519999D01*
X158684936Y-96755407D01*
X158729709Y-96922501D01*
X158746097Y-96983663D01*
X158845965Y-97197830D01*
X158981505Y-97391401D01*
X159148599Y-97558495D01*
X159334160Y-97688426D01*
X159373024Y-97732743D01*
X159387035Y-97790000D01*
X159373024Y-97847257D01*
X159334159Y-97891575D01*
X159148595Y-98021508D01*
X158981505Y-98188598D01*
X158845965Y-98382170D01*
X158746097Y-98596336D01*
X158684936Y-98824592D01*
X158664340Y-99060000D01*
X158684936Y-99295407D01*
X158729709Y-99462502D01*
X158746097Y-99523663D01*
X158845965Y-99737830D01*
X158981505Y-99931401D01*
X159148599Y-100098495D01*
X159334160Y-100228426D01*
X159373024Y-100272743D01*
X159387035Y-100330000D01*
X159373024Y-100387257D01*
X159334160Y-100431574D01*
X159289654Y-100462738D01*
X159148595Y-100561508D01*
X158981505Y-100728598D01*
X158845965Y-100922170D01*
X158746097Y-101136336D01*
X158684936Y-101364592D01*
X158664340Y-101600000D01*
X158684936Y-101835407D01*
X158704796Y-101909524D01*
X158746097Y-102063663D01*
X158845965Y-102277830D01*
X158981505Y-102471401D01*
X159148599Y-102638495D01*
X159334160Y-102768426D01*
X159373024Y-102812743D01*
X159387035Y-102870000D01*
X159373024Y-102927257D01*
X159334159Y-102971575D01*
X159148595Y-103101508D01*
X158981505Y-103268598D01*
X158845965Y-103462170D01*
X158746097Y-103676336D01*
X158684936Y-103904592D01*
X158664340Y-104140000D01*
X158684936Y-104375407D01*
X158710521Y-104470890D01*
X158746097Y-104603663D01*
X158845965Y-104817830D01*
X158981505Y-105011401D01*
X159148599Y-105178495D01*
X159334160Y-105308426D01*
X159373024Y-105352743D01*
X159387035Y-105410000D01*
X159373024Y-105467257D01*
X159334158Y-105511575D01*
X159172117Y-105625038D01*
X159148595Y-105641508D01*
X158981505Y-105808598D01*
X158845965Y-106002170D01*
X158746097Y-106216336D01*
X158684936Y-106444592D01*
X158664340Y-106679999D01*
X158684936Y-106915407D01*
X158712845Y-107019564D01*
X158746097Y-107143663D01*
X158845965Y-107357830D01*
X158981505Y-107551401D01*
X159148599Y-107718495D01*
X159334160Y-107848426D01*
X159373024Y-107892743D01*
X159387035Y-107950000D01*
X159373024Y-108007257D01*
X159334159Y-108051575D01*
X159148595Y-108181508D01*
X158981505Y-108348598D01*
X158845965Y-108542170D01*
X158746097Y-108756336D01*
X158684936Y-108984592D01*
X158664340Y-109219999D01*
X158684936Y-109455407D01*
X158710591Y-109551151D01*
X158746097Y-109683663D01*
X158845965Y-109897830D01*
X158981505Y-110091401D01*
X159148599Y-110258495D01*
X159334160Y-110388426D01*
X159373024Y-110432743D01*
X159387035Y-110490000D01*
X159373024Y-110547257D01*
X159334159Y-110591575D01*
X159148595Y-110721508D01*
X158981505Y-110888598D01*
X158845965Y-111082170D01*
X158746097Y-111296336D01*
X158684936Y-111524592D01*
X158664340Y-111760000D01*
X158684936Y-111995407D01*
X158714250Y-112104807D01*
X158746097Y-112223663D01*
X158845965Y-112437830D01*
X158981505Y-112631401D01*
X159148599Y-112798495D01*
X159334597Y-112928732D01*
X159373460Y-112973048D01*
X159387471Y-113030305D01*
X159373461Y-113087561D01*
X159334595Y-113131880D01*
X159148919Y-113261892D01*
X158981890Y-113428921D01*
X158846400Y-113622421D01*
X158746569Y-113836507D01*
X158689364Y-114049999D01*
X158689364Y-114050000D01*
X160146000Y-114050000D01*
X160208000Y-114066613D01*
X160253387Y-114112000D01*
X160270000Y-114174000D01*
X160270000Y-114426000D01*
X160253387Y-114488000D01*
X160208000Y-114533387D01*
X160146000Y-114550000D01*
X158689364Y-114550000D01*
X158746569Y-114763492D01*
X158846399Y-114977576D01*
X158981893Y-115171081D01*
X159148918Y-115338106D01*
X159334595Y-115468119D01*
X159373460Y-115512437D01*
X159387471Y-115569694D01*
X159373460Y-115626951D01*
X159334595Y-115671269D01*
X159148595Y-115801508D01*
X158981505Y-115968598D01*
X158845965Y-116162170D01*
X158746097Y-116376336D01*
X158684936Y-116604592D01*
X158664340Y-116840000D01*
X158684936Y-117075407D01*
X158724165Y-117221811D01*
X158746097Y-117303663D01*
X158845965Y-117517830D01*
X158981505Y-117711401D01*
X159148599Y-117878495D01*
X159334160Y-118008426D01*
X159373024Y-118052743D01*
X159387035Y-118110000D01*
X159373024Y-118167257D01*
X159334160Y-118211574D01*
X159211984Y-118297123D01*
X159148595Y-118341508D01*
X158981505Y-118508598D01*
X158845965Y-118702170D01*
X158746097Y-118916336D01*
X158684936Y-119144592D01*
X158664340Y-119379999D01*
X158684936Y-119615407D01*
X158710429Y-119710548D01*
X158746097Y-119843663D01*
X158845965Y-120057830D01*
X158981505Y-120251401D01*
X159148599Y-120418495D01*
X159334160Y-120548426D01*
X159373024Y-120592743D01*
X159387035Y-120650000D01*
X159373024Y-120707257D01*
X159334160Y-120751574D01*
X159235537Y-120820631D01*
X159148595Y-120881508D01*
X158981505Y-121048598D01*
X158845965Y-121242170D01*
X158746097Y-121456336D01*
X158684936Y-121684592D01*
X158664340Y-121920000D01*
X158684936Y-122155407D01*
X158706058Y-122234234D01*
X158746097Y-122383663D01*
X158845965Y-122597830D01*
X158981505Y-122791401D01*
X159148599Y-122958495D01*
X159334160Y-123088426D01*
X159373024Y-123132743D01*
X159387035Y-123190000D01*
X159373024Y-123247257D01*
X159334158Y-123291575D01*
X159149705Y-123420731D01*
X159148595Y-123421508D01*
X158981505Y-123588598D01*
X158845965Y-123782170D01*
X158746097Y-123996336D01*
X158684936Y-124224592D01*
X158664340Y-124459999D01*
X158684936Y-124695407D01*
X158729709Y-124862501D01*
X158746097Y-124923663D01*
X158845965Y-125137830D01*
X158981505Y-125331401D01*
X159148599Y-125498495D01*
X159334160Y-125628426D01*
X159373024Y-125672743D01*
X159387035Y-125730000D01*
X159373024Y-125787257D01*
X159334158Y-125831575D01*
X159261021Y-125882787D01*
X159148595Y-125961508D01*
X158981505Y-126128598D01*
X158845965Y-126322170D01*
X158746097Y-126536336D01*
X158684936Y-126764592D01*
X158664340Y-127000000D01*
X158684936Y-127235407D01*
X158715189Y-127348311D01*
X158746097Y-127463663D01*
X158845965Y-127677830D01*
X158981505Y-127871401D01*
X159148599Y-128038495D01*
X159334160Y-128168426D01*
X159373024Y-128212743D01*
X159387035Y-128270000D01*
X159373024Y-128327257D01*
X159334158Y-128371575D01*
X159259827Y-128423623D01*
X159148595Y-128501508D01*
X158981505Y-128668598D01*
X158845965Y-128862170D01*
X158746097Y-129076336D01*
X158684936Y-129304592D01*
X158664340Y-129540000D01*
X158684936Y-129775407D01*
X158729709Y-129942502D01*
X158746097Y-130003663D01*
X158845965Y-130217830D01*
X158981505Y-130411401D01*
X159148599Y-130578495D01*
X159334160Y-130708426D01*
X159373024Y-130752743D01*
X159387035Y-130810000D01*
X159373024Y-130867257D01*
X159334159Y-130911575D01*
X159148595Y-131041508D01*
X158981505Y-131208598D01*
X158845965Y-131402170D01*
X158746097Y-131616336D01*
X158684936Y-131844592D01*
X158664340Y-132079999D01*
X158684936Y-132315407D01*
X158729709Y-132482501D01*
X158746097Y-132543663D01*
X158845965Y-132757830D01*
X158981505Y-132951401D01*
X159148599Y-133118495D01*
X159334160Y-133248426D01*
X159373024Y-133292743D01*
X159387035Y-133350000D01*
X159373024Y-133407257D01*
X159334158Y-133451575D01*
X159229903Y-133524576D01*
X159148595Y-133581508D01*
X158981505Y-133748598D01*
X158845965Y-133942170D01*
X158746097Y-134156336D01*
X158684936Y-134384592D01*
X158664340Y-134620000D01*
X158684936Y-134855407D01*
X158729709Y-135022502D01*
X158746097Y-135083663D01*
X158845965Y-135297830D01*
X158981505Y-135491401D01*
X159148599Y-135658495D01*
X159334160Y-135788426D01*
X159373024Y-135832743D01*
X159387035Y-135890000D01*
X159373024Y-135947257D01*
X159334159Y-135991575D01*
X159148595Y-136121508D01*
X158981505Y-136288598D01*
X158845965Y-136482170D01*
X158746097Y-136696336D01*
X158684936Y-136924592D01*
X158664340Y-137159999D01*
X158684936Y-137395407D01*
X158716760Y-137514176D01*
X158746097Y-137623663D01*
X158845965Y-137837830D01*
X158981505Y-138031401D01*
X159148599Y-138198495D01*
X159334160Y-138328426D01*
X159373024Y-138372743D01*
X159387035Y-138430000D01*
X159373024Y-138487257D01*
X159334159Y-138531575D01*
X159148595Y-138661508D01*
X158981505Y-138828598D01*
X158845965Y-139022170D01*
X158746097Y-139236336D01*
X158684936Y-139464592D01*
X158664340Y-139700000D01*
X158684936Y-139935407D01*
X158696637Y-139979075D01*
X158746097Y-140163663D01*
X158845965Y-140377830D01*
X158981505Y-140571401D01*
X159148599Y-140738495D01*
X159334160Y-140868426D01*
X159373024Y-140912743D01*
X159387035Y-140970000D01*
X159373024Y-141027257D01*
X159334159Y-141071575D01*
X159148595Y-141201508D01*
X158981505Y-141368598D01*
X158845965Y-141562170D01*
X158746097Y-141776336D01*
X158684936Y-142004592D01*
X158664340Y-142239999D01*
X158684936Y-142475407D01*
X158692993Y-142505475D01*
X158746097Y-142703663D01*
X158845965Y-142917830D01*
X158981505Y-143111401D01*
X159148599Y-143278495D01*
X159334597Y-143408732D01*
X159373460Y-143453048D01*
X159387471Y-143510305D01*
X159373461Y-143567561D01*
X159334595Y-143611880D01*
X159148919Y-143741892D01*
X158981890Y-143908921D01*
X158846400Y-144102421D01*
X158746569Y-144316507D01*
X158689364Y-144529999D01*
X158689364Y-144530000D01*
X160146000Y-144530000D01*
X160208000Y-144546613D01*
X160253387Y-144592000D01*
X160270000Y-144654000D01*
X160270000Y-144906000D01*
X160253387Y-144968000D01*
X160208000Y-145013387D01*
X160146000Y-145030000D01*
X158689364Y-145030000D01*
X158746569Y-145243492D01*
X158846399Y-145457576D01*
X158981893Y-145651081D01*
X159148918Y-145818106D01*
X159334595Y-145948119D01*
X159373460Y-145992437D01*
X159387471Y-146049694D01*
X159373460Y-146106951D01*
X159334595Y-146151269D01*
X159187632Y-146254173D01*
X159153821Y-146277849D01*
X159148595Y-146281508D01*
X158981505Y-146448598D01*
X158845965Y-146642170D01*
X158746097Y-146856336D01*
X158684936Y-147084592D01*
X158664340Y-147319999D01*
X158684936Y-147555407D01*
X158707871Y-147641000D01*
X158746097Y-147783663D01*
X158845965Y-147997830D01*
X158981505Y-148191401D01*
X159148599Y-148358495D01*
X159334160Y-148488426D01*
X159373024Y-148532743D01*
X159387035Y-148590000D01*
X159373024Y-148647257D01*
X159334159Y-148691575D01*
X159148595Y-148821508D01*
X158981505Y-148988598D01*
X158845965Y-149182170D01*
X158746097Y-149396336D01*
X158684936Y-149624592D01*
X158664340Y-149860000D01*
X158684936Y-150095407D01*
X158729709Y-150262502D01*
X158746097Y-150323663D01*
X158845965Y-150537830D01*
X158981505Y-150731401D01*
X159148599Y-150898495D01*
X159334160Y-151028426D01*
X159373024Y-151072743D01*
X159387035Y-151130000D01*
X159373024Y-151187257D01*
X159334159Y-151231575D01*
X159148595Y-151361508D01*
X158981505Y-151528598D01*
X158845965Y-151722170D01*
X158746097Y-151936336D01*
X158684936Y-152164592D01*
X158664340Y-152399999D01*
X104205659Y-152399999D01*
X104185063Y-152164592D01*
X104123903Y-151936337D01*
X104024035Y-151722171D01*
X103888495Y-151528599D01*
X103721401Y-151361505D01*
X103535839Y-151231573D01*
X103496975Y-151187257D01*
X103482964Y-151130000D01*
X103496975Y-151072743D01*
X103535839Y-151028426D01*
X103721401Y-150898495D01*
X103888495Y-150731401D01*
X104024035Y-150537830D01*
X104123903Y-150323663D01*
X104185063Y-150095408D01*
X104205659Y-149860000D01*
X104185063Y-149624592D01*
X104123903Y-149396337D01*
X104024035Y-149182171D01*
X103888495Y-148988599D01*
X103739896Y-148840000D01*
X124525863Y-148840000D01*
X124546365Y-149061262D01*
X124607175Y-149274984D01*
X124706219Y-149473893D01*
X124840132Y-149651223D01*
X125004344Y-149800922D01*
X125157924Y-149896014D01*
X125193270Y-149917899D01*
X125400472Y-149998170D01*
X125618896Y-150039000D01*
X125841102Y-150039000D01*
X125841104Y-150039000D01*
X126059528Y-149998170D01*
X126266730Y-149917899D01*
X126455655Y-149800922D01*
X126619868Y-149651222D01*
X126753778Y-149473896D01*
X126753778Y-149473894D01*
X126753780Y-149473893D01*
X126852824Y-149274984D01*
X126913634Y-149061262D01*
X126920367Y-148988595D01*
X126934137Y-148840000D01*
X134381863Y-148840000D01*
X134402365Y-149061262D01*
X134463175Y-149274984D01*
X134562219Y-149473893D01*
X134696132Y-149651223D01*
X134860344Y-149800922D01*
X135013924Y-149896014D01*
X135049270Y-149917899D01*
X135256472Y-149998170D01*
X135474896Y-150039000D01*
X135697102Y-150039000D01*
X135697104Y-150039000D01*
X135915528Y-149998170D01*
X136122730Y-149917899D01*
X136311655Y-149800922D01*
X136475868Y-149651222D01*
X136609778Y-149473896D01*
X136609778Y-149473894D01*
X136609780Y-149473893D01*
X136708824Y-149274984D01*
X136769634Y-149061262D01*
X136776367Y-148988595D01*
X136790137Y-148840000D01*
X136769634Y-148618740D01*
X136769634Y-148618737D01*
X136708824Y-148405015D01*
X136609780Y-148206106D01*
X136475867Y-148028776D01*
X136311655Y-147879077D01*
X136122732Y-147762102D01*
X136122730Y-147762101D01*
X135915528Y-147681830D01*
X135697104Y-147641000D01*
X135474896Y-147641000D01*
X135256471Y-147681830D01*
X135256472Y-147681830D01*
X135049267Y-147762102D01*
X134860344Y-147879077D01*
X134696132Y-148028776D01*
X134562219Y-148206106D01*
X134463175Y-148405015D01*
X134402365Y-148618737D01*
X134381863Y-148840000D01*
X126934137Y-148840000D01*
X126913634Y-148618740D01*
X126913634Y-148618737D01*
X126852824Y-148405015D01*
X126753780Y-148206106D01*
X126619867Y-148028776D01*
X126455655Y-147879077D01*
X126266732Y-147762102D01*
X126266730Y-147762101D01*
X126059528Y-147681830D01*
X125841104Y-147641000D01*
X125618896Y-147641000D01*
X125400471Y-147681830D01*
X125400472Y-147681830D01*
X125193267Y-147762102D01*
X125004344Y-147879077D01*
X124840132Y-148028776D01*
X124706219Y-148206106D01*
X124607175Y-148405015D01*
X124546365Y-148618737D01*
X124525863Y-148840000D01*
X103739896Y-148840000D01*
X103721401Y-148821505D01*
X103535839Y-148691573D01*
X103496975Y-148647257D01*
X103482964Y-148590000D01*
X103496975Y-148532743D01*
X103535839Y-148488426D01*
X103721401Y-148358495D01*
X103888495Y-148191401D01*
X104024035Y-147997830D01*
X104123903Y-147783663D01*
X104185063Y-147555408D01*
X104205659Y-147320000D01*
X127065863Y-147320000D01*
X127086365Y-147541262D01*
X127147175Y-147754984D01*
X127246219Y-147953893D01*
X127380132Y-148131223D01*
X127544344Y-148280922D01*
X127669630Y-148358495D01*
X127733270Y-148397899D01*
X127940472Y-148478170D01*
X128158896Y-148519000D01*
X128381102Y-148519000D01*
X128381104Y-148519000D01*
X128599528Y-148478170D01*
X128806730Y-148397899D01*
X128995655Y-148280922D01*
X129159868Y-148131222D01*
X129293778Y-147953896D01*
X129293778Y-147953894D01*
X129293780Y-147953893D01*
X129392824Y-147754984D01*
X129453634Y-147541262D01*
X129456607Y-147509175D01*
X129474137Y-147320000D01*
X129453634Y-147098740D01*
X129453634Y-147098737D01*
X129392824Y-146885015D01*
X129293780Y-146686106D01*
X129159867Y-146508776D01*
X128995655Y-146359077D01*
X128806732Y-146242102D01*
X128806730Y-146242101D01*
X128599528Y-146161830D01*
X128381104Y-146121000D01*
X128158896Y-146121000D01*
X127983847Y-146153722D01*
X127940472Y-146161830D01*
X127733267Y-146242102D01*
X127544344Y-146359077D01*
X127380132Y-146508776D01*
X127246219Y-146686106D01*
X127147175Y-146885015D01*
X127086365Y-147098737D01*
X127065863Y-147320000D01*
X104205659Y-147320000D01*
X104185063Y-147084592D01*
X104123903Y-146856337D01*
X104024035Y-146642171D01*
X103888495Y-146448599D01*
X103721401Y-146281505D01*
X103535839Y-146151573D01*
X103496976Y-146107257D01*
X103482965Y-146050000D01*
X103496976Y-145992743D01*
X103535839Y-145948426D01*
X103721401Y-145818495D01*
X103888495Y-145651401D01*
X104024035Y-145457830D01*
X104123903Y-145243663D01*
X104185063Y-145015408D01*
X104205659Y-144780000D01*
X104185063Y-144544592D01*
X104123903Y-144316337D01*
X104024035Y-144102171D01*
X103888495Y-143908599D01*
X103721401Y-143741505D01*
X103535839Y-143611573D01*
X103496975Y-143567257D01*
X103482964Y-143510000D01*
X103496975Y-143452743D01*
X103535839Y-143408426D01*
X103721401Y-143278495D01*
X103888495Y-143111401D01*
X104024035Y-142917830D01*
X104123903Y-142703663D01*
X104185063Y-142475408D01*
X104205659Y-142240000D01*
X104198176Y-142154476D01*
X123142077Y-142154476D01*
X123345271Y-142278993D01*
X123571273Y-142372608D01*
X123809133Y-142429712D01*
X124053001Y-142448905D01*
X124108238Y-142444558D01*
X124175343Y-142458249D01*
X124224946Y-142505474D01*
X124241913Y-142571827D01*
X124221070Y-142637066D01*
X124147348Y-142747399D01*
X124009354Y-143027223D01*
X123909066Y-143322662D01*
X123848199Y-143628661D01*
X123827793Y-143940000D01*
X123848199Y-144251338D01*
X123909066Y-144557334D01*
X124009356Y-144852781D01*
X124147347Y-145132600D01*
X124320687Y-145392021D01*
X124345994Y-145420879D01*
X124526404Y-145626596D01*
X124744779Y-145818106D01*
X124760978Y-145832312D01*
X125020399Y-146005652D01*
X125300218Y-146143643D01*
X125300221Y-146143644D01*
X125595663Y-146243933D01*
X125749716Y-146274576D01*
X125901661Y-146304800D01*
X125901663Y-146304800D01*
X125901668Y-146304801D01*
X126213000Y-146325207D01*
X126524332Y-146304801D01*
X126524336Y-146304800D01*
X126524338Y-146304800D01*
X126641449Y-146281505D01*
X126830337Y-146243933D01*
X127125779Y-146143644D01*
X127405604Y-146005650D01*
X127665022Y-145832312D01*
X127899596Y-145626596D01*
X128105312Y-145392022D01*
X128278650Y-145132604D01*
X128336445Y-145015408D01*
X128416643Y-144852781D01*
X128416818Y-144852265D01*
X128516933Y-144557337D01*
X128577801Y-144251332D01*
X128598207Y-143940000D01*
X135257793Y-143940000D01*
X135278199Y-144251338D01*
X135339066Y-144557334D01*
X135439356Y-144852781D01*
X135577347Y-145132600D01*
X135750687Y-145392021D01*
X135775994Y-145420879D01*
X135956404Y-145626596D01*
X136174779Y-145818106D01*
X136190978Y-145832312D01*
X136450399Y-146005652D01*
X136730218Y-146143643D01*
X136730221Y-146143644D01*
X137025663Y-146243933D01*
X137196172Y-146277849D01*
X137256309Y-146308555D01*
X137291441Y-146366220D01*
X137291149Y-146433743D01*
X137255521Y-146491102D01*
X137236131Y-146508778D01*
X137102219Y-146686106D01*
X137003175Y-146885015D01*
X136942365Y-147098737D01*
X136921863Y-147320000D01*
X136942365Y-147541262D01*
X137003175Y-147754984D01*
X137102219Y-147953893D01*
X137236132Y-148131223D01*
X137400344Y-148280922D01*
X137525630Y-148358495D01*
X137589270Y-148397899D01*
X137796472Y-148478170D01*
X138014896Y-148519000D01*
X138237102Y-148519000D01*
X138237104Y-148519000D01*
X138455528Y-148478170D01*
X138662730Y-148397899D01*
X138851655Y-148280922D01*
X139015868Y-148131222D01*
X139149778Y-147953896D01*
X139149778Y-147953894D01*
X139149780Y-147953893D01*
X139248824Y-147754984D01*
X139309634Y-147541262D01*
X139312607Y-147509175D01*
X139330137Y-147320000D01*
X148454699Y-147320000D01*
X148473865Y-147551299D01*
X148473865Y-147551301D01*
X148473866Y-147551305D01*
X148527248Y-147762102D01*
X148530844Y-147776303D01*
X148575925Y-147879077D01*
X148624076Y-147988849D01*
X148751021Y-148183153D01*
X148908216Y-148353913D01*
X149091374Y-148496470D01*
X149295497Y-148606936D01*
X149405258Y-148644617D01*
X149515015Y-148682297D01*
X149515017Y-148682297D01*
X149515019Y-148682298D01*
X149743951Y-148720500D01*
X149976048Y-148720500D01*
X149976049Y-148720500D01*
X150204981Y-148682298D01*
X150424503Y-148606936D01*
X150628626Y-148496470D01*
X150811784Y-148353913D01*
X150968979Y-148183153D01*
X151095924Y-147988849D01*
X151189157Y-147776300D01*
X151246134Y-147551305D01*
X151265300Y-147320000D01*
X151246134Y-147088695D01*
X151189157Y-146863700D01*
X151095924Y-146651151D01*
X150968979Y-146456847D01*
X150874195Y-146353884D01*
X150845424Y-146301134D01*
X150844831Y-146241047D01*
X150872558Y-146187737D01*
X150922092Y-146153722D01*
X151002331Y-146123796D01*
X151117546Y-146037546D01*
X151203796Y-145922331D01*
X151254091Y-145787483D01*
X151260500Y-145727873D01*
X151260499Y-144046699D01*
X153476034Y-144046699D01*
X153496231Y-144225951D01*
X153496231Y-144225953D01*
X153496232Y-144225955D01*
X153555811Y-144396222D01*
X153612579Y-144486567D01*
X153651785Y-144548964D01*
X153779335Y-144676514D01*
X153779337Y-144676515D01*
X153779338Y-144676516D01*
X153932078Y-144772489D01*
X154102345Y-144832068D01*
X154281600Y-144852265D01*
X154460855Y-144832068D01*
X154631122Y-144772489D01*
X154783862Y-144676516D01*
X154911416Y-144548962D01*
X155007389Y-144396222D01*
X155066968Y-144225955D01*
X155087165Y-144046700D01*
X155066968Y-143867445D01*
X155007389Y-143697178D01*
X154911416Y-143544438D01*
X154911415Y-143544437D01*
X154911414Y-143544435D01*
X154783864Y-143416885D01*
X154635102Y-143323412D01*
X154631122Y-143320911D01*
X154460855Y-143261332D01*
X154460853Y-143261331D01*
X154460851Y-143261331D01*
X154281600Y-143241134D01*
X154102348Y-143261331D01*
X154102345Y-143261331D01*
X154102345Y-143261332D01*
X153932078Y-143320911D01*
X153932076Y-143320911D01*
X153932076Y-143320912D01*
X153779335Y-143416885D01*
X153651785Y-143544435D01*
X153593203Y-143637669D01*
X153555811Y-143697178D01*
X153529449Y-143772516D01*
X153496231Y-143867448D01*
X153476034Y-144046699D01*
X151260499Y-144046699D01*
X151260499Y-143832128D01*
X151254091Y-143772517D01*
X151203796Y-143637669D01*
X151117546Y-143522454D01*
X151002331Y-143436204D01*
X150867483Y-143385909D01*
X150807873Y-143379500D01*
X150807869Y-143379500D01*
X148912130Y-143379500D01*
X148852515Y-143385909D01*
X148717669Y-143436204D01*
X148602454Y-143522454D01*
X148516204Y-143637668D01*
X148465909Y-143772516D01*
X148459500Y-143832130D01*
X148459500Y-145727869D01*
X148465909Y-145787484D01*
X148477332Y-145818109D01*
X148516204Y-145922331D01*
X148602454Y-146037546D01*
X148717669Y-146123796D01*
X148797905Y-146153722D01*
X148847441Y-146187737D01*
X148875168Y-146241047D01*
X148874575Y-146301134D01*
X148845802Y-146353887D01*
X148751020Y-146456848D01*
X148624076Y-146651150D01*
X148530844Y-146863696D01*
X148473865Y-147088700D01*
X148454699Y-147320000D01*
X139330137Y-147320000D01*
X139309634Y-147098740D01*
X139309634Y-147098737D01*
X139248824Y-146885015D01*
X139149780Y-146686106D01*
X139015867Y-146508776D01*
X138851655Y-146359077D01*
X138716937Y-146275664D01*
X138672464Y-146227952D01*
X138658358Y-146164272D01*
X138678519Y-146102242D01*
X138727371Y-146059025D01*
X138835600Y-146005652D01*
X138835600Y-146005651D01*
X138835604Y-146005650D01*
X139095022Y-145832312D01*
X139329596Y-145626596D01*
X139535312Y-145392022D01*
X139708650Y-145132604D01*
X139766445Y-145015408D01*
X139846643Y-144852781D01*
X139846818Y-144852265D01*
X139946933Y-144557337D01*
X140007801Y-144251332D01*
X140021050Y-144049200D01*
X141549234Y-144049200D01*
X141569431Y-144228451D01*
X141569431Y-144228453D01*
X141569432Y-144228455D01*
X141629011Y-144398722D01*
X141629012Y-144398723D01*
X141724985Y-144551464D01*
X141852535Y-144679014D01*
X141852537Y-144679015D01*
X141852538Y-144679016D01*
X142005278Y-144774989D01*
X142175545Y-144834568D01*
X142354800Y-144854765D01*
X142534055Y-144834568D01*
X142704322Y-144774989D01*
X142857062Y-144679016D01*
X142984616Y-144551462D01*
X143080589Y-144398722D01*
X143140168Y-144228455D01*
X143160365Y-144049200D01*
X143140168Y-143869945D01*
X143080589Y-143699678D01*
X142984616Y-143546938D01*
X142984615Y-143546937D01*
X142984614Y-143546935D01*
X142857064Y-143419385D01*
X142793587Y-143379500D01*
X142704322Y-143323411D01*
X142534055Y-143263832D01*
X142534053Y-143263831D01*
X142534051Y-143263831D01*
X142354800Y-143243634D01*
X142175548Y-143263831D01*
X142175545Y-143263831D01*
X142175545Y-143263832D01*
X142005278Y-143323411D01*
X142005276Y-143323411D01*
X142005276Y-143323412D01*
X141852535Y-143419385D01*
X141724985Y-143546935D01*
X141630583Y-143697176D01*
X141629011Y-143699678D01*
X141603524Y-143772515D01*
X141569431Y-143869948D01*
X141549234Y-144049200D01*
X140021050Y-144049200D01*
X140028207Y-143940000D01*
X140007801Y-143628668D01*
X139997138Y-143575063D01*
X139946933Y-143322662D01*
X139846645Y-143027223D01*
X139708650Y-142747397D01*
X139634930Y-142637067D01*
X139614086Y-142571828D01*
X139631053Y-142505475D01*
X139680655Y-142458249D01*
X139747761Y-142444558D01*
X139802998Y-142448905D01*
X140046866Y-142429712D01*
X140284726Y-142372608D01*
X140510728Y-142278994D01*
X140713921Y-142154476D01*
X139449446Y-140890001D01*
X140156551Y-140890001D01*
X141067474Y-141800923D01*
X141191992Y-141597730D01*
X141285606Y-141371728D01*
X141342710Y-141133868D01*
X141361903Y-140889999D01*
X141342710Y-140646131D01*
X141285606Y-140408271D01*
X141191991Y-140182269D01*
X141067474Y-139979075D01*
X140156551Y-140890000D01*
X140156551Y-140890001D01*
X139449446Y-140890001D01*
X138538520Y-139979075D01*
X138414003Y-140182269D01*
X138320389Y-140408271D01*
X138263285Y-140646131D01*
X138244092Y-140889999D01*
X138263285Y-141133868D01*
X138320389Y-141371728D01*
X138356328Y-141458490D01*
X138364425Y-141524137D01*
X138337621Y-141584607D01*
X138283542Y-141622694D01*
X138217576Y-141627560D01*
X137954339Y-141575199D01*
X137643000Y-141554793D01*
X137331661Y-141575199D01*
X137025662Y-141636066D01*
X136730223Y-141736354D01*
X136450397Y-141874349D01*
X136190978Y-142047687D01*
X135956404Y-142253404D01*
X135750687Y-142487978D01*
X135577349Y-142747397D01*
X135439354Y-143027223D01*
X135339066Y-143322662D01*
X135278199Y-143628661D01*
X135257793Y-143940000D01*
X128598207Y-143940000D01*
X128577801Y-143628668D01*
X128567138Y-143575063D01*
X128516933Y-143322662D01*
X128416645Y-143027223D01*
X128278650Y-142747397D01*
X128105312Y-142487978D01*
X128094288Y-142475408D01*
X127899596Y-142253404D01*
X127665022Y-142047688D01*
X127600524Y-142004592D01*
X127405600Y-141874347D01*
X127125781Y-141736356D01*
X126830334Y-141636066D01*
X126524338Y-141575199D01*
X126213000Y-141554793D01*
X125901660Y-141575199D01*
X125638423Y-141627560D01*
X125572457Y-141622694D01*
X125518378Y-141584607D01*
X125491574Y-141524136D01*
X125499672Y-141458489D01*
X125535609Y-141371731D01*
X125592714Y-141133868D01*
X125611907Y-140889999D01*
X125592714Y-140646131D01*
X125535610Y-140408271D01*
X125441995Y-140182269D01*
X125317478Y-139979075D01*
X124053002Y-141243553D01*
X123142077Y-142154476D01*
X104198176Y-142154476D01*
X104185063Y-142004592D01*
X104123903Y-141776337D01*
X104024035Y-141562171D01*
X103888495Y-141368599D01*
X103721401Y-141201505D01*
X103535402Y-141071267D01*
X103496539Y-141026951D01*
X103482528Y-140969694D01*
X103496539Y-140912437D01*
X103516217Y-140889999D01*
X122494096Y-140889999D01*
X122513289Y-141133868D01*
X122570393Y-141371728D01*
X122664008Y-141597730D01*
X122788524Y-141800923D01*
X123699448Y-140890001D01*
X123699448Y-140890000D01*
X122788524Y-139979075D01*
X122664007Y-140182269D01*
X122570393Y-140408271D01*
X122513289Y-140646131D01*
X122494096Y-140889999D01*
X103516217Y-140889999D01*
X103535405Y-140868119D01*
X103721078Y-140738109D01*
X103888106Y-140571081D01*
X104023600Y-140377576D01*
X104123430Y-140163492D01*
X104180636Y-139950000D01*
X102724000Y-139950000D01*
X102662000Y-139933387D01*
X102616613Y-139888000D01*
X102600000Y-139826000D01*
X102600000Y-139625522D01*
X123142077Y-139625522D01*
X124053002Y-140536446D01*
X124053003Y-140536446D01*
X124963925Y-139625522D01*
X138892073Y-139625522D01*
X139802998Y-140536446D01*
X139802999Y-140536446D01*
X140713921Y-139625522D01*
X140510728Y-139501006D01*
X140284726Y-139407391D01*
X140046866Y-139350287D01*
X139802997Y-139331094D01*
X139559129Y-139350287D01*
X139321269Y-139407391D01*
X139095267Y-139501005D01*
X138892073Y-139625522D01*
X124963925Y-139625522D01*
X124760732Y-139501006D01*
X124534730Y-139407391D01*
X124296870Y-139350287D01*
X124053001Y-139331094D01*
X123809133Y-139350287D01*
X123571273Y-139407391D01*
X123345271Y-139501005D01*
X123142077Y-139625522D01*
X102600000Y-139625522D01*
X102600000Y-139574000D01*
X102616613Y-139512000D01*
X102662000Y-139466613D01*
X102724000Y-139450000D01*
X104180636Y-139450000D01*
X104180635Y-139449999D01*
X104123430Y-139236507D01*
X104023599Y-139022421D01*
X103888109Y-138828921D01*
X103721081Y-138661893D01*
X103535404Y-138531880D01*
X103496539Y-138487562D01*
X103482528Y-138430305D01*
X103496539Y-138373048D01*
X103535402Y-138328732D01*
X103721401Y-138198495D01*
X103888495Y-138031401D01*
X104005921Y-137863699D01*
X122697234Y-137863699D01*
X122717431Y-138042951D01*
X122717431Y-138042953D01*
X122717432Y-138042955D01*
X122777011Y-138213222D01*
X122783552Y-138223632D01*
X122872985Y-138365964D01*
X123000535Y-138493514D01*
X123000537Y-138493515D01*
X123000538Y-138493516D01*
X123153278Y-138589489D01*
X123323545Y-138649068D01*
X123457986Y-138664215D01*
X123502799Y-138669265D01*
X123502799Y-138669264D01*
X123502800Y-138669265D01*
X123682055Y-138649068D01*
X123852322Y-138589489D01*
X124005062Y-138493516D01*
X124132616Y-138365962D01*
X124228589Y-138213222D01*
X124288168Y-138042955D01*
X124308365Y-137863700D01*
X124288168Y-137684445D01*
X124255120Y-137589999D01*
X126278863Y-137589999D01*
X126299365Y-137811262D01*
X126360175Y-138024984D01*
X126459219Y-138223893D01*
X126593132Y-138401223D01*
X126757344Y-138550922D01*
X126829811Y-138595791D01*
X126946270Y-138667899D01*
X127153472Y-138748170D01*
X127371896Y-138789000D01*
X127594102Y-138789000D01*
X127594104Y-138789000D01*
X127812528Y-138748170D01*
X128019730Y-138667899D01*
X128208655Y-138550922D01*
X128337019Y-138433903D01*
X128372867Y-138401223D01*
X128394375Y-138372742D01*
X128506778Y-138223896D01*
X128506778Y-138223894D01*
X128506780Y-138223893D01*
X128605824Y-138024984D01*
X128633734Y-137926893D01*
X128666133Y-137872339D01*
X128721276Y-137840954D01*
X128784724Y-137840954D01*
X128839867Y-137872339D01*
X128872266Y-137926893D01*
X128900175Y-138024984D01*
X128999219Y-138223893D01*
X129133132Y-138401223D01*
X129297344Y-138550922D01*
X129369811Y-138595791D01*
X129486270Y-138667899D01*
X129693472Y-138748170D01*
X129911896Y-138789000D01*
X130134102Y-138789000D01*
X130134104Y-138789000D01*
X130352528Y-138748170D01*
X130559730Y-138667899D01*
X130748655Y-138550922D01*
X130877019Y-138433903D01*
X130912867Y-138401223D01*
X130934375Y-138372742D01*
X131046778Y-138223896D01*
X131046778Y-138223894D01*
X131046780Y-138223893D01*
X131145824Y-138024984D01*
X131173734Y-137926893D01*
X131206133Y-137872339D01*
X131261276Y-137840954D01*
X131324724Y-137840954D01*
X131379867Y-137872339D01*
X131412266Y-137926893D01*
X131440175Y-138024984D01*
X131539219Y-138223893D01*
X131673132Y-138401223D01*
X131837344Y-138550922D01*
X131909811Y-138595791D01*
X132026270Y-138667899D01*
X132233472Y-138748170D01*
X132451896Y-138789000D01*
X132674102Y-138789000D01*
X132674104Y-138789000D01*
X132892528Y-138748170D01*
X133099730Y-138667899D01*
X133216190Y-138595790D01*
X134450760Y-138595790D01*
X134450761Y-138595791D01*
X134566490Y-138667447D01*
X134773610Y-138747685D01*
X134991945Y-138788500D01*
X135214055Y-138788500D01*
X135432389Y-138747685D01*
X135639506Y-138667448D01*
X135755238Y-138595790D01*
X135103001Y-137943553D01*
X135103000Y-137943553D01*
X134450760Y-138595790D01*
X133216190Y-138595790D01*
X133288655Y-138550922D01*
X133417019Y-138433903D01*
X133452867Y-138401223D01*
X133474375Y-138372742D01*
X133586778Y-138223896D01*
X133586778Y-138223894D01*
X133586780Y-138223893D01*
X133685824Y-138024984D01*
X133713994Y-137925978D01*
X133746392Y-137871425D01*
X133801535Y-137840039D01*
X133864984Y-137840039D01*
X133920127Y-137871424D01*
X133952526Y-137925977D01*
X133980644Y-138024802D01*
X134079650Y-138223632D01*
X134095210Y-138244235D01*
X134749447Y-137590001D01*
X134749447Y-137590000D01*
X135456553Y-137590000D01*
X136110788Y-138244235D01*
X136110789Y-138244235D01*
X136126349Y-138223631D01*
X136225356Y-138024801D01*
X136286140Y-137811169D01*
X136306633Y-137590000D01*
X136286140Y-137368830D01*
X136225355Y-137155196D01*
X136126350Y-136956368D01*
X136110789Y-136935762D01*
X136110788Y-136935762D01*
X135456553Y-137590000D01*
X134749447Y-137590000D01*
X134095210Y-136935762D01*
X134095209Y-136935762D01*
X134079649Y-136956367D01*
X133980645Y-137155195D01*
X133952526Y-137254022D01*
X133920127Y-137308575D01*
X133864984Y-137339960D01*
X133801535Y-137339960D01*
X133746393Y-137308575D01*
X133713994Y-137254021D01*
X133685824Y-137155015D01*
X133586780Y-136956106D01*
X133452867Y-136778776D01*
X133288655Y-136629077D01*
X133216188Y-136584208D01*
X134450760Y-136584208D01*
X135103000Y-137236447D01*
X135103001Y-137236447D01*
X135755238Y-136584208D01*
X135755237Y-136584207D01*
X135639509Y-136512552D01*
X135432389Y-136432314D01*
X135214055Y-136391500D01*
X134991945Y-136391500D01*
X134773610Y-136432314D01*
X134566492Y-136512552D01*
X134450760Y-136584208D01*
X133216188Y-136584208D01*
X133099732Y-136512102D01*
X133099730Y-136512101D01*
X132892528Y-136431830D01*
X132674104Y-136391000D01*
X132451896Y-136391000D01*
X132233472Y-136431829D01*
X132233472Y-136431830D01*
X132026267Y-136512102D01*
X131837344Y-136629077D01*
X131673132Y-136778776D01*
X131539219Y-136956106D01*
X131440176Y-137155014D01*
X131412266Y-137253107D01*
X131379867Y-137307660D01*
X131324724Y-137339045D01*
X131261276Y-137339045D01*
X131206133Y-137307660D01*
X131173734Y-137253107D01*
X131147242Y-137160000D01*
X131145824Y-137155016D01*
X131107640Y-137078331D01*
X131046780Y-136956106D01*
X130912867Y-136778776D01*
X130748655Y-136629077D01*
X130559732Y-136512102D01*
X130559730Y-136512101D01*
X130352528Y-136431830D01*
X130134104Y-136391000D01*
X129911896Y-136391000D01*
X129693472Y-136431829D01*
X129693472Y-136431830D01*
X129486267Y-136512102D01*
X129297344Y-136629077D01*
X129133132Y-136778776D01*
X128999219Y-136956106D01*
X128900176Y-137155014D01*
X128872266Y-137253107D01*
X128839867Y-137307660D01*
X128784724Y-137339045D01*
X128721276Y-137339045D01*
X128666133Y-137307660D01*
X128633734Y-137253107D01*
X128607242Y-137160000D01*
X128605824Y-137155016D01*
X128567640Y-137078331D01*
X128506780Y-136956106D01*
X128372867Y-136778776D01*
X128208655Y-136629077D01*
X128019732Y-136512102D01*
X128019730Y-136512101D01*
X127812528Y-136431830D01*
X127594104Y-136391000D01*
X127371896Y-136391000D01*
X127153472Y-136431829D01*
X127153472Y-136431830D01*
X126946267Y-136512102D01*
X126757344Y-136629077D01*
X126593132Y-136778776D01*
X126459219Y-136956106D01*
X126360175Y-137155015D01*
X126299365Y-137368737D01*
X126278863Y-137589999D01*
X124255120Y-137589999D01*
X124228589Y-137514178D01*
X124132616Y-137361438D01*
X124132615Y-137361437D01*
X124132614Y-137361435D01*
X124005064Y-137233885D01*
X123887476Y-137160000D01*
X123852322Y-137137911D01*
X123682055Y-137078332D01*
X123682053Y-137078331D01*
X123682051Y-137078331D01*
X123502800Y-137058134D01*
X123323548Y-137078331D01*
X123323545Y-137078331D01*
X123323545Y-137078332D01*
X123153278Y-137137911D01*
X123153276Y-137137911D01*
X123153276Y-137137912D01*
X123000535Y-137233885D01*
X122872985Y-137361435D01*
X122777012Y-137514176D01*
X122777011Y-137514178D01*
X122738701Y-137623662D01*
X122717431Y-137684448D01*
X122697234Y-137863699D01*
X104005921Y-137863699D01*
X104024035Y-137837830D01*
X104123903Y-137623663D01*
X104185063Y-137395408D01*
X104205659Y-137160000D01*
X104185063Y-136924592D01*
X104123903Y-136696337D01*
X104024035Y-136482171D01*
X103888495Y-136288599D01*
X103721401Y-136121505D01*
X103535839Y-135991573D01*
X103496975Y-135947257D01*
X103482964Y-135890000D01*
X103496975Y-135832743D01*
X103535839Y-135788426D01*
X103721401Y-135658495D01*
X103888495Y-135491401D01*
X104024035Y-135297830D01*
X104123903Y-135083663D01*
X104132923Y-135050000D01*
X127548863Y-135050000D01*
X127569365Y-135271262D01*
X127630175Y-135484984D01*
X127729219Y-135683893D01*
X127863132Y-135861223D01*
X128027344Y-136010922D01*
X128099811Y-136055791D01*
X128216270Y-136127899D01*
X128423472Y-136208170D01*
X128641896Y-136249000D01*
X128864102Y-136249000D01*
X128864104Y-136249000D01*
X129082528Y-136208170D01*
X129289730Y-136127899D01*
X129478655Y-136010922D01*
X129642868Y-135861222D01*
X129776778Y-135683896D01*
X129776778Y-135683894D01*
X129776780Y-135683893D01*
X129875824Y-135484984D01*
X129903734Y-135386893D01*
X129936133Y-135332339D01*
X129991276Y-135300954D01*
X130054724Y-135300954D01*
X130109867Y-135332339D01*
X130142266Y-135386893D01*
X130170175Y-135484984D01*
X130269219Y-135683893D01*
X130403132Y-135861223D01*
X130567344Y-136010922D01*
X130639811Y-136055791D01*
X130756270Y-136127899D01*
X130963472Y-136208170D01*
X131181896Y-136249000D01*
X131404102Y-136249000D01*
X131404104Y-136249000D01*
X131622528Y-136208170D01*
X131829730Y-136127899D01*
X132018655Y-136010922D01*
X132182868Y-135861222D01*
X132316778Y-135683896D01*
X132316778Y-135683894D01*
X132316780Y-135683893D01*
X132415824Y-135484984D01*
X132443734Y-135386893D01*
X132476133Y-135332339D01*
X132531276Y-135300954D01*
X132594724Y-135300954D01*
X132649867Y-135332339D01*
X132682266Y-135386893D01*
X132710175Y-135484984D01*
X132809219Y-135683893D01*
X132943132Y-135861223D01*
X133107344Y-136010922D01*
X133179811Y-136055791D01*
X133296270Y-136127899D01*
X133503472Y-136208170D01*
X133721896Y-136249000D01*
X133944102Y-136249000D01*
X133944104Y-136249000D01*
X134162528Y-136208170D01*
X134369730Y-136127899D01*
X134486190Y-136055790D01*
X135720760Y-136055790D01*
X135720761Y-136055791D01*
X135836490Y-136127447D01*
X136043610Y-136207685D01*
X136261945Y-136248500D01*
X136484055Y-136248500D01*
X136702389Y-136207685D01*
X136909506Y-136127448D01*
X137025238Y-136055790D01*
X136859448Y-135890000D01*
X138894434Y-135890000D01*
X138914631Y-136069251D01*
X138914631Y-136069253D01*
X138914632Y-136069255D01*
X138974211Y-136239522D01*
X139005048Y-136288598D01*
X139070185Y-136392264D01*
X139197735Y-136519814D01*
X139197737Y-136519815D01*
X139197738Y-136519816D01*
X139350478Y-136615789D01*
X139520745Y-136675368D01*
X139700000Y-136695565D01*
X139879255Y-136675368D01*
X140049522Y-136615789D01*
X140202262Y-136519816D01*
X140329816Y-136392262D01*
X140425789Y-136239522D01*
X140485368Y-136069255D01*
X140505565Y-135890000D01*
X140485368Y-135710745D01*
X140425789Y-135540478D01*
X140329816Y-135387738D01*
X140329815Y-135387737D01*
X140329814Y-135387735D01*
X140202264Y-135260185D01*
X140139867Y-135220979D01*
X140049522Y-135164211D01*
X139879255Y-135104632D01*
X139879253Y-135104631D01*
X139879251Y-135104631D01*
X139700000Y-135084434D01*
X139520748Y-135104631D01*
X139520745Y-135104631D01*
X139520745Y-135104632D01*
X139350478Y-135164211D01*
X139350476Y-135164211D01*
X139350476Y-135164212D01*
X139197735Y-135260185D01*
X139070185Y-135387735D01*
X139009080Y-135484984D01*
X138974211Y-135540478D01*
X138932915Y-135658495D01*
X138914631Y-135710748D01*
X138894434Y-135890000D01*
X136859448Y-135890000D01*
X136373001Y-135403553D01*
X136373000Y-135403553D01*
X135720760Y-136055790D01*
X134486190Y-136055790D01*
X134558655Y-136010922D01*
X134722868Y-135861222D01*
X134856778Y-135683896D01*
X134856778Y-135683894D01*
X134856780Y-135683893D01*
X134955824Y-135484984D01*
X134983994Y-135385978D01*
X135016392Y-135331425D01*
X135071535Y-135300039D01*
X135134984Y-135300039D01*
X135190127Y-135331424D01*
X135222526Y-135385977D01*
X135250644Y-135484802D01*
X135349650Y-135683632D01*
X135365210Y-135704235D01*
X136019447Y-135050001D01*
X136726553Y-135050001D01*
X137380788Y-135704235D01*
X137380789Y-135704235D01*
X137396349Y-135683631D01*
X137495356Y-135484801D01*
X137556140Y-135271169D01*
X137576633Y-135049999D01*
X137556140Y-134828830D01*
X137495355Y-134615196D01*
X137396350Y-134416368D01*
X137380789Y-134395762D01*
X137380788Y-134395762D01*
X136726553Y-135050000D01*
X136726553Y-135050001D01*
X136019447Y-135050001D01*
X136019447Y-135050000D01*
X135365210Y-134395762D01*
X135365209Y-134395762D01*
X135349649Y-134416367D01*
X135250645Y-134615195D01*
X135222526Y-134714022D01*
X135190127Y-134768575D01*
X135134984Y-134799960D01*
X135071535Y-134799960D01*
X135016393Y-134768575D01*
X134983994Y-134714021D01*
X134955824Y-134615015D01*
X134856780Y-134416106D01*
X134722867Y-134238776D01*
X134558655Y-134089077D01*
X134486188Y-134044208D01*
X135720760Y-134044208D01*
X136373000Y-134696447D01*
X136373001Y-134696447D01*
X137025238Y-134044208D01*
X137025237Y-134044207D01*
X136909509Y-133972552D01*
X136702389Y-133892314D01*
X136484055Y-133851500D01*
X136261945Y-133851500D01*
X136043610Y-133892314D01*
X135836492Y-133972552D01*
X135720760Y-134044208D01*
X134486188Y-134044208D01*
X134369732Y-133972102D01*
X134369730Y-133972101D01*
X134162528Y-133891830D01*
X133944104Y-133851000D01*
X133721896Y-133851000D01*
X133503471Y-133891830D01*
X133503472Y-133891830D01*
X133296267Y-133972102D01*
X133107344Y-134089077D01*
X132943132Y-134238776D01*
X132809219Y-134416106D01*
X132710176Y-134615014D01*
X132682266Y-134713107D01*
X132649867Y-134767660D01*
X132594724Y-134799045D01*
X132531276Y-134799045D01*
X132476133Y-134767660D01*
X132443734Y-134713107D01*
X132417242Y-134620000D01*
X132415824Y-134615016D01*
X132408291Y-134599887D01*
X132316780Y-134416106D01*
X132182867Y-134238776D01*
X132018655Y-134089077D01*
X131829732Y-133972102D01*
X131829730Y-133972101D01*
X131622528Y-133891830D01*
X131404104Y-133851000D01*
X131181896Y-133851000D01*
X130963471Y-133891830D01*
X130963472Y-133891830D01*
X130756267Y-133972102D01*
X130567344Y-134089077D01*
X130403132Y-134238776D01*
X130269219Y-134416106D01*
X130170176Y-134615014D01*
X130142266Y-134713107D01*
X130109867Y-134767660D01*
X130054724Y-134799045D01*
X129991276Y-134799045D01*
X129936133Y-134767660D01*
X129903734Y-134713107D01*
X129877242Y-134620000D01*
X129875824Y-134615016D01*
X129868291Y-134599887D01*
X129776780Y-134416106D01*
X129642867Y-134238776D01*
X129478655Y-134089077D01*
X129289732Y-133972102D01*
X129289730Y-133972101D01*
X129082528Y-133891830D01*
X128864104Y-133851000D01*
X128641896Y-133851000D01*
X128423471Y-133891830D01*
X128423472Y-133891830D01*
X128216267Y-133972102D01*
X128027344Y-134089077D01*
X127863132Y-134238776D01*
X127729219Y-134416106D01*
X127630175Y-134615015D01*
X127569365Y-134828737D01*
X127548863Y-135050000D01*
X104132923Y-135050000D01*
X104185063Y-134855408D01*
X104205659Y-134620000D01*
X104203899Y-134599889D01*
X104185063Y-134384592D01*
X104182858Y-134376362D01*
X104123903Y-134156337D01*
X104024035Y-133942171D01*
X103976371Y-133874100D01*
X121955534Y-133874100D01*
X121975731Y-134053351D01*
X121975731Y-134053353D01*
X121975732Y-134053355D01*
X122035311Y-134223622D01*
X122035312Y-134223623D01*
X122131285Y-134376364D01*
X122258835Y-134503914D01*
X122258837Y-134503915D01*
X122258838Y-134503916D01*
X122411578Y-134599889D01*
X122581845Y-134659468D01*
X122761100Y-134679665D01*
X122940355Y-134659468D01*
X123110622Y-134599889D01*
X123263362Y-134503916D01*
X123390916Y-134376362D01*
X123486889Y-134223622D01*
X123546468Y-134053355D01*
X123566665Y-133874100D01*
X123546468Y-133694845D01*
X123486889Y-133524578D01*
X123390916Y-133371838D01*
X123390915Y-133371837D01*
X123390914Y-133371835D01*
X123263364Y-133244285D01*
X123200967Y-133205078D01*
X123110622Y-133148311D01*
X122940355Y-133088732D01*
X122940353Y-133088731D01*
X122940351Y-133088731D01*
X122761100Y-133068534D01*
X122581848Y-133088731D01*
X122581845Y-133088731D01*
X122581845Y-133088732D01*
X122411578Y-133148311D01*
X122411576Y-133148311D01*
X122411576Y-133148312D01*
X122258835Y-133244285D01*
X122131285Y-133371835D01*
X122035312Y-133524576D01*
X122035311Y-133524578D01*
X121975732Y-133694845D01*
X121975731Y-133694848D01*
X121955534Y-133874100D01*
X103976371Y-133874100D01*
X103888495Y-133748599D01*
X103721401Y-133581505D01*
X103535839Y-133451573D01*
X103496975Y-133407257D01*
X103482964Y-133350000D01*
X103496975Y-133292743D01*
X103535839Y-133248426D01*
X103721401Y-133118495D01*
X103888495Y-132951401D01*
X104024035Y-132757830D01*
X104123903Y-132543663D01*
X104185063Y-132315408D01*
X104205659Y-132080000D01*
X104197689Y-131988900D01*
X155597134Y-131988900D01*
X155617331Y-132168151D01*
X155617331Y-132168153D01*
X155617332Y-132168155D01*
X155676911Y-132338422D01*
X155676912Y-132338423D01*
X155772885Y-132491164D01*
X155900435Y-132618714D01*
X155900437Y-132618715D01*
X155900438Y-132618716D01*
X156053178Y-132714689D01*
X156223445Y-132774268D01*
X156402700Y-132794465D01*
X156581955Y-132774268D01*
X156752222Y-132714689D01*
X156904962Y-132618716D01*
X157032516Y-132491162D01*
X157128489Y-132338422D01*
X157188068Y-132168155D01*
X157208265Y-131988900D01*
X157188068Y-131809645D01*
X157128489Y-131639378D01*
X157032516Y-131486638D01*
X157032515Y-131486637D01*
X157032514Y-131486635D01*
X156904964Y-131359085D01*
X156842567Y-131319878D01*
X156752222Y-131263111D01*
X156581955Y-131203532D01*
X156581953Y-131203531D01*
X156581951Y-131203531D01*
X156402700Y-131183334D01*
X156223448Y-131203531D01*
X156223445Y-131203531D01*
X156223445Y-131203532D01*
X156053178Y-131263111D01*
X156053176Y-131263111D01*
X156053176Y-131263112D01*
X155900435Y-131359085D01*
X155772885Y-131486635D01*
X155676912Y-131639376D01*
X155617331Y-131809648D01*
X155597134Y-131988900D01*
X104197689Y-131988900D01*
X104185063Y-131844592D01*
X104123903Y-131616337D01*
X104024035Y-131402171D01*
X103888495Y-131208599D01*
X103721401Y-131041505D01*
X103535839Y-130911573D01*
X103496976Y-130867257D01*
X103482965Y-130810000D01*
X103496976Y-130752743D01*
X103535839Y-130708426D01*
X103721401Y-130578495D01*
X103888495Y-130411401D01*
X104024035Y-130217830D01*
X104123903Y-130003663D01*
X104185063Y-129775408D01*
X104205659Y-129540000D01*
X104185063Y-129304592D01*
X104123903Y-129076337D01*
X104024035Y-128862171D01*
X103888495Y-128668599D01*
X103721401Y-128501505D01*
X103535839Y-128371573D01*
X103496976Y-128327257D01*
X103482965Y-128270000D01*
X103496976Y-128212743D01*
X103535839Y-128168426D01*
X103670553Y-128074099D01*
X122697234Y-128074099D01*
X122717431Y-128253351D01*
X122717431Y-128253353D01*
X122717432Y-128253355D01*
X122777011Y-128423622D01*
X122777012Y-128423623D01*
X122872985Y-128576364D01*
X123000535Y-128703914D01*
X123000537Y-128703915D01*
X123000538Y-128703916D01*
X123153278Y-128799889D01*
X123323545Y-128859468D01*
X123502800Y-128879665D01*
X123682055Y-128859468D01*
X123852322Y-128799889D01*
X124005062Y-128703916D01*
X124132616Y-128576362D01*
X124228589Y-128423622D01*
X124288168Y-128253355D01*
X124308365Y-128074100D01*
X124288168Y-127894845D01*
X124286123Y-127889000D01*
X135999834Y-127889000D01*
X136020031Y-128068251D01*
X136020031Y-128068253D01*
X136020032Y-128068255D01*
X136079611Y-128238522D01*
X136099390Y-128270000D01*
X136175585Y-128391264D01*
X136303135Y-128518814D01*
X136303137Y-128518815D01*
X136303138Y-128518816D01*
X136455878Y-128614789D01*
X136626145Y-128674368D01*
X136805400Y-128694565D01*
X136984655Y-128674368D01*
X137154922Y-128614789D01*
X137307662Y-128518816D01*
X137435216Y-128391262D01*
X137531189Y-128238522D01*
X137590768Y-128068255D01*
X137610965Y-127889000D01*
X137590768Y-127709745D01*
X137531189Y-127539478D01*
X137435216Y-127386738D01*
X137435215Y-127386737D01*
X137435214Y-127386735D01*
X137307664Y-127259185D01*
X137194373Y-127188000D01*
X137154922Y-127163211D01*
X136984655Y-127103632D01*
X136984653Y-127103631D01*
X136984651Y-127103631D01*
X136805400Y-127083434D01*
X136626148Y-127103631D01*
X136626145Y-127103631D01*
X136626145Y-127103632D01*
X136455878Y-127163211D01*
X136455876Y-127163211D01*
X136455876Y-127163212D01*
X136303135Y-127259185D01*
X136175585Y-127386735D01*
X136121990Y-127472032D01*
X136079611Y-127539478D01*
X136031201Y-127677827D01*
X136020031Y-127709748D01*
X135999834Y-127889000D01*
X124286123Y-127889000D01*
X124228589Y-127724578D01*
X124132616Y-127571838D01*
X124132615Y-127571837D01*
X124132614Y-127571835D01*
X124005064Y-127444285D01*
X123913473Y-127386735D01*
X123852322Y-127348311D01*
X123682055Y-127288732D01*
X123682053Y-127288731D01*
X123682051Y-127288731D01*
X123502800Y-127268534D01*
X123323548Y-127288731D01*
X123323545Y-127288731D01*
X123323545Y-127288732D01*
X123153278Y-127348311D01*
X123153276Y-127348311D01*
X123153276Y-127348312D01*
X123000535Y-127444285D01*
X122872985Y-127571835D01*
X122801625Y-127685405D01*
X122777011Y-127724578D01*
X122725747Y-127871081D01*
X122717431Y-127894848D01*
X122697234Y-128074099D01*
X103670553Y-128074099D01*
X103721401Y-128038495D01*
X103888495Y-127871401D01*
X104024035Y-127677830D01*
X104123903Y-127463663D01*
X104185063Y-127235408D01*
X104205659Y-127000000D01*
X104185063Y-126764592D01*
X104123903Y-126536337D01*
X104024035Y-126322171D01*
X103888495Y-126128599D01*
X103721401Y-125961505D01*
X103535839Y-125831573D01*
X103496975Y-125787257D01*
X103482964Y-125730000D01*
X103496975Y-125672743D01*
X103535839Y-125628426D01*
X103721401Y-125498495D01*
X103888495Y-125331401D01*
X104010613Y-125156999D01*
X117441934Y-125156999D01*
X117462131Y-125336251D01*
X117462131Y-125336253D01*
X117462132Y-125336255D01*
X117521711Y-125506522D01*
X117521712Y-125506523D01*
X117617685Y-125659264D01*
X117745235Y-125786814D01*
X117745237Y-125786815D01*
X117745238Y-125786816D01*
X117897978Y-125882789D01*
X118068245Y-125942368D01*
X118247500Y-125962565D01*
X118426755Y-125942368D01*
X118597022Y-125882789D01*
X118749762Y-125786816D01*
X118877316Y-125659262D01*
X118973289Y-125506522D01*
X119032868Y-125336255D01*
X119053065Y-125157000D01*
X119032868Y-124977745D01*
X118973289Y-124807478D01*
X118877316Y-124654738D01*
X118877315Y-124654737D01*
X118877314Y-124654735D01*
X118749764Y-124527185D01*
X118642838Y-124459999D01*
X118597022Y-124431211D01*
X118426755Y-124371632D01*
X118426753Y-124371631D01*
X118426751Y-124371631D01*
X118247500Y-124351434D01*
X118068248Y-124371631D01*
X118068245Y-124371631D01*
X118068245Y-124371632D01*
X117897978Y-124431211D01*
X117897976Y-124431211D01*
X117897976Y-124431212D01*
X117745235Y-124527185D01*
X117617685Y-124654735D01*
X117521712Y-124807476D01*
X117521711Y-124807478D01*
X117478178Y-124931889D01*
X117462131Y-124977748D01*
X117441934Y-125156999D01*
X104010613Y-125156999D01*
X104024035Y-125137830D01*
X104123903Y-124923663D01*
X104185063Y-124695408D01*
X104205659Y-124460000D01*
X104185063Y-124224592D01*
X104180108Y-124206099D01*
X115048934Y-124206099D01*
X115069131Y-124385351D01*
X115069131Y-124385353D01*
X115069132Y-124385355D01*
X115128711Y-124555622D01*
X115185479Y-124645967D01*
X115224685Y-124708364D01*
X115352235Y-124835914D01*
X115352237Y-124835915D01*
X115352238Y-124835916D01*
X115504978Y-124931889D01*
X115675245Y-124991468D01*
X115854500Y-125011665D01*
X116033755Y-124991468D01*
X116204022Y-124931889D01*
X116356762Y-124835916D01*
X116484316Y-124708362D01*
X116580289Y-124555622D01*
X116639868Y-124385355D01*
X116660065Y-124206100D01*
X116639868Y-124026845D01*
X116580289Y-123856578D01*
X116513635Y-123750499D01*
X136052134Y-123750499D01*
X136072331Y-123929751D01*
X136072331Y-123929753D01*
X136072332Y-123929755D01*
X136131911Y-124100022D01*
X136131912Y-124100023D01*
X136227885Y-124252764D01*
X136355435Y-124380314D01*
X136355437Y-124380315D01*
X136355438Y-124380316D01*
X136508178Y-124476289D01*
X136678445Y-124535868D01*
X136857700Y-124556065D01*
X137036955Y-124535868D01*
X137207222Y-124476289D01*
X137359962Y-124380316D01*
X137487516Y-124252762D01*
X137583489Y-124100022D01*
X137643068Y-123929755D01*
X137663265Y-123750500D01*
X137643068Y-123571245D01*
X137583489Y-123400978D01*
X137487516Y-123248238D01*
X137487515Y-123248237D01*
X137487514Y-123248235D01*
X137359964Y-123120685D01*
X137297567Y-123081478D01*
X137207222Y-123024711D01*
X137036955Y-122965132D01*
X137036953Y-122965131D01*
X137036951Y-122965131D01*
X136857700Y-122944934D01*
X136678448Y-122965131D01*
X136678445Y-122965131D01*
X136678445Y-122965132D01*
X136508178Y-123024711D01*
X136508176Y-123024711D01*
X136508176Y-123024712D01*
X136355435Y-123120685D01*
X136227885Y-123248235D01*
X136132190Y-123400534D01*
X136131911Y-123400978D01*
X136087749Y-123527187D01*
X136072331Y-123571248D01*
X136052134Y-123750499D01*
X116513635Y-123750499D01*
X116490594Y-123713829D01*
X116471869Y-123656198D01*
X116482689Y-123596576D01*
X116520470Y-123549199D01*
X116576190Y-123525384D01*
X116636543Y-123530816D01*
X116796444Y-123586768D01*
X116975700Y-123606965D01*
X117154955Y-123586768D01*
X117325222Y-123527189D01*
X117477962Y-123431216D01*
X117605516Y-123303662D01*
X117701489Y-123150922D01*
X117761068Y-122980655D01*
X117781265Y-122801400D01*
X117761068Y-122622145D01*
X117701489Y-122451878D01*
X117605516Y-122299138D01*
X117605515Y-122299137D01*
X117605514Y-122299135D01*
X117477964Y-122171585D01*
X117377189Y-122108264D01*
X117325222Y-122075611D01*
X117238884Y-122045400D01*
X127469634Y-122045400D01*
X127489831Y-122224651D01*
X127489831Y-122224653D01*
X127489832Y-122224655D01*
X127549411Y-122394922D01*
X127559869Y-122411565D01*
X127645385Y-122547664D01*
X127772935Y-122675214D01*
X127772937Y-122675215D01*
X127772938Y-122675216D01*
X127925678Y-122771189D01*
X128095945Y-122830768D01*
X128275200Y-122850965D01*
X128454455Y-122830768D01*
X128624722Y-122771189D01*
X128777462Y-122675216D01*
X128905016Y-122547662D01*
X129000989Y-122394922D01*
X129060568Y-122224655D01*
X129080765Y-122045400D01*
X129060568Y-121866145D01*
X129000989Y-121695878D01*
X128905016Y-121543138D01*
X128905015Y-121543137D01*
X128905014Y-121543135D01*
X128856910Y-121495031D01*
X128824816Y-121439444D01*
X128824816Y-121375256D01*
X128856910Y-121319669D01*
X128905014Y-121271564D01*
X128905015Y-121271563D01*
X128905016Y-121271562D01*
X128930692Y-121230699D01*
X130004434Y-121230699D01*
X130024631Y-121409951D01*
X130024631Y-121409953D01*
X130024632Y-121409955D01*
X130084211Y-121580222D01*
X130118330Y-121634522D01*
X130180185Y-121732964D01*
X130307735Y-121860514D01*
X130307737Y-121860515D01*
X130307738Y-121860516D01*
X130460478Y-121956489D01*
X130630745Y-122016068D01*
X130650256Y-122018266D01*
X130713683Y-122044537D01*
X130753412Y-122100528D01*
X130757264Y-122169075D01*
X130724056Y-122229164D01*
X130718986Y-122234234D01*
X130625094Y-122383663D01*
X130623011Y-122386978D01*
X130615405Y-122408716D01*
X130563431Y-122557248D01*
X130543234Y-122736500D01*
X130563431Y-122915751D01*
X130563431Y-122915753D01*
X130563432Y-122915755D01*
X130623011Y-123086022D01*
X130663791Y-123150923D01*
X130718985Y-123238764D01*
X130846535Y-123366314D01*
X130846537Y-123366315D01*
X130846538Y-123366316D01*
X130999278Y-123462289D01*
X131169545Y-123521868D01*
X131348800Y-123542065D01*
X131528055Y-123521868D01*
X131698322Y-123462289D01*
X131851062Y-123366316D01*
X131978616Y-123238762D01*
X132074589Y-123086022D01*
X132134168Y-122915755D01*
X132154365Y-122736500D01*
X132134168Y-122557245D01*
X132074589Y-122386978D01*
X131978616Y-122234238D01*
X131978615Y-122234237D01*
X131978614Y-122234235D01*
X131851064Y-122106685D01*
X131753529Y-122045400D01*
X131698322Y-122010711D01*
X131528055Y-121951132D01*
X131528053Y-121951131D01*
X131528051Y-121951131D01*
X131508542Y-121948933D01*
X131445113Y-121922659D01*
X131405385Y-121866665D01*
X131401537Y-121798117D01*
X131434749Y-121738029D01*
X131439816Y-121732962D01*
X131463117Y-121695878D01*
X131535789Y-121580222D01*
X131595368Y-121409955D01*
X131609447Y-121285000D01*
X140799434Y-121285000D01*
X140819631Y-121464251D01*
X140819631Y-121464253D01*
X140819632Y-121464255D01*
X140879211Y-121634522D01*
X140879212Y-121634523D01*
X140975185Y-121787264D01*
X141102735Y-121914814D01*
X141102737Y-121914815D01*
X141102738Y-121914816D01*
X141255478Y-122010789D01*
X141425745Y-122070368D01*
X141560186Y-122085515D01*
X141604999Y-122090565D01*
X141604999Y-122090564D01*
X141605000Y-122090565D01*
X141784255Y-122070368D01*
X141784255Y-122070367D01*
X141789296Y-122069800D01*
X141844135Y-122075978D01*
X141890862Y-122105339D01*
X141893782Y-122108259D01*
X141893784Y-122108262D01*
X142021338Y-122235816D01*
X142174078Y-122331789D01*
X142344345Y-122391368D01*
X142523600Y-122411565D01*
X142702855Y-122391368D01*
X142873122Y-122331789D01*
X143025862Y-122235816D01*
X143153416Y-122108262D01*
X143249389Y-121955522D01*
X143308968Y-121785255D01*
X143329165Y-121606000D01*
X143308968Y-121426745D01*
X143249389Y-121256478D01*
X143153416Y-121103738D01*
X143153415Y-121103737D01*
X143153414Y-121103735D01*
X143025864Y-120976185D01*
X142875181Y-120881505D01*
X142873122Y-120880211D01*
X142702855Y-120820632D01*
X142702853Y-120820631D01*
X142702851Y-120820631D01*
X142523599Y-120800434D01*
X142339303Y-120821199D01*
X142284465Y-120815020D01*
X142237739Y-120785660D01*
X142107264Y-120655185D01*
X142007886Y-120592742D01*
X141954522Y-120559211D01*
X141784255Y-120499632D01*
X141784253Y-120499631D01*
X141784251Y-120499631D01*
X141605000Y-120479434D01*
X141425748Y-120499631D01*
X141425745Y-120499631D01*
X141425745Y-120499632D01*
X141255478Y-120559211D01*
X141255476Y-120559211D01*
X141255476Y-120559212D01*
X141102735Y-120655185D01*
X140975185Y-120782735D01*
X140889084Y-120919765D01*
X140879211Y-120935478D01*
X140838049Y-121053112D01*
X140819631Y-121105748D01*
X140799434Y-121285000D01*
X131609447Y-121285000D01*
X131615565Y-121230700D01*
X131595368Y-121051445D01*
X131535789Y-120881178D01*
X131439816Y-120728438D01*
X131439815Y-120728437D01*
X131439814Y-120728435D01*
X131312264Y-120600885D01*
X131228772Y-120548424D01*
X131159522Y-120504911D01*
X130989255Y-120445332D01*
X130989253Y-120445331D01*
X130989251Y-120445331D01*
X130810000Y-120425134D01*
X130630748Y-120445331D01*
X130630745Y-120445331D01*
X130630745Y-120445332D01*
X130460478Y-120504911D01*
X130460476Y-120504911D01*
X130460476Y-120504912D01*
X130307735Y-120600885D01*
X130180185Y-120728435D01*
X130084818Y-120880212D01*
X130084211Y-120881178D01*
X130065211Y-120935478D01*
X130024631Y-121051448D01*
X130004434Y-121230699D01*
X128930692Y-121230699D01*
X129000989Y-121118822D01*
X129060568Y-120948555D01*
X129080765Y-120769300D01*
X129060568Y-120590045D01*
X129000989Y-120419778D01*
X128970004Y-120370466D01*
X128950999Y-120304496D01*
X128970005Y-120238524D01*
X129021198Y-120192776D01*
X129088883Y-120181276D01*
X129093242Y-120181767D01*
X129093245Y-120181768D01*
X129272500Y-120201965D01*
X129451755Y-120181768D01*
X129622022Y-120122189D01*
X129623120Y-120121499D01*
X132544434Y-120121499D01*
X132564631Y-120300751D01*
X132564631Y-120300753D01*
X132564632Y-120300755D01*
X132624211Y-120471022D01*
X132654745Y-120519616D01*
X132720185Y-120623764D01*
X132847735Y-120751314D01*
X132847737Y-120751315D01*
X132847738Y-120751316D01*
X133000478Y-120847289D01*
X133170745Y-120906868D01*
X133350000Y-120927065D01*
X133529255Y-120906868D01*
X133699522Y-120847289D01*
X133852262Y-120751316D01*
X133979816Y-120623762D01*
X134075789Y-120471022D01*
X134135368Y-120300755D01*
X134155565Y-120121500D01*
X134154742Y-120114200D01*
X134140065Y-119983931D01*
X134135368Y-119942245D01*
X134117016Y-119889799D01*
X134642134Y-119889799D01*
X134662331Y-120069051D01*
X134662331Y-120069053D01*
X134662332Y-120069055D01*
X134721911Y-120239322D01*
X134760512Y-120300755D01*
X134817885Y-120392064D01*
X134945435Y-120519614D01*
X134945437Y-120519615D01*
X134945438Y-120519616D01*
X135098178Y-120615589D01*
X135268445Y-120675168D01*
X135402886Y-120690315D01*
X135447699Y-120695365D01*
X135447699Y-120695364D01*
X135447700Y-120695365D01*
X135626955Y-120675168D01*
X135797222Y-120615589D01*
X135949962Y-120519616D01*
X136077516Y-120392062D01*
X136173489Y-120239322D01*
X136233068Y-120069055D01*
X136253265Y-119889800D01*
X136233068Y-119710545D01*
X136173489Y-119540278D01*
X136077516Y-119387538D01*
X136077515Y-119387537D01*
X136077514Y-119387535D01*
X135949964Y-119259985D01*
X135849789Y-119197041D01*
X135797222Y-119164011D01*
X135626955Y-119104432D01*
X135626953Y-119104431D01*
X135626951Y-119104431D01*
X135447700Y-119084234D01*
X135268448Y-119104431D01*
X135268445Y-119104431D01*
X135268445Y-119104432D01*
X135098178Y-119164011D01*
X135098176Y-119164011D01*
X135098176Y-119164012D01*
X134945435Y-119259985D01*
X134817885Y-119387535D01*
X134735396Y-119518816D01*
X134721911Y-119540278D01*
X134709532Y-119575655D01*
X134662331Y-119710548D01*
X134642134Y-119889799D01*
X134117016Y-119889799D01*
X134075789Y-119771978D01*
X133979816Y-119619238D01*
X133979815Y-119619237D01*
X133979814Y-119619235D01*
X133852264Y-119491685D01*
X133781605Y-119447287D01*
X133699522Y-119395711D01*
X133529255Y-119336132D01*
X133529253Y-119336131D01*
X133529251Y-119336131D01*
X133350000Y-119315934D01*
X133170748Y-119336131D01*
X133170745Y-119336131D01*
X133170745Y-119336132D01*
X133000478Y-119395711D01*
X133000476Y-119395711D01*
X133000476Y-119395712D01*
X132847735Y-119491685D01*
X132720185Y-119619235D01*
X132662810Y-119710548D01*
X132624211Y-119771978D01*
X132596199Y-119852032D01*
X132564631Y-119942248D01*
X132544434Y-120121499D01*
X129623120Y-120121499D01*
X129774762Y-120026216D01*
X129902316Y-119898662D01*
X129998289Y-119745922D01*
X130057868Y-119575655D01*
X130078065Y-119396400D01*
X130057868Y-119217145D01*
X129998289Y-119046878D01*
X129902316Y-118894138D01*
X129902315Y-118894137D01*
X129902314Y-118894135D01*
X129774764Y-118766585D01*
X129626443Y-118673389D01*
X129622022Y-118670611D01*
X129451755Y-118611032D01*
X129451753Y-118611031D01*
X129451751Y-118611031D01*
X129272500Y-118590834D01*
X129093248Y-118611031D01*
X129093245Y-118611031D01*
X129093245Y-118611032D01*
X128922978Y-118670611D01*
X128922976Y-118670611D01*
X128922976Y-118670612D01*
X128770235Y-118766585D01*
X128642685Y-118894135D01*
X128628735Y-118916337D01*
X128546711Y-119046878D01*
X128505724Y-119164012D01*
X128487131Y-119217148D01*
X128466934Y-119396400D01*
X128487131Y-119575651D01*
X128487131Y-119575653D01*
X128487132Y-119575655D01*
X128546711Y-119745922D01*
X128546712Y-119745923D01*
X128577694Y-119795231D01*
X128596700Y-119861203D01*
X128577694Y-119927175D01*
X128526501Y-119972923D01*
X128458816Y-119984423D01*
X128275200Y-119963734D01*
X128095948Y-119983931D01*
X128095945Y-119983931D01*
X128095945Y-119983932D01*
X127925678Y-120043511D01*
X127925676Y-120043511D01*
X127925676Y-120043512D01*
X127772935Y-120139485D01*
X127645385Y-120267035D01*
X127550218Y-120418493D01*
X127549411Y-120419778D01*
X127500621Y-120559211D01*
X127489831Y-120590048D01*
X127469634Y-120769299D01*
X127489831Y-120948551D01*
X127489831Y-120948553D01*
X127489832Y-120948555D01*
X127549411Y-121118822D01*
X127549412Y-121118823D01*
X127645384Y-121271563D01*
X127693489Y-121319667D01*
X127725584Y-121375254D01*
X127725584Y-121439442D01*
X127693491Y-121495029D01*
X127645385Y-121543135D01*
X127556502Y-121684592D01*
X127549411Y-121695878D01*
X127517434Y-121787264D01*
X127489831Y-121866148D01*
X127469634Y-122045400D01*
X117238884Y-122045400D01*
X117154955Y-122016032D01*
X117154953Y-122016031D01*
X117154951Y-122016031D01*
X116975700Y-121995834D01*
X116796448Y-122016031D01*
X116796445Y-122016031D01*
X116796445Y-122016032D01*
X116626178Y-122075611D01*
X116626176Y-122075611D01*
X116626176Y-122075612D01*
X116473435Y-122171585D01*
X116345885Y-122299135D01*
X116275241Y-122411565D01*
X116249911Y-122451878D01*
X116210584Y-122564268D01*
X116190331Y-122622148D01*
X116170134Y-122801400D01*
X116190331Y-122980651D01*
X116190331Y-122980653D01*
X116190332Y-122980655D01*
X116249911Y-123150922D01*
X116249912Y-123150923D01*
X116339605Y-123293670D01*
X116358330Y-123351301D01*
X116347510Y-123410923D01*
X116309729Y-123458299D01*
X116254009Y-123482115D01*
X116193657Y-123476684D01*
X116033752Y-123420731D01*
X115854500Y-123400534D01*
X115675248Y-123420731D01*
X115675245Y-123420731D01*
X115675245Y-123420732D01*
X115504978Y-123480311D01*
X115504976Y-123480311D01*
X115504976Y-123480312D01*
X115352235Y-123576285D01*
X115224685Y-123703835D01*
X115128712Y-123856576D01*
X115069131Y-124026848D01*
X115048934Y-124206099D01*
X104180108Y-124206099D01*
X104123903Y-123996337D01*
X104024035Y-123782171D01*
X103888495Y-123588599D01*
X103721401Y-123421505D01*
X103535839Y-123291573D01*
X103496975Y-123247257D01*
X103482964Y-123190000D01*
X103496975Y-123132743D01*
X103535839Y-123088426D01*
X103721401Y-122958495D01*
X103888495Y-122791401D01*
X104024035Y-122597830D01*
X104123903Y-122383663D01*
X104185063Y-122155408D01*
X104205659Y-121920000D01*
X104205205Y-121914816D01*
X104193314Y-121778899D01*
X111383434Y-121778899D01*
X111403631Y-121958151D01*
X111403631Y-121958153D01*
X111403632Y-121958155D01*
X111463211Y-122128422D01*
X111488755Y-122169075D01*
X111559185Y-122281164D01*
X111686735Y-122408714D01*
X111686737Y-122408715D01*
X111686738Y-122408716D01*
X111839478Y-122504689D01*
X112009745Y-122564268D01*
X112189000Y-122584465D01*
X112368255Y-122564268D01*
X112538522Y-122504689D01*
X112691262Y-122408716D01*
X112818816Y-122281162D01*
X112914789Y-122128422D01*
X112974368Y-121958155D01*
X112994565Y-121778900D01*
X112974368Y-121599645D01*
X112914789Y-121429378D01*
X112818816Y-121276638D01*
X112818815Y-121276637D01*
X112818814Y-121276635D01*
X112691264Y-121149085D01*
X112619094Y-121103738D01*
X112538522Y-121053111D01*
X112368255Y-120993532D01*
X112368253Y-120993531D01*
X112368251Y-120993531D01*
X112189000Y-120973334D01*
X112009748Y-120993531D01*
X112009745Y-120993531D01*
X112009745Y-120993532D01*
X111839478Y-121053111D01*
X111839476Y-121053111D01*
X111839476Y-121053112D01*
X111686735Y-121149085D01*
X111559185Y-121276635D01*
X111463212Y-121429376D01*
X111463211Y-121429378D01*
X111451007Y-121464255D01*
X111403631Y-121599648D01*
X111383434Y-121778899D01*
X104193314Y-121778899D01*
X104185063Y-121684592D01*
X104171647Y-121634522D01*
X104123903Y-121456337D01*
X104024035Y-121242171D01*
X103888495Y-121048599D01*
X103721401Y-120881505D01*
X103535839Y-120751573D01*
X103496974Y-120707255D01*
X103482964Y-120649999D01*
X103496975Y-120592742D01*
X103535837Y-120548428D01*
X103721401Y-120418495D01*
X103888495Y-120251401D01*
X103984565Y-120114199D01*
X115293734Y-120114199D01*
X115313931Y-120293451D01*
X115313931Y-120293453D01*
X115313932Y-120293455D01*
X115373511Y-120463722D01*
X115408630Y-120519614D01*
X115469485Y-120616464D01*
X115597035Y-120744014D01*
X115597037Y-120744015D01*
X115597038Y-120744016D01*
X115749778Y-120839989D01*
X115920045Y-120899568D01*
X116099300Y-120919765D01*
X116278555Y-120899568D01*
X116448822Y-120839989D01*
X116601562Y-120744016D01*
X116729116Y-120616462D01*
X116825089Y-120463722D01*
X116884668Y-120293455D01*
X116904865Y-120114200D01*
X116884668Y-119934945D01*
X116825089Y-119764678D01*
X116782988Y-119697675D01*
X116764178Y-119638657D01*
X116776264Y-119577902D01*
X116816230Y-119530574D01*
X116874099Y-119508485D01*
X116888455Y-119506868D01*
X117058722Y-119447289D01*
X117211462Y-119351316D01*
X117339016Y-119223762D01*
X117434989Y-119071022D01*
X117494568Y-118900755D01*
X117514765Y-118721500D01*
X117494568Y-118542245D01*
X117434989Y-118371978D01*
X117339016Y-118219238D01*
X117339015Y-118219237D01*
X117339014Y-118219235D01*
X117211464Y-118091685D01*
X117149067Y-118052478D01*
X117058722Y-117995711D01*
X116888455Y-117936132D01*
X116888453Y-117936131D01*
X116888451Y-117936131D01*
X116709199Y-117915934D01*
X116529948Y-117936131D01*
X116529945Y-117936131D01*
X116529945Y-117936132D01*
X116359678Y-117995711D01*
X116359676Y-117995711D01*
X116359676Y-117995712D01*
X116206935Y-118091685D01*
X116079385Y-118219235D01*
X115983412Y-118371976D01*
X115983411Y-118371978D01*
X115967950Y-118416164D01*
X115923831Y-118542248D01*
X115903634Y-118721499D01*
X115923831Y-118900751D01*
X115923831Y-118900753D01*
X115923832Y-118900755D01*
X115983411Y-119071022D01*
X116004404Y-119104432D01*
X116025510Y-119138022D01*
X116044321Y-119197041D01*
X116032236Y-119257795D01*
X115992272Y-119305123D01*
X115934401Y-119327214D01*
X115920049Y-119328831D01*
X115920046Y-119328831D01*
X115920045Y-119328832D01*
X115749778Y-119388411D01*
X115749776Y-119388411D01*
X115749776Y-119388412D01*
X115597035Y-119484385D01*
X115469485Y-119611935D01*
X115373512Y-119764676D01*
X115373511Y-119764678D01*
X115329729Y-119889799D01*
X115313931Y-119934948D01*
X115293734Y-120114199D01*
X103984565Y-120114199D01*
X104024035Y-120057830D01*
X104123903Y-119843663D01*
X104185063Y-119615408D01*
X104205659Y-119380000D01*
X104185063Y-119144592D01*
X104123903Y-118916337D01*
X104024035Y-118702171D01*
X103888495Y-118508599D01*
X103721401Y-118341505D01*
X103535839Y-118211573D01*
X103496974Y-118167255D01*
X103482964Y-118109999D01*
X103496975Y-118052742D01*
X103535837Y-118008428D01*
X103721401Y-117878495D01*
X103888495Y-117711401D01*
X104024035Y-117517830D01*
X104123903Y-117303663D01*
X104126332Y-117294599D01*
X113236434Y-117294599D01*
X113256631Y-117473851D01*
X113256631Y-117473853D01*
X113256632Y-117473855D01*
X113316211Y-117644122D01*
X113316212Y-117644123D01*
X113412185Y-117796864D01*
X113539735Y-117924414D01*
X113539737Y-117924415D01*
X113539738Y-117924416D01*
X113692478Y-118020389D01*
X113862745Y-118079968D01*
X114042000Y-118100165D01*
X114221255Y-118079968D01*
X114391522Y-118020389D01*
X114544262Y-117924416D01*
X114554779Y-117913899D01*
X122569134Y-117913899D01*
X122589331Y-118093151D01*
X122589331Y-118093153D01*
X122589332Y-118093155D01*
X122648911Y-118263422D01*
X122648912Y-118263423D01*
X122744885Y-118416164D01*
X122872435Y-118543714D01*
X122872437Y-118543715D01*
X122872438Y-118543716D01*
X123025178Y-118639689D01*
X123195445Y-118699268D01*
X123374700Y-118719465D01*
X123553955Y-118699268D01*
X123724222Y-118639689D01*
X123876962Y-118543716D01*
X124004516Y-118416162D01*
X124100489Y-118263422D01*
X124160068Y-118093155D01*
X124180265Y-117913900D01*
X124160068Y-117734645D01*
X124100489Y-117564378D01*
X124013792Y-117426400D01*
X124938834Y-117426400D01*
X124959031Y-117605651D01*
X124959031Y-117605653D01*
X124959032Y-117605655D01*
X125018611Y-117775922D01*
X125031770Y-117796864D01*
X125114585Y-117928664D01*
X125242135Y-118056214D01*
X125242137Y-118056215D01*
X125242138Y-118056216D01*
X125394878Y-118152189D01*
X125565145Y-118211768D01*
X125744400Y-118231965D01*
X125923655Y-118211768D01*
X126093922Y-118152189D01*
X126246662Y-118056216D01*
X126355279Y-117947599D01*
X130865834Y-117947599D01*
X130886031Y-118126851D01*
X130886031Y-118126853D01*
X130886032Y-118126855D01*
X130945611Y-118297122D01*
X130945612Y-118297123D01*
X131041585Y-118449864D01*
X131169135Y-118577414D01*
X131169137Y-118577415D01*
X131169138Y-118577416D01*
X131321878Y-118673389D01*
X131492145Y-118732968D01*
X131671400Y-118753165D01*
X131850655Y-118732968D01*
X132020922Y-118673389D01*
X132173662Y-118577416D01*
X132301216Y-118449862D01*
X132397189Y-118297122D01*
X132456768Y-118126855D01*
X132476965Y-117947600D01*
X132456768Y-117768345D01*
X132397189Y-117598078D01*
X132301216Y-117445338D01*
X132301215Y-117445337D01*
X132301214Y-117445335D01*
X132173664Y-117317785D01*
X132111267Y-117278578D01*
X132020922Y-117221811D01*
X131850655Y-117162232D01*
X131850653Y-117162231D01*
X131850651Y-117162231D01*
X131671400Y-117142034D01*
X131492148Y-117162231D01*
X131492145Y-117162231D01*
X131492145Y-117162232D01*
X131321878Y-117221811D01*
X131321876Y-117221811D01*
X131321876Y-117221812D01*
X131169135Y-117317785D01*
X131041585Y-117445335D01*
X130945612Y-117598076D01*
X130886031Y-117768348D01*
X130865834Y-117947599D01*
X126355279Y-117947599D01*
X126374216Y-117928662D01*
X126470189Y-117775922D01*
X126529768Y-117605655D01*
X126549965Y-117426400D01*
X126529768Y-117247145D01*
X126470189Y-117076878D01*
X126374216Y-116924138D01*
X126374215Y-116924137D01*
X126374214Y-116924135D01*
X126246664Y-116796585D01*
X126141192Y-116730313D01*
X126093922Y-116700611D01*
X125923655Y-116641032D01*
X125923653Y-116641031D01*
X125923651Y-116641031D01*
X125744400Y-116620834D01*
X125565148Y-116641031D01*
X125565145Y-116641031D01*
X125565145Y-116641032D01*
X125394878Y-116700611D01*
X125394876Y-116700611D01*
X125394876Y-116700612D01*
X125242135Y-116796585D01*
X125114585Y-116924135D01*
X125018612Y-117076876D01*
X125018611Y-117076878D01*
X124979689Y-117188111D01*
X124959031Y-117247148D01*
X124938834Y-117426400D01*
X124013792Y-117426400D01*
X124004516Y-117411638D01*
X124004515Y-117411637D01*
X124004514Y-117411635D01*
X123876964Y-117284085D01*
X123777855Y-117221811D01*
X123724222Y-117188111D01*
X123553955Y-117128532D01*
X123553953Y-117128531D01*
X123553951Y-117128531D01*
X123374699Y-117108334D01*
X123195448Y-117128531D01*
X123195445Y-117128531D01*
X123195445Y-117128532D01*
X123025178Y-117188111D01*
X123025176Y-117188111D01*
X123025176Y-117188112D01*
X122872435Y-117284085D01*
X122744885Y-117411635D01*
X122678161Y-117517827D01*
X122648911Y-117564378D01*
X122597465Y-117711402D01*
X122589331Y-117734648D01*
X122569134Y-117913899D01*
X114554779Y-117913899D01*
X114671816Y-117796862D01*
X114767789Y-117644122D01*
X114827368Y-117473855D01*
X114847565Y-117294600D01*
X114827368Y-117115345D01*
X114767789Y-116945078D01*
X114671816Y-116792338D01*
X114671815Y-116792337D01*
X114671814Y-116792335D01*
X114544264Y-116664785D01*
X114520734Y-116650000D01*
X118806134Y-116650000D01*
X118826260Y-116828616D01*
X118826332Y-116829255D01*
X118885911Y-116999522D01*
X118885912Y-116999523D01*
X118981885Y-117152264D01*
X119109435Y-117279814D01*
X119109437Y-117279815D01*
X119109438Y-117279816D01*
X119262178Y-117375789D01*
X119432445Y-117435368D01*
X119611700Y-117455565D01*
X119790955Y-117435368D01*
X119961222Y-117375789D01*
X120113962Y-117279816D01*
X120241516Y-117152262D01*
X120337489Y-116999522D01*
X120397068Y-116829255D01*
X120397141Y-116828614D01*
X120417265Y-116650000D01*
X120413979Y-116620834D01*
X120397068Y-116470745D01*
X120337489Y-116300478D01*
X120301851Y-116243760D01*
X120283624Y-116191672D01*
X120289803Y-116136833D01*
X120319164Y-116090106D01*
X120365888Y-116060747D01*
X120390944Y-116051979D01*
X120454950Y-116047184D01*
X120512780Y-116075033D01*
X120548938Y-116128065D01*
X120559210Y-116157421D01*
X120655185Y-116310164D01*
X120782735Y-116437714D01*
X120782737Y-116437715D01*
X120782738Y-116437716D01*
X120935478Y-116533689D01*
X121105745Y-116593268D01*
X121240186Y-116608415D01*
X121284999Y-116613465D01*
X121284999Y-116613464D01*
X121285000Y-116613465D01*
X121464255Y-116593268D01*
X121634522Y-116533689D01*
X121672198Y-116510015D01*
X121733529Y-116491097D01*
X121796108Y-116505379D01*
X121843161Y-116549038D01*
X121938684Y-116701063D01*
X122066235Y-116828614D01*
X122066237Y-116828615D01*
X122066238Y-116828616D01*
X122218978Y-116924589D01*
X122389245Y-116984168D01*
X122523686Y-116999315D01*
X122568499Y-117004365D01*
X122568499Y-117004364D01*
X122568500Y-117004365D01*
X122747755Y-116984168D01*
X122918022Y-116924589D01*
X123070762Y-116828616D01*
X123198316Y-116701062D01*
X123294289Y-116548322D01*
X123353868Y-116378055D01*
X123374065Y-116198800D01*
X123353868Y-116019545D01*
X123294289Y-115849278D01*
X123198316Y-115696538D01*
X123198315Y-115696537D01*
X123198314Y-115696535D01*
X123126078Y-115624299D01*
X124175934Y-115624299D01*
X124196131Y-115803551D01*
X124196131Y-115803553D01*
X124196132Y-115803555D01*
X124255711Y-115973822D01*
X124304821Y-116051980D01*
X124351685Y-116126564D01*
X124479235Y-116254114D01*
X124479237Y-116254115D01*
X124479238Y-116254116D01*
X124631978Y-116350089D01*
X124802245Y-116409668D01*
X124981500Y-116429865D01*
X125160755Y-116409668D01*
X125331022Y-116350089D01*
X125483762Y-116254116D01*
X125611316Y-116126562D01*
X125707289Y-115973822D01*
X125733505Y-115898900D01*
X126168734Y-115898900D01*
X126188931Y-116078151D01*
X126188931Y-116078153D01*
X126188932Y-116078155D01*
X126248511Y-116248422D01*
X126248512Y-116248423D01*
X126344485Y-116401164D01*
X126472035Y-116528714D01*
X126472037Y-116528715D01*
X126472038Y-116528716D01*
X126624778Y-116624689D01*
X126795045Y-116684268D01*
X126974300Y-116704465D01*
X127153555Y-116684268D01*
X127323822Y-116624689D01*
X127476562Y-116528716D01*
X127604116Y-116401162D01*
X127700089Y-116248422D01*
X127759668Y-116078155D01*
X127769150Y-115993999D01*
X129444750Y-115993999D01*
X129463686Y-116162056D01*
X129463686Y-116162058D01*
X129463687Y-116162059D01*
X129519544Y-116321690D01*
X129609523Y-116464890D01*
X129729110Y-116584477D01*
X129872310Y-116674456D01*
X130031941Y-116730313D01*
X130200000Y-116749249D01*
X130368059Y-116730313D01*
X130527690Y-116674456D01*
X130670890Y-116584477D01*
X130790477Y-116464890D01*
X130880456Y-116321690D01*
X130936313Y-116162059D01*
X130954573Y-115999999D01*
X131568750Y-115999999D01*
X131587686Y-116168056D01*
X131587686Y-116168058D01*
X131587687Y-116168059D01*
X131643544Y-116327690D01*
X131733523Y-116470890D01*
X131853110Y-116590477D01*
X131996310Y-116680456D01*
X132155941Y-116736313D01*
X132324000Y-116755249D01*
X132492059Y-116736313D01*
X132651690Y-116680456D01*
X132794890Y-116590477D01*
X132914477Y-116470890D01*
X133004456Y-116327690D01*
X133060313Y-116168059D01*
X133079249Y-116000000D01*
X133079249Y-115999999D01*
X133494750Y-115999999D01*
X133513686Y-116168056D01*
X133513686Y-116168058D01*
X133513687Y-116168059D01*
X133569544Y-116327690D01*
X133659523Y-116470890D01*
X133779110Y-116590477D01*
X133922310Y-116680456D01*
X134081941Y-116736313D01*
X134250000Y-116755249D01*
X134418059Y-116736313D01*
X134577690Y-116680456D01*
X134720890Y-116590477D01*
X134840477Y-116470890D01*
X134930456Y-116327690D01*
X134986313Y-116168059D01*
X135005249Y-116000000D01*
X134986313Y-115831941D01*
X134957640Y-115749999D01*
X135494750Y-115749999D01*
X135513686Y-115918056D01*
X135513686Y-115918058D01*
X135513687Y-115918059D01*
X135569544Y-116077690D01*
X135659523Y-116220890D01*
X135779110Y-116340477D01*
X135922310Y-116430456D01*
X136081941Y-116486313D01*
X136193980Y-116498936D01*
X136249999Y-116505249D01*
X136249999Y-116505248D01*
X136250000Y-116505249D01*
X136418059Y-116486313D01*
X136577690Y-116430456D01*
X136720890Y-116340477D01*
X136840477Y-116220890D01*
X136930456Y-116077690D01*
X136986313Y-115918059D01*
X137005249Y-115750000D01*
X136986313Y-115581941D01*
X136930456Y-115422310D01*
X136840477Y-115279110D01*
X136720890Y-115159523D01*
X136577690Y-115069544D01*
X136418059Y-115013687D01*
X136418058Y-115013686D01*
X136418056Y-115013686D01*
X136250000Y-114994750D01*
X136081943Y-115013686D01*
X135922310Y-115069544D01*
X135779108Y-115159524D01*
X135659524Y-115279108D01*
X135569544Y-115422310D01*
X135513686Y-115581943D01*
X135494750Y-115749999D01*
X134957640Y-115749999D01*
X134930456Y-115672310D01*
X134840477Y-115529110D01*
X134720890Y-115409523D01*
X134577690Y-115319544D01*
X134418059Y-115263687D01*
X134418058Y-115263686D01*
X134418056Y-115263686D01*
X134249999Y-115244750D01*
X134081943Y-115263686D01*
X133922310Y-115319544D01*
X133779108Y-115409524D01*
X133659524Y-115529108D01*
X133569544Y-115672310D01*
X133513686Y-115831943D01*
X133494750Y-115999999D01*
X133079249Y-115999999D01*
X133060313Y-115831941D01*
X133004456Y-115672310D01*
X132914477Y-115529110D01*
X132794890Y-115409523D01*
X132651690Y-115319544D01*
X132492059Y-115263687D01*
X132492058Y-115263686D01*
X132492056Y-115263686D01*
X132323999Y-115244750D01*
X132155943Y-115263686D01*
X131996310Y-115319544D01*
X131853108Y-115409524D01*
X131733524Y-115529108D01*
X131643544Y-115672310D01*
X131587686Y-115831943D01*
X131568750Y-115999999D01*
X130954573Y-115999999D01*
X130955249Y-115994000D01*
X130936313Y-115825941D01*
X130880456Y-115666310D01*
X130790477Y-115523110D01*
X130670890Y-115403523D01*
X130527690Y-115313544D01*
X130368059Y-115257687D01*
X130368058Y-115257686D01*
X130368056Y-115257686D01*
X130200000Y-115238750D01*
X130031943Y-115257686D01*
X129872310Y-115313544D01*
X129729108Y-115403524D01*
X129609524Y-115523108D01*
X129519544Y-115666310D01*
X129463686Y-115825943D01*
X129444750Y-115993999D01*
X127769150Y-115993999D01*
X127771423Y-115973823D01*
X127781430Y-115885016D01*
X127783187Y-115885214D01*
X127789139Y-115843044D01*
X127826386Y-115793546D01*
X127882929Y-115768243D01*
X127944654Y-115773448D01*
X128090745Y-115824568D01*
X128270000Y-115844765D01*
X128449255Y-115824568D01*
X128619522Y-115764989D01*
X128772262Y-115669016D01*
X128899816Y-115541462D01*
X128995789Y-115388722D01*
X129055368Y-115218455D01*
X129075565Y-115039200D01*
X129055368Y-114859945D01*
X128995789Y-114689678D01*
X128899816Y-114536938D01*
X128899815Y-114536937D01*
X128899814Y-114536935D01*
X128772264Y-114409385D01*
X128709867Y-114370179D01*
X128619522Y-114313411D01*
X128449255Y-114253832D01*
X128449253Y-114253831D01*
X128449251Y-114253831D01*
X128270000Y-114233634D01*
X128090748Y-114253831D01*
X128090745Y-114253831D01*
X128090745Y-114253832D01*
X127920478Y-114313411D01*
X127920476Y-114313411D01*
X127920476Y-114313412D01*
X127767735Y-114409385D01*
X127640185Y-114536935D01*
X127544212Y-114689676D01*
X127544211Y-114689678D01*
X127518323Y-114763662D01*
X127484631Y-114859948D01*
X127462870Y-115053084D01*
X127461112Y-115052886D01*
X127455157Y-115095064D01*
X127417908Y-115144557D01*
X127361367Y-115169856D01*
X127299643Y-115164650D01*
X127153552Y-115113531D01*
X126974300Y-115093334D01*
X126795048Y-115113531D01*
X126795045Y-115113531D01*
X126795045Y-115113532D01*
X126624778Y-115173111D01*
X126624776Y-115173111D01*
X126624776Y-115173112D01*
X126472035Y-115269085D01*
X126344485Y-115396635D01*
X126248512Y-115549376D01*
X126248511Y-115549378D01*
X126193308Y-115707139D01*
X126188931Y-115719648D01*
X126168734Y-115898900D01*
X125733505Y-115898900D01*
X125766868Y-115803555D01*
X125787065Y-115624300D01*
X125766868Y-115445045D01*
X125707289Y-115274778D01*
X125611316Y-115122038D01*
X125611315Y-115122037D01*
X125611314Y-115122035D01*
X125483764Y-114994485D01*
X125407458Y-114946539D01*
X125331022Y-114898511D01*
X125160755Y-114838932D01*
X125160753Y-114838931D01*
X125160751Y-114838931D01*
X124981500Y-114818734D01*
X124802248Y-114838931D01*
X124802245Y-114838931D01*
X124802245Y-114838932D01*
X124631978Y-114898511D01*
X124631976Y-114898511D01*
X124631976Y-114898512D01*
X124479235Y-114994485D01*
X124351685Y-115122035D01*
X124262680Y-115263687D01*
X124255711Y-115274778D01*
X124213070Y-115396638D01*
X124196131Y-115445048D01*
X124175934Y-115624299D01*
X123126078Y-115624299D01*
X123070764Y-115568985D01*
X122963074Y-115501319D01*
X122918022Y-115473011D01*
X122747755Y-115413432D01*
X122747753Y-115413431D01*
X122747751Y-115413431D01*
X122568500Y-115393234D01*
X122389248Y-115413431D01*
X122389245Y-115413431D01*
X122389245Y-115413432D01*
X122218978Y-115473011D01*
X122218977Y-115473011D01*
X122218973Y-115473013D01*
X122181303Y-115496683D01*
X122119968Y-115515602D01*
X122057390Y-115501319D01*
X122010338Y-115457661D01*
X121995542Y-115434114D01*
X121914816Y-115305638D01*
X121914815Y-115305637D01*
X121914814Y-115305635D01*
X121787264Y-115178085D01*
X121698065Y-115122038D01*
X121634522Y-115082111D01*
X121464255Y-115022532D01*
X121464253Y-115022531D01*
X121464251Y-115022531D01*
X121285000Y-115002334D01*
X121105747Y-115022531D01*
X121042650Y-115044609D01*
X121018433Y-115053084D01*
X121007756Y-115056820D01*
X120943749Y-115061616D01*
X120885918Y-115033766D01*
X120849760Y-114980732D01*
X120848745Y-114977830D01*
X120839489Y-114951378D01*
X120743516Y-114798638D01*
X120743515Y-114798637D01*
X120743514Y-114798635D01*
X120615964Y-114671085D01*
X120474095Y-114581943D01*
X120463222Y-114575111D01*
X120292955Y-114515532D01*
X120292953Y-114515531D01*
X120292951Y-114515531D01*
X120113700Y-114495334D01*
X119934448Y-114515531D01*
X119934445Y-114515531D01*
X119934445Y-114515532D01*
X119764178Y-114575111D01*
X119764176Y-114575111D01*
X119764176Y-114575112D01*
X119611435Y-114671085D01*
X119483885Y-114798635D01*
X119387912Y-114951376D01*
X119387911Y-114951378D01*
X119338238Y-115093335D01*
X119328331Y-115121648D01*
X119308134Y-115300899D01*
X119328331Y-115480151D01*
X119328331Y-115480153D01*
X119328332Y-115480155D01*
X119387911Y-115650422D01*
X119416886Y-115696535D01*
X119423549Y-115707139D01*
X119441775Y-115759227D01*
X119435597Y-115814065D01*
X119406237Y-115860792D01*
X119359510Y-115890152D01*
X119262180Y-115924209D01*
X119109435Y-116020185D01*
X118981885Y-116147735D01*
X118921549Y-116243760D01*
X118885911Y-116300478D01*
X118840637Y-116429865D01*
X118826331Y-116470748D01*
X118806134Y-116650000D01*
X114520734Y-116650000D01*
X114416451Y-116584475D01*
X114391522Y-116568811D01*
X114221255Y-116509232D01*
X114221253Y-116509231D01*
X114221251Y-116509231D01*
X114041999Y-116489034D01*
X113862748Y-116509231D01*
X113862745Y-116509231D01*
X113862745Y-116509232D01*
X113692478Y-116568811D01*
X113692476Y-116568811D01*
X113692476Y-116568812D01*
X113539735Y-116664785D01*
X113412185Y-116792335D01*
X113316212Y-116945076D01*
X113256631Y-117115348D01*
X113236434Y-117294599D01*
X104126332Y-117294599D01*
X104185063Y-117075408D01*
X104205659Y-116840000D01*
X104204718Y-116829250D01*
X104185063Y-116604592D01*
X104175476Y-116568811D01*
X104123903Y-116376337D01*
X104024035Y-116162171D01*
X103888495Y-115968599D01*
X103721401Y-115801505D01*
X103535839Y-115671573D01*
X103496975Y-115627257D01*
X103482964Y-115570000D01*
X103496975Y-115512743D01*
X103535839Y-115468426D01*
X103721401Y-115338495D01*
X103888495Y-115171401D01*
X103973922Y-115049399D01*
X112615734Y-115049399D01*
X112635931Y-115228651D01*
X112635931Y-115228653D01*
X112635932Y-115228655D01*
X112695511Y-115398922D01*
X112710207Y-115422310D01*
X112791485Y-115551664D01*
X112919035Y-115679214D01*
X112919037Y-115679215D01*
X112919038Y-115679216D01*
X113071778Y-115775189D01*
X113242045Y-115834768D01*
X113421300Y-115854965D01*
X113600555Y-115834768D01*
X113770822Y-115775189D01*
X113923562Y-115679216D01*
X114051116Y-115551662D01*
X114147089Y-115398922D01*
X114206668Y-115228655D01*
X114226865Y-115049400D01*
X114225103Y-115033766D01*
X114220678Y-114994485D01*
X114206668Y-114870145D01*
X114183628Y-114804300D01*
X115130934Y-114804300D01*
X115151131Y-114983551D01*
X115151131Y-114983553D01*
X115151132Y-114983555D01*
X115210711Y-115153822D01*
X115267479Y-115244167D01*
X115306685Y-115306564D01*
X115434235Y-115434114D01*
X115434237Y-115434115D01*
X115434238Y-115434116D01*
X115586978Y-115530089D01*
X115757245Y-115589668D01*
X115891686Y-115604815D01*
X115936499Y-115609865D01*
X115936499Y-115609864D01*
X115936500Y-115609865D01*
X116115755Y-115589668D01*
X116286022Y-115530089D01*
X116438762Y-115434116D01*
X116566316Y-115306562D01*
X116662289Y-115153822D01*
X116721868Y-114983555D01*
X116742065Y-114804300D01*
X116721868Y-114625045D01*
X116662289Y-114454778D01*
X116566316Y-114302038D01*
X116566315Y-114302037D01*
X116566314Y-114302035D01*
X116438764Y-114174485D01*
X116339319Y-114112000D01*
X116286022Y-114078511D01*
X116115755Y-114018932D01*
X116115753Y-114018931D01*
X116115751Y-114018931D01*
X115936500Y-113998734D01*
X115757248Y-114018931D01*
X115757245Y-114018931D01*
X115757245Y-114018932D01*
X115586978Y-114078511D01*
X115586976Y-114078511D01*
X115586976Y-114078512D01*
X115434235Y-114174485D01*
X115306685Y-114302035D01*
X115232824Y-114419585D01*
X115210711Y-114454778D01*
X115168605Y-114575111D01*
X115151131Y-114625048D01*
X115130934Y-114804300D01*
X114183628Y-114804300D01*
X114147089Y-114699878D01*
X114051116Y-114547138D01*
X114051115Y-114547137D01*
X114051114Y-114547135D01*
X113923564Y-114419585D01*
X113861167Y-114380379D01*
X113770822Y-114323611D01*
X113600555Y-114264032D01*
X113600553Y-114264031D01*
X113600551Y-114264031D01*
X113421299Y-114243834D01*
X113242048Y-114264031D01*
X113242045Y-114264031D01*
X113242045Y-114264032D01*
X113071778Y-114323611D01*
X113071776Y-114323611D01*
X113071776Y-114323612D01*
X112919035Y-114419585D01*
X112791485Y-114547135D01*
X112701921Y-114689676D01*
X112695511Y-114699878D01*
X112653921Y-114818735D01*
X112635931Y-114870148D01*
X112615734Y-115049399D01*
X103973922Y-115049399D01*
X104024035Y-114977830D01*
X104123903Y-114763663D01*
X104185063Y-114535408D01*
X104205659Y-114300000D01*
X104185063Y-114064592D01*
X104123903Y-113836337D01*
X104024035Y-113622171D01*
X103888495Y-113428599D01*
X103721401Y-113261505D01*
X103535839Y-113131573D01*
X103496975Y-113087257D01*
X103482964Y-113030000D01*
X103496975Y-112972743D01*
X103535839Y-112928426D01*
X103721401Y-112798495D01*
X103888495Y-112631401D01*
X104024035Y-112437830D01*
X104123903Y-112223663D01*
X104185063Y-111995408D01*
X104205659Y-111760000D01*
X104185063Y-111524592D01*
X104123903Y-111296337D01*
X104024035Y-111082171D01*
X103888495Y-110888599D01*
X103721401Y-110721505D01*
X103535839Y-110591573D01*
X103496975Y-110547257D01*
X103482964Y-110490000D01*
X103492385Y-110451499D01*
X116575534Y-110451499D01*
X116595731Y-110630751D01*
X116595731Y-110630753D01*
X116595732Y-110630755D01*
X116655311Y-110801022D01*
X116655312Y-110801023D01*
X116751285Y-110953764D01*
X116878835Y-111081314D01*
X116878837Y-111081315D01*
X116878838Y-111081316D01*
X117031578Y-111177289D01*
X117201845Y-111236868D01*
X117381100Y-111257065D01*
X117560355Y-111236868D01*
X117730622Y-111177289D01*
X117883362Y-111081316D01*
X118010916Y-110953762D01*
X118106889Y-110801022D01*
X118166468Y-110630755D01*
X118186665Y-110451500D01*
X118166468Y-110272245D01*
X118158684Y-110249999D01*
X121194434Y-110249999D01*
X121214631Y-110429251D01*
X121214631Y-110429253D01*
X121214632Y-110429255D01*
X121274211Y-110599522D01*
X121293834Y-110630751D01*
X121370185Y-110752264D01*
X121439015Y-110821094D01*
X121472225Y-110881182D01*
X121468376Y-110949728D01*
X121425331Y-111072745D01*
X121405134Y-111251999D01*
X121425331Y-111431251D01*
X121425331Y-111431253D01*
X121425332Y-111431255D01*
X121484911Y-111601522D01*
X121484912Y-111601523D01*
X121580885Y-111754264D01*
X121708435Y-111881814D01*
X121708437Y-111881815D01*
X121708438Y-111881816D01*
X121861178Y-111977789D01*
X122031445Y-112037368D01*
X122210700Y-112057565D01*
X122403838Y-112035804D01*
X122404012Y-112037353D01*
X122445489Y-112033617D01*
X122501212Y-112057431D01*
X122538996Y-112104807D01*
X122549818Y-112164431D01*
X122531093Y-112222063D01*
X122467813Y-112322773D01*
X122467812Y-112322776D01*
X122467811Y-112322778D01*
X122459095Y-112347687D01*
X122408231Y-112493048D01*
X122388034Y-112672300D01*
X122408231Y-112851551D01*
X122408231Y-112851553D01*
X122408232Y-112851555D01*
X122467811Y-113021822D01*
X122506880Y-113084000D01*
X122563785Y-113174564D01*
X122691335Y-113302114D01*
X122691337Y-113302115D01*
X122691338Y-113302116D01*
X122844078Y-113398089D01*
X123014345Y-113457668D01*
X123193600Y-113477865D01*
X123372855Y-113457668D01*
X123543122Y-113398089D01*
X123695862Y-113302116D01*
X123823416Y-113174562D01*
X123880321Y-113083999D01*
X136913750Y-113083999D01*
X136932686Y-113252056D01*
X136932686Y-113252058D01*
X136932687Y-113252059D01*
X136988544Y-113411690D01*
X137078523Y-113554890D01*
X137198110Y-113674477D01*
X137341310Y-113764456D01*
X137483272Y-113814130D01*
X137533842Y-113847511D01*
X137562557Y-113900872D01*
X137562558Y-113961469D01*
X137533843Y-114014830D01*
X137483271Y-114048212D01*
X137422312Y-114069542D01*
X137279108Y-114159524D01*
X137159524Y-114279108D01*
X137069544Y-114422310D01*
X137013686Y-114581943D01*
X136994750Y-114749999D01*
X137013686Y-114918056D01*
X137013686Y-114918058D01*
X137013687Y-114918059D01*
X137069544Y-115077690D01*
X137159523Y-115220890D01*
X137279110Y-115340477D01*
X137422310Y-115430456D01*
X137581941Y-115486313D01*
X137750000Y-115505249D01*
X137918059Y-115486313D01*
X138077690Y-115430456D01*
X138220890Y-115340477D01*
X138340477Y-115220890D01*
X138430456Y-115077690D01*
X138486313Y-114918059D01*
X138505249Y-114750000D01*
X138486313Y-114581941D01*
X138430456Y-114422310D01*
X138340477Y-114279110D01*
X138220890Y-114159523D01*
X138077690Y-114069544D01*
X137935726Y-114019869D01*
X137885156Y-113986487D01*
X137856441Y-113933126D01*
X137856442Y-113872529D01*
X137885157Y-113819168D01*
X137935727Y-113785787D01*
X137996690Y-113764456D01*
X138139890Y-113674477D01*
X138259477Y-113554890D01*
X138349456Y-113411690D01*
X138405313Y-113252059D01*
X138424249Y-113084000D01*
X138405313Y-112915941D01*
X138349456Y-112756310D01*
X138259477Y-112613110D01*
X138139890Y-112493523D01*
X137996690Y-112403544D01*
X137837059Y-112347687D01*
X137837058Y-112347686D01*
X137837056Y-112347686D01*
X137668999Y-112328750D01*
X137500943Y-112347686D01*
X137341310Y-112403544D01*
X137198108Y-112493524D01*
X137078524Y-112613108D01*
X136988544Y-112756310D01*
X136932686Y-112915943D01*
X136913750Y-113083999D01*
X123880321Y-113083999D01*
X123919389Y-113021822D01*
X123978968Y-112851555D01*
X123999165Y-112672300D01*
X123978968Y-112493045D01*
X123919389Y-112322778D01*
X123823416Y-112170038D01*
X123823415Y-112170037D01*
X123823414Y-112170035D01*
X123695864Y-112042485D01*
X123620939Y-111995407D01*
X123543122Y-111946511D01*
X123372855Y-111886932D01*
X123372853Y-111886931D01*
X123372851Y-111886931D01*
X123193600Y-111866734D01*
X123000462Y-111888496D01*
X123000287Y-111886947D01*
X122958796Y-111890679D01*
X122903078Y-111866862D01*
X122865299Y-111819485D01*
X122854481Y-111759864D01*
X122873205Y-111702237D01*
X122936489Y-111601522D01*
X122996068Y-111431255D01*
X123016265Y-111252000D01*
X122996068Y-111072745D01*
X122970613Y-110999999D01*
X125744750Y-110999999D01*
X125763686Y-111168056D01*
X125763686Y-111168058D01*
X125763687Y-111168059D01*
X125819544Y-111327690D01*
X125909523Y-111470890D01*
X126029110Y-111590477D01*
X126172310Y-111680456D01*
X126331941Y-111736313D01*
X126500000Y-111755249D01*
X126668059Y-111736313D01*
X126827690Y-111680456D01*
X126970890Y-111590477D01*
X127090477Y-111470890D01*
X127180456Y-111327690D01*
X127236313Y-111168059D01*
X127255249Y-111000000D01*
X127236313Y-110831941D01*
X127180456Y-110672310D01*
X127090477Y-110529110D01*
X126970890Y-110409523D01*
X126827690Y-110319544D01*
X126668059Y-110263687D01*
X126668058Y-110263686D01*
X126668056Y-110263686D01*
X126500000Y-110244750D01*
X126331943Y-110263686D01*
X126172310Y-110319544D01*
X126029108Y-110409524D01*
X125909524Y-110529108D01*
X125819544Y-110672310D01*
X125763686Y-110831943D01*
X125744750Y-110999999D01*
X122970613Y-110999999D01*
X122936489Y-110902478D01*
X122840516Y-110749738D01*
X122840515Y-110749737D01*
X122840514Y-110749735D01*
X122771684Y-110680905D01*
X122738474Y-110620817D01*
X122742323Y-110552270D01*
X122777421Y-110451965D01*
X122785368Y-110429255D01*
X122805565Y-110250000D01*
X122804973Y-110244750D01*
X122788404Y-110097689D01*
X122785368Y-110070745D01*
X122725789Y-109900478D01*
X122629816Y-109747738D01*
X122629815Y-109747737D01*
X122629814Y-109747735D01*
X122502264Y-109620185D01*
X122392403Y-109551155D01*
X122349522Y-109524211D01*
X122179255Y-109464632D01*
X122179253Y-109464631D01*
X122179251Y-109464631D01*
X121999999Y-109444434D01*
X121820748Y-109464631D01*
X121820745Y-109464631D01*
X121820745Y-109464632D01*
X121650478Y-109524211D01*
X121650476Y-109524211D01*
X121650476Y-109524212D01*
X121497735Y-109620185D01*
X121370185Y-109747735D01*
X121275875Y-109897830D01*
X121274211Y-109900478D01*
X121214632Y-110070745D01*
X121214631Y-110070748D01*
X121194434Y-110249999D01*
X118158684Y-110249999D01*
X118106889Y-110101978D01*
X118010916Y-109949238D01*
X118010915Y-109949237D01*
X118010914Y-109949235D01*
X117883364Y-109821685D01*
X117820559Y-109782222D01*
X117730622Y-109725711D01*
X117560355Y-109666132D01*
X117560353Y-109666131D01*
X117560351Y-109666131D01*
X117381099Y-109645934D01*
X117201848Y-109666131D01*
X117201845Y-109666131D01*
X117201845Y-109666132D01*
X117031578Y-109725711D01*
X117031576Y-109725711D01*
X117031576Y-109725712D01*
X116878835Y-109821685D01*
X116751285Y-109949235D01*
X116655312Y-110101976D01*
X116595731Y-110272248D01*
X116575534Y-110451499D01*
X103492385Y-110451499D01*
X103496975Y-110432743D01*
X103535839Y-110388426D01*
X103721401Y-110258495D01*
X103888495Y-110091401D01*
X104024035Y-109897830D01*
X104123903Y-109683663D01*
X104185063Y-109455408D01*
X104187050Y-109432699D01*
X118831734Y-109432699D01*
X118851931Y-109611951D01*
X118851931Y-109611953D01*
X118851932Y-109611955D01*
X118911511Y-109782222D01*
X118911512Y-109782223D01*
X119007485Y-109934964D01*
X119135035Y-110062514D01*
X119135037Y-110062515D01*
X119135038Y-110062516D01*
X119287778Y-110158489D01*
X119458045Y-110218068D01*
X119637300Y-110238265D01*
X119816555Y-110218068D01*
X119986822Y-110158489D01*
X120139562Y-110062516D01*
X120267116Y-109934962D01*
X120363089Y-109782222D01*
X120422668Y-109611955D01*
X120442865Y-109432700D01*
X120422668Y-109253445D01*
X120363089Y-109083178D01*
X120267116Y-108930438D01*
X120267115Y-108930437D01*
X120267114Y-108930435D01*
X120139564Y-108802885D01*
X120042799Y-108742084D01*
X119986822Y-108706911D01*
X119816555Y-108647332D01*
X119816553Y-108647331D01*
X119816551Y-108647331D01*
X119637299Y-108627134D01*
X119458048Y-108647331D01*
X119458045Y-108647331D01*
X119458045Y-108647332D01*
X119287778Y-108706911D01*
X119287776Y-108706911D01*
X119287776Y-108706912D01*
X119135035Y-108802885D01*
X119007485Y-108930435D01*
X118911512Y-109083176D01*
X118851931Y-109253448D01*
X118831734Y-109432699D01*
X104187050Y-109432699D01*
X104205659Y-109220000D01*
X104185063Y-108984592D01*
X104123903Y-108756337D01*
X104024035Y-108542171D01*
X103888495Y-108348599D01*
X103721401Y-108181505D01*
X103535839Y-108051573D01*
X103496975Y-108007257D01*
X103482964Y-107950000D01*
X103496975Y-107892743D01*
X103535839Y-107848426D01*
X103721401Y-107718495D01*
X103790297Y-107649599D01*
X119444334Y-107649599D01*
X119464531Y-107828851D01*
X119464531Y-107828853D01*
X119464532Y-107828855D01*
X119524111Y-107999122D01*
X119568803Y-108070249D01*
X119620085Y-108151864D01*
X119747635Y-108279414D01*
X119747637Y-108279415D01*
X119747638Y-108279416D01*
X119900378Y-108375389D01*
X120070645Y-108434968D01*
X120249900Y-108455165D01*
X120429155Y-108434968D01*
X120599422Y-108375389D01*
X120752162Y-108279416D01*
X120879716Y-108151862D01*
X120955722Y-108030899D01*
X122150634Y-108030899D01*
X122170831Y-108210151D01*
X122170831Y-108210153D01*
X122170832Y-108210155D01*
X122230411Y-108380422D01*
X122271777Y-108446255D01*
X122326385Y-108533164D01*
X122453935Y-108660714D01*
X122453937Y-108660715D01*
X122453938Y-108660716D01*
X122606678Y-108756689D01*
X122776945Y-108816268D01*
X122956200Y-108836465D01*
X123135455Y-108816268D01*
X123305722Y-108756689D01*
X123458462Y-108660716D01*
X123586016Y-108533162D01*
X123681989Y-108380422D01*
X123741568Y-108210155D01*
X123761765Y-108030900D01*
X123741568Y-107851645D01*
X123681989Y-107681378D01*
X123586016Y-107528638D01*
X123586015Y-107528637D01*
X123586014Y-107528635D01*
X123458464Y-107401085D01*
X123389619Y-107357827D01*
X123305722Y-107305111D01*
X123135455Y-107245532D01*
X123135453Y-107245531D01*
X123135451Y-107245531D01*
X122956199Y-107225334D01*
X122776948Y-107245531D01*
X122776945Y-107245531D01*
X122776945Y-107245532D01*
X122606678Y-107305111D01*
X122606676Y-107305111D01*
X122606676Y-107305112D01*
X122453935Y-107401085D01*
X122326385Y-107528635D01*
X122265505Y-107625526D01*
X122230411Y-107681378D01*
X122178808Y-107828851D01*
X122170831Y-107851648D01*
X122150634Y-108030899D01*
X120955722Y-108030899D01*
X120975689Y-107999122D01*
X121035268Y-107828855D01*
X121055465Y-107649600D01*
X121054686Y-107642690D01*
X121043253Y-107541212D01*
X121035268Y-107470345D01*
X120975689Y-107300078D01*
X120879716Y-107147338D01*
X120879715Y-107147337D01*
X120879714Y-107147335D01*
X120752164Y-107019785D01*
X120613831Y-106932865D01*
X120599422Y-106923811D01*
X120429155Y-106864232D01*
X120429153Y-106864231D01*
X120429151Y-106864231D01*
X120249900Y-106844034D01*
X120070648Y-106864231D01*
X120070645Y-106864231D01*
X120070645Y-106864232D01*
X119900378Y-106923811D01*
X119900376Y-106923811D01*
X119900376Y-106923812D01*
X119747635Y-107019785D01*
X119620085Y-107147335D01*
X119541961Y-107271670D01*
X119524111Y-107300078D01*
X119488767Y-107401085D01*
X119464531Y-107470348D01*
X119444334Y-107649599D01*
X103790297Y-107649599D01*
X103888495Y-107551401D01*
X104024035Y-107357830D01*
X104123903Y-107143663D01*
X104185063Y-106915408D01*
X104205659Y-106680000D01*
X104185063Y-106444592D01*
X104123903Y-106216337D01*
X104058416Y-106075900D01*
X116283034Y-106075900D01*
X116303231Y-106255151D01*
X116303231Y-106255153D01*
X116303232Y-106255155D01*
X116362811Y-106425422D01*
X116406263Y-106494576D01*
X116458785Y-106578164D01*
X116586335Y-106705714D01*
X116586337Y-106705715D01*
X116586338Y-106705716D01*
X116739078Y-106801689D01*
X116909345Y-106861268D01*
X117088600Y-106881465D01*
X117267855Y-106861268D01*
X117438122Y-106801689D01*
X117590862Y-106705716D01*
X117718416Y-106578162D01*
X117814389Y-106425422D01*
X117873968Y-106255155D01*
X117888374Y-106127299D01*
X122251934Y-106127299D01*
X122272131Y-106306551D01*
X122272131Y-106306553D01*
X122272132Y-106306555D01*
X122331711Y-106476822D01*
X122357145Y-106517300D01*
X122427685Y-106629564D01*
X122555235Y-106757114D01*
X122555237Y-106757115D01*
X122555238Y-106757116D01*
X122707978Y-106853089D01*
X122878245Y-106912668D01*
X123057500Y-106932865D01*
X123236755Y-106912668D01*
X123407022Y-106853089D01*
X123473404Y-106811378D01*
X123525494Y-106793151D01*
X123580333Y-106799330D01*
X123627060Y-106828692D01*
X123644262Y-106856070D01*
X123645978Y-106854992D01*
X123749385Y-107019564D01*
X123876935Y-107147114D01*
X123876937Y-107147115D01*
X123876938Y-107147116D01*
X124029678Y-107243089D01*
X124199945Y-107302668D01*
X124379200Y-107322865D01*
X124558455Y-107302668D01*
X124728722Y-107243089D01*
X124881462Y-107147116D01*
X125009016Y-107019562D01*
X125104989Y-106866822D01*
X125164568Y-106696555D01*
X125184765Y-106517300D01*
X125182205Y-106494576D01*
X125172356Y-106407162D01*
X125181015Y-106345825D01*
X125218263Y-106296331D01*
X125274806Y-106271030D01*
X125336529Y-106276236D01*
X125423162Y-106306551D01*
X125504944Y-106335168D01*
X125684200Y-106355365D01*
X125863455Y-106335168D01*
X126033722Y-106275589D01*
X126177671Y-106185140D01*
X126198292Y-106172183D01*
X126200049Y-106174979D01*
X126231555Y-106156384D01*
X126293484Y-106154635D01*
X126348530Y-106183064D01*
X126382951Y-106234575D01*
X126412009Y-106317619D01*
X126507985Y-106470364D01*
X126562272Y-106524651D01*
X126591632Y-106571376D01*
X126597812Y-106626213D01*
X126579587Y-106678301D01*
X126540567Y-106717323D01*
X126529111Y-106724521D01*
X126409524Y-106844108D01*
X126319544Y-106987310D01*
X126263686Y-107146943D01*
X126244750Y-107314999D01*
X126263686Y-107483056D01*
X126263686Y-107483058D01*
X126263687Y-107483059D01*
X126319544Y-107642690D01*
X126409523Y-107785890D01*
X126529110Y-107905477D01*
X126672310Y-107995456D01*
X126831941Y-108051313D01*
X127000000Y-108070249D01*
X127168059Y-108051313D01*
X127327690Y-107995456D01*
X127470890Y-107905477D01*
X127590477Y-107785890D01*
X127680456Y-107642690D01*
X127736313Y-107483059D01*
X127755249Y-107315000D01*
X127753859Y-107302668D01*
X127741573Y-107193622D01*
X127736313Y-107146941D01*
X127680456Y-106987310D01*
X127590477Y-106844110D01*
X127590467Y-106844100D01*
X138421434Y-106844100D01*
X138441631Y-107023351D01*
X138441631Y-107023353D01*
X138441632Y-107023355D01*
X138501211Y-107193622D01*
X138521137Y-107225334D01*
X138580847Y-107320362D01*
X138599853Y-107386330D01*
X138580851Y-107452299D01*
X138578992Y-107455256D01*
X138519412Y-107625525D01*
X138499215Y-107804781D01*
X138519412Y-107984032D01*
X138519412Y-107984034D01*
X138519413Y-107984036D01*
X138578992Y-108154303D01*
X138578993Y-108154304D01*
X138674966Y-108307045D01*
X138802516Y-108434595D01*
X138802518Y-108434596D01*
X138802519Y-108434597D01*
X138955259Y-108530570D01*
X139125526Y-108590149D01*
X139259967Y-108605296D01*
X139304780Y-108610346D01*
X139304780Y-108610345D01*
X139304781Y-108610346D01*
X139413058Y-108598146D01*
X139480743Y-108609646D01*
X139531936Y-108655394D01*
X139603485Y-108769264D01*
X139731035Y-108896814D01*
X139731037Y-108896815D01*
X139731038Y-108896816D01*
X139883778Y-108992789D01*
X140054045Y-109052368D01*
X140233300Y-109072565D01*
X140412555Y-109052368D01*
X140516229Y-109016091D01*
X140584776Y-109012241D01*
X140644865Y-109045450D01*
X140678075Y-109105538D01*
X140674226Y-109174085D01*
X140667731Y-109192645D01*
X140647534Y-109371899D01*
X140667731Y-109551151D01*
X140667731Y-109551153D01*
X140667732Y-109551155D01*
X140727311Y-109721422D01*
X140765514Y-109782222D01*
X140823285Y-109874164D01*
X140950835Y-110001714D01*
X140950837Y-110001715D01*
X140950838Y-110001716D01*
X141103578Y-110097689D01*
X141273845Y-110157268D01*
X141453100Y-110177465D01*
X141632355Y-110157268D01*
X141802622Y-110097689D01*
X141955362Y-110001716D01*
X142082916Y-109874162D01*
X142178889Y-109721422D01*
X142205140Y-109646400D01*
X143286434Y-109646400D01*
X143306631Y-109825651D01*
X143306631Y-109825653D01*
X143306632Y-109825655D01*
X143366211Y-109995922D01*
X143413227Y-110070748D01*
X143462185Y-110148664D01*
X143589735Y-110276214D01*
X143589737Y-110276215D01*
X143589738Y-110276216D01*
X143742478Y-110372189D01*
X143912745Y-110431768D01*
X144047186Y-110446915D01*
X144091999Y-110451965D01*
X144091999Y-110451964D01*
X144092000Y-110451965D01*
X144271255Y-110431768D01*
X144441522Y-110372189D01*
X144594262Y-110276216D01*
X144721816Y-110148662D01*
X144817789Y-109995922D01*
X144877368Y-109825655D01*
X144897565Y-109646400D01*
X144877368Y-109467145D01*
X144817789Y-109296878D01*
X144721816Y-109144138D01*
X144721815Y-109144137D01*
X144721814Y-109144135D01*
X144594264Y-109016585D01*
X144531867Y-108977379D01*
X144441522Y-108920611D01*
X144271255Y-108861032D01*
X144271253Y-108861031D01*
X144271251Y-108861031D01*
X144092000Y-108840834D01*
X143912748Y-108861031D01*
X143912745Y-108861031D01*
X143912745Y-108861032D01*
X143742478Y-108920611D01*
X143742476Y-108920611D01*
X143742476Y-108920612D01*
X143589735Y-109016585D01*
X143462185Y-109144135D01*
X143366212Y-109296876D01*
X143306631Y-109467148D01*
X143286434Y-109646400D01*
X142205140Y-109646400D01*
X142238468Y-109551155D01*
X142258665Y-109371900D01*
X142238468Y-109192645D01*
X142178889Y-109022378D01*
X142082916Y-108869638D01*
X142082915Y-108869637D01*
X142082914Y-108869635D01*
X141955364Y-108742085D01*
X141892967Y-108702879D01*
X141802622Y-108646111D01*
X141632355Y-108586532D01*
X141632353Y-108586531D01*
X141632351Y-108586531D01*
X141453100Y-108566334D01*
X141273846Y-108586531D01*
X141170169Y-108622809D01*
X141101621Y-108626658D01*
X141041532Y-108593447D01*
X141008323Y-108533357D01*
X141012174Y-108464811D01*
X141018668Y-108446255D01*
X141038865Y-108267000D01*
X141018668Y-108087745D01*
X140959089Y-107917478D01*
X140863116Y-107764738D01*
X140863115Y-107764737D01*
X140863114Y-107764735D01*
X140735564Y-107637185D01*
X140599039Y-107551401D01*
X140582822Y-107541211D01*
X140412555Y-107481632D01*
X140412553Y-107481631D01*
X140412551Y-107481631D01*
X140233299Y-107461434D01*
X140125021Y-107473634D01*
X140057336Y-107462134D01*
X140006144Y-107416386D01*
X139996529Y-107401084D01*
X139950932Y-107328517D01*
X139931927Y-107262543D01*
X139950935Y-107196571D01*
X139952789Y-107193622D01*
X140012368Y-107023355D01*
X140032565Y-106844100D01*
X140012368Y-106664845D01*
X139952789Y-106494578D01*
X139856816Y-106341838D01*
X139856815Y-106341837D01*
X139856814Y-106341835D01*
X139729264Y-106214285D01*
X139622745Y-106147355D01*
X139576522Y-106118311D01*
X139406255Y-106058732D01*
X139406253Y-106058731D01*
X139406251Y-106058731D01*
X139227000Y-106038534D01*
X139047748Y-106058731D01*
X139047745Y-106058731D01*
X139047745Y-106058732D01*
X138877478Y-106118311D01*
X138877476Y-106118311D01*
X138877476Y-106118312D01*
X138724735Y-106214285D01*
X138597185Y-106341835D01*
X138512368Y-106476822D01*
X138501211Y-106494578D01*
X138455150Y-106626213D01*
X138441631Y-106664848D01*
X138421434Y-106844100D01*
X127590467Y-106844100D01*
X127568366Y-106821999D01*
X127539005Y-106775272D01*
X127532827Y-106720434D01*
X127551054Y-106668345D01*
X127590072Y-106629326D01*
X127640062Y-106597916D01*
X127767616Y-106470362D01*
X127863589Y-106317622D01*
X127881644Y-106266021D01*
X127917797Y-106212992D01*
X127975623Y-106185140D01*
X128013127Y-106187947D01*
X128013561Y-106184104D01*
X128206699Y-106205865D01*
X128206699Y-106205864D01*
X128206700Y-106205865D01*
X128385955Y-106185668D01*
X128556222Y-106126089D01*
X128708962Y-106030116D01*
X128836516Y-105902562D01*
X128932489Y-105749822D01*
X128992068Y-105579555D01*
X129012265Y-105400300D01*
X128992068Y-105221045D01*
X128932489Y-105050778D01*
X128836516Y-104898038D01*
X128836515Y-104898037D01*
X128836514Y-104898035D01*
X128708964Y-104770485D01*
X128646567Y-104731278D01*
X128556222Y-104674511D01*
X128385955Y-104614932D01*
X128385953Y-104614931D01*
X128385951Y-104614931D01*
X128206700Y-104594734D01*
X128027448Y-104614931D01*
X128027445Y-104614931D01*
X128027445Y-104614932D01*
X127857178Y-104674511D01*
X127857176Y-104674511D01*
X127857176Y-104674512D01*
X127704435Y-104770485D01*
X127576885Y-104898035D01*
X127480910Y-105050779D01*
X127462854Y-105102379D01*
X127426689Y-105155418D01*
X127368848Y-105183265D01*
X127331371Y-105180449D01*
X127330938Y-105184296D01*
X127137799Y-105162534D01*
X126958548Y-105182731D01*
X126958545Y-105182731D01*
X126958545Y-105182732D01*
X126788278Y-105242311D01*
X126788276Y-105242311D01*
X126788276Y-105242312D01*
X126623708Y-105345717D01*
X126621952Y-105342923D01*
X126590389Y-105361531D01*
X126528478Y-105363256D01*
X126473455Y-105334822D01*
X126439048Y-105283325D01*
X126409989Y-105200278D01*
X126314016Y-105047538D01*
X126314015Y-105047537D01*
X126314014Y-105047535D01*
X126186464Y-104919985D01*
X126036634Y-104825841D01*
X126033722Y-104824011D01*
X125863455Y-104764432D01*
X125863453Y-104764431D01*
X125863451Y-104764431D01*
X125684200Y-104744234D01*
X125504948Y-104764431D01*
X125504945Y-104764431D01*
X125504945Y-104764432D01*
X125334678Y-104824011D01*
X125334676Y-104824011D01*
X125334676Y-104824012D01*
X125181935Y-104919985D01*
X125054385Y-105047535D01*
X124969436Y-105182732D01*
X124958411Y-105200278D01*
X124908844Y-105341932D01*
X124898831Y-105370548D01*
X124878634Y-105549800D01*
X124891043Y-105659938D01*
X124882384Y-105721274D01*
X124845135Y-105770768D01*
X124788594Y-105796069D01*
X124726870Y-105790863D01*
X124558455Y-105731932D01*
X124558453Y-105731931D01*
X124558451Y-105731931D01*
X124379200Y-105711734D01*
X124199948Y-105731931D01*
X124199945Y-105731931D01*
X124199945Y-105731932D01*
X124029678Y-105791511D01*
X124029676Y-105791511D01*
X124029676Y-105791512D01*
X123963295Y-105833222D01*
X123911207Y-105851448D01*
X123856370Y-105845270D01*
X123809644Y-105815912D01*
X123792437Y-105788529D01*
X123790722Y-105789608D01*
X123783287Y-105777776D01*
X123687316Y-105625038D01*
X123687315Y-105625037D01*
X123687314Y-105625035D01*
X123559764Y-105497485D01*
X123420045Y-105409694D01*
X123407022Y-105401511D01*
X123236755Y-105341932D01*
X123236753Y-105341931D01*
X123236751Y-105341931D01*
X123057500Y-105321734D01*
X122878248Y-105341931D01*
X122878245Y-105341931D01*
X122878245Y-105341932D01*
X122707978Y-105401511D01*
X122707976Y-105401511D01*
X122707976Y-105401512D01*
X122555235Y-105497485D01*
X122427685Y-105625035D01*
X122331712Y-105777776D01*
X122331711Y-105777778D01*
X122278999Y-105928420D01*
X122272131Y-105948048D01*
X122251934Y-106127299D01*
X117888374Y-106127299D01*
X117894165Y-106075900D01*
X117873968Y-105896645D01*
X117814389Y-105726378D01*
X117718416Y-105573638D01*
X117718415Y-105573637D01*
X117718414Y-105573635D01*
X117590864Y-105446085D01*
X117519926Y-105401512D01*
X117438122Y-105350111D01*
X117267855Y-105290532D01*
X117267853Y-105290531D01*
X117267851Y-105290531D01*
X117088600Y-105270334D01*
X116909348Y-105290531D01*
X116909345Y-105290531D01*
X116909345Y-105290532D01*
X116739078Y-105350111D01*
X116739076Y-105350111D01*
X116739076Y-105350112D01*
X116586335Y-105446085D01*
X116458785Y-105573635D01*
X116366018Y-105721274D01*
X116362811Y-105726378D01*
X116334041Y-105808598D01*
X116303231Y-105896648D01*
X116283034Y-106075900D01*
X104058416Y-106075900D01*
X104024035Y-106002171D01*
X103888495Y-105808599D01*
X103721401Y-105641505D01*
X103535839Y-105511573D01*
X103496975Y-105467257D01*
X103482964Y-105410000D01*
X103496975Y-105352743D01*
X103535839Y-105308426D01*
X103721401Y-105178495D01*
X103888495Y-105011401D01*
X104024035Y-104817830D01*
X104123903Y-104603663D01*
X104185063Y-104375408D01*
X104205659Y-104140000D01*
X104185063Y-103904592D01*
X104123903Y-103676337D01*
X104024035Y-103462171D01*
X103888495Y-103268599D01*
X103843995Y-103224099D01*
X126604734Y-103224099D01*
X126624931Y-103403351D01*
X126624931Y-103403353D01*
X126624932Y-103403355D01*
X126684511Y-103573622D01*
X126684512Y-103573623D01*
X126780485Y-103726364D01*
X126908035Y-103853914D01*
X126908037Y-103853915D01*
X126908038Y-103853916D01*
X127060778Y-103949889D01*
X127231045Y-104009468D01*
X127365486Y-104024615D01*
X127410299Y-104029665D01*
X127410299Y-104029664D01*
X127410300Y-104029665D01*
X127550199Y-104013902D01*
X127605037Y-104020080D01*
X127651761Y-104049439D01*
X127728438Y-104126116D01*
X127881178Y-104222089D01*
X128051445Y-104281668D01*
X128230700Y-104301865D01*
X128409955Y-104281668D01*
X128580222Y-104222089D01*
X128732962Y-104126116D01*
X128859078Y-104000000D01*
X133068750Y-104000000D01*
X133087686Y-104168056D01*
X133087686Y-104168058D01*
X133087687Y-104168059D01*
X133143544Y-104327690D01*
X133233523Y-104470890D01*
X133353110Y-104590477D01*
X133496310Y-104680456D01*
X133655941Y-104736313D01*
X133824000Y-104755249D01*
X133992059Y-104736313D01*
X134151690Y-104680456D01*
X134151691Y-104680455D01*
X134157253Y-104678509D01*
X134218978Y-104673302D01*
X134275520Y-104698602D01*
X134312769Y-104748096D01*
X134321428Y-104809433D01*
X134311934Y-104893698D01*
X134332131Y-105072951D01*
X134332131Y-105072953D01*
X134332132Y-105072955D01*
X134391711Y-105243222D01*
X134448479Y-105333567D01*
X134487685Y-105395964D01*
X134615235Y-105523514D01*
X134615237Y-105523515D01*
X134615238Y-105523516D01*
X134767978Y-105619489D01*
X134938245Y-105679068D01*
X135117500Y-105699265D01*
X135296755Y-105679068D01*
X135467022Y-105619489D01*
X135590747Y-105541747D01*
X135642834Y-105523522D01*
X135697672Y-105529701D01*
X135738444Y-105543968D01*
X135917700Y-105564165D01*
X136096955Y-105543968D01*
X136267222Y-105484389D01*
X136419962Y-105388416D01*
X136547516Y-105260862D01*
X136643489Y-105108122D01*
X136703068Y-104937855D01*
X136723265Y-104758600D01*
X136722887Y-104755249D01*
X136713791Y-104674512D01*
X136703068Y-104579345D01*
X136643489Y-104409078D01*
X136547516Y-104256338D01*
X136547515Y-104256337D01*
X136547514Y-104256335D01*
X136419964Y-104128785D01*
X136293688Y-104049441D01*
X136267222Y-104032811D01*
X136096955Y-103973232D01*
X136096953Y-103973231D01*
X136096951Y-103973231D01*
X135917699Y-103953034D01*
X135738448Y-103973231D01*
X135738445Y-103973231D01*
X135738445Y-103973232D01*
X135568178Y-104032811D01*
X135568176Y-104032811D01*
X135568176Y-104032812D01*
X135444455Y-104110551D01*
X135392367Y-104128777D01*
X135337530Y-104122599D01*
X135296754Y-104108331D01*
X135117500Y-104088134D01*
X134938248Y-104108331D01*
X134938245Y-104108331D01*
X134938245Y-104108332D01*
X134904503Y-104120139D01*
X134767972Y-104167913D01*
X134762527Y-104171335D01*
X134696556Y-104190339D01*
X134630585Y-104171331D01*
X134584838Y-104120139D01*
X134573339Y-104052455D01*
X134579249Y-103999999D01*
X134560313Y-103831943D01*
X134560313Y-103831941D01*
X134504456Y-103672310D01*
X134414477Y-103529110D01*
X134294890Y-103409523D01*
X134151690Y-103319544D01*
X133992059Y-103263687D01*
X133992058Y-103263686D01*
X133992056Y-103263686D01*
X133824000Y-103244750D01*
X133655943Y-103263686D01*
X133496310Y-103319544D01*
X133353108Y-103409524D01*
X133233524Y-103529108D01*
X133143544Y-103672310D01*
X133087686Y-103831943D01*
X133068750Y-104000000D01*
X128859078Y-104000000D01*
X128860516Y-103998562D01*
X128956489Y-103845822D01*
X129016068Y-103675555D01*
X129036265Y-103496300D01*
X129016068Y-103317045D01*
X128956489Y-103146778D01*
X128860516Y-102994038D01*
X128860515Y-102994037D01*
X128860514Y-102994035D01*
X128732964Y-102866485D01*
X128640307Y-102808265D01*
X128580222Y-102770511D01*
X128409955Y-102710932D01*
X128409953Y-102710931D01*
X128409951Y-102710931D01*
X128230699Y-102690734D01*
X128090800Y-102706497D01*
X128035962Y-102700318D01*
X127989237Y-102670959D01*
X127912562Y-102594284D01*
X127912561Y-102594283D01*
X127770410Y-102504964D01*
X127762510Y-102500000D01*
X129744750Y-102500000D01*
X129763686Y-102668056D01*
X129763686Y-102668058D01*
X129763687Y-102668059D01*
X129819544Y-102827690D01*
X129909523Y-102970890D01*
X130029110Y-103090477D01*
X130172310Y-103180456D01*
X130331941Y-103236313D01*
X130500000Y-103255249D01*
X130668059Y-103236313D01*
X130827690Y-103180456D01*
X130970890Y-103090477D01*
X131090477Y-102970890D01*
X131180456Y-102827690D01*
X131236313Y-102668059D01*
X131255249Y-102500000D01*
X131236313Y-102331941D01*
X131180456Y-102172310D01*
X131090477Y-102029110D01*
X130970890Y-101909523D01*
X130827690Y-101819544D01*
X130668059Y-101763687D01*
X130668058Y-101763686D01*
X130668056Y-101763686D01*
X130500000Y-101744750D01*
X130331943Y-101763686D01*
X130172310Y-101819544D01*
X130029108Y-101909524D01*
X129909524Y-102029108D01*
X129819544Y-102172310D01*
X129763686Y-102331943D01*
X129744750Y-102500000D01*
X127762510Y-102500000D01*
X127759822Y-102498311D01*
X127589555Y-102438732D01*
X127589553Y-102438731D01*
X127589551Y-102438731D01*
X127410300Y-102418534D01*
X127231048Y-102438731D01*
X127231045Y-102438731D01*
X127231045Y-102438732D01*
X127060778Y-102498311D01*
X127060776Y-102498311D01*
X127060776Y-102498312D01*
X126908035Y-102594285D01*
X126780485Y-102721835D01*
X126687196Y-102870305D01*
X126684511Y-102874578D01*
X126656140Y-102955659D01*
X126624931Y-103044848D01*
X126604734Y-103224099D01*
X103843995Y-103224099D01*
X103721401Y-103101505D01*
X103535839Y-102971573D01*
X103496974Y-102927255D01*
X103482964Y-102869999D01*
X103496975Y-102812742D01*
X103535837Y-102768428D01*
X103721401Y-102638495D01*
X103888495Y-102471401D01*
X104024035Y-102277830D01*
X104123903Y-102063663D01*
X104140238Y-102002699D01*
X121596234Y-102002699D01*
X121616431Y-102181951D01*
X121616431Y-102181953D01*
X121616432Y-102181955D01*
X121676011Y-102352222D01*
X121676012Y-102352223D01*
X121771985Y-102504964D01*
X121899535Y-102632514D01*
X121899537Y-102632515D01*
X121899538Y-102632516D01*
X122052278Y-102728489D01*
X122222545Y-102788068D01*
X122401800Y-102808265D01*
X122581055Y-102788068D01*
X122751322Y-102728489D01*
X122904062Y-102632516D01*
X123031616Y-102504962D01*
X123127589Y-102352222D01*
X123187168Y-102181955D01*
X123207365Y-102002700D01*
X123187168Y-101823445D01*
X123127589Y-101653178D01*
X123031616Y-101500438D01*
X123031615Y-101500437D01*
X123031614Y-101500435D01*
X122904064Y-101372885D01*
X122811181Y-101314523D01*
X122751322Y-101276911D01*
X122581055Y-101217332D01*
X122581053Y-101217331D01*
X122581051Y-101217331D01*
X122401800Y-101197134D01*
X122222548Y-101217331D01*
X122222545Y-101217331D01*
X122222545Y-101217332D01*
X122052278Y-101276911D01*
X122052276Y-101276911D01*
X122052276Y-101276912D01*
X121899535Y-101372885D01*
X121771985Y-101500435D01*
X121712682Y-101594816D01*
X121676011Y-101653178D01*
X121643969Y-101744750D01*
X121616431Y-101823448D01*
X121596234Y-102002699D01*
X104140238Y-102002699D01*
X104185063Y-101835408D01*
X104205659Y-101600000D01*
X104185063Y-101364592D01*
X104123903Y-101136337D01*
X104024035Y-100922171D01*
X103913912Y-100764899D01*
X128706034Y-100764899D01*
X128726231Y-100944151D01*
X128726231Y-100944153D01*
X128726232Y-100944155D01*
X128785811Y-101114422D01*
X128808000Y-101149735D01*
X128881785Y-101267164D01*
X129009335Y-101394714D01*
X129009337Y-101394715D01*
X129009338Y-101394716D01*
X129162078Y-101490689D01*
X129332345Y-101550268D01*
X129511600Y-101570465D01*
X129690855Y-101550268D01*
X129861122Y-101490689D01*
X130013862Y-101394716D01*
X130141416Y-101267162D01*
X130237389Y-101114422D01*
X130289674Y-100965000D01*
X130639434Y-100965000D01*
X130659631Y-101144251D01*
X130659631Y-101144253D01*
X130659632Y-101144255D01*
X130719211Y-101314522D01*
X130719212Y-101314523D01*
X130815185Y-101467264D01*
X130942735Y-101594814D01*
X130942737Y-101594815D01*
X130942738Y-101594816D01*
X131095478Y-101690789D01*
X131265745Y-101750368D01*
X131445000Y-101770565D01*
X131624255Y-101750368D01*
X131794522Y-101690789D01*
X131856254Y-101652000D01*
X134777434Y-101652000D01*
X134797631Y-101831251D01*
X134797631Y-101831253D01*
X134797632Y-101831255D01*
X134857211Y-102001522D01*
X134874546Y-102029110D01*
X134953185Y-102154264D01*
X135080735Y-102281814D01*
X135080737Y-102281815D01*
X135080738Y-102281816D01*
X135233478Y-102377789D01*
X135403745Y-102437368D01*
X135583000Y-102457565D01*
X135762255Y-102437368D01*
X135932522Y-102377789D01*
X136085262Y-102281816D01*
X136212816Y-102154262D01*
X136308789Y-102001522D01*
X136368368Y-101831255D01*
X136388565Y-101652000D01*
X136368368Y-101472745D01*
X136308789Y-101302478D01*
X136212816Y-101149738D01*
X136212815Y-101149737D01*
X136212814Y-101149735D01*
X136085264Y-101022185D01*
X136022867Y-100982979D01*
X135932522Y-100926211D01*
X135762255Y-100866632D01*
X135762253Y-100866631D01*
X135762251Y-100866631D01*
X135583000Y-100846434D01*
X135403748Y-100866631D01*
X135403745Y-100866631D01*
X135403745Y-100866632D01*
X135233478Y-100926211D01*
X135233476Y-100926211D01*
X135233476Y-100926212D01*
X135080735Y-101022185D01*
X134953185Y-101149735D01*
X134873275Y-101276912D01*
X134857211Y-101302478D01*
X134832575Y-101372884D01*
X134797631Y-101472748D01*
X134777434Y-101652000D01*
X131856254Y-101652000D01*
X131947262Y-101594816D01*
X132074816Y-101467262D01*
X132158308Y-101334384D01*
X132197330Y-101295362D01*
X132249418Y-101277136D01*
X132304257Y-101283315D01*
X132394144Y-101314768D01*
X132573400Y-101334965D01*
X132752655Y-101314768D01*
X132922922Y-101255189D01*
X133075662Y-101159216D01*
X133203216Y-101031662D01*
X133299189Y-100878922D01*
X133358768Y-100708655D01*
X133378965Y-100529400D01*
X133358768Y-100350145D01*
X133349362Y-100323266D01*
X133344565Y-100259263D01*
X133372415Y-100201431D01*
X133425446Y-100165274D01*
X133555722Y-100119689D01*
X133708462Y-100023716D01*
X133836016Y-99896162D01*
X133931989Y-99743422D01*
X133991568Y-99573155D01*
X134011765Y-99393900D01*
X133991568Y-99214645D01*
X133931989Y-99044378D01*
X133836016Y-98891638D01*
X133836015Y-98891637D01*
X133836014Y-98891635D01*
X133708464Y-98764085D01*
X133646067Y-98724878D01*
X133555722Y-98668111D01*
X133385455Y-98608532D01*
X133385453Y-98608531D01*
X133385451Y-98608531D01*
X133206200Y-98588334D01*
X133026948Y-98608531D01*
X133026945Y-98608531D01*
X133026945Y-98608532D01*
X132856678Y-98668111D01*
X132856676Y-98668111D01*
X132856676Y-98668112D01*
X132703935Y-98764085D01*
X132576385Y-98891635D01*
X132480412Y-99044376D01*
X132420831Y-99214648D01*
X132400634Y-99393900D01*
X132420831Y-99573154D01*
X132430236Y-99600032D01*
X132435032Y-99664039D01*
X132407182Y-99721869D01*
X132354149Y-99758026D01*
X132223880Y-99803609D01*
X132071135Y-99899585D01*
X131943584Y-100027136D01*
X131860091Y-100160015D01*
X131821069Y-100199037D01*
X131768981Y-100217263D01*
X131714143Y-100211085D01*
X131624252Y-100179631D01*
X131445000Y-100159434D01*
X131265748Y-100179631D01*
X131265745Y-100179631D01*
X131265745Y-100179632D01*
X131095478Y-100239211D01*
X131095476Y-100239211D01*
X131095476Y-100239212D01*
X130942735Y-100335185D01*
X130815185Y-100462735D01*
X130737956Y-100585645D01*
X130719211Y-100615478D01*
X130686607Y-100708655D01*
X130659631Y-100785748D01*
X130639434Y-100965000D01*
X130289674Y-100965000D01*
X130296968Y-100944155D01*
X130317165Y-100764900D01*
X130296968Y-100585645D01*
X130237389Y-100415378D01*
X130141416Y-100262638D01*
X130141415Y-100262637D01*
X130141414Y-100262635D01*
X130013864Y-100135085D01*
X129951467Y-100095878D01*
X129861122Y-100039111D01*
X129690855Y-99979532D01*
X129690853Y-99979531D01*
X129690851Y-99979531D01*
X129511600Y-99959334D01*
X129332348Y-99979531D01*
X129332345Y-99979531D01*
X129332345Y-99979532D01*
X129162078Y-100039111D01*
X129162076Y-100039111D01*
X129162076Y-100039112D01*
X129009335Y-100135085D01*
X128881785Y-100262635D01*
X128785812Y-100415376D01*
X128785811Y-100415378D01*
X128769240Y-100462735D01*
X128726231Y-100585648D01*
X128706034Y-100764899D01*
X103913912Y-100764899D01*
X103888495Y-100728599D01*
X103721401Y-100561505D01*
X103535839Y-100431573D01*
X103496975Y-100387257D01*
X103482964Y-100330000D01*
X103496975Y-100272743D01*
X103535839Y-100228426D01*
X103721401Y-100098495D01*
X103888495Y-99931401D01*
X104024035Y-99737830D01*
X104123903Y-99523663D01*
X104185063Y-99295408D01*
X104205659Y-99060000D01*
X104185063Y-98824592D01*
X104123903Y-98596337D01*
X104024035Y-98382171D01*
X103888495Y-98188599D01*
X103721401Y-98021505D01*
X103535839Y-97891573D01*
X103496976Y-97847257D01*
X103482965Y-97790000D01*
X103496976Y-97732743D01*
X103535839Y-97688426D01*
X103721401Y-97558495D01*
X103888495Y-97391401D01*
X103985685Y-97252600D01*
X122251934Y-97252600D01*
X122272131Y-97431851D01*
X122272131Y-97431853D01*
X122272132Y-97431855D01*
X122331711Y-97602122D01*
X122331712Y-97602123D01*
X122427685Y-97754864D01*
X122555235Y-97882414D01*
X122555237Y-97882415D01*
X122555238Y-97882416D01*
X122707978Y-97978389D01*
X122878245Y-98037968D01*
X123057500Y-98058165D01*
X123236755Y-98037968D01*
X123407022Y-97978389D01*
X123559762Y-97882416D01*
X123687316Y-97754862D01*
X123783289Y-97602122D01*
X123842868Y-97431855D01*
X123863065Y-97252600D01*
X123842868Y-97073345D01*
X123783289Y-96903078D01*
X123687316Y-96750338D01*
X123687315Y-96750337D01*
X123687314Y-96750335D01*
X123559764Y-96622785D01*
X123497367Y-96583579D01*
X123407022Y-96526811D01*
X123236755Y-96467232D01*
X123236753Y-96467231D01*
X123236751Y-96467231D01*
X123057500Y-96447034D01*
X122878248Y-96467231D01*
X122878245Y-96467231D01*
X122878245Y-96467232D01*
X122707978Y-96526811D01*
X122707976Y-96526811D01*
X122707976Y-96526812D01*
X122555235Y-96622785D01*
X122427685Y-96750335D01*
X122331712Y-96903076D01*
X122331711Y-96903078D01*
X122303513Y-96983663D01*
X122272131Y-97073348D01*
X122251934Y-97252600D01*
X103985685Y-97252600D01*
X104024035Y-97197830D01*
X104123903Y-96983663D01*
X104185063Y-96755408D01*
X104205659Y-96520000D01*
X104185063Y-96284592D01*
X104123903Y-96056337D01*
X104024035Y-95842171D01*
X103888495Y-95648599D01*
X103721401Y-95481505D01*
X103535839Y-95351573D01*
X103496975Y-95307257D01*
X103482964Y-95250000D01*
X103496975Y-95192743D01*
X103535839Y-95148426D01*
X103721401Y-95018495D01*
X103888495Y-94851401D01*
X104024035Y-94657830D01*
X104123903Y-94443663D01*
X104185063Y-94215408D01*
X104205659Y-93980000D01*
X104185063Y-93744592D01*
X104123903Y-93516337D01*
X104024035Y-93302171D01*
X103888495Y-93108599D01*
X103721401Y-92941505D01*
X103535402Y-92811267D01*
X103496539Y-92766951D01*
X103482528Y-92709694D01*
X103496539Y-92652437D01*
X103535405Y-92608119D01*
X103721078Y-92478109D01*
X103769287Y-92429900D01*
X135449534Y-92429900D01*
X135469731Y-92609151D01*
X135469731Y-92609153D01*
X135469732Y-92609155D01*
X135529311Y-92779422D01*
X135549514Y-92811575D01*
X135625285Y-92932164D01*
X135752835Y-93059714D01*
X135752837Y-93059715D01*
X135752838Y-93059716D01*
X135905578Y-93155689D01*
X136075845Y-93215268D01*
X136255100Y-93235465D01*
X136434355Y-93215268D01*
X136604622Y-93155689D01*
X136757362Y-93059716D01*
X136884916Y-92932162D01*
X136980889Y-92779422D01*
X137040468Y-92609155D01*
X137060665Y-92429900D01*
X137040468Y-92250645D01*
X136980889Y-92080378D01*
X136884916Y-91927638D01*
X136884915Y-91927637D01*
X136884914Y-91927635D01*
X136757364Y-91800085D01*
X136694967Y-91760879D01*
X136604622Y-91704111D01*
X136434355Y-91644532D01*
X136434353Y-91644531D01*
X136434351Y-91644531D01*
X136255100Y-91624334D01*
X136075848Y-91644531D01*
X136075845Y-91644531D01*
X136075845Y-91644532D01*
X135905578Y-91704111D01*
X135905576Y-91704111D01*
X135905576Y-91704112D01*
X135752835Y-91800085D01*
X135625285Y-91927635D01*
X135529312Y-92080376D01*
X135529311Y-92080378D01*
X135513403Y-92125841D01*
X135469731Y-92250648D01*
X135449534Y-92429900D01*
X103769287Y-92429900D01*
X103888106Y-92311081D01*
X104023600Y-92117576D01*
X104123430Y-91903492D01*
X104180636Y-91690000D01*
X102724000Y-91690000D01*
X102662000Y-91673387D01*
X102616613Y-91628000D01*
X102600000Y-91566000D01*
X102600000Y-89150000D01*
X103100000Y-89150000D01*
X103100000Y-91190000D01*
X104180636Y-91190000D01*
X104180635Y-91189999D01*
X104123430Y-90976507D01*
X104023599Y-90762421D01*
X103888109Y-90568921D01*
X103721081Y-90401893D01*
X103534968Y-90271575D01*
X103496103Y-90227257D01*
X103482092Y-90170000D01*
X103496103Y-90112743D01*
X103534968Y-90068425D01*
X103721081Y-89938106D01*
X103888106Y-89771081D01*
X104023600Y-89577576D01*
X104123430Y-89363492D01*
X104180636Y-89150000D01*
X103100000Y-89150000D01*
X102600000Y-89150000D01*
X98979364Y-89150000D01*
X99036569Y-89363492D01*
X99136399Y-89577576D01*
X99271893Y-89771081D01*
X99438918Y-89938106D01*
X99624595Y-90068119D01*
X99663460Y-90112437D01*
X99677471Y-90169694D01*
X99663460Y-90226951D01*
X99624595Y-90271269D01*
X99438595Y-90401508D01*
X99271505Y-90568598D01*
X99135965Y-90762170D01*
X99036097Y-90976336D01*
X98974936Y-91204592D01*
X98954340Y-91440000D01*
X98974936Y-91675407D01*
X98982628Y-91704112D01*
X99036097Y-91903663D01*
X99135965Y-92117830D01*
X99271505Y-92311401D01*
X99438599Y-92478495D01*
X99624160Y-92608426D01*
X99663024Y-92652743D01*
X99677035Y-92710000D01*
X99663024Y-92767257D01*
X99624160Y-92811574D01*
X99451940Y-92932164D01*
X99438595Y-92941508D01*
X99271505Y-93108598D01*
X99135965Y-93302170D01*
X99036097Y-93516336D01*
X98974936Y-93744592D01*
X98954340Y-93979999D01*
X98974936Y-94215407D01*
X99019709Y-94382501D01*
X99036097Y-94443663D01*
X99135965Y-94657830D01*
X99271505Y-94851401D01*
X99438599Y-95018495D01*
X99624160Y-95148426D01*
X99663024Y-95192743D01*
X99677035Y-95250000D01*
X99663024Y-95307257D01*
X99624159Y-95351575D01*
X99438595Y-95481508D01*
X99271505Y-95648598D01*
X99135965Y-95842170D01*
X99036097Y-96056336D01*
X98974936Y-96284592D01*
X98954340Y-96520000D01*
X98974936Y-96755407D01*
X99019709Y-96922501D01*
X99036097Y-96983663D01*
X99135965Y-97197830D01*
X99271505Y-97391401D01*
X99438599Y-97558495D01*
X99624160Y-97688426D01*
X99663024Y-97732743D01*
X99677035Y-97790000D01*
X99663024Y-97847257D01*
X99624159Y-97891575D01*
X99438595Y-98021508D01*
X99271505Y-98188598D01*
X99135965Y-98382170D01*
X99036097Y-98596336D01*
X98974936Y-98824592D01*
X98954340Y-99059999D01*
X98974936Y-99295407D01*
X99019709Y-99462502D01*
X99036097Y-99523663D01*
X99135965Y-99737830D01*
X99271505Y-99931401D01*
X99438599Y-100098495D01*
X99624160Y-100228426D01*
X99663024Y-100272743D01*
X99677035Y-100330000D01*
X99663024Y-100387257D01*
X99624160Y-100431574D01*
X99579654Y-100462738D01*
X99438595Y-100561508D01*
X99271505Y-100728598D01*
X99135965Y-100922170D01*
X99036097Y-101136336D01*
X98974936Y-101364592D01*
X98954340Y-101600000D01*
X98974936Y-101835407D01*
X98994796Y-101909524D01*
X99036097Y-102063663D01*
X99135965Y-102277830D01*
X99271505Y-102471401D01*
X99438599Y-102638495D01*
X99624160Y-102768426D01*
X99663024Y-102812743D01*
X99677035Y-102870000D01*
X99663024Y-102927257D01*
X99624159Y-102971575D01*
X99438595Y-103101508D01*
X99271505Y-103268598D01*
X99135965Y-103462170D01*
X99036097Y-103676336D01*
X98974936Y-103904592D01*
X98954340Y-104140000D01*
X98974936Y-104375407D01*
X99000521Y-104470890D01*
X99036097Y-104603663D01*
X99135965Y-104817830D01*
X99271505Y-105011401D01*
X99438599Y-105178495D01*
X99624160Y-105308426D01*
X99663024Y-105352743D01*
X99677035Y-105410000D01*
X99663024Y-105467257D01*
X99624158Y-105511575D01*
X99462117Y-105625038D01*
X99438595Y-105641508D01*
X99271505Y-105808598D01*
X99135965Y-106002170D01*
X99036097Y-106216336D01*
X98974936Y-106444592D01*
X98954340Y-106680000D01*
X98974936Y-106915407D01*
X99002845Y-107019564D01*
X99036097Y-107143663D01*
X99135965Y-107357830D01*
X99271505Y-107551401D01*
X99438599Y-107718495D01*
X99624160Y-107848426D01*
X99663024Y-107892743D01*
X99677035Y-107950000D01*
X99663024Y-108007257D01*
X99624159Y-108051575D01*
X99438595Y-108181508D01*
X99271505Y-108348598D01*
X99135965Y-108542170D01*
X99036097Y-108756336D01*
X98974936Y-108984592D01*
X98954340Y-109220000D01*
X98974936Y-109455407D01*
X99000591Y-109551151D01*
X99036097Y-109683663D01*
X99135965Y-109897830D01*
X99271505Y-110091401D01*
X99438599Y-110258495D01*
X99624160Y-110388426D01*
X99663024Y-110432743D01*
X99677035Y-110490000D01*
X99663024Y-110547257D01*
X99624159Y-110591575D01*
X99438595Y-110721508D01*
X99271505Y-110888598D01*
X99135965Y-111082170D01*
X99036097Y-111296336D01*
X98974936Y-111524592D01*
X98954340Y-111759999D01*
X98974936Y-111995407D01*
X99004250Y-112104807D01*
X99036097Y-112223663D01*
X99135965Y-112437830D01*
X99271505Y-112631401D01*
X99438599Y-112798495D01*
X99624160Y-112928426D01*
X99663024Y-112972743D01*
X99677035Y-113030000D01*
X99663024Y-113087257D01*
X99624158Y-113131575D01*
X99452090Y-113252059D01*
X99438595Y-113261508D01*
X99271505Y-113428598D01*
X99135965Y-113622170D01*
X99036097Y-113836336D01*
X98974936Y-114064592D01*
X98954340Y-114300000D01*
X98974936Y-114535407D01*
X99011291Y-114671084D01*
X99036097Y-114763663D01*
X99135965Y-114977830D01*
X99271505Y-115171401D01*
X99438599Y-115338495D01*
X99624160Y-115468426D01*
X99663024Y-115512743D01*
X99677035Y-115570000D01*
X99663024Y-115627257D01*
X99624159Y-115671575D01*
X99593738Y-115692875D01*
X99476183Y-115775189D01*
X99438595Y-115801508D01*
X99271505Y-115968598D01*
X99135965Y-116162170D01*
X99036097Y-116376336D01*
X98974936Y-116604592D01*
X98954340Y-116839999D01*
X98974936Y-117075407D01*
X99014165Y-117221811D01*
X99036097Y-117303663D01*
X99135965Y-117517830D01*
X99271505Y-117711401D01*
X99438599Y-117878495D01*
X99624160Y-118008426D01*
X99663024Y-118052743D01*
X99677035Y-118110000D01*
X99663024Y-118167257D01*
X99624160Y-118211574D01*
X99501984Y-118297123D01*
X99438595Y-118341508D01*
X99271505Y-118508598D01*
X99135965Y-118702170D01*
X99036097Y-118916336D01*
X98974936Y-119144592D01*
X98954340Y-119380000D01*
X98974936Y-119615407D01*
X99000429Y-119710548D01*
X99036097Y-119843663D01*
X99135965Y-120057830D01*
X99271505Y-120251401D01*
X99438599Y-120418495D01*
X99624160Y-120548426D01*
X99663024Y-120592743D01*
X99677035Y-120650000D01*
X99663024Y-120707257D01*
X99624160Y-120751574D01*
X99525537Y-120820631D01*
X99438595Y-120881508D01*
X99271505Y-121048598D01*
X99135965Y-121242170D01*
X99036097Y-121456336D01*
X98974936Y-121684592D01*
X98954340Y-121919999D01*
X98974936Y-122155407D01*
X98996058Y-122234234D01*
X99036097Y-122383663D01*
X99135965Y-122597830D01*
X99271505Y-122791401D01*
X99438599Y-122958495D01*
X99624160Y-123088426D01*
X99663024Y-123132743D01*
X99677035Y-123190000D01*
X99663024Y-123247257D01*
X99624158Y-123291575D01*
X99439705Y-123420731D01*
X99438595Y-123421508D01*
X99271505Y-123588598D01*
X99135965Y-123782170D01*
X99036097Y-123996336D01*
X98974936Y-124224592D01*
X98954340Y-124460000D01*
X98974936Y-124695407D01*
X99019709Y-124862502D01*
X99036097Y-124923663D01*
X99135965Y-125137830D01*
X99271505Y-125331401D01*
X99438599Y-125498495D01*
X99624597Y-125628732D01*
X99663460Y-125673048D01*
X99677471Y-125730305D01*
X99663461Y-125787561D01*
X99624595Y-125831880D01*
X99438919Y-125961892D01*
X99271890Y-126128921D01*
X99136400Y-126322421D01*
X99036569Y-126536507D01*
X98979364Y-126749999D01*
X98979364Y-126750000D01*
X100436000Y-126750000D01*
X100498000Y-126766613D01*
X100543387Y-126812000D01*
X100560000Y-126874000D01*
X100560000Y-127126000D01*
X100543387Y-127188000D01*
X100498000Y-127233387D01*
X100436000Y-127250000D01*
X98979364Y-127250000D01*
X99036569Y-127463492D01*
X99136399Y-127677576D01*
X99271893Y-127871081D01*
X99438918Y-128038106D01*
X99624595Y-128168119D01*
X99663460Y-128212437D01*
X99677471Y-128269694D01*
X99663460Y-128326951D01*
X99624595Y-128371269D01*
X99438595Y-128501508D01*
X99271505Y-128668598D01*
X99135965Y-128862170D01*
X99036097Y-129076336D01*
X98974936Y-129304592D01*
X98954340Y-129540000D01*
X98974936Y-129775407D01*
X99019709Y-129942501D01*
X99036097Y-130003663D01*
X99135965Y-130217830D01*
X99271505Y-130411401D01*
X99438599Y-130578495D01*
X99624160Y-130708426D01*
X99663024Y-130752743D01*
X99677035Y-130810000D01*
X99663024Y-130867257D01*
X99624159Y-130911575D01*
X99438595Y-131041508D01*
X99271505Y-131208598D01*
X99135965Y-131402170D01*
X99036097Y-131616336D01*
X98974936Y-131844592D01*
X98954340Y-132079999D01*
X98974936Y-132315407D01*
X99019709Y-132482501D01*
X99036097Y-132543663D01*
X99135965Y-132757830D01*
X99271505Y-132951401D01*
X99438599Y-133118495D01*
X99624160Y-133248426D01*
X99663024Y-133292743D01*
X99677035Y-133350000D01*
X99663024Y-133407257D01*
X99624158Y-133451575D01*
X99519903Y-133524576D01*
X99438595Y-133581508D01*
X99271505Y-133748598D01*
X99135965Y-133942170D01*
X99036097Y-134156336D01*
X98974936Y-134384592D01*
X98954340Y-134619999D01*
X98974936Y-134855407D01*
X99019709Y-135022501D01*
X99036097Y-135083663D01*
X99135965Y-135297830D01*
X99271505Y-135491401D01*
X99438599Y-135658495D01*
X99624160Y-135788426D01*
X99663024Y-135832743D01*
X99677035Y-135890000D01*
X99663024Y-135947257D01*
X99624159Y-135991575D01*
X99438595Y-136121508D01*
X99271505Y-136288598D01*
X99135965Y-136482170D01*
X99036097Y-136696336D01*
X98974936Y-136924592D01*
X98954340Y-137160000D01*
X98974936Y-137395407D01*
X99006760Y-137514176D01*
X99036097Y-137623663D01*
X99135965Y-137837830D01*
X99271505Y-138031401D01*
X99438599Y-138198495D01*
X99624160Y-138328426D01*
X99663024Y-138372743D01*
X99677035Y-138430000D01*
X99663024Y-138487257D01*
X99624159Y-138531575D01*
X99438595Y-138661508D01*
X99271505Y-138828598D01*
X99135965Y-139022170D01*
X99036097Y-139236336D01*
X98974936Y-139464592D01*
X98954340Y-139699999D01*
X98974936Y-139935407D01*
X98986637Y-139979075D01*
X99036097Y-140163663D01*
X99135965Y-140377830D01*
X99271505Y-140571401D01*
X99438599Y-140738495D01*
X99624160Y-140868426D01*
X99663024Y-140912743D01*
X99677035Y-140970000D01*
X99663024Y-141027257D01*
X99624159Y-141071575D01*
X99438595Y-141201508D01*
X99271505Y-141368598D01*
X99135965Y-141562170D01*
X99036097Y-141776336D01*
X98974936Y-142004592D01*
X98954340Y-142240000D01*
X98974936Y-142475407D01*
X98982993Y-142505475D01*
X99036097Y-142703663D01*
X99135965Y-142917830D01*
X99271505Y-143111401D01*
X99438599Y-143278495D01*
X99624160Y-143408426D01*
X99663024Y-143452743D01*
X99677035Y-143510000D01*
X99663024Y-143567257D01*
X99624158Y-143611575D01*
X99498335Y-143699678D01*
X99438595Y-143741508D01*
X99271505Y-143908598D01*
X99135965Y-144102170D01*
X99036097Y-144316336D01*
X98974936Y-144544592D01*
X98954340Y-144779999D01*
X98974936Y-145015407D01*
X99006338Y-145132600D01*
X99036097Y-145243663D01*
X99135965Y-145457830D01*
X99271505Y-145651401D01*
X99438599Y-145818495D01*
X99624160Y-145948426D01*
X99663024Y-145992743D01*
X99677035Y-146050000D01*
X99663024Y-146107257D01*
X99624158Y-146151575D01*
X99443821Y-146277849D01*
X99438595Y-146281508D01*
X99271505Y-146448598D01*
X99135965Y-146642170D01*
X99036097Y-146856336D01*
X98974936Y-147084592D01*
X98954340Y-147320000D01*
X98974936Y-147555407D01*
X98997871Y-147641000D01*
X99036097Y-147783663D01*
X99135965Y-147997830D01*
X99271505Y-148191401D01*
X99438599Y-148358495D01*
X99624160Y-148488426D01*
X99663024Y-148532743D01*
X99677035Y-148590000D01*
X99663024Y-148647257D01*
X99624159Y-148691575D01*
X99438595Y-148821508D01*
X99271505Y-148988598D01*
X99135965Y-149182170D01*
X99036097Y-149396336D01*
X98974936Y-149624592D01*
X98954340Y-149860000D01*
X98974936Y-150095407D01*
X99019709Y-150262502D01*
X99036097Y-150323663D01*
X99135965Y-150537830D01*
X99271505Y-150731401D01*
X99438599Y-150898495D01*
X99624160Y-151028426D01*
X99663024Y-151072743D01*
X99677035Y-151130000D01*
X99663024Y-151187257D01*
X99624159Y-151231575D01*
X99438595Y-151361508D01*
X99271505Y-151528598D01*
X99135965Y-151722170D01*
X99036097Y-151936336D01*
X98974936Y-152164592D01*
X98954340Y-152400000D01*
X98425000Y-152400000D01*
X98425000Y-86360000D01*
X98954340Y-86360000D01*
X98974936Y-86595407D01*
X99019709Y-86762502D01*
X99036097Y-86823663D01*
X99135965Y-87037830D01*
X99271505Y-87231401D01*
X99438599Y-87398495D01*
X99624597Y-87528732D01*
X99663460Y-87573048D01*
X99677471Y-87630305D01*
X99663461Y-87687561D01*
X99624595Y-87731880D01*
X99438919Y-87861892D01*
X99271890Y-88028921D01*
X99136400Y-88222421D01*
X99036569Y-88436507D01*
X98979364Y-88649999D01*
X98979364Y-88650000D01*
X104180636Y-88650000D01*
X104180635Y-88649999D01*
X104123430Y-88436507D01*
X104023599Y-88222421D01*
X103888109Y-88028921D01*
X103721081Y-87861893D01*
X103535404Y-87731880D01*
X103496539Y-87687562D01*
X103482528Y-87630305D01*
X103496539Y-87573048D01*
X103535402Y-87528732D01*
X103721401Y-87398495D01*
X103888495Y-87231401D01*
X104024035Y-87037830D01*
X104123903Y-86823663D01*
X104185063Y-86595408D01*
X104205659Y-86360000D01*
X104185063Y-86124592D01*
X104123903Y-85896337D01*
X104024035Y-85682171D01*
X103888495Y-85488599D01*
X103721401Y-85321505D01*
X103535839Y-85191573D01*
X103496975Y-85147257D01*
X103482964Y-85090000D01*
X103496975Y-85032743D01*
X103535839Y-84988426D01*
X103721401Y-84858495D01*
X103888495Y-84691401D01*
X103959778Y-84589599D01*
X132400634Y-84589599D01*
X132420831Y-84768851D01*
X132420831Y-84768853D01*
X132420832Y-84768855D01*
X132480411Y-84939122D01*
X132480412Y-84939123D01*
X132576385Y-85091864D01*
X132703935Y-85219414D01*
X132703937Y-85219415D01*
X132703938Y-85219416D01*
X132856678Y-85315389D01*
X133026945Y-85374968D01*
X133206200Y-85395165D01*
X133385455Y-85374968D01*
X133555722Y-85315389D01*
X133708462Y-85219416D01*
X133836016Y-85091862D01*
X133931989Y-84939122D01*
X133991568Y-84768855D01*
X134011765Y-84589600D01*
X133991568Y-84410345D01*
X133931989Y-84240078D01*
X133836016Y-84087338D01*
X133836015Y-84087337D01*
X133836014Y-84087335D01*
X133708464Y-83959785D01*
X133646067Y-83920578D01*
X133555722Y-83863811D01*
X133385455Y-83804232D01*
X133385453Y-83804231D01*
X133385451Y-83804231D01*
X133206200Y-83784034D01*
X133026948Y-83804231D01*
X133026945Y-83804231D01*
X133026945Y-83804232D01*
X132856678Y-83863811D01*
X132856676Y-83863811D01*
X132856676Y-83863812D01*
X132703935Y-83959785D01*
X132576385Y-84087335D01*
X132480412Y-84240076D01*
X132480411Y-84240078D01*
X132465160Y-84283663D01*
X132420831Y-84410348D01*
X132400634Y-84589599D01*
X103959778Y-84589599D01*
X104024035Y-84497830D01*
X104123903Y-84283663D01*
X104185063Y-84055408D01*
X104205659Y-83820000D01*
X104185063Y-83584592D01*
X104123903Y-83356337D01*
X104024035Y-83142171D01*
X103888495Y-82948599D01*
X103721401Y-82781505D01*
X103535839Y-82651573D01*
X103496975Y-82607257D01*
X103482964Y-82550000D01*
X103496975Y-82492743D01*
X103535839Y-82448426D01*
X103721401Y-82318495D01*
X103888495Y-82151401D01*
X104024035Y-81957830D01*
X104123903Y-81743663D01*
X104185063Y-81515408D01*
X104205659Y-81280000D01*
X104185063Y-81044592D01*
X104123903Y-80816337D01*
X104024035Y-80602171D01*
X103888495Y-80408599D01*
X103721401Y-80241505D01*
X103535839Y-80111573D01*
X103496976Y-80067257D01*
X103482965Y-80010000D01*
X103496976Y-79952743D01*
X103535839Y-79908426D01*
X103721401Y-79778495D01*
X103888495Y-79611401D01*
X104024035Y-79417830D01*
X104123903Y-79203663D01*
X104185063Y-78975408D01*
X104205659Y-78740000D01*
X104185063Y-78504592D01*
X104123903Y-78276337D01*
X104024035Y-78062171D01*
X103888495Y-77868599D01*
X103721401Y-77701505D01*
X103535839Y-77571573D01*
X103496975Y-77527257D01*
X103482964Y-77470000D01*
X103496975Y-77412743D01*
X103535839Y-77368426D01*
X103721401Y-77238495D01*
X103888495Y-77071401D01*
X104024035Y-76877830D01*
X104123903Y-76663663D01*
X104185063Y-76435408D01*
X104205659Y-76200000D01*
X104185063Y-75964592D01*
X104123903Y-75736337D01*
X104024035Y-75522171D01*
X103888495Y-75328599D01*
X103721401Y-75161505D01*
X103535402Y-75031267D01*
X103496539Y-74986951D01*
X103482528Y-74929694D01*
X103496539Y-74872437D01*
X103535405Y-74828119D01*
X103721078Y-74698109D01*
X103888106Y-74531081D01*
X104023600Y-74337576D01*
X104123430Y-74123492D01*
X104180636Y-73910000D01*
X102724000Y-73910000D01*
X102662000Y-73893387D01*
X102616613Y-73848000D01*
X102600000Y-73786000D01*
X102600000Y-73534000D01*
X102616613Y-73472000D01*
X102662000Y-73426613D01*
X102724000Y-73410000D01*
X104180636Y-73410000D01*
X104180635Y-73409999D01*
X104123430Y-73196507D01*
X104023599Y-72982421D01*
X103888109Y-72788921D01*
X103721081Y-72621893D01*
X103535404Y-72491880D01*
X103496539Y-72447562D01*
X103482528Y-72390305D01*
X103496539Y-72333048D01*
X103535402Y-72288732D01*
X103721401Y-72158495D01*
X103888495Y-71991401D01*
X104024035Y-71797830D01*
X104123903Y-71583663D01*
X104185063Y-71355408D01*
X104205659Y-71120000D01*
X104185063Y-70884592D01*
X104123903Y-70656337D01*
X104024035Y-70442171D01*
X103888495Y-70248599D01*
X103721401Y-70081505D01*
X103535839Y-69951573D01*
X103496975Y-69907257D01*
X103482964Y-69850000D01*
X103496975Y-69792743D01*
X103535839Y-69748426D01*
X103721401Y-69618495D01*
X103888495Y-69451401D01*
X104024035Y-69257830D01*
X104123903Y-69043663D01*
X104185063Y-68815408D01*
X104205659Y-68580000D01*
X104185063Y-68344592D01*
X104123903Y-68116337D01*
X104024035Y-67902171D01*
X103888495Y-67708599D01*
X103721401Y-67541505D01*
X103535839Y-67411573D01*
X103496975Y-67367257D01*
X103482964Y-67310000D01*
X103496975Y-67252743D01*
X103535839Y-67208426D01*
X103721401Y-67078495D01*
X103888495Y-66911401D01*
X104024035Y-66717830D01*
X104123903Y-66503663D01*
X104185063Y-66275408D01*
X104205659Y-66040000D01*
X104185063Y-65804592D01*
X104123903Y-65576337D01*
X104024035Y-65362171D01*
X103888495Y-65168599D01*
X103721401Y-65001505D01*
X103527830Y-64865965D01*
X103313663Y-64766097D01*
X103252502Y-64749709D01*
X103085407Y-64704936D01*
X102850000Y-64684340D01*
X102614592Y-64704936D01*
X102386336Y-64766097D01*
X102172170Y-64865965D01*
X101978601Y-65001503D01*
X101856673Y-65123431D01*
X101803926Y-65154726D01*
X101742634Y-65156915D01*
X101687789Y-65129462D01*
X101652810Y-65079082D01*
X101645658Y-65059907D01*
X101603796Y-64947669D01*
X101517546Y-64832454D01*
X101402331Y-64746204D01*
X101267483Y-64695909D01*
X101207873Y-64689500D01*
X101207869Y-64689500D01*
X99412130Y-64689500D01*
X99352515Y-64695909D01*
X99217669Y-64746204D01*
X99102454Y-64832454D01*
X99016204Y-64947668D01*
X98965909Y-65082516D01*
X98959500Y-65142130D01*
X98959500Y-66937869D01*
X98965909Y-66997484D01*
X98991056Y-67064906D01*
X99016204Y-67132331D01*
X99102454Y-67247546D01*
X99217669Y-67333796D01*
X99307383Y-67367257D01*
X99349082Y-67382810D01*
X99399462Y-67417789D01*
X99426915Y-67472634D01*
X99424726Y-67533926D01*
X99393431Y-67586673D01*
X99271503Y-67708601D01*
X99135965Y-67902170D01*
X99036097Y-68116336D01*
X98974936Y-68344592D01*
X98954340Y-68579999D01*
X98974936Y-68815407D01*
X99019709Y-68982502D01*
X99036097Y-69043663D01*
X99135965Y-69257830D01*
X99271505Y-69451401D01*
X99438599Y-69618495D01*
X99624160Y-69748426D01*
X99663024Y-69792743D01*
X99677035Y-69850000D01*
X99663024Y-69907257D01*
X99624159Y-69951575D01*
X99438595Y-70081508D01*
X99271505Y-70248598D01*
X99135965Y-70442170D01*
X99036097Y-70656336D01*
X98974936Y-70884592D01*
X98954340Y-71119999D01*
X98974936Y-71355407D01*
X99019709Y-71522502D01*
X99036097Y-71583663D01*
X99135965Y-71797830D01*
X99271505Y-71991401D01*
X99438599Y-72158495D01*
X99624160Y-72288426D01*
X99663024Y-72332743D01*
X99677035Y-72390000D01*
X99663024Y-72447257D01*
X99624159Y-72491575D01*
X99438595Y-72621508D01*
X99271505Y-72788598D01*
X99135965Y-72982170D01*
X99036097Y-73196336D01*
X98974936Y-73424592D01*
X98954340Y-73660000D01*
X98974936Y-73895407D01*
X99019709Y-74062501D01*
X99036097Y-74123663D01*
X99135965Y-74337830D01*
X99271505Y-74531401D01*
X99438599Y-74698495D01*
X99624160Y-74828426D01*
X99663024Y-74872743D01*
X99677035Y-74930000D01*
X99663024Y-74987257D01*
X99624159Y-75031575D01*
X99438595Y-75161508D01*
X99271505Y-75328598D01*
X99135965Y-75522170D01*
X99036097Y-75736336D01*
X98974936Y-75964592D01*
X98954340Y-76199999D01*
X98974936Y-76435407D01*
X99019709Y-76602502D01*
X99036097Y-76663663D01*
X99135965Y-76877830D01*
X99271505Y-77071401D01*
X99438599Y-77238495D01*
X99624160Y-77368426D01*
X99663024Y-77412743D01*
X99677035Y-77470000D01*
X99663024Y-77527257D01*
X99624159Y-77571575D01*
X99438595Y-77701508D01*
X99271505Y-77868598D01*
X99135965Y-78062170D01*
X99036097Y-78276336D01*
X98974936Y-78504592D01*
X98954340Y-78740000D01*
X98974936Y-78975407D01*
X99019709Y-79142501D01*
X99036097Y-79203663D01*
X99135965Y-79417830D01*
X99271505Y-79611401D01*
X99438599Y-79778495D01*
X99624160Y-79908426D01*
X99663024Y-79952743D01*
X99677035Y-80010000D01*
X99663024Y-80067257D01*
X99624159Y-80111575D01*
X99438595Y-80241508D01*
X99271505Y-80408598D01*
X99135965Y-80602170D01*
X99036097Y-80816336D01*
X98974936Y-81044592D01*
X98954340Y-81279999D01*
X98974936Y-81515407D01*
X99019709Y-81682502D01*
X99036097Y-81743663D01*
X99135965Y-81957830D01*
X99271505Y-82151401D01*
X99438599Y-82318495D01*
X99624160Y-82448426D01*
X99663024Y-82492743D01*
X99677035Y-82550000D01*
X99663024Y-82607257D01*
X99624159Y-82651575D01*
X99438595Y-82781508D01*
X99271505Y-82948598D01*
X99135965Y-83142170D01*
X99036097Y-83356336D01*
X98974936Y-83584592D01*
X98954340Y-83820000D01*
X98974936Y-84055407D01*
X99019709Y-84222501D01*
X99036097Y-84283663D01*
X99135965Y-84497830D01*
X99271505Y-84691401D01*
X99438599Y-84858495D01*
X99624160Y-84988426D01*
X99663024Y-85032743D01*
X99677035Y-85090000D01*
X99663024Y-85147257D01*
X99624158Y-85191575D01*
X99447337Y-85315387D01*
X99438595Y-85321508D01*
X99271505Y-85488598D01*
X99135965Y-85682170D01*
X99036097Y-85896336D01*
X98974936Y-86124592D01*
X98954340Y-86360000D01*
X98425000Y-86360000D01*
X98425000Y-64259000D01*
X98441613Y-64197000D01*
X98487000Y-64151613D01*
X98549000Y-64135000D01*
X111001000Y-64135000D01*
X111063000Y-64151613D01*
G37*
G04 #@! TD.AperFunction*
M02*
