G04 #@! TF.GenerationSoftware,KiCad,Pcbnew,7.0.1-3b83917a11~172~ubuntu22.04.1*
G04 #@! TF.CreationDate,2023-04-09T22:52:33+09:00*
G04 #@! TF.ProjectId,Akashi-13,416b6173-6869-42d3-9133-2e6b69636164,rev?*
G04 #@! TF.SameCoordinates,Original*
G04 #@! TF.FileFunction,Copper,L3,Inr*
G04 #@! TF.FilePolarity,Positive*
%FSLAX46Y46*%
G04 Gerber Fmt 4.6, Leading zero omitted, Abs format (unit mm)*
G04 Created by KiCad (PCBNEW 7.0.1-3b83917a11~172~ubuntu22.04.1) date 2023-04-09 22:52:33*
%MOMM*%
%LPD*%
G01*
G04 APERTURE LIST*
G04 #@! TA.AperFunction,ComponentPad*
%ADD10R,1.800000X1.800000*%
G04 #@! TD*
G04 #@! TA.AperFunction,ComponentPad*
%ADD11C,1.800000*%
G04 #@! TD*
G04 #@! TA.AperFunction,ComponentPad*
%ADD12C,1.397000*%
G04 #@! TD*
G04 #@! TA.AperFunction,ComponentPad*
%ADD13C,3.759200*%
G04 #@! TD*
G04 #@! TA.AperFunction,ComponentPad*
%ADD14C,2.108200*%
G04 #@! TD*
G04 #@! TA.AperFunction,ComponentPad*
%ADD15R,1.700000X1.700000*%
G04 #@! TD*
G04 #@! TA.AperFunction,ComponentPad*
%ADD16O,1.700000X1.700000*%
G04 #@! TD*
G04 #@! TA.AperFunction,ViaPad*
%ADD17C,0.600000*%
G04 #@! TD*
G04 #@! TA.AperFunction,ViaPad*
%ADD18C,0.800000*%
G04 #@! TD*
G04 #@! TA.AperFunction,ViaPad*
%ADD19C,0.500000*%
G04 #@! TD*
G04 APERTURE END LIST*
D10*
X149860000Y-144780000D03*
D11*
X149860000Y-147320000D03*
D12*
X127483000Y-137590000D03*
X128753000Y-135050000D03*
X130023000Y-137590000D03*
X131293000Y-135050000D03*
X132563000Y-137590000D03*
X133833000Y-135050000D03*
X135103000Y-137590000D03*
X136373000Y-135050000D03*
X125730000Y-148840000D03*
X128270000Y-147320000D03*
X135586000Y-148840000D03*
X138126000Y-147320000D03*
D13*
X137643000Y-143940000D03*
X126213000Y-143940000D03*
D14*
X139802998Y-140890000D03*
X124053002Y-140890000D03*
D15*
X160020000Y-66040000D03*
D16*
X162560000Y-66040000D03*
X160020000Y-68580000D03*
X162560000Y-68580000D03*
X160020000Y-71120000D03*
X162560000Y-71120000D03*
X160020000Y-73660000D03*
X162560000Y-73660000D03*
X160020000Y-76200000D03*
X162560000Y-76200000D03*
X160020000Y-78740000D03*
X162560000Y-78740000D03*
X160020000Y-81280000D03*
X162560000Y-81280000D03*
X160020000Y-83820000D03*
X162560000Y-83820000D03*
X160020000Y-86360000D03*
X162560000Y-86360000D03*
X160020000Y-88900000D03*
X162560000Y-88900000D03*
X160020000Y-91440000D03*
X162560000Y-91440000D03*
X160020000Y-93980000D03*
X162560000Y-93980000D03*
X160020000Y-96520000D03*
X162560000Y-96520000D03*
X160020000Y-99060000D03*
X162560000Y-99060000D03*
X160020000Y-101600000D03*
X162560000Y-101600000D03*
X160020000Y-104140000D03*
X162560000Y-104140000D03*
X160020000Y-106680000D03*
X162560000Y-106680000D03*
X160020000Y-109220000D03*
X162560000Y-109220000D03*
X160020000Y-111760000D03*
X162560000Y-111760000D03*
X160020000Y-114300000D03*
X162560000Y-114300000D03*
X160020000Y-116840000D03*
X162560000Y-116840000D03*
X160020000Y-119380000D03*
X162560000Y-119380000D03*
X160020000Y-121920000D03*
X162560000Y-121920000D03*
X160020000Y-124460000D03*
X162560000Y-124460000D03*
X160020000Y-127000000D03*
X162560000Y-127000000D03*
X160020000Y-129540000D03*
X162560000Y-129540000D03*
X160020000Y-132080000D03*
X162560000Y-132080000D03*
X160020000Y-134620000D03*
X162560000Y-134620000D03*
X160020000Y-137160000D03*
X162560000Y-137160000D03*
X160020000Y-139700000D03*
X162560000Y-139700000D03*
X160020000Y-142240000D03*
X162560000Y-142240000D03*
X160020000Y-144780000D03*
X162560000Y-144780000D03*
X160020000Y-147320000D03*
X162560000Y-147320000D03*
X160020000Y-149860000D03*
X162560000Y-149860000D03*
X160020000Y-152400000D03*
X162560000Y-152400000D03*
D15*
X100310000Y-66040000D03*
D16*
X102850000Y-66040000D03*
X100310000Y-68580000D03*
X102850000Y-68580000D03*
X100310000Y-71120000D03*
X102850000Y-71120000D03*
X100310000Y-73660000D03*
X102850000Y-73660000D03*
X100310000Y-76200000D03*
X102850000Y-76200000D03*
X100310000Y-78740000D03*
X102850000Y-78740000D03*
X100310000Y-81280000D03*
X102850000Y-81280000D03*
X100310000Y-83820000D03*
X102850000Y-83820000D03*
X100310000Y-86360000D03*
X102850000Y-86360000D03*
X100310000Y-88900000D03*
X102850000Y-88900000D03*
X100310000Y-91440000D03*
X102850000Y-91440000D03*
X100310000Y-93980000D03*
X102850000Y-93980000D03*
X100310000Y-96520000D03*
X102850000Y-96520000D03*
X100310000Y-99060000D03*
X102850000Y-99060000D03*
X100310000Y-101600000D03*
X102850000Y-101600000D03*
X100310000Y-104140000D03*
X102850000Y-104140000D03*
X100310000Y-106680000D03*
X102850000Y-106680000D03*
X100310000Y-109220000D03*
X102850000Y-109220000D03*
X100310000Y-111760000D03*
X102850000Y-111760000D03*
X100310000Y-114300000D03*
X102850000Y-114300000D03*
X100310000Y-116840000D03*
X102850000Y-116840000D03*
X100310000Y-119380000D03*
X102850000Y-119380000D03*
X100310000Y-121920000D03*
X102850000Y-121920000D03*
X100310000Y-124460000D03*
X102850000Y-124460000D03*
X100310000Y-127000000D03*
X102850000Y-127000000D03*
X100310000Y-129540000D03*
X102850000Y-129540000D03*
X100310000Y-132080000D03*
X102850000Y-132080000D03*
X100310000Y-134620000D03*
X102850000Y-134620000D03*
X100310000Y-137160000D03*
X102850000Y-137160000D03*
X100310000Y-139700000D03*
X102850000Y-139700000D03*
X100310000Y-142240000D03*
X102850000Y-142240000D03*
X100310000Y-144780000D03*
X102850000Y-144780000D03*
X100310000Y-147320000D03*
X102850000Y-147320000D03*
X100310000Y-149860000D03*
X102850000Y-149860000D03*
X100310000Y-152400000D03*
X102850000Y-152400000D03*
D17*
X130810000Y-121230700D03*
X116975700Y-122801400D03*
X126974300Y-115898900D03*
D18*
X109250000Y-83750000D03*
D17*
X125994200Y-118747000D03*
D19*
X137500000Y-107250000D03*
D18*
X134000000Y-111000000D03*
X132000000Y-111000000D03*
D17*
X123523500Y-121377600D03*
D18*
X130000000Y-111000000D03*
D17*
X136880200Y-102414100D03*
X120358100Y-129124100D03*
D18*
X134000000Y-109000000D03*
D17*
X138171000Y-120340200D03*
D19*
X136750000Y-107010000D03*
D18*
X130000000Y-109000000D03*
D17*
X123760200Y-112107300D03*
X124684500Y-113587800D03*
X115136300Y-114890800D03*
D18*
X132000000Y-109000000D03*
D17*
X129272500Y-119396400D03*
X139304781Y-107804781D03*
X140233300Y-108267000D03*
X120113700Y-115300900D03*
X121285000Y-115807900D03*
X132573400Y-100529400D03*
X133206200Y-84589600D03*
X133206200Y-99393900D03*
X142523600Y-121606000D03*
X156402700Y-131988900D03*
X141453100Y-109371900D03*
X123057500Y-97252600D03*
X123057500Y-106127300D03*
X124379200Y-106517300D03*
X122956200Y-108030900D03*
X117381100Y-110451500D03*
X117088600Y-106075900D03*
X122210700Y-111252000D03*
X119637300Y-109432700D03*
X122401800Y-102002700D03*
X128206700Y-105400300D03*
X144092000Y-109646400D03*
X139227000Y-106844100D03*
X122000000Y-110250000D03*
X128230700Y-103496300D03*
X129511600Y-100764900D03*
X127410300Y-103224100D03*
X131445000Y-100965000D03*
X125684200Y-105549800D03*
X127137800Y-105968100D03*
X141605000Y-121285000D03*
X128270000Y-115039200D03*
X112189000Y-121778900D03*
X136805400Y-127889000D03*
X135447700Y-119889800D03*
D19*
X133824000Y-104000000D03*
D17*
X131671400Y-117947600D03*
D19*
X136250000Y-115750000D03*
D17*
X118247500Y-125157000D03*
X123502800Y-137863700D03*
D19*
X130500000Y-102500000D03*
D17*
X136857700Y-123750500D03*
X120249900Y-107649600D03*
X154281600Y-144046700D03*
D19*
X137750000Y-114750000D03*
D17*
X142354800Y-144049200D03*
X135583000Y-101652000D03*
X123502800Y-128074100D03*
D19*
X127000000Y-107315000D03*
D17*
X122761100Y-133874100D03*
D19*
X130200000Y-115994000D03*
X126500000Y-111000000D03*
D17*
X122568500Y-116198800D03*
X128275200Y-122045400D03*
X123374700Y-117913900D03*
X131348800Y-122736500D03*
D19*
X137669000Y-113084000D03*
X134250000Y-116000000D03*
D17*
X139700000Y-135890000D03*
X128275200Y-120769300D03*
X133350000Y-120121500D03*
X113421300Y-115049400D03*
X115936500Y-114804300D03*
X123193600Y-112672300D03*
X114042000Y-117294600D03*
X116099300Y-120114200D03*
X124981500Y-115624300D03*
D19*
X132324000Y-116000000D03*
D17*
X119611700Y-116650000D03*
X116709200Y-118721500D03*
X115854500Y-124206100D03*
X125744400Y-117426400D03*
X135917700Y-104758600D03*
X135117500Y-104893700D03*
X136255100Y-92429900D03*
G04 #@! TA.AperFunction,Conductor*
G36*
X111063000Y-64151613D02*
G01*
X111108387Y-64197000D01*
X111125000Y-64259000D01*
X111125000Y-78105000D01*
X151765000Y-78105000D01*
X151765000Y-64259000D01*
X151781613Y-64197000D01*
X151827000Y-64151613D01*
X151889000Y-64135000D01*
X164341000Y-64135000D01*
X164403000Y-64151613D01*
X164448387Y-64197000D01*
X164465000Y-64259000D01*
X164465000Y-154181000D01*
X164448387Y-154243000D01*
X164403000Y-154288387D01*
X164341000Y-154305000D01*
X98549000Y-154305000D01*
X98487000Y-154288387D01*
X98441613Y-154243000D01*
X98425000Y-154181000D01*
X98425000Y-152400000D01*
X98954340Y-152400000D01*
X98974936Y-152635407D01*
X99019709Y-152802502D01*
X99036097Y-152863663D01*
X99135965Y-153077830D01*
X99271505Y-153271401D01*
X99438599Y-153438495D01*
X99632170Y-153574035D01*
X99846337Y-153673903D01*
X100074591Y-153735062D01*
X100074592Y-153735063D01*
X100309999Y-153755659D01*
X100309999Y-153755658D01*
X100310000Y-153755659D01*
X100545408Y-153735063D01*
X100773663Y-153673903D01*
X100987830Y-153574035D01*
X101181401Y-153438495D01*
X101348495Y-153271401D01*
X101478426Y-153085839D01*
X101522743Y-153046975D01*
X101580000Y-153032964D01*
X101637257Y-153046975D01*
X101681573Y-153085839D01*
X101811505Y-153271401D01*
X101978599Y-153438495D01*
X102172170Y-153574035D01*
X102386337Y-153673903D01*
X102614591Y-153735062D01*
X102614592Y-153735063D01*
X102849999Y-153755659D01*
X102849999Y-153755658D01*
X102850000Y-153755659D01*
X103085408Y-153735063D01*
X103313663Y-153673903D01*
X103527830Y-153574035D01*
X103721401Y-153438495D01*
X103888495Y-153271401D01*
X104024035Y-153077830D01*
X104123903Y-152863663D01*
X104185063Y-152635408D01*
X104205659Y-152400000D01*
X104205659Y-152399999D01*
X158664340Y-152399999D01*
X158684936Y-152635407D01*
X158729709Y-152802501D01*
X158746097Y-152863663D01*
X158845965Y-153077830D01*
X158981505Y-153271401D01*
X159148599Y-153438495D01*
X159342170Y-153574035D01*
X159556337Y-153673903D01*
X159784591Y-153735062D01*
X159784592Y-153735063D01*
X160019999Y-153755659D01*
X160019999Y-153755658D01*
X160020000Y-153755659D01*
X160255408Y-153735063D01*
X160483663Y-153673903D01*
X160697830Y-153574035D01*
X160891401Y-153438495D01*
X161058495Y-153271401D01*
X161188426Y-153085839D01*
X161232743Y-153046975D01*
X161290000Y-153032964D01*
X161347257Y-153046975D01*
X161391573Y-153085839D01*
X161521505Y-153271401D01*
X161688599Y-153438495D01*
X161882170Y-153574035D01*
X162096337Y-153673903D01*
X162324591Y-153735062D01*
X162324592Y-153735063D01*
X162559999Y-153755659D01*
X162559999Y-153755658D01*
X162560000Y-153755659D01*
X162795408Y-153735063D01*
X163023663Y-153673903D01*
X163237830Y-153574035D01*
X163431401Y-153438495D01*
X163598495Y-153271401D01*
X163734035Y-153077830D01*
X163833903Y-152863663D01*
X163895063Y-152635408D01*
X163915659Y-152400000D01*
X163895063Y-152164592D01*
X163833903Y-151936337D01*
X163734035Y-151722171D01*
X163598495Y-151528599D01*
X163431401Y-151361505D01*
X163245839Y-151231573D01*
X163206975Y-151187257D01*
X163192964Y-151130000D01*
X163206975Y-151072743D01*
X163245839Y-151028426D01*
X163431401Y-150898495D01*
X163598495Y-150731401D01*
X163734035Y-150537830D01*
X163833903Y-150323663D01*
X163895063Y-150095408D01*
X163915659Y-149860000D01*
X163895063Y-149624592D01*
X163833903Y-149396337D01*
X163734035Y-149182171D01*
X163598495Y-148988599D01*
X163431401Y-148821505D01*
X163245839Y-148691573D01*
X163206975Y-148647257D01*
X163192964Y-148590000D01*
X163206975Y-148532743D01*
X163245839Y-148488426D01*
X163431401Y-148358495D01*
X163598495Y-148191401D01*
X163734035Y-147997830D01*
X163833903Y-147783663D01*
X163895063Y-147555408D01*
X163915659Y-147320000D01*
X163895063Y-147084592D01*
X163833903Y-146856337D01*
X163734035Y-146642171D01*
X163598495Y-146448599D01*
X163431401Y-146281505D01*
X163245839Y-146151573D01*
X163206976Y-146107257D01*
X163192965Y-146050000D01*
X163206976Y-145992743D01*
X163245839Y-145948426D01*
X163431401Y-145818495D01*
X163598495Y-145651401D01*
X163734035Y-145457830D01*
X163833903Y-145243663D01*
X163895063Y-145015408D01*
X163915659Y-144780000D01*
X163895063Y-144544592D01*
X163833903Y-144316337D01*
X163734035Y-144102171D01*
X163598495Y-143908599D01*
X163431401Y-143741505D01*
X163245839Y-143611573D01*
X163206975Y-143567257D01*
X163192964Y-143510000D01*
X163206975Y-143452743D01*
X163245839Y-143408426D01*
X163431401Y-143278495D01*
X163598495Y-143111401D01*
X163734035Y-142917830D01*
X163833903Y-142703663D01*
X163895063Y-142475408D01*
X163915659Y-142240000D01*
X163898833Y-142047688D01*
X163895063Y-142004592D01*
X163860165Y-141874350D01*
X163833903Y-141776337D01*
X163734035Y-141562171D01*
X163598495Y-141368599D01*
X163431401Y-141201505D01*
X163245839Y-141071573D01*
X163206975Y-141027257D01*
X163192964Y-140970000D01*
X163206975Y-140912743D01*
X163245839Y-140868426D01*
X163431401Y-140738495D01*
X163598495Y-140571401D01*
X163734035Y-140377830D01*
X163833903Y-140163663D01*
X163895063Y-139935408D01*
X163915659Y-139700000D01*
X163895063Y-139464592D01*
X163833903Y-139236337D01*
X163734035Y-139022171D01*
X163598495Y-138828599D01*
X163431401Y-138661505D01*
X163245839Y-138531573D01*
X163206974Y-138487255D01*
X163192964Y-138429999D01*
X163206975Y-138372742D01*
X163245837Y-138328428D01*
X163431401Y-138198495D01*
X163598495Y-138031401D01*
X163734035Y-137837830D01*
X163833903Y-137623663D01*
X163895063Y-137395408D01*
X163915659Y-137160000D01*
X163895063Y-136924592D01*
X163833903Y-136696337D01*
X163734035Y-136482171D01*
X163598495Y-136288599D01*
X163431401Y-136121505D01*
X163245839Y-135991573D01*
X163206975Y-135947257D01*
X163192964Y-135890000D01*
X163206975Y-135832743D01*
X163245839Y-135788426D01*
X163431401Y-135658495D01*
X163598495Y-135491401D01*
X163734035Y-135297830D01*
X163833903Y-135083663D01*
X163895063Y-134855408D01*
X163915659Y-134620000D01*
X163895063Y-134384592D01*
X163833903Y-134156337D01*
X163734035Y-133942171D01*
X163598495Y-133748599D01*
X163431401Y-133581505D01*
X163245839Y-133451573D01*
X163206975Y-133407257D01*
X163192964Y-133350000D01*
X163206975Y-133292743D01*
X163245839Y-133248426D01*
X163431401Y-133118495D01*
X163598495Y-132951401D01*
X163734035Y-132757830D01*
X163833903Y-132543663D01*
X163895063Y-132315408D01*
X163915659Y-132080000D01*
X163895063Y-131844592D01*
X163833903Y-131616337D01*
X163734035Y-131402171D01*
X163598495Y-131208599D01*
X163431401Y-131041505D01*
X163245839Y-130911573D01*
X163206976Y-130867257D01*
X163192965Y-130810000D01*
X163206976Y-130752743D01*
X163245839Y-130708426D01*
X163431401Y-130578495D01*
X163598495Y-130411401D01*
X163734035Y-130217830D01*
X163833903Y-130003663D01*
X163895063Y-129775408D01*
X163915659Y-129540000D01*
X163895063Y-129304592D01*
X163833903Y-129076337D01*
X163734035Y-128862171D01*
X163598495Y-128668599D01*
X163431401Y-128501505D01*
X163245839Y-128371573D01*
X163206976Y-128327257D01*
X163192965Y-128270000D01*
X163206976Y-128212743D01*
X163245839Y-128168426D01*
X163431401Y-128038495D01*
X163598495Y-127871401D01*
X163734035Y-127677830D01*
X163833903Y-127463663D01*
X163895063Y-127235408D01*
X163915659Y-127000000D01*
X163895063Y-126764592D01*
X163833903Y-126536337D01*
X163734035Y-126322171D01*
X163598495Y-126128599D01*
X163431401Y-125961505D01*
X163245839Y-125831573D01*
X163206975Y-125787257D01*
X163192964Y-125730000D01*
X163206975Y-125672743D01*
X163245839Y-125628426D01*
X163431401Y-125498495D01*
X163598495Y-125331401D01*
X163734035Y-125137830D01*
X163833903Y-124923663D01*
X163895063Y-124695408D01*
X163915659Y-124460000D01*
X163895063Y-124224592D01*
X163833903Y-123996337D01*
X163734035Y-123782171D01*
X163598495Y-123588599D01*
X163431401Y-123421505D01*
X163245839Y-123291573D01*
X163206975Y-123247257D01*
X163192964Y-123190000D01*
X163206975Y-123132743D01*
X163245839Y-123088426D01*
X163431401Y-122958495D01*
X163598495Y-122791401D01*
X163734035Y-122597830D01*
X163833903Y-122383663D01*
X163895063Y-122155408D01*
X163915659Y-121920000D01*
X163895063Y-121684592D01*
X163833903Y-121456337D01*
X163734035Y-121242171D01*
X163598495Y-121048599D01*
X163431401Y-120881505D01*
X163245839Y-120751573D01*
X163206974Y-120707255D01*
X163192964Y-120649999D01*
X163206975Y-120592742D01*
X163245837Y-120548428D01*
X163431401Y-120418495D01*
X163598495Y-120251401D01*
X163734035Y-120057830D01*
X163833903Y-119843663D01*
X163895063Y-119615408D01*
X163915659Y-119380000D01*
X163915380Y-119376816D01*
X163895063Y-119144592D01*
X163836559Y-118926251D01*
X163833903Y-118916337D01*
X163734035Y-118702171D01*
X163598495Y-118508599D01*
X163431401Y-118341505D01*
X163245839Y-118211573D01*
X163206974Y-118167255D01*
X163192964Y-118109999D01*
X163206975Y-118052742D01*
X163245837Y-118008428D01*
X163431401Y-117878495D01*
X163598495Y-117711401D01*
X163734035Y-117517830D01*
X163833903Y-117303663D01*
X163895063Y-117075408D01*
X163915659Y-116840000D01*
X163895063Y-116604592D01*
X163833903Y-116376337D01*
X163734035Y-116162171D01*
X163598495Y-115968599D01*
X163431401Y-115801505D01*
X163245839Y-115671573D01*
X163206975Y-115627257D01*
X163192964Y-115570000D01*
X163206975Y-115512743D01*
X163245839Y-115468426D01*
X163431401Y-115338495D01*
X163598495Y-115171401D01*
X163734035Y-114977830D01*
X163833903Y-114763663D01*
X163895063Y-114535408D01*
X163915659Y-114300000D01*
X163912245Y-114260984D01*
X163895063Y-114064592D01*
X163895062Y-114064591D01*
X163833903Y-113836337D01*
X163734035Y-113622171D01*
X163598495Y-113428599D01*
X163431401Y-113261505D01*
X163245839Y-113131573D01*
X163206975Y-113087257D01*
X163192964Y-113030000D01*
X163206975Y-112972743D01*
X163245839Y-112928426D01*
X163431401Y-112798495D01*
X163598495Y-112631401D01*
X163734035Y-112437830D01*
X163833903Y-112223663D01*
X163895063Y-111995408D01*
X163915659Y-111760000D01*
X163895063Y-111524592D01*
X163833903Y-111296337D01*
X163734035Y-111082171D01*
X163598495Y-110888599D01*
X163431401Y-110721505D01*
X163245839Y-110591573D01*
X163206975Y-110547257D01*
X163192964Y-110490000D01*
X163206975Y-110432743D01*
X163245839Y-110388426D01*
X163431401Y-110258495D01*
X163598495Y-110091401D01*
X163734035Y-109897830D01*
X163833903Y-109683663D01*
X163895063Y-109455408D01*
X163915659Y-109220000D01*
X163895063Y-108984592D01*
X163833903Y-108756337D01*
X163734035Y-108542171D01*
X163598495Y-108348599D01*
X163431401Y-108181505D01*
X163245839Y-108051573D01*
X163206975Y-108007257D01*
X163192964Y-107950000D01*
X163206975Y-107892743D01*
X163245839Y-107848426D01*
X163431401Y-107718495D01*
X163598495Y-107551401D01*
X163734035Y-107357830D01*
X163833903Y-107143663D01*
X163895063Y-106915408D01*
X163915659Y-106680000D01*
X163913867Y-106659523D01*
X163895063Y-106444592D01*
X163871155Y-106355365D01*
X163833903Y-106216337D01*
X163734035Y-106002171D01*
X163598495Y-105808599D01*
X163431401Y-105641505D01*
X163245839Y-105511573D01*
X163206975Y-105467257D01*
X163192964Y-105410000D01*
X163206975Y-105352743D01*
X163245839Y-105308426D01*
X163431401Y-105178495D01*
X163598495Y-105011401D01*
X163734035Y-104817830D01*
X163833903Y-104603663D01*
X163895063Y-104375408D01*
X163915659Y-104140000D01*
X163895063Y-103904592D01*
X163833903Y-103676337D01*
X163734035Y-103462171D01*
X163598495Y-103268599D01*
X163431401Y-103101505D01*
X163245839Y-102971573D01*
X163206974Y-102927255D01*
X163192964Y-102869999D01*
X163206975Y-102812742D01*
X163245837Y-102768428D01*
X163431401Y-102638495D01*
X163598495Y-102471401D01*
X163734035Y-102277830D01*
X163833903Y-102063663D01*
X163895063Y-101835408D01*
X163915659Y-101600000D01*
X163895063Y-101364592D01*
X163833903Y-101136337D01*
X163734035Y-100922171D01*
X163598495Y-100728599D01*
X163431401Y-100561505D01*
X163245839Y-100431573D01*
X163206974Y-100387255D01*
X163192964Y-100329999D01*
X163206975Y-100272742D01*
X163245837Y-100228428D01*
X163431401Y-100098495D01*
X163598495Y-99931401D01*
X163734035Y-99737830D01*
X163833903Y-99523663D01*
X163895063Y-99295408D01*
X163915659Y-99060000D01*
X163895063Y-98824592D01*
X163833903Y-98596337D01*
X163734035Y-98382171D01*
X163598495Y-98188599D01*
X163431401Y-98021505D01*
X163245839Y-97891573D01*
X163206976Y-97847257D01*
X163192965Y-97790000D01*
X163206976Y-97732743D01*
X163245839Y-97688426D01*
X163431401Y-97558495D01*
X163598495Y-97391401D01*
X163734035Y-97197830D01*
X163833903Y-96983663D01*
X163895063Y-96755408D01*
X163915659Y-96520000D01*
X163895063Y-96284592D01*
X163833903Y-96056337D01*
X163734035Y-95842171D01*
X163598495Y-95648599D01*
X163431401Y-95481505D01*
X163245839Y-95351573D01*
X163206975Y-95307257D01*
X163192964Y-95250000D01*
X163206975Y-95192743D01*
X163245839Y-95148426D01*
X163431401Y-95018495D01*
X163598495Y-94851401D01*
X163734035Y-94657830D01*
X163833903Y-94443663D01*
X163895063Y-94215408D01*
X163915659Y-93980000D01*
X163895063Y-93744592D01*
X163833903Y-93516337D01*
X163734035Y-93302171D01*
X163598495Y-93108599D01*
X163431401Y-92941505D01*
X163245839Y-92811573D01*
X163206974Y-92767255D01*
X163192964Y-92709999D01*
X163206975Y-92652742D01*
X163245837Y-92608428D01*
X163431401Y-92478495D01*
X163598495Y-92311401D01*
X163734035Y-92117830D01*
X163833903Y-91903663D01*
X163895063Y-91675408D01*
X163915659Y-91440000D01*
X163895063Y-91204592D01*
X163833903Y-90976337D01*
X163734035Y-90762171D01*
X163598495Y-90568599D01*
X163431401Y-90401505D01*
X163245839Y-90271573D01*
X163206975Y-90227257D01*
X163192964Y-90170000D01*
X163206975Y-90112743D01*
X163245839Y-90068426D01*
X163431401Y-89938495D01*
X163598495Y-89771401D01*
X163734035Y-89577830D01*
X163833903Y-89363663D01*
X163895063Y-89135408D01*
X163915659Y-88900000D01*
X163895063Y-88664592D01*
X163833903Y-88436337D01*
X163734035Y-88222171D01*
X163598495Y-88028599D01*
X163431401Y-87861505D01*
X163245839Y-87731573D01*
X163206975Y-87687257D01*
X163192964Y-87630000D01*
X163206975Y-87572743D01*
X163245839Y-87528426D01*
X163431401Y-87398495D01*
X163598495Y-87231401D01*
X163734035Y-87037830D01*
X163833903Y-86823663D01*
X163895063Y-86595408D01*
X163915659Y-86360000D01*
X163895063Y-86124592D01*
X163833903Y-85896337D01*
X163734035Y-85682171D01*
X163598495Y-85488599D01*
X163431401Y-85321505D01*
X163245839Y-85191573D01*
X163206975Y-85147257D01*
X163192964Y-85090000D01*
X163206975Y-85032743D01*
X163245839Y-84988426D01*
X163431401Y-84858495D01*
X163598495Y-84691401D01*
X163734035Y-84497830D01*
X163833903Y-84283663D01*
X163895063Y-84055408D01*
X163915659Y-83820000D01*
X163895063Y-83584592D01*
X163833903Y-83356337D01*
X163734035Y-83142171D01*
X163598495Y-82948599D01*
X163431401Y-82781505D01*
X163245839Y-82651573D01*
X163206975Y-82607257D01*
X163192964Y-82550000D01*
X163206975Y-82492743D01*
X163245839Y-82448426D01*
X163431401Y-82318495D01*
X163598495Y-82151401D01*
X163734035Y-81957830D01*
X163833903Y-81743663D01*
X163895063Y-81515408D01*
X163915659Y-81280000D01*
X163895063Y-81044592D01*
X163833903Y-80816337D01*
X163734035Y-80602171D01*
X163598495Y-80408599D01*
X163431401Y-80241505D01*
X163245839Y-80111573D01*
X163206976Y-80067257D01*
X163192965Y-80010000D01*
X163206976Y-79952743D01*
X163245839Y-79908426D01*
X163431401Y-79778495D01*
X163598495Y-79611401D01*
X163734035Y-79417830D01*
X163833903Y-79203663D01*
X163895063Y-78975408D01*
X163915659Y-78740000D01*
X163895063Y-78504592D01*
X163833903Y-78276337D01*
X163734035Y-78062171D01*
X163598495Y-77868599D01*
X163431401Y-77701505D01*
X163245839Y-77571573D01*
X163206975Y-77527257D01*
X163192964Y-77470000D01*
X163206975Y-77412743D01*
X163245839Y-77368426D01*
X163431401Y-77238495D01*
X163598495Y-77071401D01*
X163734035Y-76877830D01*
X163833903Y-76663663D01*
X163895063Y-76435408D01*
X163915659Y-76200000D01*
X163895063Y-75964592D01*
X163833903Y-75736337D01*
X163734035Y-75522171D01*
X163598495Y-75328599D01*
X163431401Y-75161505D01*
X163245839Y-75031573D01*
X163206975Y-74987257D01*
X163192964Y-74930000D01*
X163206975Y-74872743D01*
X163245839Y-74828426D01*
X163431401Y-74698495D01*
X163598495Y-74531401D01*
X163734035Y-74337830D01*
X163833903Y-74123663D01*
X163895063Y-73895408D01*
X163915659Y-73660000D01*
X163895063Y-73424592D01*
X163833903Y-73196337D01*
X163734035Y-72982171D01*
X163598495Y-72788599D01*
X163431401Y-72621505D01*
X163245839Y-72491573D01*
X163206975Y-72447257D01*
X163192964Y-72390000D01*
X163206975Y-72332743D01*
X163245839Y-72288426D01*
X163431401Y-72158495D01*
X163598495Y-71991401D01*
X163734035Y-71797830D01*
X163833903Y-71583663D01*
X163895063Y-71355408D01*
X163915659Y-71120000D01*
X163895063Y-70884592D01*
X163833903Y-70656337D01*
X163734035Y-70442171D01*
X163598495Y-70248599D01*
X163431401Y-70081505D01*
X163245839Y-69951573D01*
X163206975Y-69907257D01*
X163192964Y-69850000D01*
X163206975Y-69792743D01*
X163245839Y-69748426D01*
X163431401Y-69618495D01*
X163598495Y-69451401D01*
X163734035Y-69257830D01*
X163833903Y-69043663D01*
X163895063Y-68815408D01*
X163915659Y-68580000D01*
X163895063Y-68344592D01*
X163833903Y-68116337D01*
X163734035Y-67902171D01*
X163598495Y-67708599D01*
X163431401Y-67541505D01*
X163245839Y-67411573D01*
X163206975Y-67367257D01*
X163192964Y-67310000D01*
X163206975Y-67252743D01*
X163245839Y-67208426D01*
X163431401Y-67078495D01*
X163598495Y-66911401D01*
X163734035Y-66717830D01*
X163833903Y-66503663D01*
X163895063Y-66275408D01*
X163915659Y-66040000D01*
X163895063Y-65804592D01*
X163833903Y-65576337D01*
X163734035Y-65362171D01*
X163598495Y-65168599D01*
X163431401Y-65001505D01*
X163237830Y-64865965D01*
X163023663Y-64766097D01*
X162962502Y-64749709D01*
X162795407Y-64704936D01*
X162560000Y-64684340D01*
X162324592Y-64704936D01*
X162096336Y-64766097D01*
X161882170Y-64865965D01*
X161688601Y-65001503D01*
X161566673Y-65123431D01*
X161513926Y-65154726D01*
X161452634Y-65156915D01*
X161397789Y-65129462D01*
X161362810Y-65079082D01*
X161355658Y-65059907D01*
X161313796Y-64947669D01*
X161227546Y-64832454D01*
X161112331Y-64746204D01*
X160977483Y-64695909D01*
X160917873Y-64689500D01*
X160917869Y-64689500D01*
X159122130Y-64689500D01*
X159062515Y-64695909D01*
X158927669Y-64746204D01*
X158812454Y-64832454D01*
X158726204Y-64947668D01*
X158675909Y-65082516D01*
X158669500Y-65142130D01*
X158669500Y-66937869D01*
X158675909Y-66997484D01*
X158701056Y-67064906D01*
X158726204Y-67132331D01*
X158812454Y-67247546D01*
X158927669Y-67333796D01*
X159017383Y-67367257D01*
X159059082Y-67382810D01*
X159109462Y-67417789D01*
X159136915Y-67472634D01*
X159134726Y-67533926D01*
X159103431Y-67586673D01*
X158981503Y-67708601D01*
X158845965Y-67902170D01*
X158746097Y-68116336D01*
X158684936Y-68344592D01*
X158664340Y-68579999D01*
X158684936Y-68815407D01*
X158729709Y-68982501D01*
X158746097Y-69043663D01*
X158845965Y-69257830D01*
X158981505Y-69451401D01*
X159148599Y-69618495D01*
X159334160Y-69748426D01*
X159373024Y-69792743D01*
X159387035Y-69850000D01*
X159373024Y-69907257D01*
X159334159Y-69951575D01*
X159148595Y-70081508D01*
X158981505Y-70248598D01*
X158845965Y-70442170D01*
X158746097Y-70656336D01*
X158684936Y-70884592D01*
X158664340Y-71120000D01*
X158684936Y-71355407D01*
X158729709Y-71522502D01*
X158746097Y-71583663D01*
X158845965Y-71797830D01*
X158981505Y-71991401D01*
X159148599Y-72158495D01*
X159334160Y-72288426D01*
X159373024Y-72332743D01*
X159387035Y-72390000D01*
X159373024Y-72447257D01*
X159334159Y-72491575D01*
X159148595Y-72621508D01*
X158981505Y-72788598D01*
X158845965Y-72982170D01*
X158746097Y-73196336D01*
X158684936Y-73424592D01*
X158664340Y-73659999D01*
X158684936Y-73895407D01*
X158729709Y-74062501D01*
X158746097Y-74123663D01*
X158845965Y-74337830D01*
X158981505Y-74531401D01*
X159148599Y-74698495D01*
X159334160Y-74828426D01*
X159373024Y-74872743D01*
X159387035Y-74930000D01*
X159373024Y-74987257D01*
X159334159Y-75031575D01*
X159148595Y-75161508D01*
X158981505Y-75328598D01*
X158845965Y-75522170D01*
X158746097Y-75736336D01*
X158684936Y-75964592D01*
X158664340Y-76200000D01*
X158684936Y-76435407D01*
X158729709Y-76602502D01*
X158746097Y-76663663D01*
X158845965Y-76877830D01*
X158981505Y-77071401D01*
X159148599Y-77238495D01*
X159334160Y-77368426D01*
X159373024Y-77412743D01*
X159387035Y-77470000D01*
X159373024Y-77527257D01*
X159334159Y-77571575D01*
X159148595Y-77701508D01*
X158981505Y-77868598D01*
X158845965Y-78062170D01*
X158746097Y-78276336D01*
X158684936Y-78504592D01*
X158664340Y-78739999D01*
X158684936Y-78975407D01*
X158729709Y-79142502D01*
X158746097Y-79203663D01*
X158845965Y-79417830D01*
X158981505Y-79611401D01*
X159148599Y-79778495D01*
X159334160Y-79908426D01*
X159373024Y-79952743D01*
X159387035Y-80010000D01*
X159373024Y-80067257D01*
X159334159Y-80111575D01*
X159148595Y-80241508D01*
X158981505Y-80408598D01*
X158845965Y-80602170D01*
X158746097Y-80816336D01*
X158684936Y-81044592D01*
X158664340Y-81280000D01*
X158684936Y-81515407D01*
X158729709Y-81682502D01*
X158746097Y-81743663D01*
X158845965Y-81957830D01*
X158981505Y-82151401D01*
X159148599Y-82318495D01*
X159334160Y-82448426D01*
X159373024Y-82492743D01*
X159387035Y-82550000D01*
X159373024Y-82607257D01*
X159334159Y-82651575D01*
X159148595Y-82781508D01*
X158981505Y-82948598D01*
X158845965Y-83142170D01*
X158746097Y-83356336D01*
X158684936Y-83584592D01*
X158664340Y-83820000D01*
X158684936Y-84055407D01*
X158701784Y-84118284D01*
X158746097Y-84283663D01*
X158845965Y-84497830D01*
X158981505Y-84691401D01*
X159148599Y-84858495D01*
X159334160Y-84988426D01*
X159373024Y-85032743D01*
X159387035Y-85090000D01*
X159373024Y-85147257D01*
X159334158Y-85191575D01*
X159157337Y-85315387D01*
X159148595Y-85321508D01*
X158981505Y-85488598D01*
X158845965Y-85682170D01*
X158746097Y-85896336D01*
X158684936Y-86124592D01*
X158664340Y-86360000D01*
X158684936Y-86595407D01*
X158729709Y-86762501D01*
X158746097Y-86823663D01*
X158845965Y-87037830D01*
X158981505Y-87231401D01*
X159148599Y-87398495D01*
X159334160Y-87528426D01*
X159373024Y-87572743D01*
X159387035Y-87630000D01*
X159373024Y-87687257D01*
X159334159Y-87731575D01*
X159148595Y-87861508D01*
X158981505Y-88028598D01*
X158845965Y-88222170D01*
X158746097Y-88436336D01*
X158684936Y-88664592D01*
X158664340Y-88899999D01*
X158684936Y-89135407D01*
X158729709Y-89302501D01*
X158746097Y-89363663D01*
X158845965Y-89577830D01*
X158981505Y-89771401D01*
X159148599Y-89938495D01*
X159334160Y-90068426D01*
X159373024Y-90112743D01*
X159387035Y-90170000D01*
X159373024Y-90227257D01*
X159334159Y-90271575D01*
X159148595Y-90401508D01*
X158981505Y-90568598D01*
X158845965Y-90762170D01*
X158746097Y-90976336D01*
X158684936Y-91204592D01*
X158664340Y-91439999D01*
X158684936Y-91675407D01*
X158692628Y-91704112D01*
X158746097Y-91903663D01*
X158845965Y-92117830D01*
X158981505Y-92311401D01*
X159148599Y-92478495D01*
X159334160Y-92608426D01*
X159373024Y-92652743D01*
X159387035Y-92710000D01*
X159373024Y-92767257D01*
X159334160Y-92811574D01*
X159161940Y-92932164D01*
X159148595Y-92941508D01*
X158981505Y-93108598D01*
X158845965Y-93302170D01*
X158746097Y-93516336D01*
X158684936Y-93744592D01*
X158664340Y-93980000D01*
X158684936Y-94215407D01*
X158729709Y-94382501D01*
X158746097Y-94443663D01*
X158845965Y-94657830D01*
X158981505Y-94851401D01*
X159148599Y-95018495D01*
X159334160Y-95148426D01*
X159373024Y-95192743D01*
X159387035Y-95250000D01*
X159373024Y-95307257D01*
X159334159Y-95351575D01*
X159148595Y-95481508D01*
X158981505Y-95648598D01*
X158845965Y-95842170D01*
X158746097Y-96056336D01*
X158684936Y-96284592D01*
X158664340Y-96519999D01*
X158684936Y-96755407D01*
X158729709Y-96922501D01*
X158746097Y-96983663D01*
X158845965Y-97197830D01*
X158981505Y-97391401D01*
X159148599Y-97558495D01*
X159334160Y-97688426D01*
X159373024Y-97732743D01*
X159387035Y-97790000D01*
X159373024Y-97847257D01*
X159334159Y-97891575D01*
X159148595Y-98021508D01*
X158981505Y-98188598D01*
X158845965Y-98382170D01*
X158746097Y-98596336D01*
X158684936Y-98824592D01*
X158664340Y-99060000D01*
X158684936Y-99295407D01*
X158729709Y-99462502D01*
X158746097Y-99523663D01*
X158845965Y-99737830D01*
X158981505Y-99931401D01*
X159148599Y-100098495D01*
X159334160Y-100228426D01*
X159373024Y-100272743D01*
X159387035Y-100330000D01*
X159373024Y-100387257D01*
X159334160Y-100431574D01*
X159289654Y-100462738D01*
X159148595Y-100561508D01*
X158981505Y-100728598D01*
X158845965Y-100922170D01*
X158746097Y-101136336D01*
X158684936Y-101364592D01*
X158664340Y-101600000D01*
X158684936Y-101835407D01*
X158705415Y-101911835D01*
X158746097Y-102063663D01*
X158845965Y-102277830D01*
X158981505Y-102471401D01*
X159148599Y-102638495D01*
X159334160Y-102768426D01*
X159373024Y-102812743D01*
X159387035Y-102870000D01*
X159373024Y-102927257D01*
X159334159Y-102971575D01*
X159148595Y-103101508D01*
X158981505Y-103268598D01*
X158845965Y-103462170D01*
X158746097Y-103676336D01*
X158684936Y-103904592D01*
X158664340Y-104140000D01*
X158684936Y-104375407D01*
X158729709Y-104542501D01*
X158746097Y-104603663D01*
X158845965Y-104817830D01*
X158981505Y-105011401D01*
X159148599Y-105178495D01*
X159334160Y-105308426D01*
X159373024Y-105352743D01*
X159387035Y-105410000D01*
X159373024Y-105467257D01*
X159334158Y-105511575D01*
X159172117Y-105625038D01*
X159148595Y-105641508D01*
X158981505Y-105808598D01*
X158845965Y-106002170D01*
X158746097Y-106216336D01*
X158684936Y-106444592D01*
X158664340Y-106679999D01*
X158684936Y-106915407D01*
X158712845Y-107019564D01*
X158746097Y-107143663D01*
X158845965Y-107357830D01*
X158981505Y-107551401D01*
X159148599Y-107718495D01*
X159334160Y-107848426D01*
X159373024Y-107892743D01*
X159387035Y-107950000D01*
X159373024Y-108007257D01*
X159334158Y-108051575D01*
X159209509Y-108138856D01*
X159148595Y-108181508D01*
X158981505Y-108348598D01*
X158845965Y-108542170D01*
X158746097Y-108756336D01*
X158684936Y-108984592D01*
X158664340Y-109219999D01*
X158684936Y-109455407D01*
X158705517Y-109532216D01*
X158746097Y-109683663D01*
X158845965Y-109897830D01*
X158981505Y-110091401D01*
X159148599Y-110258495D01*
X159334160Y-110388426D01*
X159373024Y-110432743D01*
X159387035Y-110490000D01*
X159373024Y-110547257D01*
X159334159Y-110591575D01*
X159148595Y-110721508D01*
X158981505Y-110888598D01*
X158845965Y-111082170D01*
X158746097Y-111296336D01*
X158684936Y-111524592D01*
X158664340Y-111760000D01*
X158684936Y-111995407D01*
X158714918Y-112107300D01*
X158746097Y-112223663D01*
X158845965Y-112437830D01*
X158981505Y-112631401D01*
X159148599Y-112798495D01*
X159334160Y-112928426D01*
X159373024Y-112972743D01*
X159387035Y-113030000D01*
X159373024Y-113087257D01*
X159334158Y-113131575D01*
X159162090Y-113252059D01*
X159148595Y-113261508D01*
X158981505Y-113428598D01*
X158845965Y-113622170D01*
X158746097Y-113836336D01*
X158684936Y-114064592D01*
X158664340Y-114299999D01*
X158684936Y-114535407D01*
X158720836Y-114669386D01*
X158746097Y-114763663D01*
X158845965Y-114977830D01*
X158981505Y-115171401D01*
X159148599Y-115338495D01*
X159334160Y-115468426D01*
X159373024Y-115512743D01*
X159387035Y-115570000D01*
X159373024Y-115627257D01*
X159334159Y-115671575D01*
X159303738Y-115692875D01*
X159186183Y-115775189D01*
X159148595Y-115801508D01*
X158981505Y-115968598D01*
X158845965Y-116162170D01*
X158746097Y-116376336D01*
X158684936Y-116604592D01*
X158664340Y-116840000D01*
X158684936Y-117075407D01*
X158729709Y-117242502D01*
X158746097Y-117303663D01*
X158845965Y-117517830D01*
X158981505Y-117711401D01*
X159148599Y-117878495D01*
X159334160Y-118008426D01*
X159373024Y-118052743D01*
X159387035Y-118110000D01*
X159373024Y-118167257D01*
X159334159Y-118211575D01*
X159148595Y-118341508D01*
X158981505Y-118508598D01*
X158845965Y-118702170D01*
X158746097Y-118916336D01*
X158684936Y-119144592D01*
X158664340Y-119379999D01*
X158684936Y-119615407D01*
X158719908Y-119745922D01*
X158746097Y-119843663D01*
X158845965Y-120057830D01*
X158981505Y-120251401D01*
X159148599Y-120418495D01*
X159334160Y-120548426D01*
X159373024Y-120592743D01*
X159387035Y-120650000D01*
X159373024Y-120707257D01*
X159334160Y-120751574D01*
X159157407Y-120875338D01*
X159148595Y-120881508D01*
X158981505Y-121048598D01*
X158845965Y-121242170D01*
X158746097Y-121456336D01*
X158684936Y-121684592D01*
X158664340Y-121920000D01*
X158684936Y-122155407D01*
X158706058Y-122234234D01*
X158746097Y-122383663D01*
X158845965Y-122597830D01*
X158981505Y-122791401D01*
X159148599Y-122958495D01*
X159334160Y-123088426D01*
X159373024Y-123132743D01*
X159387035Y-123190000D01*
X159373024Y-123247257D01*
X159334158Y-123291575D01*
X159149705Y-123420731D01*
X159148595Y-123421508D01*
X158981505Y-123588598D01*
X158845965Y-123782170D01*
X158746097Y-123996336D01*
X158684936Y-124224592D01*
X158664340Y-124459999D01*
X158684936Y-124695407D01*
X158729709Y-124862501D01*
X158746097Y-124923663D01*
X158845965Y-125137830D01*
X158981505Y-125331401D01*
X159148599Y-125498495D01*
X159334160Y-125628426D01*
X159373024Y-125672743D01*
X159387035Y-125730000D01*
X159373024Y-125787257D01*
X159334159Y-125831575D01*
X159148595Y-125961508D01*
X158981505Y-126128598D01*
X158845965Y-126322170D01*
X158746097Y-126536336D01*
X158684936Y-126764592D01*
X158664340Y-127000000D01*
X158684936Y-127235407D01*
X158729709Y-127402501D01*
X158746097Y-127463663D01*
X158845965Y-127677830D01*
X158981505Y-127871401D01*
X159148599Y-128038495D01*
X159334160Y-128168426D01*
X159373024Y-128212743D01*
X159387035Y-128270000D01*
X159373024Y-128327257D01*
X159334158Y-128371575D01*
X159158911Y-128494285D01*
X159148595Y-128501508D01*
X158981505Y-128668598D01*
X158845965Y-128862170D01*
X158746097Y-129076336D01*
X158684936Y-129304592D01*
X158664340Y-129540000D01*
X158684936Y-129775407D01*
X158729709Y-129942502D01*
X158746097Y-130003663D01*
X158845965Y-130217830D01*
X158981505Y-130411401D01*
X159148599Y-130578495D01*
X159334160Y-130708426D01*
X159373024Y-130752743D01*
X159387035Y-130810000D01*
X159373024Y-130867257D01*
X159334159Y-130911575D01*
X159148595Y-131041508D01*
X158981505Y-131208598D01*
X158845965Y-131402170D01*
X158746097Y-131616336D01*
X158684936Y-131844592D01*
X158664340Y-132079999D01*
X158684936Y-132315407D01*
X158729709Y-132482501D01*
X158746097Y-132543663D01*
X158845965Y-132757830D01*
X158981505Y-132951401D01*
X159148599Y-133118495D01*
X159334160Y-133248426D01*
X159373024Y-133292743D01*
X159387035Y-133350000D01*
X159373024Y-133407257D01*
X159334159Y-133451575D01*
X159148595Y-133581508D01*
X158981505Y-133748598D01*
X158845965Y-133942170D01*
X158746097Y-134156336D01*
X158684936Y-134384592D01*
X158664340Y-134620000D01*
X158684936Y-134855407D01*
X158729709Y-135022502D01*
X158746097Y-135083663D01*
X158845965Y-135297830D01*
X158981505Y-135491401D01*
X159148599Y-135658495D01*
X159334160Y-135788426D01*
X159373024Y-135832743D01*
X159387035Y-135890000D01*
X159373024Y-135947257D01*
X159334159Y-135991575D01*
X159148595Y-136121508D01*
X158981505Y-136288598D01*
X158845965Y-136482170D01*
X158746097Y-136696336D01*
X158684936Y-136924592D01*
X158664340Y-137159999D01*
X158684936Y-137395407D01*
X158729709Y-137562501D01*
X158746097Y-137623663D01*
X158845965Y-137837830D01*
X158981505Y-138031401D01*
X159148599Y-138198495D01*
X159334160Y-138328426D01*
X159373024Y-138372743D01*
X159387035Y-138430000D01*
X159373024Y-138487257D01*
X159334159Y-138531575D01*
X159148595Y-138661508D01*
X158981505Y-138828598D01*
X158845965Y-139022170D01*
X158746097Y-139236336D01*
X158684936Y-139464592D01*
X158664340Y-139700000D01*
X158684936Y-139935407D01*
X158695118Y-139973405D01*
X158746097Y-140163663D01*
X158845965Y-140377830D01*
X158981505Y-140571401D01*
X159148599Y-140738495D01*
X159334160Y-140868426D01*
X159373024Y-140912743D01*
X159387035Y-140970000D01*
X159373024Y-141027257D01*
X159334159Y-141071575D01*
X159148595Y-141201508D01*
X158981505Y-141368598D01*
X158845965Y-141562170D01*
X158746097Y-141776336D01*
X158684936Y-142004592D01*
X158664340Y-142239999D01*
X158684936Y-142475407D01*
X158728394Y-142637594D01*
X158746097Y-142703663D01*
X158845965Y-142917830D01*
X158981505Y-143111401D01*
X159148599Y-143278495D01*
X159334160Y-143408426D01*
X159373024Y-143452743D01*
X159387035Y-143510000D01*
X159373024Y-143567257D01*
X159334159Y-143611575D01*
X159148595Y-143741508D01*
X158981505Y-143908598D01*
X158845965Y-144102170D01*
X158746097Y-144316336D01*
X158684936Y-144544592D01*
X158664340Y-144780000D01*
X158684936Y-145015407D01*
X158716338Y-145132600D01*
X158746097Y-145243663D01*
X158845965Y-145457830D01*
X158981505Y-145651401D01*
X159148599Y-145818495D01*
X159334160Y-145948426D01*
X159373024Y-145992743D01*
X159387035Y-146050000D01*
X159373024Y-146107257D01*
X159334158Y-146151575D01*
X159153821Y-146277849D01*
X159148595Y-146281508D01*
X158981505Y-146448598D01*
X158845965Y-146642170D01*
X158746097Y-146856336D01*
X158684936Y-147084592D01*
X158664340Y-147319999D01*
X158684936Y-147555407D01*
X158707871Y-147641000D01*
X158746097Y-147783663D01*
X158845965Y-147997830D01*
X158981505Y-148191401D01*
X159148599Y-148358495D01*
X159334160Y-148488426D01*
X159373024Y-148532743D01*
X159387035Y-148590000D01*
X159373024Y-148647257D01*
X159334159Y-148691575D01*
X159148595Y-148821508D01*
X158981505Y-148988598D01*
X158845965Y-149182170D01*
X158746097Y-149396336D01*
X158684936Y-149624592D01*
X158664340Y-149860000D01*
X158684936Y-150095407D01*
X158729709Y-150262502D01*
X158746097Y-150323663D01*
X158845965Y-150537830D01*
X158981505Y-150731401D01*
X159148599Y-150898495D01*
X159334160Y-151028426D01*
X159373024Y-151072743D01*
X159387035Y-151130000D01*
X159373024Y-151187257D01*
X159334159Y-151231575D01*
X159148595Y-151361508D01*
X158981505Y-151528598D01*
X158845965Y-151722170D01*
X158746097Y-151936336D01*
X158684936Y-152164592D01*
X158664340Y-152399999D01*
X104205659Y-152399999D01*
X104185063Y-152164592D01*
X104123903Y-151936337D01*
X104024035Y-151722171D01*
X103888495Y-151528599D01*
X103721401Y-151361505D01*
X103535839Y-151231573D01*
X103496975Y-151187257D01*
X103482964Y-151130000D01*
X103496975Y-151072743D01*
X103535839Y-151028426D01*
X103721401Y-150898495D01*
X103888495Y-150731401D01*
X104024035Y-150537830D01*
X104123903Y-150323663D01*
X104185063Y-150095408D01*
X104205659Y-149860000D01*
X104185063Y-149624592D01*
X104123903Y-149396337D01*
X104024035Y-149182171D01*
X103888495Y-148988599D01*
X103739896Y-148840000D01*
X124525863Y-148840000D01*
X124546365Y-149061262D01*
X124607175Y-149274984D01*
X124706219Y-149473893D01*
X124840132Y-149651223D01*
X125004344Y-149800922D01*
X125157924Y-149896014D01*
X125193270Y-149917899D01*
X125400472Y-149998170D01*
X125618896Y-150039000D01*
X125841102Y-150039000D01*
X125841104Y-150039000D01*
X126059528Y-149998170D01*
X126266730Y-149917899D01*
X126455655Y-149800922D01*
X126619868Y-149651222D01*
X126753778Y-149473896D01*
X126753778Y-149473894D01*
X126753780Y-149473893D01*
X126852824Y-149274984D01*
X126913634Y-149061262D01*
X126920367Y-148988595D01*
X126934137Y-148840000D01*
X134381863Y-148840000D01*
X134402365Y-149061262D01*
X134463175Y-149274984D01*
X134562219Y-149473893D01*
X134696132Y-149651223D01*
X134860344Y-149800922D01*
X135013924Y-149896014D01*
X135049270Y-149917899D01*
X135256472Y-149998170D01*
X135474896Y-150039000D01*
X135697102Y-150039000D01*
X135697104Y-150039000D01*
X135915528Y-149998170D01*
X136122730Y-149917899D01*
X136311655Y-149800922D01*
X136475868Y-149651222D01*
X136609778Y-149473896D01*
X136609778Y-149473894D01*
X136609780Y-149473893D01*
X136708824Y-149274984D01*
X136769634Y-149061262D01*
X136776367Y-148988595D01*
X136790137Y-148840000D01*
X136769634Y-148618740D01*
X136769634Y-148618737D01*
X136708824Y-148405015D01*
X136609780Y-148206106D01*
X136475867Y-148028776D01*
X136311655Y-147879077D01*
X136122732Y-147762102D01*
X136122730Y-147762101D01*
X135915528Y-147681830D01*
X135697104Y-147641000D01*
X135474896Y-147641000D01*
X135256471Y-147681830D01*
X135256472Y-147681830D01*
X135049267Y-147762102D01*
X134860344Y-147879077D01*
X134696132Y-148028776D01*
X134562219Y-148206106D01*
X134463175Y-148405015D01*
X134402365Y-148618737D01*
X134381863Y-148840000D01*
X126934137Y-148840000D01*
X126913634Y-148618740D01*
X126913634Y-148618737D01*
X126852824Y-148405015D01*
X126753780Y-148206106D01*
X126619867Y-148028776D01*
X126455655Y-147879077D01*
X126266732Y-147762102D01*
X126266730Y-147762101D01*
X126059528Y-147681830D01*
X125841104Y-147641000D01*
X125618896Y-147641000D01*
X125400471Y-147681830D01*
X125400472Y-147681830D01*
X125193267Y-147762102D01*
X125004344Y-147879077D01*
X124840132Y-148028776D01*
X124706219Y-148206106D01*
X124607175Y-148405015D01*
X124546365Y-148618737D01*
X124525863Y-148840000D01*
X103739896Y-148840000D01*
X103721401Y-148821505D01*
X103535839Y-148691573D01*
X103496975Y-148647257D01*
X103482964Y-148590000D01*
X103496975Y-148532743D01*
X103535839Y-148488426D01*
X103721401Y-148358495D01*
X103888495Y-148191401D01*
X104024035Y-147997830D01*
X104123903Y-147783663D01*
X104185063Y-147555408D01*
X104205659Y-147320000D01*
X127065863Y-147320000D01*
X127086365Y-147541262D01*
X127147175Y-147754984D01*
X127246219Y-147953893D01*
X127380132Y-148131223D01*
X127544344Y-148280922D01*
X127669630Y-148358495D01*
X127733270Y-148397899D01*
X127940472Y-148478170D01*
X128158896Y-148519000D01*
X128381102Y-148519000D01*
X128381104Y-148519000D01*
X128599528Y-148478170D01*
X128806730Y-148397899D01*
X128995655Y-148280922D01*
X129159868Y-148131222D01*
X129293778Y-147953896D01*
X129293778Y-147953894D01*
X129293780Y-147953893D01*
X129392824Y-147754984D01*
X129453634Y-147541262D01*
X129456607Y-147509175D01*
X129474137Y-147320000D01*
X129453634Y-147098740D01*
X129453634Y-147098737D01*
X129392824Y-146885015D01*
X129293780Y-146686106D01*
X129159867Y-146508776D01*
X128995655Y-146359077D01*
X128806732Y-146242102D01*
X128806730Y-146242101D01*
X128599528Y-146161830D01*
X128381104Y-146121000D01*
X128158896Y-146121000D01*
X127983847Y-146153722D01*
X127940472Y-146161830D01*
X127733267Y-146242102D01*
X127544344Y-146359077D01*
X127380132Y-146508776D01*
X127246219Y-146686106D01*
X127147175Y-146885015D01*
X127086365Y-147098737D01*
X127065863Y-147320000D01*
X104205659Y-147320000D01*
X104185063Y-147084592D01*
X104123903Y-146856337D01*
X104024035Y-146642171D01*
X103888495Y-146448599D01*
X103721401Y-146281505D01*
X103535839Y-146151573D01*
X103496976Y-146107257D01*
X103482965Y-146050000D01*
X103496976Y-145992743D01*
X103535839Y-145948426D01*
X103721401Y-145818495D01*
X103888495Y-145651401D01*
X104024035Y-145457830D01*
X104123903Y-145243663D01*
X104185063Y-145015408D01*
X104205659Y-144780000D01*
X104185063Y-144544592D01*
X104123903Y-144316337D01*
X104024035Y-144102171D01*
X103888495Y-143908599D01*
X103721401Y-143741505D01*
X103535839Y-143611573D01*
X103496975Y-143567257D01*
X103482964Y-143510000D01*
X103496975Y-143452743D01*
X103535839Y-143408426D01*
X103721401Y-143278495D01*
X103888495Y-143111401D01*
X104024035Y-142917830D01*
X104123903Y-142703663D01*
X104185063Y-142475408D01*
X104205659Y-142240000D01*
X104185063Y-142004592D01*
X104123903Y-141776337D01*
X104024035Y-141562171D01*
X103888495Y-141368599D01*
X103721401Y-141201505D01*
X103535839Y-141071573D01*
X103496975Y-141027257D01*
X103482964Y-140970000D01*
X103496975Y-140912743D01*
X103516920Y-140890000D01*
X122493595Y-140890000D01*
X122512794Y-141133946D01*
X122569917Y-141371883D01*
X122605743Y-141458373D01*
X122663560Y-141597956D01*
X122791415Y-141806596D01*
X122950335Y-141992667D01*
X123136406Y-142151587D01*
X123345046Y-142279442D01*
X123512066Y-142348623D01*
X123571118Y-142373084D01*
X123646288Y-142391130D01*
X123809057Y-142430208D01*
X124053002Y-142449407D01*
X124107889Y-142445087D01*
X124174989Y-142458776D01*
X124224592Y-142506001D01*
X124241560Y-142572355D01*
X124220717Y-142637594D01*
X124147348Y-142747399D01*
X124009354Y-143027223D01*
X123909066Y-143322662D01*
X123848199Y-143628661D01*
X123827793Y-143940000D01*
X123848199Y-144251338D01*
X123909066Y-144557334D01*
X124009356Y-144852781D01*
X124147347Y-145132600D01*
X124320687Y-145392021D01*
X124345994Y-145420879D01*
X124526404Y-145626596D01*
X124745218Y-145818491D01*
X124760978Y-145832312D01*
X125020399Y-146005652D01*
X125300218Y-146143643D01*
X125300221Y-146143644D01*
X125595663Y-146243933D01*
X125749716Y-146274576D01*
X125901661Y-146304800D01*
X125901663Y-146304800D01*
X125901668Y-146304801D01*
X126213000Y-146325207D01*
X126524332Y-146304801D01*
X126524336Y-146304800D01*
X126524338Y-146304800D01*
X126641449Y-146281505D01*
X126830337Y-146243933D01*
X127125779Y-146143644D01*
X127405604Y-146005650D01*
X127665022Y-145832312D01*
X127899596Y-145626596D01*
X128105312Y-145392022D01*
X128278650Y-145132604D01*
X128336445Y-145015408D01*
X128416643Y-144852781D01*
X128441349Y-144779999D01*
X128516933Y-144557337D01*
X128577801Y-144251332D01*
X128598207Y-143940000D01*
X135257793Y-143940000D01*
X135278199Y-144251338D01*
X135339066Y-144557334D01*
X135439356Y-144852781D01*
X135577347Y-145132600D01*
X135750687Y-145392021D01*
X135775994Y-145420879D01*
X135956404Y-145626596D01*
X136175218Y-145818491D01*
X136190978Y-145832312D01*
X136450399Y-146005652D01*
X136730218Y-146143643D01*
X136730221Y-146143644D01*
X137025663Y-146243933D01*
X137196172Y-146277849D01*
X137256309Y-146308555D01*
X137291441Y-146366220D01*
X137291149Y-146433743D01*
X137255521Y-146491102D01*
X137236131Y-146508778D01*
X137102219Y-146686106D01*
X137003175Y-146885015D01*
X136942365Y-147098737D01*
X136921863Y-147320000D01*
X136942365Y-147541262D01*
X137003175Y-147754984D01*
X137102219Y-147953893D01*
X137236132Y-148131223D01*
X137400344Y-148280922D01*
X137525630Y-148358495D01*
X137589270Y-148397899D01*
X137796472Y-148478170D01*
X138014896Y-148519000D01*
X138237102Y-148519000D01*
X138237104Y-148519000D01*
X138455528Y-148478170D01*
X138662730Y-148397899D01*
X138851655Y-148280922D01*
X139015868Y-148131222D01*
X139149778Y-147953896D01*
X139149778Y-147953894D01*
X139149780Y-147953893D01*
X139248824Y-147754984D01*
X139309634Y-147541262D01*
X139312607Y-147509175D01*
X139330137Y-147320000D01*
X148454699Y-147320000D01*
X148473865Y-147551299D01*
X148473865Y-147551301D01*
X148473866Y-147551305D01*
X148527248Y-147762102D01*
X148530844Y-147776303D01*
X148575925Y-147879077D01*
X148624076Y-147988849D01*
X148751021Y-148183153D01*
X148908216Y-148353913D01*
X149091374Y-148496470D01*
X149295497Y-148606936D01*
X149405258Y-148644617D01*
X149515015Y-148682297D01*
X149515017Y-148682297D01*
X149515019Y-148682298D01*
X149743951Y-148720500D01*
X149976048Y-148720500D01*
X149976049Y-148720500D01*
X150204981Y-148682298D01*
X150424503Y-148606936D01*
X150628626Y-148496470D01*
X150811784Y-148353913D01*
X150968979Y-148183153D01*
X151095924Y-147988849D01*
X151189157Y-147776300D01*
X151246134Y-147551305D01*
X151265300Y-147320000D01*
X151246134Y-147088695D01*
X151189157Y-146863700D01*
X151095924Y-146651151D01*
X150968979Y-146456847D01*
X150874195Y-146353884D01*
X150845424Y-146301134D01*
X150844831Y-146241047D01*
X150872558Y-146187737D01*
X150922092Y-146153722D01*
X151002331Y-146123796D01*
X151117546Y-146037546D01*
X151203796Y-145922331D01*
X151254091Y-145787483D01*
X151260500Y-145727873D01*
X151260499Y-143832128D01*
X151254091Y-143772517D01*
X151203796Y-143637669D01*
X151117546Y-143522454D01*
X151002331Y-143436204D01*
X150867483Y-143385909D01*
X150807873Y-143379500D01*
X150807869Y-143379500D01*
X148912130Y-143379500D01*
X148852515Y-143385909D01*
X148717669Y-143436204D01*
X148602454Y-143522454D01*
X148516204Y-143637668D01*
X148465909Y-143772516D01*
X148459500Y-143832130D01*
X148459500Y-145727869D01*
X148465909Y-145787483D01*
X148516204Y-145922331D01*
X148602454Y-146037546D01*
X148717669Y-146123796D01*
X148797905Y-146153722D01*
X148847441Y-146187737D01*
X148875168Y-146241047D01*
X148874575Y-146301134D01*
X148845802Y-146353887D01*
X148751020Y-146456848D01*
X148624076Y-146651150D01*
X148530844Y-146863696D01*
X148473865Y-147088700D01*
X148454699Y-147320000D01*
X139330137Y-147320000D01*
X139309634Y-147098740D01*
X139309634Y-147098737D01*
X139248824Y-146885015D01*
X139149780Y-146686106D01*
X139015867Y-146508776D01*
X138851655Y-146359077D01*
X138716937Y-146275664D01*
X138672464Y-146227952D01*
X138658358Y-146164272D01*
X138678519Y-146102242D01*
X138727371Y-146059025D01*
X138835600Y-146005652D01*
X138835600Y-146005651D01*
X138835604Y-146005650D01*
X139095022Y-145832312D01*
X139329596Y-145626596D01*
X139535312Y-145392022D01*
X139708650Y-145132604D01*
X139766445Y-145015408D01*
X139846643Y-144852781D01*
X139871349Y-144779999D01*
X139946933Y-144557337D01*
X140007801Y-144251332D01*
X140028207Y-143940000D01*
X140007801Y-143628668D01*
X139972807Y-143452743D01*
X139946933Y-143322662D01*
X139846645Y-143027223D01*
X139708650Y-142747397D01*
X139635283Y-142637595D01*
X139614439Y-142572355D01*
X139631406Y-142506002D01*
X139681009Y-142458777D01*
X139748110Y-142445087D01*
X139802998Y-142449407D01*
X140046943Y-142430208D01*
X140284881Y-142373084D01*
X140510954Y-142279442D01*
X140719594Y-142151587D01*
X140905665Y-141992667D01*
X141064585Y-141806596D01*
X141192440Y-141597956D01*
X141286082Y-141371883D01*
X141343206Y-141133945D01*
X141362405Y-140890000D01*
X141343206Y-140646055D01*
X141286082Y-140408117D01*
X141192440Y-140182044D01*
X141064585Y-139973404D01*
X140905665Y-139787333D01*
X140719594Y-139628413D01*
X140510954Y-139500558D01*
X140424124Y-139464592D01*
X140284881Y-139406915D01*
X140046944Y-139349792D01*
X139802998Y-139330593D01*
X139559051Y-139349792D01*
X139321114Y-139406915D01*
X139095040Y-139500559D01*
X138886403Y-139628412D01*
X138700331Y-139787333D01*
X138541410Y-139973405D01*
X138413557Y-140182042D01*
X138319913Y-140408116D01*
X138262790Y-140646053D01*
X138243591Y-140890000D01*
X138262790Y-141133946D01*
X138319913Y-141371883D01*
X138355739Y-141458373D01*
X138363836Y-141524020D01*
X138337031Y-141584491D01*
X138282953Y-141622577D01*
X138216987Y-141627443D01*
X137954339Y-141575199D01*
X137643000Y-141554793D01*
X137331661Y-141575199D01*
X137025662Y-141636066D01*
X136730223Y-141736354D01*
X136450397Y-141874349D01*
X136190978Y-142047687D01*
X135956404Y-142253404D01*
X135750687Y-142487978D01*
X135577349Y-142747397D01*
X135439354Y-143027223D01*
X135339066Y-143322662D01*
X135278199Y-143628661D01*
X135257793Y-143940000D01*
X128598207Y-143940000D01*
X128577801Y-143628668D01*
X128542807Y-143452743D01*
X128516933Y-143322662D01*
X128416645Y-143027223D01*
X128278650Y-142747397D01*
X128105312Y-142487978D01*
X128094288Y-142475408D01*
X127899596Y-142253404D01*
X127665022Y-142047688D01*
X127600524Y-142004592D01*
X127405600Y-141874347D01*
X127125781Y-141736356D01*
X126830334Y-141636066D01*
X126524338Y-141575199D01*
X126213000Y-141554793D01*
X125901660Y-141575199D01*
X125639012Y-141627443D01*
X125573046Y-141622577D01*
X125518967Y-141584490D01*
X125492163Y-141524020D01*
X125500259Y-141458376D01*
X125536086Y-141371883D01*
X125593210Y-141133945D01*
X125612409Y-140890000D01*
X125593210Y-140646055D01*
X125536086Y-140408117D01*
X125442444Y-140182044D01*
X125314589Y-139973404D01*
X125155669Y-139787333D01*
X124969598Y-139628413D01*
X124760958Y-139500558D01*
X124674128Y-139464592D01*
X124534885Y-139406915D01*
X124296948Y-139349792D01*
X124053002Y-139330593D01*
X123809055Y-139349792D01*
X123571118Y-139406915D01*
X123345044Y-139500559D01*
X123136407Y-139628412D01*
X122950335Y-139787333D01*
X122791414Y-139973405D01*
X122663561Y-140182042D01*
X122569917Y-140408116D01*
X122512794Y-140646053D01*
X122493595Y-140890000D01*
X103516920Y-140890000D01*
X103535839Y-140868426D01*
X103721401Y-140738495D01*
X103888495Y-140571401D01*
X104024035Y-140377830D01*
X104123903Y-140163663D01*
X104185063Y-139935408D01*
X104205659Y-139700000D01*
X104185063Y-139464592D01*
X104123903Y-139236337D01*
X104024035Y-139022171D01*
X103888495Y-138828599D01*
X103721401Y-138661505D01*
X103535839Y-138531573D01*
X103496974Y-138487255D01*
X103482964Y-138429999D01*
X103496975Y-138372742D01*
X103535837Y-138328428D01*
X103721401Y-138198495D01*
X103888495Y-138031401D01*
X104024035Y-137837830D01*
X104123903Y-137623663D01*
X104132923Y-137589999D01*
X126278863Y-137589999D01*
X126299365Y-137811262D01*
X126360175Y-138024984D01*
X126459219Y-138223893D01*
X126593132Y-138401223D01*
X126757344Y-138550922D01*
X126910924Y-138646014D01*
X126946270Y-138667899D01*
X127153472Y-138748170D01*
X127371896Y-138789000D01*
X127594102Y-138789000D01*
X127594104Y-138789000D01*
X127812528Y-138748170D01*
X128019730Y-138667899D01*
X128208655Y-138550922D01*
X128372868Y-138401222D01*
X128506778Y-138223896D01*
X128506778Y-138223894D01*
X128506780Y-138223893D01*
X128605824Y-138024984D01*
X128633734Y-137926893D01*
X128666133Y-137872339D01*
X128721276Y-137840954D01*
X128784724Y-137840954D01*
X128839867Y-137872339D01*
X128872266Y-137926893D01*
X128900175Y-138024984D01*
X128999219Y-138223893D01*
X129133132Y-138401223D01*
X129297344Y-138550922D01*
X129450924Y-138646014D01*
X129486270Y-138667899D01*
X129693472Y-138748170D01*
X129911896Y-138789000D01*
X130134102Y-138789000D01*
X130134104Y-138789000D01*
X130352528Y-138748170D01*
X130559730Y-138667899D01*
X130748655Y-138550922D01*
X130912868Y-138401222D01*
X131046778Y-138223896D01*
X131046778Y-138223894D01*
X131046780Y-138223893D01*
X131145824Y-138024984D01*
X131173734Y-137926893D01*
X131206133Y-137872339D01*
X131261276Y-137840954D01*
X131324724Y-137840954D01*
X131379867Y-137872339D01*
X131412266Y-137926893D01*
X131440175Y-138024984D01*
X131539219Y-138223893D01*
X131673132Y-138401223D01*
X131837344Y-138550922D01*
X131990924Y-138646014D01*
X132026270Y-138667899D01*
X132233472Y-138748170D01*
X132451896Y-138789000D01*
X132674102Y-138789000D01*
X132674104Y-138789000D01*
X132892528Y-138748170D01*
X133099730Y-138667899D01*
X133288655Y-138550922D01*
X133452868Y-138401222D01*
X133586778Y-138223896D01*
X133586778Y-138223894D01*
X133586780Y-138223893D01*
X133685824Y-138024984D01*
X133713734Y-137926893D01*
X133746133Y-137872339D01*
X133801276Y-137840954D01*
X133864724Y-137840954D01*
X133919867Y-137872339D01*
X133952266Y-137926893D01*
X133980175Y-138024984D01*
X134079219Y-138223893D01*
X134213132Y-138401223D01*
X134377344Y-138550922D01*
X134530924Y-138646014D01*
X134566270Y-138667899D01*
X134773472Y-138748170D01*
X134991896Y-138789000D01*
X135214102Y-138789000D01*
X135214104Y-138789000D01*
X135432528Y-138748170D01*
X135639730Y-138667899D01*
X135828655Y-138550922D01*
X135992868Y-138401222D01*
X136126778Y-138223896D01*
X136126778Y-138223894D01*
X136126780Y-138223893D01*
X136225824Y-138024984D01*
X136286634Y-137811262D01*
X136289839Y-137776667D01*
X136307137Y-137590000D01*
X136286634Y-137368740D01*
X136286634Y-137368737D01*
X136225824Y-137155015D01*
X136126780Y-136956106D01*
X135992867Y-136778776D01*
X135828655Y-136629077D01*
X135639732Y-136512102D01*
X135639730Y-136512101D01*
X135432528Y-136431830D01*
X135214104Y-136391000D01*
X134991896Y-136391000D01*
X134773472Y-136431829D01*
X134773472Y-136431830D01*
X134566267Y-136512102D01*
X134377344Y-136629077D01*
X134213132Y-136778776D01*
X134079219Y-136956106D01*
X133980176Y-137155014D01*
X133952266Y-137253107D01*
X133919867Y-137307660D01*
X133864724Y-137339045D01*
X133801276Y-137339045D01*
X133746133Y-137307660D01*
X133713734Y-137253107D01*
X133687242Y-137160000D01*
X133685824Y-137155016D01*
X133685418Y-137154200D01*
X133586780Y-136956106D01*
X133452867Y-136778776D01*
X133288655Y-136629077D01*
X133099732Y-136512102D01*
X133099730Y-136512101D01*
X132892528Y-136431830D01*
X132674104Y-136391000D01*
X132451896Y-136391000D01*
X132233472Y-136431829D01*
X132233472Y-136431830D01*
X132026267Y-136512102D01*
X131837344Y-136629077D01*
X131673132Y-136778776D01*
X131539219Y-136956106D01*
X131440176Y-137155014D01*
X131412266Y-137253107D01*
X131379867Y-137307660D01*
X131324724Y-137339045D01*
X131261276Y-137339045D01*
X131206133Y-137307660D01*
X131173734Y-137253107D01*
X131147242Y-137160000D01*
X131145824Y-137155016D01*
X131145418Y-137154200D01*
X131046780Y-136956106D01*
X130912867Y-136778776D01*
X130748655Y-136629077D01*
X130559732Y-136512102D01*
X130559730Y-136512101D01*
X130352528Y-136431830D01*
X130134104Y-136391000D01*
X129911896Y-136391000D01*
X129693472Y-136431829D01*
X129693472Y-136431830D01*
X129486267Y-136512102D01*
X129297344Y-136629077D01*
X129133132Y-136778776D01*
X128999219Y-136956106D01*
X128900176Y-137155014D01*
X128872266Y-137253107D01*
X128839867Y-137307660D01*
X128784724Y-137339045D01*
X128721276Y-137339045D01*
X128666133Y-137307660D01*
X128633734Y-137253107D01*
X128607242Y-137160000D01*
X128605824Y-137155016D01*
X128605418Y-137154200D01*
X128506780Y-136956106D01*
X128372867Y-136778776D01*
X128208655Y-136629077D01*
X128019732Y-136512102D01*
X128019730Y-136512101D01*
X127812528Y-136431830D01*
X127594104Y-136391000D01*
X127371896Y-136391000D01*
X127153472Y-136431829D01*
X127153472Y-136431830D01*
X126946267Y-136512102D01*
X126757344Y-136629077D01*
X126593132Y-136778776D01*
X126459219Y-136956106D01*
X126360175Y-137155015D01*
X126299365Y-137368737D01*
X126278863Y-137589999D01*
X104132923Y-137589999D01*
X104185063Y-137395408D01*
X104205659Y-137160000D01*
X104185063Y-136924592D01*
X104123903Y-136696337D01*
X104024035Y-136482171D01*
X103888495Y-136288599D01*
X103721401Y-136121505D01*
X103535839Y-135991573D01*
X103496975Y-135947257D01*
X103482964Y-135890000D01*
X103496975Y-135832743D01*
X103535839Y-135788426D01*
X103721401Y-135658495D01*
X103888495Y-135491401D01*
X104024035Y-135297830D01*
X104123903Y-135083663D01*
X104132923Y-135050000D01*
X127548863Y-135050000D01*
X127569365Y-135271262D01*
X127630175Y-135484984D01*
X127729219Y-135683893D01*
X127863132Y-135861223D01*
X128027344Y-136010922D01*
X128121550Y-136069251D01*
X128216270Y-136127899D01*
X128423472Y-136208170D01*
X128641896Y-136249000D01*
X128864102Y-136249000D01*
X128864104Y-136249000D01*
X129082528Y-136208170D01*
X129289730Y-136127899D01*
X129478655Y-136010922D01*
X129642868Y-135861222D01*
X129776778Y-135683896D01*
X129776778Y-135683894D01*
X129776780Y-135683893D01*
X129875824Y-135484984D01*
X129903734Y-135386893D01*
X129936133Y-135332339D01*
X129991276Y-135300954D01*
X130054724Y-135300954D01*
X130109867Y-135332339D01*
X130142266Y-135386893D01*
X130170175Y-135484984D01*
X130269219Y-135683893D01*
X130403132Y-135861223D01*
X130567344Y-136010922D01*
X130661550Y-136069251D01*
X130756270Y-136127899D01*
X130963472Y-136208170D01*
X131181896Y-136249000D01*
X131404102Y-136249000D01*
X131404104Y-136249000D01*
X131622528Y-136208170D01*
X131829730Y-136127899D01*
X132018655Y-136010922D01*
X132182868Y-135861222D01*
X132316778Y-135683896D01*
X132316778Y-135683894D01*
X132316780Y-135683893D01*
X132415824Y-135484984D01*
X132443734Y-135386893D01*
X132476133Y-135332339D01*
X132531276Y-135300954D01*
X132594724Y-135300954D01*
X132649867Y-135332339D01*
X132682266Y-135386893D01*
X132710175Y-135484984D01*
X132809219Y-135683893D01*
X132943132Y-135861223D01*
X133107344Y-136010922D01*
X133201550Y-136069251D01*
X133296270Y-136127899D01*
X133503472Y-136208170D01*
X133721896Y-136249000D01*
X133944102Y-136249000D01*
X133944104Y-136249000D01*
X134162528Y-136208170D01*
X134369730Y-136127899D01*
X134558655Y-136010922D01*
X134722868Y-135861222D01*
X134856778Y-135683896D01*
X134856778Y-135683894D01*
X134856780Y-135683893D01*
X134955824Y-135484984D01*
X134983734Y-135386893D01*
X135016133Y-135332339D01*
X135071276Y-135300954D01*
X135134724Y-135300954D01*
X135189867Y-135332339D01*
X135222266Y-135386893D01*
X135250175Y-135484984D01*
X135349219Y-135683893D01*
X135483132Y-135861223D01*
X135647344Y-136010922D01*
X135741550Y-136069251D01*
X135836270Y-136127899D01*
X136043472Y-136208170D01*
X136261896Y-136249000D01*
X136484102Y-136249000D01*
X136484104Y-136249000D01*
X136702528Y-136208170D01*
X136909730Y-136127899D01*
X137098655Y-136010922D01*
X137231300Y-135890000D01*
X138894434Y-135890000D01*
X138914631Y-136069251D01*
X138914631Y-136069253D01*
X138914632Y-136069255D01*
X138974211Y-136239522D01*
X139005048Y-136288598D01*
X139070185Y-136392264D01*
X139197735Y-136519814D01*
X139197737Y-136519815D01*
X139197738Y-136519816D01*
X139350478Y-136615789D01*
X139520745Y-136675368D01*
X139700000Y-136695565D01*
X139879255Y-136675368D01*
X140049522Y-136615789D01*
X140202262Y-136519816D01*
X140329816Y-136392262D01*
X140425789Y-136239522D01*
X140485368Y-136069255D01*
X140505565Y-135890000D01*
X140485368Y-135710745D01*
X140425789Y-135540478D01*
X140329816Y-135387738D01*
X140329815Y-135387737D01*
X140329814Y-135387735D01*
X140202264Y-135260185D01*
X140139867Y-135220979D01*
X140049522Y-135164211D01*
X139879255Y-135104632D01*
X139879253Y-135104631D01*
X139879251Y-135104631D01*
X139700000Y-135084434D01*
X139520748Y-135104631D01*
X139520745Y-135104631D01*
X139520745Y-135104632D01*
X139350478Y-135164211D01*
X139350476Y-135164211D01*
X139350476Y-135164212D01*
X139197735Y-135260185D01*
X139070185Y-135387735D01*
X139009080Y-135484984D01*
X138974211Y-135540478D01*
X138932915Y-135658495D01*
X138914631Y-135710748D01*
X138894434Y-135890000D01*
X137231300Y-135890000D01*
X137262868Y-135861222D01*
X137396778Y-135683896D01*
X137396778Y-135683894D01*
X137396780Y-135683893D01*
X137495824Y-135484984D01*
X137556634Y-135271262D01*
X137559607Y-135239175D01*
X137577137Y-135050000D01*
X137556634Y-134828740D01*
X137556634Y-134828737D01*
X137495824Y-134615015D01*
X137396780Y-134416106D01*
X137262867Y-134238776D01*
X137098655Y-134089077D01*
X136909732Y-133972102D01*
X136909730Y-133972101D01*
X136702528Y-133891830D01*
X136484104Y-133851000D01*
X136261896Y-133851000D01*
X136043471Y-133891830D01*
X136043472Y-133891830D01*
X135836267Y-133972102D01*
X135647344Y-134089077D01*
X135483132Y-134238776D01*
X135349219Y-134416106D01*
X135250176Y-134615014D01*
X135222266Y-134713107D01*
X135189867Y-134767660D01*
X135134724Y-134799045D01*
X135071276Y-134799045D01*
X135016133Y-134767660D01*
X134983734Y-134713107D01*
X134957242Y-134620000D01*
X134955824Y-134615016D01*
X134955418Y-134614200D01*
X134856780Y-134416106D01*
X134722867Y-134238776D01*
X134558655Y-134089077D01*
X134369732Y-133972102D01*
X134369730Y-133972101D01*
X134162528Y-133891830D01*
X133944104Y-133851000D01*
X133721896Y-133851000D01*
X133503471Y-133891830D01*
X133503472Y-133891830D01*
X133296267Y-133972102D01*
X133107344Y-134089077D01*
X132943132Y-134238776D01*
X132809219Y-134416106D01*
X132710176Y-134615014D01*
X132682266Y-134713107D01*
X132649867Y-134767660D01*
X132594724Y-134799045D01*
X132531276Y-134799045D01*
X132476133Y-134767660D01*
X132443734Y-134713107D01*
X132417242Y-134620000D01*
X132415824Y-134615016D01*
X132415418Y-134614200D01*
X132316780Y-134416106D01*
X132182867Y-134238776D01*
X132018655Y-134089077D01*
X131829732Y-133972102D01*
X131829730Y-133972101D01*
X131622528Y-133891830D01*
X131404104Y-133851000D01*
X131181896Y-133851000D01*
X130963471Y-133891830D01*
X130963472Y-133891830D01*
X130756267Y-133972102D01*
X130567344Y-134089077D01*
X130403132Y-134238776D01*
X130269219Y-134416106D01*
X130170176Y-134615014D01*
X130142266Y-134713107D01*
X130109867Y-134767660D01*
X130054724Y-134799045D01*
X129991276Y-134799045D01*
X129936133Y-134767660D01*
X129903734Y-134713107D01*
X129877242Y-134620000D01*
X129875824Y-134615016D01*
X129875418Y-134614200D01*
X129776780Y-134416106D01*
X129642867Y-134238776D01*
X129478655Y-134089077D01*
X129289732Y-133972102D01*
X129289730Y-133972101D01*
X129082528Y-133891830D01*
X128864104Y-133851000D01*
X128641896Y-133851000D01*
X128423471Y-133891830D01*
X128423472Y-133891830D01*
X128216267Y-133972102D01*
X128027344Y-134089077D01*
X127863132Y-134238776D01*
X127729219Y-134416106D01*
X127630175Y-134615015D01*
X127569365Y-134828737D01*
X127548863Y-135050000D01*
X104132923Y-135050000D01*
X104185063Y-134855408D01*
X104205659Y-134620000D01*
X104185063Y-134384592D01*
X104123903Y-134156337D01*
X104024035Y-133942171D01*
X103888495Y-133748599D01*
X103721401Y-133581505D01*
X103535839Y-133451573D01*
X103496975Y-133407257D01*
X103482964Y-133350000D01*
X103496975Y-133292743D01*
X103535839Y-133248426D01*
X103721401Y-133118495D01*
X103888495Y-132951401D01*
X104024035Y-132757830D01*
X104123903Y-132543663D01*
X104185063Y-132315408D01*
X104205659Y-132080000D01*
X104197689Y-131988900D01*
X155597134Y-131988900D01*
X155617331Y-132168151D01*
X155617331Y-132168153D01*
X155617332Y-132168155D01*
X155676911Y-132338422D01*
X155676912Y-132338423D01*
X155772885Y-132491164D01*
X155900435Y-132618714D01*
X155900437Y-132618715D01*
X155900438Y-132618716D01*
X156053178Y-132714689D01*
X156223445Y-132774268D01*
X156402700Y-132794465D01*
X156581955Y-132774268D01*
X156752222Y-132714689D01*
X156904962Y-132618716D01*
X157032516Y-132491162D01*
X157128489Y-132338422D01*
X157188068Y-132168155D01*
X157208265Y-131988900D01*
X157188068Y-131809645D01*
X157128489Y-131639378D01*
X157032516Y-131486638D01*
X157032515Y-131486637D01*
X157032514Y-131486635D01*
X156904964Y-131359085D01*
X156842567Y-131319878D01*
X156752222Y-131263111D01*
X156581955Y-131203532D01*
X156581953Y-131203531D01*
X156581951Y-131203531D01*
X156402700Y-131183334D01*
X156223448Y-131203531D01*
X156223445Y-131203531D01*
X156223445Y-131203532D01*
X156053178Y-131263111D01*
X156053176Y-131263111D01*
X156053176Y-131263112D01*
X155900435Y-131359085D01*
X155772885Y-131486635D01*
X155676912Y-131639376D01*
X155617331Y-131809648D01*
X155597134Y-131988900D01*
X104197689Y-131988900D01*
X104185063Y-131844592D01*
X104123903Y-131616337D01*
X104024035Y-131402171D01*
X103888495Y-131208599D01*
X103721401Y-131041505D01*
X103535839Y-130911573D01*
X103496976Y-130867257D01*
X103482965Y-130810000D01*
X103496976Y-130752743D01*
X103535839Y-130708426D01*
X103721401Y-130578495D01*
X103888495Y-130411401D01*
X104024035Y-130217830D01*
X104123903Y-130003663D01*
X104185063Y-129775408D01*
X104205659Y-129540000D01*
X104185063Y-129304592D01*
X104136701Y-129124099D01*
X119552534Y-129124099D01*
X119572731Y-129303351D01*
X119572731Y-129303353D01*
X119572732Y-129303355D01*
X119632311Y-129473622D01*
X119632312Y-129473623D01*
X119728285Y-129626364D01*
X119855835Y-129753914D01*
X119855837Y-129753915D01*
X119855838Y-129753916D01*
X120008578Y-129849889D01*
X120178845Y-129909468D01*
X120358100Y-129929665D01*
X120537355Y-129909468D01*
X120707622Y-129849889D01*
X120860362Y-129753916D01*
X120987916Y-129626362D01*
X121083889Y-129473622D01*
X121143468Y-129303355D01*
X121163665Y-129124100D01*
X121143468Y-128944845D01*
X121083889Y-128774578D01*
X120987916Y-128621838D01*
X120987915Y-128621837D01*
X120987914Y-128621835D01*
X120860364Y-128494285D01*
X120797967Y-128455078D01*
X120707622Y-128398311D01*
X120537355Y-128338732D01*
X120537353Y-128338731D01*
X120537351Y-128338731D01*
X120358100Y-128318534D01*
X120178848Y-128338731D01*
X120178845Y-128338731D01*
X120178845Y-128338732D01*
X120008578Y-128398311D01*
X120008576Y-128398311D01*
X120008576Y-128398312D01*
X119855835Y-128494285D01*
X119728285Y-128621835D01*
X119632312Y-128774576D01*
X119632311Y-128774578D01*
X119601661Y-128862170D01*
X119572731Y-128944848D01*
X119552534Y-129124099D01*
X104136701Y-129124099D01*
X104123903Y-129076337D01*
X104024035Y-128862171D01*
X103888495Y-128668599D01*
X103721401Y-128501505D01*
X103535839Y-128371573D01*
X103496976Y-128327257D01*
X103482965Y-128270000D01*
X103496976Y-128212743D01*
X103535839Y-128168426D01*
X103721401Y-128038495D01*
X103888495Y-127871401D01*
X104024035Y-127677830D01*
X104123903Y-127463663D01*
X104185063Y-127235408D01*
X104205659Y-127000000D01*
X104185063Y-126764592D01*
X104123903Y-126536337D01*
X104024035Y-126322171D01*
X103888495Y-126128599D01*
X103721401Y-125961505D01*
X103535839Y-125831573D01*
X103496975Y-125787257D01*
X103482964Y-125730000D01*
X103496975Y-125672743D01*
X103535839Y-125628426D01*
X103721401Y-125498495D01*
X103888495Y-125331401D01*
X104024035Y-125137830D01*
X104123903Y-124923663D01*
X104185063Y-124695408D01*
X104205659Y-124460000D01*
X104185063Y-124224592D01*
X104180108Y-124206099D01*
X115048934Y-124206099D01*
X115069131Y-124385351D01*
X115069131Y-124385353D01*
X115069132Y-124385355D01*
X115128711Y-124555622D01*
X115128712Y-124555623D01*
X115224685Y-124708364D01*
X115352235Y-124835914D01*
X115352237Y-124835915D01*
X115352238Y-124835916D01*
X115504978Y-124931889D01*
X115675245Y-124991468D01*
X115854500Y-125011665D01*
X116033755Y-124991468D01*
X116204022Y-124931889D01*
X116356762Y-124835916D01*
X116484316Y-124708362D01*
X116580289Y-124555622D01*
X116639868Y-124385355D01*
X116660065Y-124206100D01*
X116639868Y-124026845D01*
X116580289Y-123856578D01*
X116490594Y-123713829D01*
X116471869Y-123656198D01*
X116482689Y-123596576D01*
X116520470Y-123549199D01*
X116576190Y-123525384D01*
X116636543Y-123530816D01*
X116796444Y-123586768D01*
X116975700Y-123606965D01*
X117154955Y-123586768D01*
X117325222Y-123527189D01*
X117477962Y-123431216D01*
X117605516Y-123303662D01*
X117701489Y-123150922D01*
X117761068Y-122980655D01*
X117781265Y-122801400D01*
X117761068Y-122622145D01*
X117701489Y-122451878D01*
X117605516Y-122299138D01*
X117605515Y-122299137D01*
X117605514Y-122299135D01*
X117477964Y-122171585D01*
X117377189Y-122108264D01*
X117325222Y-122075611D01*
X117154955Y-122016032D01*
X117154953Y-122016031D01*
X117154951Y-122016031D01*
X116975700Y-121995834D01*
X116796448Y-122016031D01*
X116796445Y-122016031D01*
X116796445Y-122016032D01*
X116626178Y-122075611D01*
X116626176Y-122075611D01*
X116626176Y-122075612D01*
X116473435Y-122171585D01*
X116345885Y-122299135D01*
X116275241Y-122411565D01*
X116249911Y-122451878D01*
X116210584Y-122564268D01*
X116190331Y-122622148D01*
X116170134Y-122801400D01*
X116190331Y-122980651D01*
X116190331Y-122980653D01*
X116190332Y-122980655D01*
X116249911Y-123150922D01*
X116249912Y-123150923D01*
X116339605Y-123293670D01*
X116358330Y-123351301D01*
X116347510Y-123410923D01*
X116309729Y-123458299D01*
X116254009Y-123482115D01*
X116193657Y-123476684D01*
X116033752Y-123420731D01*
X115854500Y-123400534D01*
X115675248Y-123420731D01*
X115675245Y-123420731D01*
X115675245Y-123420732D01*
X115504978Y-123480311D01*
X115504976Y-123480311D01*
X115504976Y-123480312D01*
X115352235Y-123576285D01*
X115224685Y-123703835D01*
X115128712Y-123856576D01*
X115069131Y-124026848D01*
X115048934Y-124206099D01*
X104180108Y-124206099D01*
X104123903Y-123996337D01*
X104024035Y-123782171D01*
X103888495Y-123588599D01*
X103721401Y-123421505D01*
X103535839Y-123291573D01*
X103496975Y-123247257D01*
X103482964Y-123190000D01*
X103496975Y-123132743D01*
X103535839Y-123088426D01*
X103721401Y-122958495D01*
X103888495Y-122791401D01*
X104024035Y-122597830D01*
X104123903Y-122383663D01*
X104185063Y-122155408D01*
X104205659Y-121920000D01*
X104205205Y-121914816D01*
X104193314Y-121778899D01*
X111383434Y-121778899D01*
X111403631Y-121958151D01*
X111403631Y-121958153D01*
X111403632Y-121958155D01*
X111463211Y-122128422D01*
X111484918Y-122162968D01*
X111559185Y-122281164D01*
X111686735Y-122408714D01*
X111686737Y-122408715D01*
X111686738Y-122408716D01*
X111839478Y-122504689D01*
X112009745Y-122564268D01*
X112189000Y-122584465D01*
X112368255Y-122564268D01*
X112538522Y-122504689D01*
X112691262Y-122408716D01*
X112818816Y-122281162D01*
X112914789Y-122128422D01*
X112974368Y-121958155D01*
X112994565Y-121778900D01*
X112974368Y-121599645D01*
X112914789Y-121429378D01*
X112882255Y-121377600D01*
X122717934Y-121377600D01*
X122738131Y-121556851D01*
X122738131Y-121556853D01*
X122738132Y-121556855D01*
X122797711Y-121727122D01*
X122835500Y-121787262D01*
X122893685Y-121879864D01*
X123021235Y-122007414D01*
X123021237Y-122007415D01*
X123021238Y-122007416D01*
X123173978Y-122103389D01*
X123344245Y-122162968D01*
X123523500Y-122183165D01*
X123702755Y-122162968D01*
X123873022Y-122103389D01*
X123965311Y-122045400D01*
X127469634Y-122045400D01*
X127489831Y-122224651D01*
X127489831Y-122224653D01*
X127489832Y-122224655D01*
X127549411Y-122394922D01*
X127559869Y-122411565D01*
X127645385Y-122547664D01*
X127772935Y-122675214D01*
X127772937Y-122675215D01*
X127772938Y-122675216D01*
X127925678Y-122771189D01*
X128095945Y-122830768D01*
X128275200Y-122850965D01*
X128454455Y-122830768D01*
X128624722Y-122771189D01*
X128777462Y-122675216D01*
X128905016Y-122547662D01*
X129000989Y-122394922D01*
X129060568Y-122224655D01*
X129080765Y-122045400D01*
X129060568Y-121866145D01*
X129000989Y-121695878D01*
X128905016Y-121543138D01*
X128905015Y-121543137D01*
X128905014Y-121543135D01*
X128856910Y-121495031D01*
X128824816Y-121439444D01*
X128824816Y-121375256D01*
X128856910Y-121319669D01*
X128905014Y-121271564D01*
X128905015Y-121271563D01*
X128905016Y-121271562D01*
X128930692Y-121230699D01*
X130004434Y-121230699D01*
X130024631Y-121409951D01*
X130024631Y-121409953D01*
X130024632Y-121409955D01*
X130084211Y-121580222D01*
X130118330Y-121634522D01*
X130180185Y-121732964D01*
X130307735Y-121860514D01*
X130307737Y-121860515D01*
X130307738Y-121860516D01*
X130460478Y-121956489D01*
X130630745Y-122016068D01*
X130650256Y-122018266D01*
X130713683Y-122044537D01*
X130753412Y-122100528D01*
X130757264Y-122169075D01*
X130724056Y-122229164D01*
X130718986Y-122234234D01*
X130625094Y-122383663D01*
X130623011Y-122386978D01*
X130615405Y-122408716D01*
X130563431Y-122557248D01*
X130543234Y-122736500D01*
X130563431Y-122915751D01*
X130563431Y-122915753D01*
X130563432Y-122915755D01*
X130623011Y-123086022D01*
X130663791Y-123150923D01*
X130718985Y-123238764D01*
X130846535Y-123366314D01*
X130846537Y-123366315D01*
X130846538Y-123366316D01*
X130999278Y-123462289D01*
X131169545Y-123521868D01*
X131348800Y-123542065D01*
X131528055Y-123521868D01*
X131698322Y-123462289D01*
X131851062Y-123366316D01*
X131978616Y-123238762D01*
X132074589Y-123086022D01*
X132134168Y-122915755D01*
X132154365Y-122736500D01*
X132134168Y-122557245D01*
X132074589Y-122386978D01*
X131978616Y-122234238D01*
X131978615Y-122234237D01*
X131978614Y-122234235D01*
X131851064Y-122106685D01*
X131753529Y-122045400D01*
X131698322Y-122010711D01*
X131528055Y-121951132D01*
X131528053Y-121951131D01*
X131528051Y-121951131D01*
X131508542Y-121948933D01*
X131445113Y-121922659D01*
X131405385Y-121866665D01*
X131401537Y-121798117D01*
X131434749Y-121738029D01*
X131439816Y-121732962D01*
X131443485Y-121727123D01*
X131535789Y-121580222D01*
X131595368Y-121409955D01*
X131609447Y-121285000D01*
X140799434Y-121285000D01*
X140819631Y-121464251D01*
X140819631Y-121464253D01*
X140819632Y-121464255D01*
X140879211Y-121634522D01*
X140879212Y-121634523D01*
X140975185Y-121787264D01*
X141102735Y-121914814D01*
X141102737Y-121914815D01*
X141102738Y-121914816D01*
X141255478Y-122010789D01*
X141425745Y-122070368D01*
X141560186Y-122085515D01*
X141604999Y-122090565D01*
X141604999Y-122090564D01*
X141605000Y-122090565D01*
X141784255Y-122070368D01*
X141784255Y-122070367D01*
X141789296Y-122069800D01*
X141844135Y-122075978D01*
X141890862Y-122105339D01*
X141893782Y-122108259D01*
X141893784Y-122108262D01*
X142021338Y-122235816D01*
X142174078Y-122331789D01*
X142344345Y-122391368D01*
X142523600Y-122411565D01*
X142702855Y-122391368D01*
X142873122Y-122331789D01*
X143025862Y-122235816D01*
X143153416Y-122108262D01*
X143249389Y-121955522D01*
X143308968Y-121785255D01*
X143329165Y-121606000D01*
X143308968Y-121426745D01*
X143249389Y-121256478D01*
X143153416Y-121103738D01*
X143153415Y-121103737D01*
X143153414Y-121103735D01*
X143025864Y-120976185D01*
X142875181Y-120881505D01*
X142873122Y-120880211D01*
X142702855Y-120820632D01*
X142702853Y-120820631D01*
X142702851Y-120820631D01*
X142523599Y-120800434D01*
X142339303Y-120821199D01*
X142284465Y-120815020D01*
X142237739Y-120785660D01*
X142107264Y-120655185D01*
X142007886Y-120592742D01*
X141954522Y-120559211D01*
X141784255Y-120499632D01*
X141784253Y-120499631D01*
X141784251Y-120499631D01*
X141605000Y-120479434D01*
X141425748Y-120499631D01*
X141425745Y-120499631D01*
X141425745Y-120499632D01*
X141255478Y-120559211D01*
X141255476Y-120559211D01*
X141255476Y-120559212D01*
X141102735Y-120655185D01*
X140975185Y-120782735D01*
X140889084Y-120919765D01*
X140879211Y-120935478D01*
X140838049Y-121053112D01*
X140819631Y-121105748D01*
X140799434Y-121285000D01*
X131609447Y-121285000D01*
X131615565Y-121230700D01*
X131595368Y-121051445D01*
X131535789Y-120881178D01*
X131439816Y-120728438D01*
X131439815Y-120728437D01*
X131439814Y-120728435D01*
X131312264Y-120600885D01*
X131228772Y-120548424D01*
X131159522Y-120504911D01*
X130989255Y-120445332D01*
X130989253Y-120445331D01*
X130989251Y-120445331D01*
X130810000Y-120425134D01*
X130630748Y-120445331D01*
X130630745Y-120445331D01*
X130630745Y-120445332D01*
X130460478Y-120504911D01*
X130460476Y-120504911D01*
X130460476Y-120504912D01*
X130307735Y-120600885D01*
X130180185Y-120728435D01*
X130084818Y-120880212D01*
X130084211Y-120881178D01*
X130025628Y-121048598D01*
X130024631Y-121051448D01*
X130004434Y-121230699D01*
X128930692Y-121230699D01*
X129000989Y-121118822D01*
X129060568Y-120948555D01*
X129080765Y-120769300D01*
X129060568Y-120590045D01*
X129000989Y-120419778D01*
X128970004Y-120370466D01*
X128950999Y-120304496D01*
X128970005Y-120238524D01*
X129021198Y-120192776D01*
X129088883Y-120181276D01*
X129093242Y-120181767D01*
X129093245Y-120181768D01*
X129272500Y-120201965D01*
X129451755Y-120181768D01*
X129622022Y-120122189D01*
X129623120Y-120121499D01*
X132544434Y-120121499D01*
X132564631Y-120300751D01*
X132564631Y-120300753D01*
X132564632Y-120300755D01*
X132624211Y-120471022D01*
X132642187Y-120499631D01*
X132720185Y-120623764D01*
X132847735Y-120751314D01*
X132847737Y-120751315D01*
X132847738Y-120751316D01*
X133000478Y-120847289D01*
X133170745Y-120906868D01*
X133350000Y-120927065D01*
X133529255Y-120906868D01*
X133699522Y-120847289D01*
X133852262Y-120751316D01*
X133979816Y-120623762D01*
X134075789Y-120471022D01*
X134121566Y-120340199D01*
X137365434Y-120340199D01*
X137385631Y-120519451D01*
X137385631Y-120519453D01*
X137385632Y-120519455D01*
X137445211Y-120689722D01*
X137483912Y-120751314D01*
X137541185Y-120842464D01*
X137668735Y-120970014D01*
X137668737Y-120970015D01*
X137668738Y-120970016D01*
X137821478Y-121065989D01*
X137991745Y-121125568D01*
X138171000Y-121145765D01*
X138350255Y-121125568D01*
X138520522Y-121065989D01*
X138673262Y-120970016D01*
X138800816Y-120842462D01*
X138896789Y-120689722D01*
X138956368Y-120519455D01*
X138976565Y-120340200D01*
X138956368Y-120160945D01*
X138896789Y-119990678D01*
X138800816Y-119837938D01*
X138800815Y-119837937D01*
X138800814Y-119837935D01*
X138673264Y-119710385D01*
X138528199Y-119619235D01*
X138520522Y-119614411D01*
X138350255Y-119554832D01*
X138350253Y-119554831D01*
X138350251Y-119554831D01*
X138171000Y-119534634D01*
X137991748Y-119554831D01*
X137991745Y-119554831D01*
X137991745Y-119554832D01*
X137821478Y-119614411D01*
X137821476Y-119614411D01*
X137821476Y-119614412D01*
X137668735Y-119710385D01*
X137541185Y-119837935D01*
X137462141Y-119963734D01*
X137445211Y-119990678D01*
X137399194Y-120122187D01*
X137385631Y-120160948D01*
X137365434Y-120340199D01*
X134121566Y-120340199D01*
X134135368Y-120300755D01*
X134155565Y-120121500D01*
X134154742Y-120114200D01*
X134140065Y-119983931D01*
X134135368Y-119942245D01*
X134075789Y-119771978D01*
X133979816Y-119619238D01*
X133979815Y-119619237D01*
X133979814Y-119619235D01*
X133852264Y-119491685D01*
X133781605Y-119447287D01*
X133699522Y-119395711D01*
X133529255Y-119336132D01*
X133529253Y-119336131D01*
X133529251Y-119336131D01*
X133350000Y-119315934D01*
X133170748Y-119336131D01*
X133170745Y-119336131D01*
X133170745Y-119336132D01*
X133000478Y-119395711D01*
X133000476Y-119395711D01*
X133000476Y-119395712D01*
X132847735Y-119491685D01*
X132720185Y-119619235D01*
X132670897Y-119697677D01*
X132624211Y-119771978D01*
X132596199Y-119852032D01*
X132564631Y-119942248D01*
X132544434Y-120121499D01*
X129623120Y-120121499D01*
X129774762Y-120026216D01*
X129902316Y-119898662D01*
X129998289Y-119745922D01*
X130057868Y-119575655D01*
X130078065Y-119396400D01*
X130057868Y-119217145D01*
X129998289Y-119046878D01*
X129902316Y-118894138D01*
X129902315Y-118894137D01*
X129902314Y-118894135D01*
X129774764Y-118766585D01*
X129659498Y-118694159D01*
X129622022Y-118670611D01*
X129451755Y-118611032D01*
X129451753Y-118611031D01*
X129451751Y-118611031D01*
X129272500Y-118590834D01*
X129093248Y-118611031D01*
X129093245Y-118611031D01*
X129093245Y-118611032D01*
X128922978Y-118670611D01*
X128922976Y-118670611D01*
X128922976Y-118670612D01*
X128770235Y-118766585D01*
X128642685Y-118894135D01*
X128546712Y-119046876D01*
X128546711Y-119046878D01*
X128494167Y-119197041D01*
X128487131Y-119217148D01*
X128466934Y-119396400D01*
X128487131Y-119575651D01*
X128487131Y-119575653D01*
X128487132Y-119575655D01*
X128546711Y-119745922D01*
X128546712Y-119745923D01*
X128577694Y-119795231D01*
X128596700Y-119861203D01*
X128577694Y-119927175D01*
X128526501Y-119972923D01*
X128458816Y-119984423D01*
X128275200Y-119963734D01*
X128095948Y-119983931D01*
X128095945Y-119983931D01*
X128095945Y-119983932D01*
X127925678Y-120043511D01*
X127925676Y-120043511D01*
X127925676Y-120043512D01*
X127772935Y-120139485D01*
X127645385Y-120267035D01*
X127550218Y-120418493D01*
X127549411Y-120419778D01*
X127500621Y-120559211D01*
X127489831Y-120590048D01*
X127469634Y-120769299D01*
X127489831Y-120948551D01*
X127489831Y-120948553D01*
X127489832Y-120948555D01*
X127549411Y-121118822D01*
X127568426Y-121149084D01*
X127645384Y-121271563D01*
X127693489Y-121319667D01*
X127725584Y-121375254D01*
X127725584Y-121439442D01*
X127693491Y-121495029D01*
X127645385Y-121543135D01*
X127556502Y-121684592D01*
X127549411Y-121695878D01*
X127517434Y-121787264D01*
X127489831Y-121866148D01*
X127469634Y-122045400D01*
X123965311Y-122045400D01*
X124025762Y-122007416D01*
X124153316Y-121879862D01*
X124249289Y-121727122D01*
X124308868Y-121556855D01*
X124329065Y-121377600D01*
X124308868Y-121198345D01*
X124249289Y-121028078D01*
X124153316Y-120875338D01*
X124153315Y-120875337D01*
X124153314Y-120875335D01*
X124025764Y-120747785D01*
X123961261Y-120707255D01*
X123873022Y-120651811D01*
X123702755Y-120592232D01*
X123702753Y-120592231D01*
X123702751Y-120592231D01*
X123523500Y-120572034D01*
X123344248Y-120592231D01*
X123344245Y-120592231D01*
X123344245Y-120592232D01*
X123173978Y-120651811D01*
X123173976Y-120651811D01*
X123173976Y-120651812D01*
X123021235Y-120747785D01*
X122893685Y-120875335D01*
X122797712Y-121028076D01*
X122797711Y-121028078D01*
X122770534Y-121105745D01*
X122738131Y-121198348D01*
X122717934Y-121377600D01*
X112882255Y-121377600D01*
X112818816Y-121276638D01*
X112818815Y-121276637D01*
X112818814Y-121276635D01*
X112691264Y-121149085D01*
X112619094Y-121103738D01*
X112538522Y-121053111D01*
X112368255Y-120993532D01*
X112368253Y-120993531D01*
X112368251Y-120993531D01*
X112189000Y-120973334D01*
X112009748Y-120993531D01*
X112009745Y-120993531D01*
X112009745Y-120993532D01*
X111839478Y-121053111D01*
X111839476Y-121053111D01*
X111839476Y-121053112D01*
X111686735Y-121149085D01*
X111559185Y-121276635D01*
X111463212Y-121429376D01*
X111463211Y-121429378D01*
X111451007Y-121464255D01*
X111403631Y-121599648D01*
X111383434Y-121778899D01*
X104193314Y-121778899D01*
X104185063Y-121684592D01*
X104171647Y-121634522D01*
X104123903Y-121456337D01*
X104024035Y-121242171D01*
X103888495Y-121048599D01*
X103721401Y-120881505D01*
X103535839Y-120751573D01*
X103496974Y-120707255D01*
X103482964Y-120649999D01*
X103496975Y-120592742D01*
X103535837Y-120548428D01*
X103721401Y-120418495D01*
X103888495Y-120251401D01*
X103984565Y-120114199D01*
X115293734Y-120114199D01*
X115313931Y-120293451D01*
X115313931Y-120293453D01*
X115313932Y-120293455D01*
X115373511Y-120463722D01*
X115426733Y-120548424D01*
X115469485Y-120616464D01*
X115597035Y-120744014D01*
X115597037Y-120744015D01*
X115597038Y-120744016D01*
X115749778Y-120839989D01*
X115920045Y-120899568D01*
X116099300Y-120919765D01*
X116278555Y-120899568D01*
X116448822Y-120839989D01*
X116601562Y-120744016D01*
X116729116Y-120616462D01*
X116825089Y-120463722D01*
X116884668Y-120293455D01*
X116904865Y-120114200D01*
X116884668Y-119934945D01*
X116825089Y-119764678D01*
X116782988Y-119697675D01*
X116764178Y-119638657D01*
X116776264Y-119577902D01*
X116816230Y-119530574D01*
X116874099Y-119508485D01*
X116888455Y-119506868D01*
X117058722Y-119447289D01*
X117211462Y-119351316D01*
X117339016Y-119223762D01*
X117434989Y-119071022D01*
X117494568Y-118900755D01*
X117514765Y-118721500D01*
X117494568Y-118542245D01*
X117434989Y-118371978D01*
X117339016Y-118219238D01*
X117339015Y-118219237D01*
X117339014Y-118219235D01*
X117211464Y-118091685D01*
X117099305Y-118021211D01*
X117058722Y-117995711D01*
X116888455Y-117936132D01*
X116888453Y-117936131D01*
X116888451Y-117936131D01*
X116709199Y-117915934D01*
X116529948Y-117936131D01*
X116529945Y-117936131D01*
X116529945Y-117936132D01*
X116359678Y-117995711D01*
X116359676Y-117995711D01*
X116359676Y-117995712D01*
X116206935Y-118091685D01*
X116079385Y-118219235D01*
X115983412Y-118371976D01*
X115983411Y-118371978D01*
X115967950Y-118416164D01*
X115923831Y-118542248D01*
X115903634Y-118721499D01*
X115923831Y-118900751D01*
X115923831Y-118900753D01*
X115923832Y-118900755D01*
X115983411Y-119071022D01*
X116025510Y-119138022D01*
X116044321Y-119197041D01*
X116032236Y-119257795D01*
X115992272Y-119305123D01*
X115934401Y-119327214D01*
X115920049Y-119328831D01*
X115920046Y-119328831D01*
X115920045Y-119328832D01*
X115749778Y-119388411D01*
X115749776Y-119388411D01*
X115749776Y-119388412D01*
X115597035Y-119484385D01*
X115469485Y-119611935D01*
X115373512Y-119764676D01*
X115373511Y-119764678D01*
X115326628Y-119898662D01*
X115313931Y-119934948D01*
X115293734Y-120114199D01*
X103984565Y-120114199D01*
X104024035Y-120057830D01*
X104123903Y-119843663D01*
X104185063Y-119615408D01*
X104205659Y-119380000D01*
X104185063Y-119144592D01*
X104123903Y-118916337D01*
X104024035Y-118702171D01*
X103888495Y-118508599D01*
X103721401Y-118341505D01*
X103535839Y-118211573D01*
X103496974Y-118167255D01*
X103482964Y-118109999D01*
X103496975Y-118052742D01*
X103535837Y-118008428D01*
X103721401Y-117878495D01*
X103888495Y-117711401D01*
X104024035Y-117517830D01*
X104123903Y-117303663D01*
X104126332Y-117294599D01*
X113236434Y-117294599D01*
X113256631Y-117473851D01*
X113256631Y-117473853D01*
X113256632Y-117473855D01*
X113316211Y-117644122D01*
X113316212Y-117644123D01*
X113412185Y-117796864D01*
X113539735Y-117924414D01*
X113539737Y-117924415D01*
X113539738Y-117924416D01*
X113692478Y-118020389D01*
X113862745Y-118079968D01*
X114042000Y-118100165D01*
X114221255Y-118079968D01*
X114391522Y-118020389D01*
X114544262Y-117924416D01*
X114554779Y-117913899D01*
X122569134Y-117913899D01*
X122589331Y-118093151D01*
X122589331Y-118093153D01*
X122589332Y-118093155D01*
X122648911Y-118263422D01*
X122648912Y-118263423D01*
X122744885Y-118416164D01*
X122872435Y-118543714D01*
X122872437Y-118543715D01*
X122872438Y-118543716D01*
X123025178Y-118639689D01*
X123195445Y-118699268D01*
X123374700Y-118719465D01*
X123553955Y-118699268D01*
X123724222Y-118639689D01*
X123876962Y-118543716D01*
X124004516Y-118416162D01*
X124100489Y-118263422D01*
X124160068Y-118093155D01*
X124180265Y-117913900D01*
X124160068Y-117734645D01*
X124100489Y-117564378D01*
X124013792Y-117426400D01*
X124938834Y-117426400D01*
X124959031Y-117605651D01*
X124959031Y-117605653D01*
X124959032Y-117605655D01*
X125018611Y-117775922D01*
X125031770Y-117796864D01*
X125114585Y-117928664D01*
X125242135Y-118056214D01*
X125309713Y-118098676D01*
X125353371Y-118145728D01*
X125367654Y-118208306D01*
X125348735Y-118269641D01*
X125268413Y-118397474D01*
X125268412Y-118397475D01*
X125268411Y-118397478D01*
X125229528Y-118508599D01*
X125208831Y-118567748D01*
X125188634Y-118747000D01*
X125208831Y-118926251D01*
X125208831Y-118926253D01*
X125208832Y-118926255D01*
X125268411Y-119096522D01*
X125325179Y-119186867D01*
X125364385Y-119249264D01*
X125491935Y-119376814D01*
X125491937Y-119376815D01*
X125491938Y-119376816D01*
X125644678Y-119472789D01*
X125814945Y-119532368D01*
X125994200Y-119552565D01*
X126173455Y-119532368D01*
X126343722Y-119472789D01*
X126496462Y-119376816D01*
X126624016Y-119249262D01*
X126719989Y-119096522D01*
X126779568Y-118926255D01*
X126799765Y-118747000D01*
X126779568Y-118567745D01*
X126719989Y-118397478D01*
X126624016Y-118244738D01*
X126624015Y-118244737D01*
X126624014Y-118244735D01*
X126496463Y-118117184D01*
X126428886Y-118074723D01*
X126385228Y-118027670D01*
X126370945Y-117965092D01*
X126389863Y-117903759D01*
X126470189Y-117775922D01*
X126529768Y-117605655D01*
X126549965Y-117426400D01*
X126529768Y-117247145D01*
X126470189Y-117076878D01*
X126374216Y-116924138D01*
X126374215Y-116924137D01*
X126374214Y-116924135D01*
X126246664Y-116796585D01*
X126150741Y-116736313D01*
X126093922Y-116700611D01*
X125923655Y-116641032D01*
X125923653Y-116641031D01*
X125923651Y-116641031D01*
X125744400Y-116620834D01*
X125565148Y-116641031D01*
X125565145Y-116641031D01*
X125565145Y-116641032D01*
X125394878Y-116700611D01*
X125394876Y-116700611D01*
X125394876Y-116700612D01*
X125242135Y-116796585D01*
X125114585Y-116924135D01*
X125018612Y-117076876D01*
X125018611Y-117076878D01*
X124992233Y-117152262D01*
X124959031Y-117247148D01*
X124938834Y-117426400D01*
X124013792Y-117426400D01*
X124004516Y-117411638D01*
X124004515Y-117411637D01*
X124004514Y-117411635D01*
X123876964Y-117284085D01*
X123814567Y-117244878D01*
X123724222Y-117188111D01*
X123553955Y-117128532D01*
X123553953Y-117128531D01*
X123553951Y-117128531D01*
X123374699Y-117108334D01*
X123195448Y-117128531D01*
X123195445Y-117128531D01*
X123195445Y-117128532D01*
X123025178Y-117188111D01*
X123025176Y-117188111D01*
X123025176Y-117188112D01*
X122872435Y-117284085D01*
X122744885Y-117411635D01*
X122678161Y-117517827D01*
X122648911Y-117564378D01*
X122597465Y-117711402D01*
X122589331Y-117734648D01*
X122569134Y-117913899D01*
X114554779Y-117913899D01*
X114671816Y-117796862D01*
X114767789Y-117644122D01*
X114827368Y-117473855D01*
X114847565Y-117294600D01*
X114827368Y-117115345D01*
X114767789Y-116945078D01*
X114671816Y-116792338D01*
X114671815Y-116792337D01*
X114671814Y-116792335D01*
X114544264Y-116664785D01*
X114520734Y-116650000D01*
X118806134Y-116650000D01*
X118826260Y-116828616D01*
X118826332Y-116829255D01*
X118885911Y-116999522D01*
X118885912Y-116999523D01*
X118981885Y-117152264D01*
X119109435Y-117279814D01*
X119109437Y-117279815D01*
X119109438Y-117279816D01*
X119262178Y-117375789D01*
X119432445Y-117435368D01*
X119611700Y-117455565D01*
X119790955Y-117435368D01*
X119961222Y-117375789D01*
X120113962Y-117279816D01*
X120241516Y-117152262D01*
X120337489Y-116999522D01*
X120397068Y-116829255D01*
X120397141Y-116828614D01*
X120417265Y-116650000D01*
X120413979Y-116620834D01*
X120397068Y-116470745D01*
X120337489Y-116300478D01*
X120301851Y-116243760D01*
X120283624Y-116191672D01*
X120289803Y-116136833D01*
X120319164Y-116090106D01*
X120365888Y-116060747D01*
X120390944Y-116051979D01*
X120454950Y-116047184D01*
X120512780Y-116075033D01*
X120548938Y-116128065D01*
X120559210Y-116157421D01*
X120655185Y-116310164D01*
X120782735Y-116437714D01*
X120782737Y-116437715D01*
X120782738Y-116437716D01*
X120935478Y-116533689D01*
X121105745Y-116593268D01*
X121240186Y-116608415D01*
X121284999Y-116613465D01*
X121284999Y-116613464D01*
X121285000Y-116613465D01*
X121464255Y-116593268D01*
X121634522Y-116533689D01*
X121672198Y-116510015D01*
X121733529Y-116491097D01*
X121796108Y-116505379D01*
X121843161Y-116549038D01*
X121938684Y-116701063D01*
X122066235Y-116828614D01*
X122066237Y-116828615D01*
X122066238Y-116828616D01*
X122218978Y-116924589D01*
X122389245Y-116984168D01*
X122523686Y-116999315D01*
X122568499Y-117004365D01*
X122568499Y-117004364D01*
X122568500Y-117004365D01*
X122747755Y-116984168D01*
X122918022Y-116924589D01*
X123070762Y-116828616D01*
X123198316Y-116701062D01*
X123294289Y-116548322D01*
X123353868Y-116378055D01*
X123374065Y-116198800D01*
X123353868Y-116019545D01*
X123294289Y-115849278D01*
X123198316Y-115696538D01*
X123198315Y-115696537D01*
X123198314Y-115696535D01*
X123126078Y-115624299D01*
X124175934Y-115624299D01*
X124196131Y-115803551D01*
X124196131Y-115803553D01*
X124196132Y-115803555D01*
X124255711Y-115973822D01*
X124304821Y-116051980D01*
X124351685Y-116126564D01*
X124479235Y-116254114D01*
X124479237Y-116254115D01*
X124479238Y-116254116D01*
X124631978Y-116350089D01*
X124802245Y-116409668D01*
X124981500Y-116429865D01*
X125160755Y-116409668D01*
X125331022Y-116350089D01*
X125483762Y-116254116D01*
X125611316Y-116126562D01*
X125707289Y-115973822D01*
X125733505Y-115898900D01*
X126168734Y-115898900D01*
X126188931Y-116078151D01*
X126188931Y-116078153D01*
X126188932Y-116078155D01*
X126248511Y-116248422D01*
X126248512Y-116248423D01*
X126344485Y-116401164D01*
X126472035Y-116528714D01*
X126472037Y-116528715D01*
X126472038Y-116528716D01*
X126624778Y-116624689D01*
X126795045Y-116684268D01*
X126974300Y-116704465D01*
X127153555Y-116684268D01*
X127323822Y-116624689D01*
X127476562Y-116528716D01*
X127604116Y-116401162D01*
X127700089Y-116248422D01*
X127759668Y-116078155D01*
X127768474Y-115999999D01*
X131568750Y-115999999D01*
X131587686Y-116168056D01*
X131587686Y-116168058D01*
X131587687Y-116168059D01*
X131643544Y-116327690D01*
X131733523Y-116470890D01*
X131853110Y-116590477D01*
X131996310Y-116680456D01*
X132155941Y-116736313D01*
X132324000Y-116755249D01*
X132492059Y-116736313D01*
X132651690Y-116680456D01*
X132794890Y-116590477D01*
X132914477Y-116470890D01*
X133004456Y-116327690D01*
X133060313Y-116168059D01*
X133079249Y-116000000D01*
X133079249Y-115999999D01*
X133494750Y-115999999D01*
X133513686Y-116168056D01*
X133513686Y-116168058D01*
X133513687Y-116168059D01*
X133569544Y-116327690D01*
X133659523Y-116470890D01*
X133779110Y-116590477D01*
X133922310Y-116680456D01*
X134081941Y-116736313D01*
X134250000Y-116755249D01*
X134418059Y-116736313D01*
X134577690Y-116680456D01*
X134720890Y-116590477D01*
X134840477Y-116470890D01*
X134930456Y-116327690D01*
X134986313Y-116168059D01*
X135005249Y-116000000D01*
X134986313Y-115831941D01*
X134930456Y-115672310D01*
X134840477Y-115529110D01*
X134720890Y-115409523D01*
X134577690Y-115319544D01*
X134418059Y-115263687D01*
X134418058Y-115263686D01*
X134418056Y-115263686D01*
X134249999Y-115244750D01*
X134081943Y-115263686D01*
X133922310Y-115319544D01*
X133779108Y-115409524D01*
X133659524Y-115529108D01*
X133569544Y-115672310D01*
X133513686Y-115831943D01*
X133494750Y-115999999D01*
X133079249Y-115999999D01*
X133060313Y-115831941D01*
X133004456Y-115672310D01*
X132914477Y-115529110D01*
X132794890Y-115409523D01*
X132651690Y-115319544D01*
X132492059Y-115263687D01*
X132492058Y-115263686D01*
X132492056Y-115263686D01*
X132323999Y-115244750D01*
X132155943Y-115263686D01*
X131996310Y-115319544D01*
X131853108Y-115409524D01*
X131733524Y-115529108D01*
X131643544Y-115672310D01*
X131587686Y-115831943D01*
X131568750Y-115999999D01*
X127768474Y-115999999D01*
X127771423Y-115973823D01*
X127781430Y-115885016D01*
X127783187Y-115885214D01*
X127789139Y-115843044D01*
X127826386Y-115793546D01*
X127882929Y-115768243D01*
X127944654Y-115773448D01*
X128090745Y-115824568D01*
X128270000Y-115844765D01*
X128449255Y-115824568D01*
X128619522Y-115764989D01*
X128772262Y-115669016D01*
X128899816Y-115541462D01*
X128995789Y-115388722D01*
X129055368Y-115218455D01*
X129075565Y-115039200D01*
X129055368Y-114859945D01*
X128995789Y-114689678D01*
X128899816Y-114536938D01*
X128899815Y-114536937D01*
X128899814Y-114536935D01*
X128772264Y-114409385D01*
X128709867Y-114370179D01*
X128619522Y-114313411D01*
X128449255Y-114253832D01*
X128449253Y-114253831D01*
X128449251Y-114253831D01*
X128270000Y-114233634D01*
X128090748Y-114253831D01*
X128090745Y-114253831D01*
X128090745Y-114253832D01*
X127920478Y-114313411D01*
X127920476Y-114313411D01*
X127920476Y-114313412D01*
X127767735Y-114409385D01*
X127640185Y-114536935D01*
X127544212Y-114689676D01*
X127544211Y-114689678D01*
X127531719Y-114725378D01*
X127484631Y-114859948D01*
X127462870Y-115053084D01*
X127461112Y-115052886D01*
X127455157Y-115095064D01*
X127417908Y-115144557D01*
X127361367Y-115169856D01*
X127299643Y-115164650D01*
X127153552Y-115113531D01*
X126974300Y-115093334D01*
X126795048Y-115113531D01*
X126795045Y-115113531D01*
X126795045Y-115113532D01*
X126624778Y-115173111D01*
X126624776Y-115173111D01*
X126624776Y-115173112D01*
X126472035Y-115269085D01*
X126344485Y-115396635D01*
X126248512Y-115549376D01*
X126248511Y-115549378D01*
X126193308Y-115707139D01*
X126188931Y-115719648D01*
X126168734Y-115898900D01*
X125733505Y-115898900D01*
X125766868Y-115803555D01*
X125787065Y-115624300D01*
X125766868Y-115445045D01*
X125707289Y-115274778D01*
X125611316Y-115122038D01*
X125611315Y-115122037D01*
X125611314Y-115122035D01*
X125483764Y-114994485D01*
X125408152Y-114946975D01*
X125331022Y-114898511D01*
X125160755Y-114838932D01*
X125160753Y-114838931D01*
X125160751Y-114838931D01*
X124981500Y-114818734D01*
X124802248Y-114838931D01*
X124802245Y-114838931D01*
X124802245Y-114838932D01*
X124631978Y-114898511D01*
X124631976Y-114898511D01*
X124631976Y-114898512D01*
X124479235Y-114994485D01*
X124351685Y-115122035D01*
X124255712Y-115274776D01*
X124255711Y-115274778D01*
X124213070Y-115396638D01*
X124196131Y-115445048D01*
X124175934Y-115624299D01*
X123126078Y-115624299D01*
X123070764Y-115568985D01*
X122963074Y-115501319D01*
X122918022Y-115473011D01*
X122747755Y-115413432D01*
X122747753Y-115413431D01*
X122747751Y-115413431D01*
X122568500Y-115393234D01*
X122389248Y-115413431D01*
X122389245Y-115413431D01*
X122389245Y-115413432D01*
X122218978Y-115473011D01*
X122218977Y-115473011D01*
X122218973Y-115473013D01*
X122181303Y-115496683D01*
X122119968Y-115515602D01*
X122057390Y-115501319D01*
X122010338Y-115457661D01*
X121995542Y-115434114D01*
X121914816Y-115305638D01*
X121914815Y-115305637D01*
X121914814Y-115305635D01*
X121787264Y-115178085D01*
X121698065Y-115122038D01*
X121634522Y-115082111D01*
X121464255Y-115022532D01*
X121464253Y-115022531D01*
X121464251Y-115022531D01*
X121285000Y-115002334D01*
X121105747Y-115022531D01*
X121042650Y-115044609D01*
X121018433Y-115053084D01*
X121007756Y-115056820D01*
X120943749Y-115061616D01*
X120885918Y-115033766D01*
X120849760Y-114980732D01*
X120848745Y-114977830D01*
X120839489Y-114951378D01*
X120743516Y-114798638D01*
X120743515Y-114798637D01*
X120743514Y-114798635D01*
X120615964Y-114671085D01*
X120542691Y-114625045D01*
X120463222Y-114575111D01*
X120292955Y-114515532D01*
X120292953Y-114515531D01*
X120292951Y-114515531D01*
X120113700Y-114495334D01*
X119934448Y-114515531D01*
X119934445Y-114515531D01*
X119934445Y-114515532D01*
X119764178Y-114575111D01*
X119764176Y-114575111D01*
X119764176Y-114575112D01*
X119611435Y-114671085D01*
X119483885Y-114798635D01*
X119387912Y-114951376D01*
X119387911Y-114951378D01*
X119338238Y-115093335D01*
X119328331Y-115121648D01*
X119308134Y-115300899D01*
X119328331Y-115480151D01*
X119328331Y-115480153D01*
X119328332Y-115480155D01*
X119387911Y-115650422D01*
X119416779Y-115696365D01*
X119423549Y-115707139D01*
X119441775Y-115759227D01*
X119435597Y-115814065D01*
X119406237Y-115860792D01*
X119359510Y-115890152D01*
X119262180Y-115924209D01*
X119109435Y-116020185D01*
X118981885Y-116147735D01*
X118921549Y-116243760D01*
X118885911Y-116300478D01*
X118840637Y-116429865D01*
X118826331Y-116470748D01*
X118806134Y-116650000D01*
X114520734Y-116650000D01*
X114426000Y-116590475D01*
X114391522Y-116568811D01*
X114221255Y-116509232D01*
X114221253Y-116509231D01*
X114221251Y-116509231D01*
X114041999Y-116489034D01*
X113862748Y-116509231D01*
X113862745Y-116509231D01*
X113862745Y-116509232D01*
X113692478Y-116568811D01*
X113692476Y-116568811D01*
X113692476Y-116568812D01*
X113539735Y-116664785D01*
X113412185Y-116792335D01*
X113316212Y-116945076D01*
X113256631Y-117115348D01*
X113236434Y-117294599D01*
X104126332Y-117294599D01*
X104185063Y-117075408D01*
X104205659Y-116840000D01*
X104204718Y-116829250D01*
X104185063Y-116604592D01*
X104175476Y-116568811D01*
X104123903Y-116376337D01*
X104024035Y-116162171D01*
X103888495Y-115968599D01*
X103721401Y-115801505D01*
X103535839Y-115671573D01*
X103496975Y-115627257D01*
X103482964Y-115570000D01*
X103496975Y-115512743D01*
X103535839Y-115468426D01*
X103721401Y-115338495D01*
X103888495Y-115171401D01*
X103973922Y-115049399D01*
X112615734Y-115049399D01*
X112635931Y-115228651D01*
X112635931Y-115228653D01*
X112635932Y-115228655D01*
X112695511Y-115398922D01*
X112717624Y-115434114D01*
X112791485Y-115551664D01*
X112919035Y-115679214D01*
X112919037Y-115679215D01*
X112919038Y-115679216D01*
X113071778Y-115775189D01*
X113242045Y-115834768D01*
X113421300Y-115854965D01*
X113600555Y-115834768D01*
X113770822Y-115775189D01*
X113923562Y-115679216D01*
X114051116Y-115551662D01*
X114147089Y-115398922D01*
X114191916Y-115270811D01*
X114231644Y-115214821D01*
X114295073Y-115188548D01*
X114362759Y-115200048D01*
X114413949Y-115245795D01*
X114452134Y-115306564D01*
X114506485Y-115393064D01*
X114634035Y-115520614D01*
X114634037Y-115520615D01*
X114634038Y-115520616D01*
X114786778Y-115616589D01*
X114957045Y-115676168D01*
X115136300Y-115696365D01*
X115315555Y-115676168D01*
X115485822Y-115616589D01*
X115559866Y-115570063D01*
X115611953Y-115551838D01*
X115666792Y-115558017D01*
X115757244Y-115589668D01*
X115936499Y-115609865D01*
X115936499Y-115609864D01*
X115936500Y-115609865D01*
X116115755Y-115589668D01*
X116286022Y-115530089D01*
X116438762Y-115434116D01*
X116566316Y-115306562D01*
X116662289Y-115153822D01*
X116721868Y-114983555D01*
X116742065Y-114804300D01*
X116721868Y-114625045D01*
X116662289Y-114454778D01*
X116566316Y-114302038D01*
X116566315Y-114302037D01*
X116566314Y-114302035D01*
X116438764Y-114174485D01*
X116296723Y-114085235D01*
X116286022Y-114078511D01*
X116115755Y-114018932D01*
X116115753Y-114018931D01*
X116115751Y-114018931D01*
X115936500Y-113998734D01*
X115757248Y-114018931D01*
X115757245Y-114018931D01*
X115757245Y-114018932D01*
X115586978Y-114078511D01*
X115586975Y-114078512D01*
X115586974Y-114078513D01*
X115512934Y-114125035D01*
X115460847Y-114143261D01*
X115406009Y-114137083D01*
X115371577Y-114125035D01*
X115315555Y-114105432D01*
X115315554Y-114105431D01*
X115315552Y-114105431D01*
X115136300Y-114085234D01*
X114957048Y-114105431D01*
X114957045Y-114105431D01*
X114957045Y-114105432D01*
X114786778Y-114165011D01*
X114786776Y-114165011D01*
X114786776Y-114165012D01*
X114634035Y-114260985D01*
X114506485Y-114388535D01*
X114410509Y-114541280D01*
X114365683Y-114669386D01*
X114325954Y-114725378D01*
X114262525Y-114751651D01*
X114194840Y-114740151D01*
X114143648Y-114694402D01*
X114140678Y-114689676D01*
X114100068Y-114625045D01*
X114051116Y-114547137D01*
X113923564Y-114419585D01*
X113849691Y-114373168D01*
X113770822Y-114323611D01*
X113600555Y-114264032D01*
X113600553Y-114264031D01*
X113600551Y-114264031D01*
X113421299Y-114243834D01*
X113242048Y-114264031D01*
X113242045Y-114264031D01*
X113242045Y-114264032D01*
X113071778Y-114323611D01*
X113071776Y-114323611D01*
X113071776Y-114323612D01*
X112919035Y-114419585D01*
X112791485Y-114547135D01*
X112701921Y-114689676D01*
X112695511Y-114699878D01*
X112653921Y-114818735D01*
X112635931Y-114870148D01*
X112615734Y-115049399D01*
X103973922Y-115049399D01*
X104024035Y-114977830D01*
X104123903Y-114763663D01*
X104185063Y-114535408D01*
X104205659Y-114300000D01*
X104185063Y-114064592D01*
X104123903Y-113836337D01*
X104024035Y-113622171D01*
X103888495Y-113428599D01*
X103721401Y-113261505D01*
X103535839Y-113131573D01*
X103496975Y-113087257D01*
X103482964Y-113030000D01*
X103496975Y-112972743D01*
X103535839Y-112928426D01*
X103721401Y-112798495D01*
X103888495Y-112631401D01*
X104024035Y-112437830D01*
X104123903Y-112223663D01*
X104185063Y-111995408D01*
X104205659Y-111760000D01*
X104205464Y-111757776D01*
X104185063Y-111524592D01*
X104172441Y-111477485D01*
X104123903Y-111296337D01*
X104024035Y-111082171D01*
X103888495Y-110888599D01*
X103721401Y-110721505D01*
X103535839Y-110591573D01*
X103496975Y-110547257D01*
X103482964Y-110490000D01*
X103492385Y-110451499D01*
X116575534Y-110451499D01*
X116595731Y-110630751D01*
X116595731Y-110630753D01*
X116595732Y-110630755D01*
X116655311Y-110801022D01*
X116655312Y-110801023D01*
X116751285Y-110953764D01*
X116878835Y-111081314D01*
X116878837Y-111081315D01*
X116878838Y-111081316D01*
X117031578Y-111177289D01*
X117201845Y-111236868D01*
X117381100Y-111257065D01*
X117560355Y-111236868D01*
X117730622Y-111177289D01*
X117883362Y-111081316D01*
X118010916Y-110953762D01*
X118106889Y-110801022D01*
X118166468Y-110630755D01*
X118186665Y-110451500D01*
X118166468Y-110272245D01*
X118158684Y-110249999D01*
X121194434Y-110249999D01*
X121214631Y-110429251D01*
X121214631Y-110429253D01*
X121214632Y-110429255D01*
X121274211Y-110599522D01*
X121293834Y-110630751D01*
X121370185Y-110752264D01*
X121439015Y-110821094D01*
X121472225Y-110881182D01*
X121468376Y-110949728D01*
X121425331Y-111072745D01*
X121405134Y-111251999D01*
X121425331Y-111431251D01*
X121425331Y-111431253D01*
X121425332Y-111431255D01*
X121484911Y-111601522D01*
X121529753Y-111672888D01*
X121580885Y-111754264D01*
X121708435Y-111881814D01*
X121708437Y-111881815D01*
X121708438Y-111881816D01*
X121861178Y-111977789D01*
X122031445Y-112037368D01*
X122210700Y-112057565D01*
X122403838Y-112035804D01*
X122404012Y-112037353D01*
X122445489Y-112033617D01*
X122501212Y-112057431D01*
X122538996Y-112104807D01*
X122549818Y-112164431D01*
X122531093Y-112222063D01*
X122467813Y-112322773D01*
X122467811Y-112322777D01*
X122467811Y-112322778D01*
X122459095Y-112347687D01*
X122408231Y-112493048D01*
X122388034Y-112672300D01*
X122408231Y-112851551D01*
X122408231Y-112851553D01*
X122408232Y-112851555D01*
X122467811Y-113021822D01*
X122508927Y-113087257D01*
X122563785Y-113174564D01*
X122691335Y-113302114D01*
X122691337Y-113302115D01*
X122691338Y-113302116D01*
X122844078Y-113398089D01*
X123014345Y-113457668D01*
X123193600Y-113477865D01*
X123372855Y-113457668D01*
X123543122Y-113398089D01*
X123695862Y-113302116D01*
X123695861Y-113302116D01*
X123707692Y-113294683D01*
X123709327Y-113297286D01*
X123739873Y-113279026D01*
X123800414Y-113276296D01*
X123855019Y-113302584D01*
X123890644Y-113351609D01*
X123898780Y-113411664D01*
X123878934Y-113587799D01*
X123899131Y-113767051D01*
X123899131Y-113767053D01*
X123899132Y-113767055D01*
X123958711Y-113937322D01*
X124009989Y-114018931D01*
X124054685Y-114090064D01*
X124182235Y-114217614D01*
X124182237Y-114217615D01*
X124182238Y-114217616D01*
X124334978Y-114313589D01*
X124505245Y-114373168D01*
X124639686Y-114388315D01*
X124684499Y-114393365D01*
X124684499Y-114393364D01*
X124684500Y-114393365D01*
X124863755Y-114373168D01*
X125034022Y-114313589D01*
X125186762Y-114217616D01*
X125314316Y-114090062D01*
X125410289Y-113937322D01*
X125469868Y-113767055D01*
X125490065Y-113587800D01*
X125469868Y-113408545D01*
X125410289Y-113238278D01*
X125314316Y-113085538D01*
X125314315Y-113085537D01*
X125314314Y-113085535D01*
X125312778Y-113083999D01*
X136913750Y-113083999D01*
X136932686Y-113252056D01*
X136932686Y-113252058D01*
X136932687Y-113252059D01*
X136988544Y-113411690D01*
X137078523Y-113554890D01*
X137198110Y-113674477D01*
X137341310Y-113764456D01*
X137500941Y-113820313D01*
X137669000Y-113839249D01*
X137837059Y-113820313D01*
X137996690Y-113764456D01*
X138139890Y-113674477D01*
X138259477Y-113554890D01*
X138349456Y-113411690D01*
X138405313Y-113252059D01*
X138424249Y-113084000D01*
X138405313Y-112915941D01*
X138349456Y-112756310D01*
X138259477Y-112613110D01*
X138139890Y-112493523D01*
X137996690Y-112403544D01*
X137837059Y-112347687D01*
X137837058Y-112347686D01*
X137837056Y-112347686D01*
X137668999Y-112328750D01*
X137500943Y-112347686D01*
X137341310Y-112403544D01*
X137198108Y-112493524D01*
X137078524Y-112613108D01*
X136988544Y-112756310D01*
X136932686Y-112915943D01*
X136913750Y-113083999D01*
X125312778Y-113083999D01*
X125186764Y-112957985D01*
X125119851Y-112915941D01*
X125034022Y-112862011D01*
X124863755Y-112802432D01*
X124863753Y-112802431D01*
X124863751Y-112802431D01*
X124684499Y-112782234D01*
X124506684Y-112802269D01*
X124438999Y-112790769D01*
X124387807Y-112745021D01*
X124368801Y-112679049D01*
X124387807Y-112613077D01*
X124390016Y-112609562D01*
X124485989Y-112456822D01*
X124545568Y-112286555D01*
X124565765Y-112107300D01*
X124545568Y-111928045D01*
X124485989Y-111757778D01*
X124390016Y-111605038D01*
X124390015Y-111605037D01*
X124390014Y-111605035D01*
X124262464Y-111477485D01*
X124181054Y-111426332D01*
X124109722Y-111381511D01*
X123939455Y-111321932D01*
X123939453Y-111321931D01*
X123939451Y-111321931D01*
X123760200Y-111301734D01*
X123580948Y-111321931D01*
X123580945Y-111321931D01*
X123580945Y-111321932D01*
X123410678Y-111381511D01*
X123410676Y-111381511D01*
X123410676Y-111381512D01*
X123257938Y-111477483D01*
X123207523Y-111527898D01*
X123155503Y-111558977D01*
X123094968Y-111561696D01*
X123040373Y-111535403D01*
X123004755Y-111486380D01*
X122996622Y-111426334D01*
X123016265Y-111252000D01*
X122996068Y-111072745D01*
X122970613Y-110999999D01*
X125744750Y-110999999D01*
X125763686Y-111168056D01*
X125763686Y-111168058D01*
X125763687Y-111168059D01*
X125819544Y-111327690D01*
X125909523Y-111470890D01*
X126029110Y-111590477D01*
X126172310Y-111680456D01*
X126331941Y-111736313D01*
X126500000Y-111755249D01*
X126668059Y-111736313D01*
X126827690Y-111680456D01*
X126970890Y-111590477D01*
X127090477Y-111470890D01*
X127180456Y-111327690D01*
X127236313Y-111168059D01*
X127255249Y-111000000D01*
X129094540Y-111000000D01*
X129114326Y-111188257D01*
X129172820Y-111368284D01*
X129267466Y-111532216D01*
X129394129Y-111672889D01*
X129547269Y-111784151D01*
X129720197Y-111861144D01*
X129905352Y-111900500D01*
X129905354Y-111900500D01*
X130094646Y-111900500D01*
X130094648Y-111900500D01*
X130218084Y-111874262D01*
X130279803Y-111861144D01*
X130452730Y-111784151D01*
X130485973Y-111759999D01*
X130605870Y-111672889D01*
X130670129Y-111601523D01*
X130732533Y-111532216D01*
X130827179Y-111368284D01*
X130882069Y-111199348D01*
X130915116Y-111147276D01*
X130969162Y-111117564D01*
X131030838Y-111117564D01*
X131084884Y-111147276D01*
X131117931Y-111199350D01*
X131172820Y-111368284D01*
X131267466Y-111532216D01*
X131394129Y-111672889D01*
X131547269Y-111784151D01*
X131720197Y-111861144D01*
X131905352Y-111900500D01*
X131905354Y-111900500D01*
X132094646Y-111900500D01*
X132094648Y-111900500D01*
X132218084Y-111874262D01*
X132279803Y-111861144D01*
X132452730Y-111784151D01*
X132485973Y-111759999D01*
X132605870Y-111672889D01*
X132670129Y-111601523D01*
X132732533Y-111532216D01*
X132827179Y-111368284D01*
X132882069Y-111199348D01*
X132915116Y-111147276D01*
X132969162Y-111117564D01*
X133030838Y-111117564D01*
X133084884Y-111147276D01*
X133117931Y-111199350D01*
X133172820Y-111368284D01*
X133267466Y-111532216D01*
X133394129Y-111672889D01*
X133547269Y-111784151D01*
X133720197Y-111861144D01*
X133905352Y-111900500D01*
X133905354Y-111900500D01*
X134094646Y-111900500D01*
X134094648Y-111900500D01*
X134218084Y-111874262D01*
X134279803Y-111861144D01*
X134452730Y-111784151D01*
X134485973Y-111759999D01*
X134605870Y-111672889D01*
X134670129Y-111601523D01*
X134732533Y-111532216D01*
X134827179Y-111368284D01*
X134885674Y-111188256D01*
X134905460Y-111000000D01*
X134885674Y-110811744D01*
X134827179Y-110631716D01*
X134827179Y-110631715D01*
X134732533Y-110467783D01*
X134605870Y-110327110D01*
X134452730Y-110215848D01*
X134279803Y-110138855D01*
X134197162Y-110121289D01*
X134138059Y-110090390D01*
X134103512Y-110033344D01*
X134103512Y-109966652D01*
X134138061Y-109909606D01*
X134197161Y-109878709D01*
X134279803Y-109861144D01*
X134279804Y-109861143D01*
X134279806Y-109861143D01*
X134452730Y-109784151D01*
X134605870Y-109672889D01*
X134630141Y-109645934D01*
X134732533Y-109532216D01*
X134827179Y-109368284D01*
X134885674Y-109188256D01*
X134905460Y-109000000D01*
X134885674Y-108811744D01*
X134851612Y-108706912D01*
X134827179Y-108631715D01*
X134732533Y-108467783D01*
X134605870Y-108327110D01*
X134452730Y-108215848D01*
X134279802Y-108138855D01*
X134094648Y-108099500D01*
X134094646Y-108099500D01*
X133905354Y-108099500D01*
X133905352Y-108099500D01*
X133720197Y-108138855D01*
X133547269Y-108215848D01*
X133394129Y-108327110D01*
X133267466Y-108467783D01*
X133172820Y-108631715D01*
X133117931Y-108800649D01*
X133084884Y-108852723D01*
X133030838Y-108882435D01*
X132969162Y-108882435D01*
X132915116Y-108852723D01*
X132882069Y-108800649D01*
X132827179Y-108631715D01*
X132732533Y-108467783D01*
X132605870Y-108327110D01*
X132452730Y-108215848D01*
X132279802Y-108138855D01*
X132094648Y-108099500D01*
X132094646Y-108099500D01*
X131905354Y-108099500D01*
X131905352Y-108099500D01*
X131720197Y-108138855D01*
X131547269Y-108215848D01*
X131394129Y-108327110D01*
X131267466Y-108467783D01*
X131172820Y-108631715D01*
X131117931Y-108800649D01*
X131084884Y-108852723D01*
X131030838Y-108882435D01*
X130969162Y-108882435D01*
X130915116Y-108852723D01*
X130882069Y-108800649D01*
X130827179Y-108631715D01*
X130732533Y-108467783D01*
X130605870Y-108327110D01*
X130452730Y-108215848D01*
X130279802Y-108138855D01*
X130094648Y-108099500D01*
X130094646Y-108099500D01*
X129905354Y-108099500D01*
X129905352Y-108099500D01*
X129720197Y-108138855D01*
X129547269Y-108215848D01*
X129394129Y-108327110D01*
X129267466Y-108467783D01*
X129172820Y-108631715D01*
X129114326Y-108811742D01*
X129094540Y-109000000D01*
X129114326Y-109188257D01*
X129172820Y-109368284D01*
X129267466Y-109532216D01*
X129394129Y-109672889D01*
X129547269Y-109784151D01*
X129640479Y-109825651D01*
X129720197Y-109861144D01*
X129802838Y-109878709D01*
X129861938Y-109909606D01*
X129896487Y-109966652D01*
X129896487Y-110033344D01*
X129861940Y-110090390D01*
X129802837Y-110121289D01*
X129720196Y-110138855D01*
X129547269Y-110215848D01*
X129394129Y-110327110D01*
X129267466Y-110467783D01*
X129172820Y-110631715D01*
X129114326Y-110811742D01*
X129094540Y-111000000D01*
X127255249Y-111000000D01*
X127236313Y-110831941D01*
X127180456Y-110672310D01*
X127090477Y-110529110D01*
X126970890Y-110409523D01*
X126827690Y-110319544D01*
X126668059Y-110263687D01*
X126668058Y-110263686D01*
X126668056Y-110263686D01*
X126500000Y-110244750D01*
X126331943Y-110263686D01*
X126172310Y-110319544D01*
X126029108Y-110409524D01*
X125909524Y-110529108D01*
X125819544Y-110672310D01*
X125763686Y-110831943D01*
X125744750Y-110999999D01*
X122970613Y-110999999D01*
X122936489Y-110902478D01*
X122840516Y-110749738D01*
X122840515Y-110749737D01*
X122840514Y-110749735D01*
X122771684Y-110680905D01*
X122738474Y-110620817D01*
X122742323Y-110552270D01*
X122764112Y-110490000D01*
X122785368Y-110429255D01*
X122805565Y-110250000D01*
X122804973Y-110244750D01*
X122788404Y-110097689D01*
X122785368Y-110070745D01*
X122725789Y-109900478D01*
X122629816Y-109747738D01*
X122629815Y-109747737D01*
X122629814Y-109747735D01*
X122502264Y-109620185D01*
X122392403Y-109551155D01*
X122349522Y-109524211D01*
X122179255Y-109464632D01*
X122179253Y-109464631D01*
X122179251Y-109464631D01*
X121999999Y-109444434D01*
X121820748Y-109464631D01*
X121820745Y-109464631D01*
X121820745Y-109464632D01*
X121650478Y-109524211D01*
X121650476Y-109524211D01*
X121650476Y-109524212D01*
X121497735Y-109620185D01*
X121370185Y-109747735D01*
X121275875Y-109897830D01*
X121274211Y-109900478D01*
X121214632Y-110070745D01*
X121214631Y-110070748D01*
X121194434Y-110249999D01*
X118158684Y-110249999D01*
X118106889Y-110101978D01*
X118010916Y-109949238D01*
X118010915Y-109949237D01*
X118010914Y-109949235D01*
X117883364Y-109821685D01*
X117820559Y-109782222D01*
X117730622Y-109725711D01*
X117560355Y-109666132D01*
X117560353Y-109666131D01*
X117560351Y-109666131D01*
X117381099Y-109645934D01*
X117201848Y-109666131D01*
X117201845Y-109666131D01*
X117201845Y-109666132D01*
X117031578Y-109725711D01*
X117031576Y-109725711D01*
X117031576Y-109725712D01*
X116878835Y-109821685D01*
X116751285Y-109949235D01*
X116655312Y-110101976D01*
X116595731Y-110272248D01*
X116575534Y-110451499D01*
X103492385Y-110451499D01*
X103496975Y-110432743D01*
X103535839Y-110388426D01*
X103721401Y-110258495D01*
X103888495Y-110091401D01*
X104024035Y-109897830D01*
X104123903Y-109683663D01*
X104185063Y-109455408D01*
X104187050Y-109432699D01*
X118831734Y-109432699D01*
X118851931Y-109611951D01*
X118851931Y-109611953D01*
X118851932Y-109611955D01*
X118911511Y-109782222D01*
X118911512Y-109782223D01*
X119007485Y-109934964D01*
X119135035Y-110062514D01*
X119135037Y-110062515D01*
X119135038Y-110062516D01*
X119287778Y-110158489D01*
X119458045Y-110218068D01*
X119637300Y-110238265D01*
X119816555Y-110218068D01*
X119986822Y-110158489D01*
X120139562Y-110062516D01*
X120267116Y-109934962D01*
X120363089Y-109782222D01*
X120422668Y-109611955D01*
X120442865Y-109432700D01*
X120422668Y-109253445D01*
X120363089Y-109083178D01*
X120267116Y-108930438D01*
X120267115Y-108930437D01*
X120267114Y-108930435D01*
X120139564Y-108802885D01*
X120042799Y-108742084D01*
X119986822Y-108706911D01*
X119816555Y-108647332D01*
X119816553Y-108647331D01*
X119816551Y-108647331D01*
X119637299Y-108627134D01*
X119458048Y-108647331D01*
X119458045Y-108647331D01*
X119458045Y-108647332D01*
X119287778Y-108706911D01*
X119287776Y-108706911D01*
X119287776Y-108706912D01*
X119135035Y-108802885D01*
X119007485Y-108930435D01*
X118911512Y-109083176D01*
X118851931Y-109253448D01*
X118831734Y-109432699D01*
X104187050Y-109432699D01*
X104205659Y-109220000D01*
X104185063Y-108984592D01*
X104123903Y-108756337D01*
X104024035Y-108542171D01*
X103888495Y-108348599D01*
X103721401Y-108181505D01*
X103535839Y-108051573D01*
X103517708Y-108030899D01*
X122150634Y-108030899D01*
X122170831Y-108210151D01*
X122170831Y-108210153D01*
X122170832Y-108210155D01*
X122230411Y-108380422D01*
X122271777Y-108446255D01*
X122326385Y-108533164D01*
X122453935Y-108660714D01*
X122453937Y-108660715D01*
X122453938Y-108660716D01*
X122606678Y-108756689D01*
X122776945Y-108816268D01*
X122956200Y-108836465D01*
X123135455Y-108816268D01*
X123305722Y-108756689D01*
X123458462Y-108660716D01*
X123586016Y-108533162D01*
X123681989Y-108380422D01*
X123741568Y-108210155D01*
X123761765Y-108030900D01*
X123741568Y-107851645D01*
X123681989Y-107681378D01*
X123586016Y-107528638D01*
X123586015Y-107528637D01*
X123586014Y-107528635D01*
X123458464Y-107401085D01*
X123389619Y-107357827D01*
X123305722Y-107305111D01*
X123135455Y-107245532D01*
X123135453Y-107245531D01*
X123135451Y-107245531D01*
X122956199Y-107225334D01*
X122776948Y-107245531D01*
X122776945Y-107245531D01*
X122776945Y-107245532D01*
X122606678Y-107305111D01*
X122606676Y-107305111D01*
X122606676Y-107305112D01*
X122453935Y-107401085D01*
X122326385Y-107528635D01*
X122265505Y-107625526D01*
X122230411Y-107681378D01*
X122174741Y-107840475D01*
X122170831Y-107851648D01*
X122150634Y-108030899D01*
X103517708Y-108030899D01*
X103496975Y-108007257D01*
X103482964Y-107950000D01*
X103496975Y-107892743D01*
X103535839Y-107848426D01*
X103721401Y-107718495D01*
X103888495Y-107551401D01*
X104024035Y-107357830D01*
X104123903Y-107143663D01*
X104185063Y-106915408D01*
X104205659Y-106680000D01*
X104185063Y-106444592D01*
X104123903Y-106216337D01*
X104058416Y-106075900D01*
X116283034Y-106075900D01*
X116303231Y-106255151D01*
X116303231Y-106255153D01*
X116303232Y-106255155D01*
X116362811Y-106425422D01*
X116415144Y-106508710D01*
X116458785Y-106578164D01*
X116586335Y-106705714D01*
X116586337Y-106705715D01*
X116586338Y-106705716D01*
X116739078Y-106801689D01*
X116909345Y-106861268D01*
X117088600Y-106881465D01*
X117267855Y-106861268D01*
X117438122Y-106801689D01*
X117590862Y-106705716D01*
X117718416Y-106578162D01*
X117814389Y-106425422D01*
X117873968Y-106255155D01*
X117888374Y-106127299D01*
X122251934Y-106127299D01*
X122272131Y-106306551D01*
X122272131Y-106306553D01*
X122272132Y-106306555D01*
X122331711Y-106476822D01*
X122357145Y-106517300D01*
X122427685Y-106629564D01*
X122555235Y-106757114D01*
X122555237Y-106757115D01*
X122555238Y-106757116D01*
X122707978Y-106853089D01*
X122878245Y-106912668D01*
X123057500Y-106932865D01*
X123236755Y-106912668D01*
X123407022Y-106853089D01*
X123473404Y-106811378D01*
X123525494Y-106793151D01*
X123580333Y-106799330D01*
X123627060Y-106828692D01*
X123644262Y-106856070D01*
X123645978Y-106854992D01*
X123653410Y-106866821D01*
X123653411Y-106866822D01*
X123694909Y-106932865D01*
X123749385Y-107019564D01*
X123876935Y-107147114D01*
X123876937Y-107147115D01*
X123876938Y-107147116D01*
X124029678Y-107243089D01*
X124199945Y-107302668D01*
X124379200Y-107322865D01*
X124558455Y-107302668D01*
X124728722Y-107243089D01*
X124881462Y-107147116D01*
X125009016Y-107019562D01*
X125015025Y-107009999D01*
X135994750Y-107009999D01*
X136013686Y-107178056D01*
X136013686Y-107178058D01*
X136013687Y-107178059D01*
X136069544Y-107337690D01*
X136159523Y-107480890D01*
X136279110Y-107600477D01*
X136422310Y-107690456D01*
X136581941Y-107746313D01*
X136680934Y-107757467D01*
X136749999Y-107765249D01*
X136749999Y-107765248D01*
X136750000Y-107765249D01*
X136873896Y-107751289D01*
X136928734Y-107757467D01*
X136975461Y-107786828D01*
X137029110Y-107840477D01*
X137172310Y-107930456D01*
X137331941Y-107986313D01*
X137500000Y-108005249D01*
X137668059Y-107986313D01*
X137827690Y-107930456D01*
X137970890Y-107840477D01*
X138090477Y-107720890D01*
X138180456Y-107577690D01*
X138236313Y-107418059D01*
X138255249Y-107250000D01*
X138252286Y-107223704D01*
X138260077Y-107164519D01*
X138294621Y-107115832D01*
X138347912Y-107088928D01*
X138407598Y-107090044D01*
X138459846Y-107118920D01*
X138492547Y-107168863D01*
X138501211Y-107193622D01*
X138521137Y-107225334D01*
X138580847Y-107320362D01*
X138599853Y-107386330D01*
X138580851Y-107452299D01*
X138578992Y-107455256D01*
X138519412Y-107625525D01*
X138499215Y-107804781D01*
X138519412Y-107984032D01*
X138519412Y-107984034D01*
X138519413Y-107984036D01*
X138578992Y-108154303D01*
X138578993Y-108154304D01*
X138674966Y-108307045D01*
X138802516Y-108434595D01*
X138802518Y-108434596D01*
X138802519Y-108434597D01*
X138955259Y-108530570D01*
X139125526Y-108590149D01*
X139259967Y-108605296D01*
X139304780Y-108610346D01*
X139304780Y-108610345D01*
X139304781Y-108610346D01*
X139413058Y-108598146D01*
X139480743Y-108609646D01*
X139531936Y-108655394D01*
X139603485Y-108769264D01*
X139731035Y-108896814D01*
X139731037Y-108896815D01*
X139731038Y-108896816D01*
X139883778Y-108992789D01*
X140054045Y-109052368D01*
X140233300Y-109072565D01*
X140412555Y-109052368D01*
X140516229Y-109016091D01*
X140584776Y-109012241D01*
X140644865Y-109045450D01*
X140678075Y-109105538D01*
X140674226Y-109174085D01*
X140667731Y-109192645D01*
X140647534Y-109371899D01*
X140667731Y-109551151D01*
X140667731Y-109551153D01*
X140667732Y-109551155D01*
X140727311Y-109721422D01*
X140765514Y-109782222D01*
X140823285Y-109874164D01*
X140950835Y-110001714D01*
X140950837Y-110001715D01*
X140950838Y-110001716D01*
X141103578Y-110097689D01*
X141273845Y-110157268D01*
X141453100Y-110177465D01*
X141632355Y-110157268D01*
X141802622Y-110097689D01*
X141955362Y-110001716D01*
X142082916Y-109874162D01*
X142178889Y-109721422D01*
X142205140Y-109646400D01*
X143286434Y-109646400D01*
X143306631Y-109825651D01*
X143306631Y-109825653D01*
X143306632Y-109825655D01*
X143366211Y-109995922D01*
X143413227Y-110070748D01*
X143462185Y-110148664D01*
X143589735Y-110276214D01*
X143589737Y-110276215D01*
X143589738Y-110276216D01*
X143742478Y-110372189D01*
X143912745Y-110431768D01*
X144047186Y-110446915D01*
X144091999Y-110451965D01*
X144091999Y-110451964D01*
X144092000Y-110451965D01*
X144271255Y-110431768D01*
X144441522Y-110372189D01*
X144594262Y-110276216D01*
X144721816Y-110148662D01*
X144817789Y-109995922D01*
X144877368Y-109825655D01*
X144897565Y-109646400D01*
X144877368Y-109467145D01*
X144817789Y-109296878D01*
X144721816Y-109144138D01*
X144721815Y-109144137D01*
X144721814Y-109144135D01*
X144594264Y-109016585D01*
X144531867Y-108977379D01*
X144441522Y-108920611D01*
X144271255Y-108861032D01*
X144271253Y-108861031D01*
X144271251Y-108861031D01*
X144092000Y-108840834D01*
X143912748Y-108861031D01*
X143912745Y-108861031D01*
X143912745Y-108861032D01*
X143742478Y-108920611D01*
X143742476Y-108920611D01*
X143742476Y-108920612D01*
X143589735Y-109016585D01*
X143462185Y-109144135D01*
X143366212Y-109296876D01*
X143306631Y-109467148D01*
X143286434Y-109646400D01*
X142205140Y-109646400D01*
X142238468Y-109551155D01*
X142258665Y-109371900D01*
X142238468Y-109192645D01*
X142178889Y-109022378D01*
X142082916Y-108869638D01*
X142082915Y-108869637D01*
X142082914Y-108869635D01*
X141955364Y-108742085D01*
X141892967Y-108702879D01*
X141802622Y-108646111D01*
X141632355Y-108586532D01*
X141632353Y-108586531D01*
X141632351Y-108586531D01*
X141453100Y-108566334D01*
X141273846Y-108586531D01*
X141170169Y-108622809D01*
X141101621Y-108626658D01*
X141041532Y-108593447D01*
X141008323Y-108533357D01*
X141012174Y-108464811D01*
X141018668Y-108446255D01*
X141038865Y-108267000D01*
X141018668Y-108087745D01*
X140959089Y-107917478D01*
X140863116Y-107764738D01*
X140863115Y-107764737D01*
X140863114Y-107764735D01*
X140735564Y-107637185D01*
X140599039Y-107551401D01*
X140582822Y-107541211D01*
X140412555Y-107481632D01*
X140412553Y-107481631D01*
X140412551Y-107481631D01*
X140233299Y-107461434D01*
X140125021Y-107473634D01*
X140057336Y-107462134D01*
X140006144Y-107416386D01*
X139996529Y-107401084D01*
X139950932Y-107328517D01*
X139931927Y-107262543D01*
X139950935Y-107196571D01*
X139952789Y-107193622D01*
X140012368Y-107023355D01*
X140032565Y-106844100D01*
X140012368Y-106664845D01*
X139952789Y-106494578D01*
X139856816Y-106341838D01*
X139856815Y-106341837D01*
X139856814Y-106341835D01*
X139729264Y-106214285D01*
X139622745Y-106147355D01*
X139576522Y-106118311D01*
X139406255Y-106058732D01*
X139406253Y-106058731D01*
X139406251Y-106058731D01*
X139227000Y-106038534D01*
X139047748Y-106058731D01*
X139047745Y-106058731D01*
X139047745Y-106058732D01*
X138877478Y-106118311D01*
X138877476Y-106118311D01*
X138877476Y-106118312D01*
X138724735Y-106214285D01*
X138597185Y-106341835D01*
X138514662Y-106473171D01*
X138501211Y-106494578D01*
X138453978Y-106629562D01*
X138441631Y-106664848D01*
X138421434Y-106844097D01*
X138425659Y-106881595D01*
X138417866Y-106940781D01*
X138383320Y-106989467D01*
X138330028Y-107016369D01*
X138270342Y-107015251D01*
X138218094Y-106986373D01*
X138185397Y-106936431D01*
X138180456Y-106922310D01*
X138090477Y-106779110D01*
X137970890Y-106659523D01*
X137827690Y-106569544D01*
X137668059Y-106513687D01*
X137668058Y-106513686D01*
X137668056Y-106513686D01*
X137499999Y-106494750D01*
X137376102Y-106508710D01*
X137321264Y-106502532D01*
X137274538Y-106473171D01*
X137220891Y-106419524D01*
X137220890Y-106419523D01*
X137077690Y-106329544D01*
X136918059Y-106273687D01*
X136918058Y-106273686D01*
X136918056Y-106273686D01*
X136750000Y-106254750D01*
X136581943Y-106273686D01*
X136422310Y-106329544D01*
X136279108Y-106419524D01*
X136159524Y-106539108D01*
X136069544Y-106682310D01*
X136013686Y-106841943D01*
X135994750Y-107009999D01*
X125015025Y-107009999D01*
X125104989Y-106866822D01*
X125164568Y-106696555D01*
X125184765Y-106517300D01*
X125183101Y-106502532D01*
X125172356Y-106407162D01*
X125181015Y-106345825D01*
X125218263Y-106296331D01*
X125274806Y-106271030D01*
X125336529Y-106276236D01*
X125423162Y-106306551D01*
X125504944Y-106335168D01*
X125684200Y-106355365D01*
X125863455Y-106335168D01*
X126033722Y-106275589D01*
X126177671Y-106185140D01*
X126198292Y-106172183D01*
X126200049Y-106174979D01*
X126231555Y-106156384D01*
X126293484Y-106154635D01*
X126348530Y-106183064D01*
X126382951Y-106234575D01*
X126412009Y-106317619D01*
X126507985Y-106470364D01*
X126635535Y-106597914D01*
X126635537Y-106597915D01*
X126635538Y-106597916D01*
X126788278Y-106693889D01*
X126958545Y-106753468D01*
X127137800Y-106773665D01*
X127317055Y-106753468D01*
X127487322Y-106693889D01*
X127640062Y-106597916D01*
X127767616Y-106470362D01*
X127863589Y-106317622D01*
X127881644Y-106266021D01*
X127917797Y-106212992D01*
X127975623Y-106185140D01*
X128013127Y-106187947D01*
X128013561Y-106184104D01*
X128206699Y-106205865D01*
X128206699Y-106205864D01*
X128206700Y-106205865D01*
X128385955Y-106185668D01*
X128556222Y-106126089D01*
X128708962Y-106030116D01*
X128836516Y-105902562D01*
X128932489Y-105749822D01*
X128992068Y-105579555D01*
X129012265Y-105400300D01*
X128992068Y-105221045D01*
X128932489Y-105050778D01*
X128836516Y-104898038D01*
X128836515Y-104898037D01*
X128836514Y-104898035D01*
X128832178Y-104893699D01*
X134311934Y-104893699D01*
X134332131Y-105072951D01*
X134332131Y-105072953D01*
X134332132Y-105072955D01*
X134391711Y-105243222D01*
X134416908Y-105283323D01*
X134487685Y-105395964D01*
X134615235Y-105523514D01*
X134615237Y-105523515D01*
X134615238Y-105523516D01*
X134767978Y-105619489D01*
X134938245Y-105679068D01*
X135117500Y-105699265D01*
X135296755Y-105679068D01*
X135467022Y-105619489D01*
X135590747Y-105541747D01*
X135642834Y-105523522D01*
X135697672Y-105529701D01*
X135738444Y-105543968D01*
X135917700Y-105564165D01*
X136096955Y-105543968D01*
X136267222Y-105484389D01*
X136419962Y-105388416D01*
X136547516Y-105260862D01*
X136643489Y-105108122D01*
X136703068Y-104937855D01*
X136723265Y-104758600D01*
X136721646Y-104744235D01*
X136713791Y-104674512D01*
X136703068Y-104579345D01*
X136643489Y-104409078D01*
X136547516Y-104256338D01*
X136547515Y-104256337D01*
X136547514Y-104256335D01*
X136419964Y-104128785D01*
X136293688Y-104049441D01*
X136267222Y-104032811D01*
X136096955Y-103973232D01*
X136096953Y-103973231D01*
X136096951Y-103973231D01*
X135917699Y-103953034D01*
X135738448Y-103973231D01*
X135738445Y-103973231D01*
X135738445Y-103973232D01*
X135568178Y-104032811D01*
X135568176Y-104032811D01*
X135568176Y-104032812D01*
X135444455Y-104110551D01*
X135392367Y-104128777D01*
X135337530Y-104122599D01*
X135296754Y-104108331D01*
X135117500Y-104088134D01*
X134938248Y-104108331D01*
X134938245Y-104108331D01*
X134938245Y-104108332D01*
X134767978Y-104167911D01*
X134767976Y-104167911D01*
X134767976Y-104167912D01*
X134615235Y-104263885D01*
X134487685Y-104391435D01*
X134391712Y-104544176D01*
X134391711Y-104544178D01*
X134366953Y-104614932D01*
X134332131Y-104714448D01*
X134311934Y-104893699D01*
X128832178Y-104893699D01*
X128708964Y-104770485D01*
X128619781Y-104714448D01*
X128556222Y-104674511D01*
X128385955Y-104614932D01*
X128385953Y-104614931D01*
X128385951Y-104614931D01*
X128206700Y-104594734D01*
X128027448Y-104614931D01*
X128027445Y-104614931D01*
X128027445Y-104614932D01*
X127857178Y-104674511D01*
X127857176Y-104674511D01*
X127857176Y-104674512D01*
X127704435Y-104770485D01*
X127576885Y-104898035D01*
X127480910Y-105050779D01*
X127462854Y-105102379D01*
X127426689Y-105155418D01*
X127368848Y-105183265D01*
X127331371Y-105180449D01*
X127330938Y-105184296D01*
X127137799Y-105162534D01*
X126958548Y-105182731D01*
X126958545Y-105182731D01*
X126958545Y-105182732D01*
X126788278Y-105242311D01*
X126788276Y-105242311D01*
X126788276Y-105242312D01*
X126623708Y-105345717D01*
X126621952Y-105342923D01*
X126590389Y-105361531D01*
X126528478Y-105363256D01*
X126473455Y-105334822D01*
X126439048Y-105283325D01*
X126409989Y-105200278D01*
X126314016Y-105047538D01*
X126314015Y-105047537D01*
X126314014Y-105047535D01*
X126186464Y-104919985D01*
X126036634Y-104825841D01*
X126033722Y-104824011D01*
X125863455Y-104764432D01*
X125863453Y-104764431D01*
X125863451Y-104764431D01*
X125684200Y-104744234D01*
X125504948Y-104764431D01*
X125504945Y-104764431D01*
X125504945Y-104764432D01*
X125334678Y-104824011D01*
X125334676Y-104824011D01*
X125334676Y-104824012D01*
X125181935Y-104919985D01*
X125054385Y-105047535D01*
X124969436Y-105182732D01*
X124958411Y-105200278D01*
X124908844Y-105341932D01*
X124898831Y-105370548D01*
X124878634Y-105549800D01*
X124891043Y-105659938D01*
X124882384Y-105721274D01*
X124845135Y-105770768D01*
X124788594Y-105796069D01*
X124726870Y-105790863D01*
X124558455Y-105731932D01*
X124558453Y-105731931D01*
X124558451Y-105731931D01*
X124379200Y-105711734D01*
X124199948Y-105731931D01*
X124199945Y-105731931D01*
X124199945Y-105731932D01*
X124029678Y-105791511D01*
X124029676Y-105791511D01*
X124029676Y-105791512D01*
X123963295Y-105833222D01*
X123911207Y-105851448D01*
X123856370Y-105845270D01*
X123809644Y-105815912D01*
X123792437Y-105788529D01*
X123790722Y-105789608D01*
X123783287Y-105777776D01*
X123687316Y-105625038D01*
X123687315Y-105625037D01*
X123687314Y-105625035D01*
X123559764Y-105497485D01*
X123420532Y-105410000D01*
X123407022Y-105401511D01*
X123236755Y-105341932D01*
X123236753Y-105341931D01*
X123236751Y-105341931D01*
X123057500Y-105321734D01*
X122878248Y-105341931D01*
X122878245Y-105341931D01*
X122878245Y-105341932D01*
X122707978Y-105401511D01*
X122707976Y-105401511D01*
X122707976Y-105401512D01*
X122555235Y-105497485D01*
X122427685Y-105625035D01*
X122331712Y-105777776D01*
X122331711Y-105777778D01*
X122278999Y-105928420D01*
X122272131Y-105948048D01*
X122251934Y-106127299D01*
X117888374Y-106127299D01*
X117894165Y-106075900D01*
X117873968Y-105896645D01*
X117814389Y-105726378D01*
X117718416Y-105573638D01*
X117718415Y-105573637D01*
X117718414Y-105573635D01*
X117590864Y-105446085D01*
X117519926Y-105401512D01*
X117438122Y-105350111D01*
X117267855Y-105290532D01*
X117267853Y-105290531D01*
X117267851Y-105290531D01*
X117088600Y-105270334D01*
X116909348Y-105290531D01*
X116909345Y-105290531D01*
X116909345Y-105290532D01*
X116739078Y-105350111D01*
X116739076Y-105350111D01*
X116739076Y-105350112D01*
X116586335Y-105446085D01*
X116458785Y-105573635D01*
X116366018Y-105721274D01*
X116362811Y-105726378D01*
X116334041Y-105808598D01*
X116303231Y-105896648D01*
X116283034Y-106075900D01*
X104058416Y-106075900D01*
X104024035Y-106002171D01*
X103888495Y-105808599D01*
X103721401Y-105641505D01*
X103535839Y-105511573D01*
X103496975Y-105467257D01*
X103482964Y-105410000D01*
X103496975Y-105352743D01*
X103535839Y-105308426D01*
X103721401Y-105178495D01*
X103888495Y-105011401D01*
X104024035Y-104817830D01*
X104123903Y-104603663D01*
X104185063Y-104375408D01*
X104205659Y-104140000D01*
X104185063Y-103904592D01*
X104123903Y-103676337D01*
X104024035Y-103462171D01*
X103888495Y-103268599D01*
X103843995Y-103224099D01*
X126604734Y-103224099D01*
X126624931Y-103403351D01*
X126624931Y-103403353D01*
X126624932Y-103403355D01*
X126684511Y-103573622D01*
X126684512Y-103573623D01*
X126780485Y-103726364D01*
X126908035Y-103853914D01*
X126908037Y-103853915D01*
X126908038Y-103853916D01*
X127060778Y-103949889D01*
X127231045Y-104009468D01*
X127365486Y-104024615D01*
X127410299Y-104029665D01*
X127410299Y-104029664D01*
X127410300Y-104029665D01*
X127550199Y-104013902D01*
X127605037Y-104020080D01*
X127651761Y-104049439D01*
X127728438Y-104126116D01*
X127881178Y-104222089D01*
X128051445Y-104281668D01*
X128230700Y-104301865D01*
X128409955Y-104281668D01*
X128580222Y-104222089D01*
X128732962Y-104126116D01*
X128860516Y-103998562D01*
X128956489Y-103845822D01*
X129016068Y-103675555D01*
X129036265Y-103496300D01*
X129016068Y-103317045D01*
X128956489Y-103146778D01*
X128860516Y-102994038D01*
X128860515Y-102994037D01*
X128860514Y-102994035D01*
X128732964Y-102866485D01*
X128640307Y-102808265D01*
X128580222Y-102770511D01*
X128409955Y-102710932D01*
X128409953Y-102710931D01*
X128409951Y-102710931D01*
X128230699Y-102690734D01*
X128090800Y-102706497D01*
X128035962Y-102700318D01*
X127989237Y-102670959D01*
X127912562Y-102594284D01*
X127912561Y-102594283D01*
X127770410Y-102504964D01*
X127759822Y-102498311D01*
X127589555Y-102438732D01*
X127589553Y-102438731D01*
X127589551Y-102438731D01*
X127410300Y-102418534D01*
X127231048Y-102438731D01*
X127231045Y-102438731D01*
X127231045Y-102438732D01*
X127060778Y-102498311D01*
X127060776Y-102498311D01*
X127060776Y-102498312D01*
X126908035Y-102594285D01*
X126780485Y-102721835D01*
X126684512Y-102874576D01*
X126684511Y-102874578D01*
X126666079Y-102927255D01*
X126624931Y-103044848D01*
X126604734Y-103224099D01*
X103843995Y-103224099D01*
X103721401Y-103101505D01*
X103535839Y-102971573D01*
X103496974Y-102927255D01*
X103482964Y-102869999D01*
X103496975Y-102812742D01*
X103535837Y-102768428D01*
X103721401Y-102638495D01*
X103888495Y-102471401D01*
X104024035Y-102277830D01*
X104123903Y-102063663D01*
X104140238Y-102002699D01*
X121596234Y-102002699D01*
X121616431Y-102181951D01*
X121616431Y-102181953D01*
X121616432Y-102181955D01*
X121676011Y-102352222D01*
X121676012Y-102352223D01*
X121771985Y-102504964D01*
X121899535Y-102632514D01*
X121899537Y-102632515D01*
X121899538Y-102632516D01*
X122052278Y-102728489D01*
X122222545Y-102788068D01*
X122401800Y-102808265D01*
X122581055Y-102788068D01*
X122751322Y-102728489D01*
X122904062Y-102632516D01*
X123031616Y-102504962D01*
X123088709Y-102414099D01*
X136074634Y-102414099D01*
X136094831Y-102593351D01*
X136094831Y-102593353D01*
X136094832Y-102593355D01*
X136154411Y-102763622D01*
X136182462Y-102808265D01*
X136250385Y-102916364D01*
X136377935Y-103043914D01*
X136377937Y-103043915D01*
X136377938Y-103043916D01*
X136530678Y-103139889D01*
X136700945Y-103199468D01*
X136880200Y-103219665D01*
X137059455Y-103199468D01*
X137229722Y-103139889D01*
X137382462Y-103043916D01*
X137510016Y-102916362D01*
X137605989Y-102763622D01*
X137665568Y-102593355D01*
X137685765Y-102414100D01*
X137665568Y-102234845D01*
X137605989Y-102064578D01*
X137510016Y-101911838D01*
X137510015Y-101911837D01*
X137510014Y-101911835D01*
X137382464Y-101784285D01*
X137320067Y-101745079D01*
X137229722Y-101688311D01*
X137059455Y-101628732D01*
X137059453Y-101628731D01*
X137059451Y-101628731D01*
X136880200Y-101608534D01*
X136700948Y-101628731D01*
X136700945Y-101628731D01*
X136700945Y-101628732D01*
X136530678Y-101688311D01*
X136530676Y-101688311D01*
X136530676Y-101688312D01*
X136377935Y-101784285D01*
X136250385Y-101911835D01*
X136154986Y-102063663D01*
X136154411Y-102064578D01*
X136113339Y-102181955D01*
X136094831Y-102234848D01*
X136074634Y-102414099D01*
X123088709Y-102414099D01*
X123127589Y-102352222D01*
X123187168Y-102181955D01*
X123207365Y-102002700D01*
X123187168Y-101823445D01*
X123127589Y-101653178D01*
X123031616Y-101500438D01*
X123031615Y-101500437D01*
X123031614Y-101500435D01*
X122904064Y-101372885D01*
X122811181Y-101314523D01*
X122751322Y-101276911D01*
X122581055Y-101217332D01*
X122581053Y-101217331D01*
X122581051Y-101217331D01*
X122401800Y-101197134D01*
X122222548Y-101217331D01*
X122222545Y-101217331D01*
X122222545Y-101217332D01*
X122052278Y-101276911D01*
X122052276Y-101276911D01*
X122052276Y-101276912D01*
X121899535Y-101372885D01*
X121771985Y-101500435D01*
X121704062Y-101608535D01*
X121676011Y-101653178D01*
X121642003Y-101750368D01*
X121616431Y-101823448D01*
X121596234Y-102002699D01*
X104140238Y-102002699D01*
X104185063Y-101835408D01*
X104205659Y-101600000D01*
X104185063Y-101364592D01*
X104123903Y-101136337D01*
X104024035Y-100922171D01*
X103913912Y-100764899D01*
X128706034Y-100764899D01*
X128726231Y-100944151D01*
X128726231Y-100944153D01*
X128726232Y-100944155D01*
X128785811Y-101114422D01*
X128813956Y-101159214D01*
X128881785Y-101267164D01*
X129009335Y-101394714D01*
X129009337Y-101394715D01*
X129009338Y-101394716D01*
X129162078Y-101490689D01*
X129332345Y-101550268D01*
X129511600Y-101570465D01*
X129690855Y-101550268D01*
X129861122Y-101490689D01*
X130013862Y-101394716D01*
X130141416Y-101267162D01*
X130237389Y-101114422D01*
X130289674Y-100965000D01*
X130639434Y-100965000D01*
X130659631Y-101144251D01*
X130659631Y-101144253D01*
X130659632Y-101144255D01*
X130719211Y-101314522D01*
X130719212Y-101314523D01*
X130815185Y-101467264D01*
X130942735Y-101594814D01*
X130942737Y-101594815D01*
X130942738Y-101594816D01*
X131095478Y-101690789D01*
X131265745Y-101750368D01*
X131445000Y-101770565D01*
X131624255Y-101750368D01*
X131794522Y-101690789D01*
X131947262Y-101594816D01*
X132074816Y-101467262D01*
X132158308Y-101334384D01*
X132197330Y-101295362D01*
X132249418Y-101277136D01*
X132304257Y-101283315D01*
X132394144Y-101314768D01*
X132573400Y-101334965D01*
X132752655Y-101314768D01*
X132922922Y-101255189D01*
X133075662Y-101159216D01*
X133203216Y-101031662D01*
X133299189Y-100878922D01*
X133358768Y-100708655D01*
X133378965Y-100529400D01*
X133358768Y-100350145D01*
X133349362Y-100323266D01*
X133344565Y-100259263D01*
X133372415Y-100201431D01*
X133425446Y-100165274D01*
X133555722Y-100119689D01*
X133708462Y-100023716D01*
X133836016Y-99896162D01*
X133931989Y-99743422D01*
X133991568Y-99573155D01*
X134011765Y-99393900D01*
X133991568Y-99214645D01*
X133931989Y-99044378D01*
X133836016Y-98891638D01*
X133836015Y-98891637D01*
X133836014Y-98891635D01*
X133708464Y-98764085D01*
X133646067Y-98724878D01*
X133555722Y-98668111D01*
X133385455Y-98608532D01*
X133385453Y-98608531D01*
X133385451Y-98608531D01*
X133206200Y-98588334D01*
X133026948Y-98608531D01*
X133026945Y-98608531D01*
X133026945Y-98608532D01*
X132856678Y-98668111D01*
X132856676Y-98668111D01*
X132856676Y-98668112D01*
X132703935Y-98764085D01*
X132576385Y-98891635D01*
X132480412Y-99044376D01*
X132420831Y-99214648D01*
X132400634Y-99393900D01*
X132420831Y-99573154D01*
X132430236Y-99600032D01*
X132435032Y-99664039D01*
X132407182Y-99721869D01*
X132354149Y-99758026D01*
X132223880Y-99803609D01*
X132071135Y-99899585D01*
X131943584Y-100027136D01*
X131860091Y-100160015D01*
X131821069Y-100199037D01*
X131768981Y-100217263D01*
X131714143Y-100211085D01*
X131624252Y-100179631D01*
X131445000Y-100159434D01*
X131265748Y-100179631D01*
X131265745Y-100179631D01*
X131265745Y-100179632D01*
X131095478Y-100239211D01*
X131095476Y-100239211D01*
X131095476Y-100239212D01*
X130942735Y-100335185D01*
X130815185Y-100462735D01*
X130737956Y-100585645D01*
X130719211Y-100615478D01*
X130686607Y-100708655D01*
X130659631Y-100785748D01*
X130639434Y-100965000D01*
X130289674Y-100965000D01*
X130296968Y-100944155D01*
X130317165Y-100764900D01*
X130296968Y-100585645D01*
X130237389Y-100415378D01*
X130141416Y-100262638D01*
X130141415Y-100262637D01*
X130141414Y-100262635D01*
X130013864Y-100135085D01*
X129951467Y-100095878D01*
X129861122Y-100039111D01*
X129690855Y-99979532D01*
X129690853Y-99979531D01*
X129690851Y-99979531D01*
X129511600Y-99959334D01*
X129332348Y-99979531D01*
X129332345Y-99979531D01*
X129332345Y-99979532D01*
X129162078Y-100039111D01*
X129162076Y-100039111D01*
X129162076Y-100039112D01*
X129009335Y-100135085D01*
X128881785Y-100262635D01*
X128785812Y-100415376D01*
X128785811Y-100415378D01*
X128769240Y-100462735D01*
X128726231Y-100585648D01*
X128706034Y-100764899D01*
X103913912Y-100764899D01*
X103888495Y-100728599D01*
X103721401Y-100561505D01*
X103535839Y-100431573D01*
X103496975Y-100387257D01*
X103482964Y-100330000D01*
X103496975Y-100272743D01*
X103535839Y-100228426D01*
X103721401Y-100098495D01*
X103888495Y-99931401D01*
X104024035Y-99737830D01*
X104123903Y-99523663D01*
X104185063Y-99295408D01*
X104205659Y-99060000D01*
X104185063Y-98824592D01*
X104123903Y-98596337D01*
X104024035Y-98382171D01*
X103888495Y-98188599D01*
X103721401Y-98021505D01*
X103535839Y-97891573D01*
X103496976Y-97847257D01*
X103482965Y-97790000D01*
X103496976Y-97732743D01*
X103535839Y-97688426D01*
X103721401Y-97558495D01*
X103888495Y-97391401D01*
X103985685Y-97252600D01*
X122251934Y-97252600D01*
X122272131Y-97431851D01*
X122272131Y-97431853D01*
X122272132Y-97431855D01*
X122331711Y-97602122D01*
X122331712Y-97602123D01*
X122427685Y-97754864D01*
X122555235Y-97882414D01*
X122555237Y-97882415D01*
X122555238Y-97882416D01*
X122707978Y-97978389D01*
X122878245Y-98037968D01*
X123057500Y-98058165D01*
X123236755Y-98037968D01*
X123407022Y-97978389D01*
X123559762Y-97882416D01*
X123687316Y-97754862D01*
X123783289Y-97602122D01*
X123842868Y-97431855D01*
X123863065Y-97252600D01*
X123842868Y-97073345D01*
X123783289Y-96903078D01*
X123687316Y-96750338D01*
X123687315Y-96750337D01*
X123687314Y-96750335D01*
X123559764Y-96622785D01*
X123497367Y-96583579D01*
X123407022Y-96526811D01*
X123236755Y-96467232D01*
X123236753Y-96467231D01*
X123236751Y-96467231D01*
X123057500Y-96447034D01*
X122878248Y-96467231D01*
X122878245Y-96467231D01*
X122878245Y-96467232D01*
X122707978Y-96526811D01*
X122707976Y-96526811D01*
X122707976Y-96526812D01*
X122555235Y-96622785D01*
X122427685Y-96750335D01*
X122331712Y-96903076D01*
X122331711Y-96903078D01*
X122303513Y-96983663D01*
X122272131Y-97073348D01*
X122251934Y-97252600D01*
X103985685Y-97252600D01*
X104024035Y-97197830D01*
X104123903Y-96983663D01*
X104185063Y-96755408D01*
X104205659Y-96520000D01*
X104185063Y-96284592D01*
X104123903Y-96056337D01*
X104024035Y-95842171D01*
X103888495Y-95648599D01*
X103721401Y-95481505D01*
X103535839Y-95351573D01*
X103496975Y-95307257D01*
X103482964Y-95250000D01*
X103496975Y-95192743D01*
X103535839Y-95148426D01*
X103721401Y-95018495D01*
X103888495Y-94851401D01*
X104024035Y-94657830D01*
X104123903Y-94443663D01*
X104185063Y-94215408D01*
X104205659Y-93980000D01*
X104185063Y-93744592D01*
X104123903Y-93516337D01*
X104024035Y-93302171D01*
X103888495Y-93108599D01*
X103721401Y-92941505D01*
X103535839Y-92811573D01*
X103496974Y-92767255D01*
X103482964Y-92709999D01*
X103496975Y-92652742D01*
X103535837Y-92608428D01*
X103721401Y-92478495D01*
X103769996Y-92429900D01*
X135449534Y-92429900D01*
X135469731Y-92609151D01*
X135469731Y-92609153D01*
X135469732Y-92609155D01*
X135529311Y-92779422D01*
X135549514Y-92811575D01*
X135625285Y-92932164D01*
X135752835Y-93059714D01*
X135752837Y-93059715D01*
X135752838Y-93059716D01*
X135905578Y-93155689D01*
X136075845Y-93215268D01*
X136255100Y-93235465D01*
X136434355Y-93215268D01*
X136604622Y-93155689D01*
X136757362Y-93059716D01*
X136884916Y-92932162D01*
X136980889Y-92779422D01*
X137040468Y-92609155D01*
X137060665Y-92429900D01*
X137040468Y-92250645D01*
X136980889Y-92080378D01*
X136884916Y-91927638D01*
X136884915Y-91927637D01*
X136884914Y-91927635D01*
X136757364Y-91800085D01*
X136694967Y-91760879D01*
X136604622Y-91704111D01*
X136434355Y-91644532D01*
X136434353Y-91644531D01*
X136434351Y-91644531D01*
X136255100Y-91624334D01*
X136075848Y-91644531D01*
X136075845Y-91644531D01*
X136075845Y-91644532D01*
X135905578Y-91704111D01*
X135905576Y-91704111D01*
X135905576Y-91704112D01*
X135752835Y-91800085D01*
X135625285Y-91927635D01*
X135529312Y-92080376D01*
X135469731Y-92250648D01*
X135449534Y-92429900D01*
X103769996Y-92429900D01*
X103888495Y-92311401D01*
X104024035Y-92117830D01*
X104123903Y-91903663D01*
X104185063Y-91675408D01*
X104205659Y-91440000D01*
X104185063Y-91204592D01*
X104123903Y-90976337D01*
X104024035Y-90762171D01*
X103888495Y-90568599D01*
X103721401Y-90401505D01*
X103535839Y-90271573D01*
X103496975Y-90227257D01*
X103482964Y-90170000D01*
X103496975Y-90112743D01*
X103535839Y-90068426D01*
X103721401Y-89938495D01*
X103888495Y-89771401D01*
X104024035Y-89577830D01*
X104123903Y-89363663D01*
X104185063Y-89135408D01*
X104205659Y-88900000D01*
X104185063Y-88664592D01*
X104123903Y-88436337D01*
X104024035Y-88222171D01*
X103888495Y-88028599D01*
X103721401Y-87861505D01*
X103535839Y-87731573D01*
X103496975Y-87687257D01*
X103482964Y-87630000D01*
X103496975Y-87572743D01*
X103535839Y-87528426D01*
X103721401Y-87398495D01*
X103888495Y-87231401D01*
X104024035Y-87037830D01*
X104123903Y-86823663D01*
X104185063Y-86595408D01*
X104205659Y-86360000D01*
X104185063Y-86124592D01*
X104123903Y-85896337D01*
X104024035Y-85682171D01*
X103888495Y-85488599D01*
X103721401Y-85321505D01*
X103535402Y-85191267D01*
X103496539Y-85146951D01*
X103482528Y-85089694D01*
X103496539Y-85032437D01*
X103535405Y-84988119D01*
X103721078Y-84858109D01*
X103888106Y-84691081D01*
X104023600Y-84497576D01*
X104123430Y-84283492D01*
X104180636Y-84070000D01*
X102724000Y-84070000D01*
X102662000Y-84053387D01*
X102616613Y-84008000D01*
X102600000Y-83946000D01*
X102600000Y-83749999D01*
X108344540Y-83749999D01*
X108364326Y-83938257D01*
X108422820Y-84118284D01*
X108517466Y-84282216D01*
X108644129Y-84422889D01*
X108797269Y-84534151D01*
X108970197Y-84611144D01*
X109155352Y-84650500D01*
X109155354Y-84650500D01*
X109344646Y-84650500D01*
X109344648Y-84650500D01*
X109468084Y-84624262D01*
X109529803Y-84611144D01*
X109578193Y-84589599D01*
X132400634Y-84589599D01*
X132420831Y-84768851D01*
X132420831Y-84768853D01*
X132420832Y-84768855D01*
X132480411Y-84939122D01*
X132480412Y-84939123D01*
X132576385Y-85091864D01*
X132703935Y-85219414D01*
X132703937Y-85219415D01*
X132703938Y-85219416D01*
X132856678Y-85315389D01*
X133026945Y-85374968D01*
X133206200Y-85395165D01*
X133385455Y-85374968D01*
X133555722Y-85315389D01*
X133708462Y-85219416D01*
X133836016Y-85091862D01*
X133931989Y-84939122D01*
X133991568Y-84768855D01*
X134011765Y-84589600D01*
X133991568Y-84410345D01*
X133931989Y-84240078D01*
X133836016Y-84087338D01*
X133836015Y-84087337D01*
X133836014Y-84087335D01*
X133708464Y-83959785D01*
X133646067Y-83920578D01*
X133555722Y-83863811D01*
X133385455Y-83804232D01*
X133385453Y-83804231D01*
X133385451Y-83804231D01*
X133206200Y-83784034D01*
X133026948Y-83804231D01*
X133026945Y-83804231D01*
X133026945Y-83804232D01*
X132856678Y-83863811D01*
X132856676Y-83863811D01*
X132856676Y-83863812D01*
X132703935Y-83959785D01*
X132576385Y-84087335D01*
X132556939Y-84118284D01*
X132480411Y-84240078D01*
X132465160Y-84283663D01*
X132420831Y-84410348D01*
X132400634Y-84589599D01*
X109578193Y-84589599D01*
X109702730Y-84534151D01*
X109795190Y-84466975D01*
X109855870Y-84422889D01*
X109982533Y-84282216D01*
X110077179Y-84118284D01*
X110087235Y-84087335D01*
X110135674Y-83938256D01*
X110155460Y-83750000D01*
X110135674Y-83561744D01*
X110077179Y-83381716D01*
X110077179Y-83381715D01*
X109982533Y-83217783D01*
X109855870Y-83077110D01*
X109702730Y-82965848D01*
X109529802Y-82888855D01*
X109344648Y-82849500D01*
X109344646Y-82849500D01*
X109155354Y-82849500D01*
X109155352Y-82849500D01*
X108970197Y-82888855D01*
X108797269Y-82965848D01*
X108644129Y-83077110D01*
X108517466Y-83217783D01*
X108422820Y-83381715D01*
X108364326Y-83561742D01*
X108344540Y-83749999D01*
X102600000Y-83749999D01*
X102600000Y-83694000D01*
X102616613Y-83632000D01*
X102662000Y-83586613D01*
X102724000Y-83570000D01*
X104180636Y-83570000D01*
X104180635Y-83569999D01*
X104123430Y-83356507D01*
X104023599Y-83142421D01*
X103888109Y-82948921D01*
X103721081Y-82781893D01*
X103535404Y-82651880D01*
X103496539Y-82607562D01*
X103482528Y-82550305D01*
X103496539Y-82493048D01*
X103535402Y-82448732D01*
X103721401Y-82318495D01*
X103888495Y-82151401D01*
X104024035Y-81957830D01*
X104123903Y-81743663D01*
X104185063Y-81515408D01*
X104205659Y-81280000D01*
X104185063Y-81044592D01*
X104123903Y-80816337D01*
X104024035Y-80602171D01*
X103888495Y-80408599D01*
X103721401Y-80241505D01*
X103535839Y-80111573D01*
X103496976Y-80067257D01*
X103482965Y-80010000D01*
X103496976Y-79952743D01*
X103535839Y-79908426D01*
X103721401Y-79778495D01*
X103888495Y-79611401D01*
X104024035Y-79417830D01*
X104123903Y-79203663D01*
X104185063Y-78975408D01*
X104205659Y-78740000D01*
X104185063Y-78504592D01*
X104123903Y-78276337D01*
X104024035Y-78062171D01*
X103888495Y-77868599D01*
X103721401Y-77701505D01*
X103535839Y-77571573D01*
X103496975Y-77527257D01*
X103482964Y-77470000D01*
X103496975Y-77412743D01*
X103535839Y-77368426D01*
X103721401Y-77238495D01*
X103888495Y-77071401D01*
X104024035Y-76877830D01*
X104123903Y-76663663D01*
X104185063Y-76435408D01*
X104205659Y-76200000D01*
X104185063Y-75964592D01*
X104123903Y-75736337D01*
X104024035Y-75522171D01*
X103888495Y-75328599D01*
X103721401Y-75161505D01*
X103535839Y-75031573D01*
X103496975Y-74987257D01*
X103482964Y-74930000D01*
X103496975Y-74872743D01*
X103535839Y-74828426D01*
X103721401Y-74698495D01*
X103888495Y-74531401D01*
X104024035Y-74337830D01*
X104123903Y-74123663D01*
X104185063Y-73895408D01*
X104205659Y-73660000D01*
X104185063Y-73424592D01*
X104123903Y-73196337D01*
X104024035Y-72982171D01*
X103888495Y-72788599D01*
X103721401Y-72621505D01*
X103535839Y-72491573D01*
X103496976Y-72447257D01*
X103482965Y-72390000D01*
X103496976Y-72332743D01*
X103535839Y-72288426D01*
X103721401Y-72158495D01*
X103888495Y-71991401D01*
X104024035Y-71797830D01*
X104123903Y-71583663D01*
X104185063Y-71355408D01*
X104205659Y-71120000D01*
X104185063Y-70884592D01*
X104123903Y-70656337D01*
X104024035Y-70442171D01*
X103888495Y-70248599D01*
X103721401Y-70081505D01*
X103535839Y-69951573D01*
X103496975Y-69907257D01*
X103482964Y-69850000D01*
X103496975Y-69792743D01*
X103535839Y-69748426D01*
X103721401Y-69618495D01*
X103888495Y-69451401D01*
X104024035Y-69257830D01*
X104123903Y-69043663D01*
X104185063Y-68815408D01*
X104205659Y-68580000D01*
X104185063Y-68344592D01*
X104123903Y-68116337D01*
X104024035Y-67902171D01*
X103888495Y-67708599D01*
X103721401Y-67541505D01*
X103535839Y-67411573D01*
X103496975Y-67367257D01*
X103482964Y-67310000D01*
X103496975Y-67252743D01*
X103535839Y-67208426D01*
X103721401Y-67078495D01*
X103888495Y-66911401D01*
X104024035Y-66717830D01*
X104123903Y-66503663D01*
X104185063Y-66275408D01*
X104205659Y-66040000D01*
X104185063Y-65804592D01*
X104123903Y-65576337D01*
X104024035Y-65362171D01*
X103888495Y-65168599D01*
X103721401Y-65001505D01*
X103527830Y-64865965D01*
X103313663Y-64766097D01*
X103252502Y-64749709D01*
X103085407Y-64704936D01*
X102850000Y-64684340D01*
X102614592Y-64704936D01*
X102386336Y-64766097D01*
X102172170Y-64865965D01*
X101978601Y-65001503D01*
X101856673Y-65123431D01*
X101803926Y-65154726D01*
X101742634Y-65156915D01*
X101687789Y-65129462D01*
X101652810Y-65079082D01*
X101645658Y-65059907D01*
X101603796Y-64947669D01*
X101517546Y-64832454D01*
X101402331Y-64746204D01*
X101267483Y-64695909D01*
X101207873Y-64689500D01*
X101207869Y-64689500D01*
X99412130Y-64689500D01*
X99352515Y-64695909D01*
X99217669Y-64746204D01*
X99102454Y-64832454D01*
X99016204Y-64947668D01*
X98965909Y-65082516D01*
X98959500Y-65142130D01*
X98959500Y-66937869D01*
X98965909Y-66997484D01*
X98991056Y-67064906D01*
X99016204Y-67132331D01*
X99102454Y-67247546D01*
X99217669Y-67333796D01*
X99307383Y-67367257D01*
X99349082Y-67382810D01*
X99399462Y-67417789D01*
X99426915Y-67472634D01*
X99424726Y-67533926D01*
X99393431Y-67586673D01*
X99271503Y-67708601D01*
X99135965Y-67902170D01*
X99036097Y-68116336D01*
X98974936Y-68344592D01*
X98954340Y-68579999D01*
X98974936Y-68815407D01*
X99019709Y-68982502D01*
X99036097Y-69043663D01*
X99135965Y-69257830D01*
X99271505Y-69451401D01*
X99438599Y-69618495D01*
X99624160Y-69748426D01*
X99663024Y-69792743D01*
X99677035Y-69850000D01*
X99663024Y-69907257D01*
X99624159Y-69951575D01*
X99438595Y-70081508D01*
X99271505Y-70248598D01*
X99135965Y-70442170D01*
X99036097Y-70656336D01*
X98974936Y-70884592D01*
X98954340Y-71119999D01*
X98974936Y-71355407D01*
X99019709Y-71522502D01*
X99036097Y-71583663D01*
X99135965Y-71797830D01*
X99271505Y-71991401D01*
X99438599Y-72158495D01*
X99624160Y-72288426D01*
X99663024Y-72332743D01*
X99677035Y-72390000D01*
X99663024Y-72447257D01*
X99624159Y-72491575D01*
X99438595Y-72621508D01*
X99271505Y-72788598D01*
X99135965Y-72982170D01*
X99036097Y-73196336D01*
X98974936Y-73424592D01*
X98954340Y-73660000D01*
X98974936Y-73895407D01*
X99019709Y-74062501D01*
X99036097Y-74123663D01*
X99135965Y-74337830D01*
X99271505Y-74531401D01*
X99438599Y-74698495D01*
X99624160Y-74828426D01*
X99663024Y-74872743D01*
X99677035Y-74930000D01*
X99663024Y-74987257D01*
X99624159Y-75031575D01*
X99438595Y-75161508D01*
X99271505Y-75328598D01*
X99135965Y-75522170D01*
X99036097Y-75736336D01*
X98974936Y-75964592D01*
X98954340Y-76199999D01*
X98974936Y-76435407D01*
X99019709Y-76602502D01*
X99036097Y-76663663D01*
X99135965Y-76877830D01*
X99271505Y-77071401D01*
X99438599Y-77238495D01*
X99624160Y-77368426D01*
X99663024Y-77412743D01*
X99677035Y-77470000D01*
X99663024Y-77527257D01*
X99624159Y-77571575D01*
X99438595Y-77701508D01*
X99271505Y-77868598D01*
X99135965Y-78062170D01*
X99036097Y-78276336D01*
X98974936Y-78504592D01*
X98954340Y-78740000D01*
X98974936Y-78975407D01*
X99019709Y-79142501D01*
X99036097Y-79203663D01*
X99135965Y-79417830D01*
X99271505Y-79611401D01*
X99438599Y-79778495D01*
X99624160Y-79908426D01*
X99663024Y-79952743D01*
X99677035Y-80010000D01*
X99663024Y-80067257D01*
X99624159Y-80111575D01*
X99438595Y-80241508D01*
X99271505Y-80408598D01*
X99135965Y-80602170D01*
X99036097Y-80816336D01*
X98974936Y-81044592D01*
X98954340Y-81279999D01*
X98974936Y-81515407D01*
X99019709Y-81682502D01*
X99036097Y-81743663D01*
X99135965Y-81957830D01*
X99271505Y-82151401D01*
X99438599Y-82318495D01*
X99624160Y-82448426D01*
X99663024Y-82492743D01*
X99677035Y-82550000D01*
X99663024Y-82607257D01*
X99624159Y-82651575D01*
X99438595Y-82781508D01*
X99271505Y-82948598D01*
X99135965Y-83142170D01*
X99036097Y-83356336D01*
X98974936Y-83584592D01*
X98954340Y-83820000D01*
X98974936Y-84055407D01*
X98991784Y-84118284D01*
X99036097Y-84283663D01*
X99135965Y-84497830D01*
X99271505Y-84691401D01*
X99438599Y-84858495D01*
X99624160Y-84988426D01*
X99663024Y-85032743D01*
X99677035Y-85090000D01*
X99663024Y-85147257D01*
X99624158Y-85191575D01*
X99447337Y-85315387D01*
X99438595Y-85321508D01*
X99271505Y-85488598D01*
X99135965Y-85682170D01*
X99036097Y-85896336D01*
X98974936Y-86124592D01*
X98954340Y-86360000D01*
X98974936Y-86595407D01*
X99019709Y-86762502D01*
X99036097Y-86823663D01*
X99135965Y-87037830D01*
X99271505Y-87231401D01*
X99438599Y-87398495D01*
X99624160Y-87528426D01*
X99663024Y-87572743D01*
X99677035Y-87630000D01*
X99663024Y-87687257D01*
X99624159Y-87731575D01*
X99438595Y-87861508D01*
X99271505Y-88028598D01*
X99135965Y-88222170D01*
X99036097Y-88436336D01*
X98974936Y-88664592D01*
X98954340Y-88899999D01*
X98974936Y-89135407D01*
X99019709Y-89302501D01*
X99036097Y-89363663D01*
X99135965Y-89577830D01*
X99271505Y-89771401D01*
X99438599Y-89938495D01*
X99624160Y-90068426D01*
X99663024Y-90112743D01*
X99677035Y-90170000D01*
X99663024Y-90227257D01*
X99624159Y-90271575D01*
X99438595Y-90401508D01*
X99271505Y-90568598D01*
X99135965Y-90762170D01*
X99036097Y-90976336D01*
X98974936Y-91204592D01*
X98954340Y-91440000D01*
X98974936Y-91675407D01*
X98982628Y-91704112D01*
X99036097Y-91903663D01*
X99135965Y-92117830D01*
X99271505Y-92311401D01*
X99438599Y-92478495D01*
X99624160Y-92608426D01*
X99663024Y-92652743D01*
X99677035Y-92710000D01*
X99663024Y-92767257D01*
X99624160Y-92811574D01*
X99451940Y-92932164D01*
X99438595Y-92941508D01*
X99271505Y-93108598D01*
X99135965Y-93302170D01*
X99036097Y-93516336D01*
X98974936Y-93744592D01*
X98954340Y-93979999D01*
X98974936Y-94215407D01*
X99019709Y-94382501D01*
X99036097Y-94443663D01*
X99135965Y-94657830D01*
X99271505Y-94851401D01*
X99438599Y-95018495D01*
X99624160Y-95148426D01*
X99663024Y-95192743D01*
X99677035Y-95250000D01*
X99663024Y-95307257D01*
X99624159Y-95351575D01*
X99438595Y-95481508D01*
X99271505Y-95648598D01*
X99135965Y-95842170D01*
X99036097Y-96056336D01*
X98974936Y-96284592D01*
X98954340Y-96520000D01*
X98974936Y-96755407D01*
X99019709Y-96922501D01*
X99036097Y-96983663D01*
X99135965Y-97197830D01*
X99271505Y-97391401D01*
X99438599Y-97558495D01*
X99624160Y-97688426D01*
X99663024Y-97732743D01*
X99677035Y-97790000D01*
X99663024Y-97847257D01*
X99624159Y-97891575D01*
X99438595Y-98021508D01*
X99271505Y-98188598D01*
X99135965Y-98382170D01*
X99036097Y-98596336D01*
X98974936Y-98824592D01*
X98954340Y-99059999D01*
X98974936Y-99295407D01*
X99019709Y-99462502D01*
X99036097Y-99523663D01*
X99135965Y-99737830D01*
X99271505Y-99931401D01*
X99438599Y-100098495D01*
X99624160Y-100228426D01*
X99663024Y-100272743D01*
X99677035Y-100330000D01*
X99663024Y-100387257D01*
X99624160Y-100431574D01*
X99579654Y-100462738D01*
X99438595Y-100561508D01*
X99271505Y-100728598D01*
X99135965Y-100922170D01*
X99036097Y-101136336D01*
X98974936Y-101364592D01*
X98954340Y-101600000D01*
X98974936Y-101835407D01*
X98995415Y-101911835D01*
X99036097Y-102063663D01*
X99135965Y-102277830D01*
X99271505Y-102471401D01*
X99438599Y-102638495D01*
X99624160Y-102768426D01*
X99663024Y-102812743D01*
X99677035Y-102870000D01*
X99663024Y-102927257D01*
X99624159Y-102971575D01*
X99438595Y-103101508D01*
X99271505Y-103268598D01*
X99135965Y-103462170D01*
X99036097Y-103676336D01*
X98974936Y-103904592D01*
X98954340Y-104140000D01*
X98974936Y-104375407D01*
X99019709Y-104542501D01*
X99036097Y-104603663D01*
X99135965Y-104817830D01*
X99271505Y-105011401D01*
X99438599Y-105178495D01*
X99624160Y-105308426D01*
X99663024Y-105352743D01*
X99677035Y-105410000D01*
X99663024Y-105467257D01*
X99624158Y-105511575D01*
X99462117Y-105625038D01*
X99438595Y-105641508D01*
X99271505Y-105808598D01*
X99135965Y-106002170D01*
X99036097Y-106216336D01*
X98974936Y-106444592D01*
X98954340Y-106680000D01*
X98974936Y-106915407D01*
X99002845Y-107019564D01*
X99036097Y-107143663D01*
X99135965Y-107357830D01*
X99271505Y-107551401D01*
X99438599Y-107718495D01*
X99624160Y-107848426D01*
X99663024Y-107892743D01*
X99677035Y-107950000D01*
X99663024Y-108007257D01*
X99624158Y-108051575D01*
X99499509Y-108138856D01*
X99438595Y-108181508D01*
X99271505Y-108348598D01*
X99135965Y-108542170D01*
X99036097Y-108756336D01*
X98974936Y-108984592D01*
X98954340Y-109220000D01*
X98974936Y-109455407D01*
X98995517Y-109532216D01*
X99036097Y-109683663D01*
X99135965Y-109897830D01*
X99271505Y-110091401D01*
X99438599Y-110258495D01*
X99624160Y-110388426D01*
X99663024Y-110432743D01*
X99677035Y-110490000D01*
X99663024Y-110547257D01*
X99624159Y-110591575D01*
X99438595Y-110721508D01*
X99271505Y-110888598D01*
X99135965Y-111082170D01*
X99036097Y-111296336D01*
X98974936Y-111524592D01*
X98954340Y-111759999D01*
X98974936Y-111995407D01*
X99004918Y-112107300D01*
X99036097Y-112223663D01*
X99135965Y-112437830D01*
X99271505Y-112631401D01*
X99438599Y-112798495D01*
X99624160Y-112928426D01*
X99663024Y-112972743D01*
X99677035Y-113030000D01*
X99663024Y-113087257D01*
X99624158Y-113131575D01*
X99452090Y-113252059D01*
X99438595Y-113261508D01*
X99271505Y-113428598D01*
X99135965Y-113622170D01*
X99036097Y-113836336D01*
X98974936Y-114064592D01*
X98954340Y-114300000D01*
X98974936Y-114535407D01*
X99010836Y-114669386D01*
X99036097Y-114763663D01*
X99135965Y-114977830D01*
X99271505Y-115171401D01*
X99438599Y-115338495D01*
X99624160Y-115468426D01*
X99663024Y-115512743D01*
X99677035Y-115570000D01*
X99663024Y-115627257D01*
X99624159Y-115671575D01*
X99593738Y-115692875D01*
X99476183Y-115775189D01*
X99438595Y-115801508D01*
X99271505Y-115968598D01*
X99135965Y-116162170D01*
X99036097Y-116376336D01*
X98974936Y-116604592D01*
X98954340Y-116839999D01*
X98974936Y-117075407D01*
X99019709Y-117242502D01*
X99036097Y-117303663D01*
X99135965Y-117517830D01*
X99271505Y-117711401D01*
X99438599Y-117878495D01*
X99624160Y-118008426D01*
X99663024Y-118052743D01*
X99677035Y-118110000D01*
X99663024Y-118167257D01*
X99624159Y-118211575D01*
X99438595Y-118341508D01*
X99271505Y-118508598D01*
X99135965Y-118702170D01*
X99036097Y-118916336D01*
X98974936Y-119144592D01*
X98954340Y-119380000D01*
X98974936Y-119615407D01*
X99009908Y-119745922D01*
X99036097Y-119843663D01*
X99135965Y-120057830D01*
X99271505Y-120251401D01*
X99438599Y-120418495D01*
X99624160Y-120548426D01*
X99663024Y-120592743D01*
X99677035Y-120650000D01*
X99663024Y-120707257D01*
X99624160Y-120751574D01*
X99447407Y-120875338D01*
X99438595Y-120881508D01*
X99271505Y-121048598D01*
X99135965Y-121242170D01*
X99036097Y-121456336D01*
X98974936Y-121684592D01*
X98954340Y-121919999D01*
X98974936Y-122155407D01*
X98996058Y-122234234D01*
X99036097Y-122383663D01*
X99135965Y-122597830D01*
X99271505Y-122791401D01*
X99438599Y-122958495D01*
X99624160Y-123088426D01*
X99663024Y-123132743D01*
X99677035Y-123190000D01*
X99663024Y-123247257D01*
X99624158Y-123291575D01*
X99439705Y-123420731D01*
X99438595Y-123421508D01*
X99271505Y-123588598D01*
X99135965Y-123782170D01*
X99036097Y-123996336D01*
X98974936Y-124224592D01*
X98954340Y-124460000D01*
X98974936Y-124695407D01*
X99019709Y-124862502D01*
X99036097Y-124923663D01*
X99135965Y-125137830D01*
X99271505Y-125331401D01*
X99438599Y-125498495D01*
X99624160Y-125628426D01*
X99663024Y-125672743D01*
X99677035Y-125730000D01*
X99663024Y-125787257D01*
X99624159Y-125831575D01*
X99438595Y-125961508D01*
X99271505Y-126128598D01*
X99135965Y-126322170D01*
X99036097Y-126536336D01*
X98974936Y-126764592D01*
X98954340Y-126999999D01*
X98974936Y-127235407D01*
X99019709Y-127402501D01*
X99036097Y-127463663D01*
X99135965Y-127677830D01*
X99271505Y-127871401D01*
X99438599Y-128038495D01*
X99624160Y-128168426D01*
X99663024Y-128212743D01*
X99677035Y-128270000D01*
X99663024Y-128327257D01*
X99624158Y-128371575D01*
X99448911Y-128494285D01*
X99438595Y-128501508D01*
X99271505Y-128668598D01*
X99135965Y-128862170D01*
X99036097Y-129076336D01*
X98974936Y-129304592D01*
X98954340Y-129540000D01*
X98974936Y-129775407D01*
X99019709Y-129942501D01*
X99036097Y-130003663D01*
X99135965Y-130217830D01*
X99271505Y-130411401D01*
X99438599Y-130578495D01*
X99624160Y-130708426D01*
X99663024Y-130752743D01*
X99677035Y-130810000D01*
X99663024Y-130867257D01*
X99624159Y-130911575D01*
X99438595Y-131041508D01*
X99271505Y-131208598D01*
X99135965Y-131402170D01*
X99036097Y-131616336D01*
X98974936Y-131844592D01*
X98954340Y-132079999D01*
X98974936Y-132315407D01*
X99019709Y-132482501D01*
X99036097Y-132543663D01*
X99135965Y-132757830D01*
X99271505Y-132951401D01*
X99438599Y-133118495D01*
X99624160Y-133248426D01*
X99663024Y-133292743D01*
X99677035Y-133350000D01*
X99663024Y-133407257D01*
X99624159Y-133451575D01*
X99438595Y-133581508D01*
X99271505Y-133748598D01*
X99135965Y-133942170D01*
X99036097Y-134156336D01*
X98974936Y-134384592D01*
X98954340Y-134619999D01*
X98974936Y-134855407D01*
X99019709Y-135022501D01*
X99036097Y-135083663D01*
X99135965Y-135297830D01*
X99271505Y-135491401D01*
X99438599Y-135658495D01*
X99624160Y-135788426D01*
X99663024Y-135832743D01*
X99677035Y-135890000D01*
X99663024Y-135947257D01*
X99624159Y-135991575D01*
X99438595Y-136121508D01*
X99271505Y-136288598D01*
X99135965Y-136482170D01*
X99036097Y-136696336D01*
X98974936Y-136924592D01*
X98954340Y-137160000D01*
X98974936Y-137395407D01*
X99019709Y-137562501D01*
X99036097Y-137623663D01*
X99135965Y-137837830D01*
X99271505Y-138031401D01*
X99438599Y-138198495D01*
X99624160Y-138328426D01*
X99663024Y-138372743D01*
X99677035Y-138430000D01*
X99663024Y-138487257D01*
X99624159Y-138531575D01*
X99438595Y-138661508D01*
X99271505Y-138828598D01*
X99135965Y-139022170D01*
X99036097Y-139236336D01*
X98974936Y-139464592D01*
X98954340Y-139699999D01*
X98974936Y-139935407D01*
X98985118Y-139973405D01*
X99036097Y-140163663D01*
X99135965Y-140377830D01*
X99271505Y-140571401D01*
X99438599Y-140738495D01*
X99624160Y-140868426D01*
X99663024Y-140912743D01*
X99677035Y-140970000D01*
X99663024Y-141027257D01*
X99624159Y-141071575D01*
X99438595Y-141201508D01*
X99271505Y-141368598D01*
X99135965Y-141562170D01*
X99036097Y-141776336D01*
X98974936Y-142004592D01*
X98954340Y-142240000D01*
X98974936Y-142475407D01*
X99018394Y-142637594D01*
X99036097Y-142703663D01*
X99135965Y-142917830D01*
X99271505Y-143111401D01*
X99438599Y-143278495D01*
X99624160Y-143408426D01*
X99663024Y-143452743D01*
X99677035Y-143510000D01*
X99663024Y-143567257D01*
X99624159Y-143611575D01*
X99438595Y-143741508D01*
X99271505Y-143908598D01*
X99135965Y-144102170D01*
X99036097Y-144316336D01*
X98974936Y-144544592D01*
X98954340Y-144779999D01*
X98974936Y-145015407D01*
X99006338Y-145132600D01*
X99036097Y-145243663D01*
X99135965Y-145457830D01*
X99271505Y-145651401D01*
X99438599Y-145818495D01*
X99624160Y-145948426D01*
X99663024Y-145992743D01*
X99677035Y-146050000D01*
X99663024Y-146107257D01*
X99624158Y-146151575D01*
X99443821Y-146277849D01*
X99438595Y-146281508D01*
X99271505Y-146448598D01*
X99135965Y-146642170D01*
X99036097Y-146856336D01*
X98974936Y-147084592D01*
X98954340Y-147320000D01*
X98974936Y-147555407D01*
X98997871Y-147641000D01*
X99036097Y-147783663D01*
X99135965Y-147997830D01*
X99271505Y-148191401D01*
X99438599Y-148358495D01*
X99624160Y-148488426D01*
X99663024Y-148532743D01*
X99677035Y-148590000D01*
X99663024Y-148647257D01*
X99624159Y-148691575D01*
X99438595Y-148821508D01*
X99271505Y-148988598D01*
X99135965Y-149182170D01*
X99036097Y-149396336D01*
X98974936Y-149624592D01*
X98954340Y-149860000D01*
X98974936Y-150095407D01*
X99019709Y-150262502D01*
X99036097Y-150323663D01*
X99135965Y-150537830D01*
X99271505Y-150731401D01*
X99438599Y-150898495D01*
X99624160Y-151028426D01*
X99663024Y-151072743D01*
X99677035Y-151130000D01*
X99663024Y-151187257D01*
X99624159Y-151231575D01*
X99438595Y-151361508D01*
X99271505Y-151528598D01*
X99135965Y-151722170D01*
X99036097Y-151936336D01*
X98974936Y-152164592D01*
X98954340Y-152400000D01*
X98425000Y-152400000D01*
X98425000Y-64259000D01*
X98441613Y-64197000D01*
X98487000Y-64151613D01*
X98549000Y-64135000D01*
X111001000Y-64135000D01*
X111063000Y-64151613D01*
G37*
G04 #@! TD.AperFunction*
M02*
