G04 #@! TF.GenerationSoftware,KiCad,Pcbnew,7.0.1-3b83917a11~172~ubuntu22.04.1*
G04 #@! TF.CreationDate,2023-04-09T22:52:33+09:00*
G04 #@! TF.ProjectId,Akashi-13,416b6173-6869-42d3-9133-2e6b69636164,rev?*
G04 #@! TF.SameCoordinates,Original*
G04 #@! TF.FileFunction,Legend,Top*
G04 #@! TF.FilePolarity,Positive*
%FSLAX46Y46*%
G04 Gerber Fmt 4.6, Leading zero omitted, Abs format (unit mm)*
G04 Created by KiCad (PCBNEW 7.0.1-3b83917a11~172~ubuntu22.04.1) date 2023-04-09 22:52:33*
%MOMM*%
%LPD*%
G01*
G04 APERTURE LIST*
%ADD10C,0.150000*%
%ADD11C,0.300000*%
%ADD12C,0.120000*%
G04 APERTURE END LIST*
D10*
X122443809Y-125177619D02*
X122443809Y-125891904D01*
X122443809Y-125891904D02*
X122396190Y-126034761D01*
X122396190Y-126034761D02*
X122300952Y-126130000D01*
X122300952Y-126130000D02*
X122158095Y-126177619D01*
X122158095Y-126177619D02*
X122062857Y-126177619D01*
X123253333Y-125653809D02*
X123396190Y-125701428D01*
X123396190Y-125701428D02*
X123443809Y-125749047D01*
X123443809Y-125749047D02*
X123491428Y-125844285D01*
X123491428Y-125844285D02*
X123491428Y-125987142D01*
X123491428Y-125987142D02*
X123443809Y-126082380D01*
X123443809Y-126082380D02*
X123396190Y-126130000D01*
X123396190Y-126130000D02*
X123300952Y-126177619D01*
X123300952Y-126177619D02*
X122920000Y-126177619D01*
X122920000Y-126177619D02*
X122920000Y-125177619D01*
X122920000Y-125177619D02*
X123253333Y-125177619D01*
X123253333Y-125177619D02*
X123348571Y-125225238D01*
X123348571Y-125225238D02*
X123396190Y-125272857D01*
X123396190Y-125272857D02*
X123443809Y-125368095D01*
X123443809Y-125368095D02*
X123443809Y-125463333D01*
X123443809Y-125463333D02*
X123396190Y-125558571D01*
X123396190Y-125558571D02*
X123348571Y-125606190D01*
X123348571Y-125606190D02*
X123253333Y-125653809D01*
X123253333Y-125653809D02*
X122920000Y-125653809D01*
X124443809Y-126177619D02*
X123872381Y-126177619D01*
X124158095Y-126177619D02*
X124158095Y-125177619D01*
X124158095Y-125177619D02*
X124062857Y-125320476D01*
X124062857Y-125320476D02*
X123967619Y-125415714D01*
X123967619Y-125415714D02*
X123872381Y-125463333D01*
X126396191Y-126082380D02*
X126443810Y-126130000D01*
X126443810Y-126130000D02*
X126396191Y-126177619D01*
X126396191Y-126177619D02*
X126348572Y-126130000D01*
X126348572Y-126130000D02*
X126396191Y-126082380D01*
X126396191Y-126082380D02*
X126396191Y-126177619D01*
X126396191Y-125558571D02*
X126443810Y-125606190D01*
X126443810Y-125606190D02*
X126396191Y-125653809D01*
X126396191Y-125653809D02*
X126348572Y-125606190D01*
X126348572Y-125606190D02*
X126396191Y-125558571D01*
X126396191Y-125558571D02*
X126396191Y-125653809D01*
X127586667Y-125891904D02*
X128062857Y-125891904D01*
X127491429Y-126177619D02*
X127824762Y-125177619D01*
X127824762Y-125177619D02*
X128158095Y-126177619D01*
X128491429Y-125177619D02*
X128491429Y-125987142D01*
X128491429Y-125987142D02*
X128539048Y-126082380D01*
X128539048Y-126082380D02*
X128586667Y-126130000D01*
X128586667Y-126130000D02*
X128681905Y-126177619D01*
X128681905Y-126177619D02*
X128872381Y-126177619D01*
X128872381Y-126177619D02*
X128967619Y-126130000D01*
X128967619Y-126130000D02*
X129015238Y-126082380D01*
X129015238Y-126082380D02*
X129062857Y-125987142D01*
X129062857Y-125987142D02*
X129062857Y-125177619D01*
X129396191Y-125177619D02*
X129967619Y-125177619D01*
X129681905Y-126177619D02*
X129681905Y-125177619D01*
X130491429Y-125177619D02*
X130681905Y-125177619D01*
X130681905Y-125177619D02*
X130777143Y-125225238D01*
X130777143Y-125225238D02*
X130872381Y-125320476D01*
X130872381Y-125320476D02*
X130920000Y-125510952D01*
X130920000Y-125510952D02*
X130920000Y-125844285D01*
X130920000Y-125844285D02*
X130872381Y-126034761D01*
X130872381Y-126034761D02*
X130777143Y-126130000D01*
X130777143Y-126130000D02*
X130681905Y-126177619D01*
X130681905Y-126177619D02*
X130491429Y-126177619D01*
X130491429Y-126177619D02*
X130396191Y-126130000D01*
X130396191Y-126130000D02*
X130300953Y-126034761D01*
X130300953Y-126034761D02*
X130253334Y-125844285D01*
X130253334Y-125844285D02*
X130253334Y-125510952D01*
X130253334Y-125510952D02*
X130300953Y-125320476D01*
X130300953Y-125320476D02*
X130396191Y-125225238D01*
X130396191Y-125225238D02*
X130491429Y-125177619D01*
X132110477Y-126177619D02*
X132110477Y-125177619D01*
X132110477Y-125177619D02*
X132443810Y-125891904D01*
X132443810Y-125891904D02*
X132777143Y-125177619D01*
X132777143Y-125177619D02*
X132777143Y-126177619D01*
X133253334Y-126177619D02*
X133253334Y-125177619D01*
X133253334Y-125177619D02*
X133491429Y-125177619D01*
X133491429Y-125177619D02*
X133634286Y-125225238D01*
X133634286Y-125225238D02*
X133729524Y-125320476D01*
X133729524Y-125320476D02*
X133777143Y-125415714D01*
X133777143Y-125415714D02*
X133824762Y-125606190D01*
X133824762Y-125606190D02*
X133824762Y-125749047D01*
X133824762Y-125749047D02*
X133777143Y-125939523D01*
X133777143Y-125939523D02*
X133729524Y-126034761D01*
X133729524Y-126034761D02*
X133634286Y-126130000D01*
X133634286Y-126130000D02*
X133491429Y-126177619D01*
X133491429Y-126177619D02*
X133253334Y-126177619D01*
X134253334Y-126177619D02*
X134253334Y-125177619D01*
X134634286Y-125177619D02*
X135300952Y-126177619D01*
X135300952Y-125177619D02*
X134634286Y-126177619D01*
X125396191Y-126797619D02*
X125586667Y-126797619D01*
X125586667Y-126797619D02*
X125681905Y-126845238D01*
X125681905Y-126845238D02*
X125777143Y-126940476D01*
X125777143Y-126940476D02*
X125824762Y-127130952D01*
X125824762Y-127130952D02*
X125824762Y-127464285D01*
X125824762Y-127464285D02*
X125777143Y-127654761D01*
X125777143Y-127654761D02*
X125681905Y-127750000D01*
X125681905Y-127750000D02*
X125586667Y-127797619D01*
X125586667Y-127797619D02*
X125396191Y-127797619D01*
X125396191Y-127797619D02*
X125300953Y-127750000D01*
X125300953Y-127750000D02*
X125205715Y-127654761D01*
X125205715Y-127654761D02*
X125158096Y-127464285D01*
X125158096Y-127464285D02*
X125158096Y-127130952D01*
X125158096Y-127130952D02*
X125205715Y-126940476D01*
X125205715Y-126940476D02*
X125300953Y-126845238D01*
X125300953Y-126845238D02*
X125396191Y-126797619D01*
X126253334Y-127797619D02*
X126253334Y-126797619D01*
X126253334Y-126797619D02*
X126634286Y-126797619D01*
X126634286Y-126797619D02*
X126729524Y-126845238D01*
X126729524Y-126845238D02*
X126777143Y-126892857D01*
X126777143Y-126892857D02*
X126824762Y-126988095D01*
X126824762Y-126988095D02*
X126824762Y-127130952D01*
X126824762Y-127130952D02*
X126777143Y-127226190D01*
X126777143Y-127226190D02*
X126729524Y-127273809D01*
X126729524Y-127273809D02*
X126634286Y-127321428D01*
X126634286Y-127321428D02*
X126253334Y-127321428D01*
X127253334Y-127273809D02*
X127586667Y-127273809D01*
X127729524Y-127797619D02*
X127253334Y-127797619D01*
X127253334Y-127797619D02*
X127253334Y-126797619D01*
X127253334Y-126797619D02*
X127729524Y-126797619D01*
X128158096Y-127797619D02*
X128158096Y-126797619D01*
X128158096Y-126797619D02*
X128729524Y-127797619D01*
X128729524Y-127797619D02*
X128729524Y-126797619D01*
X130729525Y-127273809D02*
X131491430Y-127273809D01*
X131491430Y-127559523D02*
X130729525Y-127559523D01*
X131967620Y-127130952D02*
X132729525Y-127416666D01*
X132729525Y-127416666D02*
X131967620Y-127702380D01*
X133967620Y-127273809D02*
X134300953Y-127273809D01*
X134443810Y-127797619D02*
X133967620Y-127797619D01*
X133967620Y-127797619D02*
X133967620Y-126797619D01*
X133967620Y-126797619D02*
X134443810Y-126797619D01*
X134872382Y-127797619D02*
X134872382Y-126797619D01*
X134872382Y-126797619D02*
X135443810Y-127797619D01*
X135443810Y-127797619D02*
X135443810Y-126797619D01*
X135872382Y-127511904D02*
X136348572Y-127511904D01*
X135777144Y-127797619D02*
X136110477Y-126797619D01*
X136110477Y-126797619D02*
X136443810Y-127797619D01*
X137110477Y-127273809D02*
X137253334Y-127321428D01*
X137253334Y-127321428D02*
X137300953Y-127369047D01*
X137300953Y-127369047D02*
X137348572Y-127464285D01*
X137348572Y-127464285D02*
X137348572Y-127607142D01*
X137348572Y-127607142D02*
X137300953Y-127702380D01*
X137300953Y-127702380D02*
X137253334Y-127750000D01*
X137253334Y-127750000D02*
X137158096Y-127797619D01*
X137158096Y-127797619D02*
X136777144Y-127797619D01*
X136777144Y-127797619D02*
X136777144Y-126797619D01*
X136777144Y-126797619D02*
X137110477Y-126797619D01*
X137110477Y-126797619D02*
X137205715Y-126845238D01*
X137205715Y-126845238D02*
X137253334Y-126892857D01*
X137253334Y-126892857D02*
X137300953Y-126988095D01*
X137300953Y-126988095D02*
X137300953Y-127083333D01*
X137300953Y-127083333D02*
X137253334Y-127178571D01*
X137253334Y-127178571D02*
X137205715Y-127226190D01*
X137205715Y-127226190D02*
X137110477Y-127273809D01*
X137110477Y-127273809D02*
X136777144Y-127273809D01*
X138253334Y-127797619D02*
X137777144Y-127797619D01*
X137777144Y-127797619D02*
X137777144Y-126797619D01*
X138586668Y-127273809D02*
X138920001Y-127273809D01*
X139062858Y-127797619D02*
X138586668Y-127797619D01*
X138586668Y-127797619D02*
X138586668Y-126797619D01*
X138586668Y-126797619D02*
X139062858Y-126797619D01*
X125158096Y-129370000D02*
X125300953Y-129417619D01*
X125300953Y-129417619D02*
X125539048Y-129417619D01*
X125539048Y-129417619D02*
X125634286Y-129370000D01*
X125634286Y-129370000D02*
X125681905Y-129322380D01*
X125681905Y-129322380D02*
X125729524Y-129227142D01*
X125729524Y-129227142D02*
X125729524Y-129131904D01*
X125729524Y-129131904D02*
X125681905Y-129036666D01*
X125681905Y-129036666D02*
X125634286Y-128989047D01*
X125634286Y-128989047D02*
X125539048Y-128941428D01*
X125539048Y-128941428D02*
X125348572Y-128893809D01*
X125348572Y-128893809D02*
X125253334Y-128846190D01*
X125253334Y-128846190D02*
X125205715Y-128798571D01*
X125205715Y-128798571D02*
X125158096Y-128703333D01*
X125158096Y-128703333D02*
X125158096Y-128608095D01*
X125158096Y-128608095D02*
X125205715Y-128512857D01*
X125205715Y-128512857D02*
X125253334Y-128465238D01*
X125253334Y-128465238D02*
X125348572Y-128417619D01*
X125348572Y-128417619D02*
X125586667Y-128417619D01*
X125586667Y-128417619D02*
X125729524Y-128465238D01*
X126158096Y-129417619D02*
X126158096Y-128417619D01*
X126158096Y-128893809D02*
X126729524Y-128893809D01*
X126729524Y-129417619D02*
X126729524Y-128417619D01*
X127396191Y-128417619D02*
X127586667Y-128417619D01*
X127586667Y-128417619D02*
X127681905Y-128465238D01*
X127681905Y-128465238D02*
X127777143Y-128560476D01*
X127777143Y-128560476D02*
X127824762Y-128750952D01*
X127824762Y-128750952D02*
X127824762Y-129084285D01*
X127824762Y-129084285D02*
X127777143Y-129274761D01*
X127777143Y-129274761D02*
X127681905Y-129370000D01*
X127681905Y-129370000D02*
X127586667Y-129417619D01*
X127586667Y-129417619D02*
X127396191Y-129417619D01*
X127396191Y-129417619D02*
X127300953Y-129370000D01*
X127300953Y-129370000D02*
X127205715Y-129274761D01*
X127205715Y-129274761D02*
X127158096Y-129084285D01*
X127158096Y-129084285D02*
X127158096Y-128750952D01*
X127158096Y-128750952D02*
X127205715Y-128560476D01*
X127205715Y-128560476D02*
X127300953Y-128465238D01*
X127300953Y-128465238D02*
X127396191Y-128417619D01*
X128824762Y-129417619D02*
X128491429Y-128941428D01*
X128253334Y-129417619D02*
X128253334Y-128417619D01*
X128253334Y-128417619D02*
X128634286Y-128417619D01*
X128634286Y-128417619D02*
X128729524Y-128465238D01*
X128729524Y-128465238D02*
X128777143Y-128512857D01*
X128777143Y-128512857D02*
X128824762Y-128608095D01*
X128824762Y-128608095D02*
X128824762Y-128750952D01*
X128824762Y-128750952D02*
X128777143Y-128846190D01*
X128777143Y-128846190D02*
X128729524Y-128893809D01*
X128729524Y-128893809D02*
X128634286Y-128941428D01*
X128634286Y-128941428D02*
X128253334Y-128941428D01*
X129110477Y-128417619D02*
X129681905Y-128417619D01*
X129396191Y-129417619D02*
X129396191Y-128417619D01*
X130777144Y-128893809D02*
X131539049Y-128893809D01*
X131539049Y-129179523D02*
X130777144Y-129179523D01*
X132015239Y-128750952D02*
X132777144Y-129036666D01*
X132777144Y-129036666D02*
X132015239Y-129322380D01*
X134015239Y-129417619D02*
X134015239Y-128417619D01*
X134015239Y-128417619D02*
X134253334Y-128417619D01*
X134253334Y-128417619D02*
X134396191Y-128465238D01*
X134396191Y-128465238D02*
X134491429Y-128560476D01*
X134491429Y-128560476D02*
X134539048Y-128655714D01*
X134539048Y-128655714D02*
X134586667Y-128846190D01*
X134586667Y-128846190D02*
X134586667Y-128989047D01*
X134586667Y-128989047D02*
X134539048Y-129179523D01*
X134539048Y-129179523D02*
X134491429Y-129274761D01*
X134491429Y-129274761D02*
X134396191Y-129370000D01*
X134396191Y-129370000D02*
X134253334Y-129417619D01*
X134253334Y-129417619D02*
X134015239Y-129417619D01*
X135015239Y-129417619D02*
X135015239Y-128417619D01*
X135443810Y-129370000D02*
X135586667Y-129417619D01*
X135586667Y-129417619D02*
X135824762Y-129417619D01*
X135824762Y-129417619D02*
X135920000Y-129370000D01*
X135920000Y-129370000D02*
X135967619Y-129322380D01*
X135967619Y-129322380D02*
X136015238Y-129227142D01*
X136015238Y-129227142D02*
X136015238Y-129131904D01*
X136015238Y-129131904D02*
X135967619Y-129036666D01*
X135967619Y-129036666D02*
X135920000Y-128989047D01*
X135920000Y-128989047D02*
X135824762Y-128941428D01*
X135824762Y-128941428D02*
X135634286Y-128893809D01*
X135634286Y-128893809D02*
X135539048Y-128846190D01*
X135539048Y-128846190D02*
X135491429Y-128798571D01*
X135491429Y-128798571D02*
X135443810Y-128703333D01*
X135443810Y-128703333D02*
X135443810Y-128608095D01*
X135443810Y-128608095D02*
X135491429Y-128512857D01*
X135491429Y-128512857D02*
X135539048Y-128465238D01*
X135539048Y-128465238D02*
X135634286Y-128417619D01*
X135634286Y-128417619D02*
X135872381Y-128417619D01*
X135872381Y-128417619D02*
X136015238Y-128465238D01*
X136396191Y-129131904D02*
X136872381Y-129131904D01*
X136300953Y-129417619D02*
X136634286Y-128417619D01*
X136634286Y-128417619D02*
X136967619Y-129417619D01*
X137634286Y-128893809D02*
X137777143Y-128941428D01*
X137777143Y-128941428D02*
X137824762Y-128989047D01*
X137824762Y-128989047D02*
X137872381Y-129084285D01*
X137872381Y-129084285D02*
X137872381Y-129227142D01*
X137872381Y-129227142D02*
X137824762Y-129322380D01*
X137824762Y-129322380D02*
X137777143Y-129370000D01*
X137777143Y-129370000D02*
X137681905Y-129417619D01*
X137681905Y-129417619D02*
X137300953Y-129417619D01*
X137300953Y-129417619D02*
X137300953Y-128417619D01*
X137300953Y-128417619D02*
X137634286Y-128417619D01*
X137634286Y-128417619D02*
X137729524Y-128465238D01*
X137729524Y-128465238D02*
X137777143Y-128512857D01*
X137777143Y-128512857D02*
X137824762Y-128608095D01*
X137824762Y-128608095D02*
X137824762Y-128703333D01*
X137824762Y-128703333D02*
X137777143Y-128798571D01*
X137777143Y-128798571D02*
X137729524Y-128846190D01*
X137729524Y-128846190D02*
X137634286Y-128893809D01*
X137634286Y-128893809D02*
X137300953Y-128893809D01*
X138777143Y-129417619D02*
X138300953Y-129417619D01*
X138300953Y-129417619D02*
X138300953Y-128417619D01*
X139110477Y-128893809D02*
X139443810Y-128893809D01*
X139586667Y-129417619D02*
X139110477Y-129417619D01*
X139110477Y-129417619D02*
X139110477Y-128417619D01*
X139110477Y-128417619D02*
X139586667Y-128417619D01*
D11*
X113130952Y-83933809D02*
X114083333Y-83933809D01*
X112940476Y-84505238D02*
X113607142Y-82505238D01*
X113607142Y-82505238D02*
X114273809Y-84505238D01*
X114940476Y-84505238D02*
X114940476Y-82505238D01*
X115130952Y-83743333D02*
X115702381Y-84505238D01*
X115702381Y-83171904D02*
X114940476Y-83933809D01*
X117416667Y-84505238D02*
X117416667Y-83457619D01*
X117416667Y-83457619D02*
X117321429Y-83267142D01*
X117321429Y-83267142D02*
X117130953Y-83171904D01*
X117130953Y-83171904D02*
X116750000Y-83171904D01*
X116750000Y-83171904D02*
X116559524Y-83267142D01*
X117416667Y-84410000D02*
X117226191Y-84505238D01*
X117226191Y-84505238D02*
X116750000Y-84505238D01*
X116750000Y-84505238D02*
X116559524Y-84410000D01*
X116559524Y-84410000D02*
X116464286Y-84219523D01*
X116464286Y-84219523D02*
X116464286Y-84029047D01*
X116464286Y-84029047D02*
X116559524Y-83838571D01*
X116559524Y-83838571D02*
X116750000Y-83743333D01*
X116750000Y-83743333D02*
X117226191Y-83743333D01*
X117226191Y-83743333D02*
X117416667Y-83648095D01*
X118273810Y-84410000D02*
X118464286Y-84505238D01*
X118464286Y-84505238D02*
X118845238Y-84505238D01*
X118845238Y-84505238D02*
X119035715Y-84410000D01*
X119035715Y-84410000D02*
X119130953Y-84219523D01*
X119130953Y-84219523D02*
X119130953Y-84124285D01*
X119130953Y-84124285D02*
X119035715Y-83933809D01*
X119035715Y-83933809D02*
X118845238Y-83838571D01*
X118845238Y-83838571D02*
X118559524Y-83838571D01*
X118559524Y-83838571D02*
X118369048Y-83743333D01*
X118369048Y-83743333D02*
X118273810Y-83552857D01*
X118273810Y-83552857D02*
X118273810Y-83457619D01*
X118273810Y-83457619D02*
X118369048Y-83267142D01*
X118369048Y-83267142D02*
X118559524Y-83171904D01*
X118559524Y-83171904D02*
X118845238Y-83171904D01*
X118845238Y-83171904D02*
X119035715Y-83267142D01*
X119988096Y-84505238D02*
X119988096Y-82505238D01*
X120845239Y-84505238D02*
X120845239Y-83457619D01*
X120845239Y-83457619D02*
X120750001Y-83267142D01*
X120750001Y-83267142D02*
X120559525Y-83171904D01*
X120559525Y-83171904D02*
X120273810Y-83171904D01*
X120273810Y-83171904D02*
X120083334Y-83267142D01*
X120083334Y-83267142D02*
X119988096Y-83362380D01*
X121797620Y-84505238D02*
X121797620Y-83171904D01*
X121797620Y-82505238D02*
X121702382Y-82600476D01*
X121702382Y-82600476D02*
X121797620Y-82695714D01*
X121797620Y-82695714D02*
X121892858Y-82600476D01*
X121892858Y-82600476D02*
X121797620Y-82505238D01*
X121797620Y-82505238D02*
X121797620Y-82695714D01*
X122750001Y-83743333D02*
X124273811Y-83743333D01*
X126273810Y-84505238D02*
X125130953Y-84505238D01*
X125702381Y-84505238D02*
X125702381Y-82505238D01*
X125702381Y-82505238D02*
X125511905Y-82790952D01*
X125511905Y-82790952D02*
X125321429Y-82981428D01*
X125321429Y-82981428D02*
X125130953Y-83076666D01*
X126940477Y-82505238D02*
X128178572Y-82505238D01*
X128178572Y-82505238D02*
X127511905Y-83267142D01*
X127511905Y-83267142D02*
X127797620Y-83267142D01*
X127797620Y-83267142D02*
X127988096Y-83362380D01*
X127988096Y-83362380D02*
X128083334Y-83457619D01*
X128083334Y-83457619D02*
X128178572Y-83648095D01*
X128178572Y-83648095D02*
X128178572Y-84124285D01*
X128178572Y-84124285D02*
X128083334Y-84314761D01*
X128083334Y-84314761D02*
X127988096Y-84410000D01*
X127988096Y-84410000D02*
X127797620Y-84505238D01*
X127797620Y-84505238D02*
X127226191Y-84505238D01*
X127226191Y-84505238D02*
X127035715Y-84410000D01*
X127035715Y-84410000D02*
X126940477Y-84314761D01*
D10*
X141160476Y-153500000D02*
X141303333Y-153547619D01*
X141303333Y-153547619D02*
X141541428Y-153547619D01*
X141541428Y-153547619D02*
X141636666Y-153500000D01*
X141636666Y-153500000D02*
X141684285Y-153452380D01*
X141684285Y-153452380D02*
X141731904Y-153357142D01*
X141731904Y-153357142D02*
X141731904Y-153261904D01*
X141731904Y-153261904D02*
X141684285Y-153166666D01*
X141684285Y-153166666D02*
X141636666Y-153119047D01*
X141636666Y-153119047D02*
X141541428Y-153071428D01*
X141541428Y-153071428D02*
X141350952Y-153023809D01*
X141350952Y-153023809D02*
X141255714Y-152976190D01*
X141255714Y-152976190D02*
X141208095Y-152928571D01*
X141208095Y-152928571D02*
X141160476Y-152833333D01*
X141160476Y-152833333D02*
X141160476Y-152738095D01*
X141160476Y-152738095D02*
X141208095Y-152642857D01*
X141208095Y-152642857D02*
X141255714Y-152595238D01*
X141255714Y-152595238D02*
X141350952Y-152547619D01*
X141350952Y-152547619D02*
X141589047Y-152547619D01*
X141589047Y-152547619D02*
X141731904Y-152595238D01*
X142160476Y-153547619D02*
X142160476Y-152547619D01*
X142160476Y-152547619D02*
X142541428Y-152547619D01*
X142541428Y-152547619D02*
X142636666Y-152595238D01*
X142636666Y-152595238D02*
X142684285Y-152642857D01*
X142684285Y-152642857D02*
X142731904Y-152738095D01*
X142731904Y-152738095D02*
X142731904Y-152880952D01*
X142731904Y-152880952D02*
X142684285Y-152976190D01*
X142684285Y-152976190D02*
X142636666Y-153023809D01*
X142636666Y-153023809D02*
X142541428Y-153071428D01*
X142541428Y-153071428D02*
X142160476Y-153071428D01*
X143160476Y-153023809D02*
X143493809Y-153023809D01*
X143636666Y-153547619D02*
X143160476Y-153547619D01*
X143160476Y-153547619D02*
X143160476Y-152547619D01*
X143160476Y-152547619D02*
X143636666Y-152547619D01*
X144065238Y-153023809D02*
X144398571Y-153023809D01*
X144541428Y-153547619D02*
X144065238Y-153547619D01*
X144065238Y-153547619D02*
X144065238Y-152547619D01*
X144065238Y-152547619D02*
X144541428Y-152547619D01*
X144970000Y-153547619D02*
X144970000Y-152547619D01*
X144970000Y-152547619D02*
X145208095Y-152547619D01*
X145208095Y-152547619D02*
X145350952Y-152595238D01*
X145350952Y-152595238D02*
X145446190Y-152690476D01*
X145446190Y-152690476D02*
X145493809Y-152785714D01*
X145493809Y-152785714D02*
X145541428Y-152976190D01*
X145541428Y-152976190D02*
X145541428Y-153119047D01*
X145541428Y-153119047D02*
X145493809Y-153309523D01*
X145493809Y-153309523D02*
X145446190Y-153404761D01*
X145446190Y-153404761D02*
X145350952Y-153500000D01*
X145350952Y-153500000D02*
X145208095Y-153547619D01*
X145208095Y-153547619D02*
X144970000Y-153547619D01*
X147255714Y-153547619D02*
X146684286Y-153547619D01*
X146970000Y-153547619D02*
X146970000Y-152547619D01*
X146970000Y-152547619D02*
X146874762Y-152690476D01*
X146874762Y-152690476D02*
X146779524Y-152785714D01*
X146779524Y-152785714D02*
X146684286Y-152833333D01*
X147874762Y-152547619D02*
X147970000Y-152547619D01*
X147970000Y-152547619D02*
X148065238Y-152595238D01*
X148065238Y-152595238D02*
X148112857Y-152642857D01*
X148112857Y-152642857D02*
X148160476Y-152738095D01*
X148160476Y-152738095D02*
X148208095Y-152928571D01*
X148208095Y-152928571D02*
X148208095Y-153166666D01*
X148208095Y-153166666D02*
X148160476Y-153357142D01*
X148160476Y-153357142D02*
X148112857Y-153452380D01*
X148112857Y-153452380D02*
X148065238Y-153500000D01*
X148065238Y-153500000D02*
X147970000Y-153547619D01*
X147970000Y-153547619D02*
X147874762Y-153547619D01*
X147874762Y-153547619D02*
X147779524Y-153500000D01*
X147779524Y-153500000D02*
X147731905Y-153452380D01*
X147731905Y-153452380D02*
X147684286Y-153357142D01*
X147684286Y-153357142D02*
X147636667Y-153166666D01*
X147636667Y-153166666D02*
X147636667Y-152928571D01*
X147636667Y-152928571D02*
X147684286Y-152738095D01*
X147684286Y-152738095D02*
X147731905Y-152642857D01*
X147731905Y-152642857D02*
X147779524Y-152595238D01*
X147779524Y-152595238D02*
X147874762Y-152547619D01*
X148827143Y-152547619D02*
X148922381Y-152547619D01*
X148922381Y-152547619D02*
X149017619Y-152595238D01*
X149017619Y-152595238D02*
X149065238Y-152642857D01*
X149065238Y-152642857D02*
X149112857Y-152738095D01*
X149112857Y-152738095D02*
X149160476Y-152928571D01*
X149160476Y-152928571D02*
X149160476Y-153166666D01*
X149160476Y-153166666D02*
X149112857Y-153357142D01*
X149112857Y-153357142D02*
X149065238Y-153452380D01*
X149065238Y-153452380D02*
X149017619Y-153500000D01*
X149017619Y-153500000D02*
X148922381Y-153547619D01*
X148922381Y-153547619D02*
X148827143Y-153547619D01*
X148827143Y-153547619D02*
X148731905Y-153500000D01*
X148731905Y-153500000D02*
X148684286Y-153452380D01*
X148684286Y-153452380D02*
X148636667Y-153357142D01*
X148636667Y-153357142D02*
X148589048Y-153166666D01*
X148589048Y-153166666D02*
X148589048Y-152928571D01*
X148589048Y-152928571D02*
X148636667Y-152738095D01*
X148636667Y-152738095D02*
X148684286Y-152642857D01*
X148684286Y-152642857D02*
X148731905Y-152595238D01*
X148731905Y-152595238D02*
X148827143Y-152547619D01*
X112595238Y-84507619D02*
X112928571Y-85507619D01*
X112928571Y-85507619D02*
X113261904Y-84507619D01*
X113976190Y-85460000D02*
X113880952Y-85507619D01*
X113880952Y-85507619D02*
X113690476Y-85507619D01*
X113690476Y-85507619D02*
X113595238Y-85460000D01*
X113595238Y-85460000D02*
X113547619Y-85364761D01*
X113547619Y-85364761D02*
X113547619Y-84983809D01*
X113547619Y-84983809D02*
X113595238Y-84888571D01*
X113595238Y-84888571D02*
X113690476Y-84840952D01*
X113690476Y-84840952D02*
X113880952Y-84840952D01*
X113880952Y-84840952D02*
X113976190Y-84888571D01*
X113976190Y-84888571D02*
X114023809Y-84983809D01*
X114023809Y-84983809D02*
X114023809Y-85079047D01*
X114023809Y-85079047D02*
X113547619Y-85174285D01*
X114452381Y-85507619D02*
X114452381Y-84840952D01*
X114452381Y-85031428D02*
X114500000Y-84936190D01*
X114500000Y-84936190D02*
X114547619Y-84888571D01*
X114547619Y-84888571D02*
X114642857Y-84840952D01*
X114642857Y-84840952D02*
X114738095Y-84840952D01*
X116357143Y-85507619D02*
X115785715Y-85507619D01*
X116071429Y-85507619D02*
X116071429Y-84507619D01*
X116071429Y-84507619D02*
X115976191Y-84650476D01*
X115976191Y-84650476D02*
X115880953Y-84745714D01*
X115880953Y-84745714D02*
X115785715Y-84793333D01*
X116785715Y-85412380D02*
X116833334Y-85460000D01*
X116833334Y-85460000D02*
X116785715Y-85507619D01*
X116785715Y-85507619D02*
X116738096Y-85460000D01*
X116738096Y-85460000D02*
X116785715Y-85412380D01*
X116785715Y-85412380D02*
X116785715Y-85507619D01*
X117452381Y-84507619D02*
X117547619Y-84507619D01*
X117547619Y-84507619D02*
X117642857Y-84555238D01*
X117642857Y-84555238D02*
X117690476Y-84602857D01*
X117690476Y-84602857D02*
X117738095Y-84698095D01*
X117738095Y-84698095D02*
X117785714Y-84888571D01*
X117785714Y-84888571D02*
X117785714Y-85126666D01*
X117785714Y-85126666D02*
X117738095Y-85317142D01*
X117738095Y-85317142D02*
X117690476Y-85412380D01*
X117690476Y-85412380D02*
X117642857Y-85460000D01*
X117642857Y-85460000D02*
X117547619Y-85507619D01*
X117547619Y-85507619D02*
X117452381Y-85507619D01*
X117452381Y-85507619D02*
X117357143Y-85460000D01*
X117357143Y-85460000D02*
X117309524Y-85412380D01*
X117309524Y-85412380D02*
X117261905Y-85317142D01*
X117261905Y-85317142D02*
X117214286Y-85126666D01*
X117214286Y-85126666D02*
X117214286Y-84888571D01*
X117214286Y-84888571D02*
X117261905Y-84698095D01*
X117261905Y-84698095D02*
X117309524Y-84602857D01*
X117309524Y-84602857D02*
X117357143Y-84555238D01*
X117357143Y-84555238D02*
X117452381Y-84507619D01*
X118214286Y-85412380D02*
X118261905Y-85460000D01*
X118261905Y-85460000D02*
X118214286Y-85507619D01*
X118214286Y-85507619D02*
X118166667Y-85460000D01*
X118166667Y-85460000D02*
X118214286Y-85412380D01*
X118214286Y-85412380D02*
X118214286Y-85507619D01*
X118880952Y-84507619D02*
X118976190Y-84507619D01*
X118976190Y-84507619D02*
X119071428Y-84555238D01*
X119071428Y-84555238D02*
X119119047Y-84602857D01*
X119119047Y-84602857D02*
X119166666Y-84698095D01*
X119166666Y-84698095D02*
X119214285Y-84888571D01*
X119214285Y-84888571D02*
X119214285Y-85126666D01*
X119214285Y-85126666D02*
X119166666Y-85317142D01*
X119166666Y-85317142D02*
X119119047Y-85412380D01*
X119119047Y-85412380D02*
X119071428Y-85460000D01*
X119071428Y-85460000D02*
X118976190Y-85507619D01*
X118976190Y-85507619D02*
X118880952Y-85507619D01*
X118880952Y-85507619D02*
X118785714Y-85460000D01*
X118785714Y-85460000D02*
X118738095Y-85412380D01*
X118738095Y-85412380D02*
X118690476Y-85317142D01*
X118690476Y-85317142D02*
X118642857Y-85126666D01*
X118642857Y-85126666D02*
X118642857Y-84888571D01*
X118642857Y-84888571D02*
X118690476Y-84698095D01*
X118690476Y-84698095D02*
X118738095Y-84602857D01*
X118738095Y-84602857D02*
X118785714Y-84555238D01*
X118785714Y-84555238D02*
X118880952Y-84507619D01*
X112738095Y-86603809D02*
X113071428Y-86603809D01*
X113214285Y-87127619D02*
X112738095Y-87127619D01*
X112738095Y-87127619D02*
X112738095Y-86127619D01*
X112738095Y-86127619D02*
X113214285Y-86127619D01*
X113500000Y-86460952D02*
X113880952Y-86460952D01*
X113642857Y-86127619D02*
X113642857Y-86984761D01*
X113642857Y-86984761D02*
X113690476Y-87080000D01*
X113690476Y-87080000D02*
X113785714Y-87127619D01*
X113785714Y-87127619D02*
X113880952Y-87127619D01*
X114214286Y-87127619D02*
X114214286Y-86127619D01*
X114642857Y-87127619D02*
X114642857Y-86603809D01*
X114642857Y-86603809D02*
X114595238Y-86508571D01*
X114595238Y-86508571D02*
X114500000Y-86460952D01*
X114500000Y-86460952D02*
X114357143Y-86460952D01*
X114357143Y-86460952D02*
X114261905Y-86508571D01*
X114261905Y-86508571D02*
X114214286Y-86556190D01*
X115500000Y-87080000D02*
X115404762Y-87127619D01*
X115404762Y-87127619D02*
X115214286Y-87127619D01*
X115214286Y-87127619D02*
X115119048Y-87080000D01*
X115119048Y-87080000D02*
X115071429Y-86984761D01*
X115071429Y-86984761D02*
X115071429Y-86603809D01*
X115071429Y-86603809D02*
X115119048Y-86508571D01*
X115119048Y-86508571D02*
X115214286Y-86460952D01*
X115214286Y-86460952D02*
X115404762Y-86460952D01*
X115404762Y-86460952D02*
X115500000Y-86508571D01*
X115500000Y-86508571D02*
X115547619Y-86603809D01*
X115547619Y-86603809D02*
X115547619Y-86699047D01*
X115547619Y-86699047D02*
X115071429Y-86794285D01*
X115976191Y-87127619D02*
X115976191Y-86460952D01*
X115976191Y-86651428D02*
X116023810Y-86556190D01*
X116023810Y-86556190D02*
X116071429Y-86508571D01*
X116071429Y-86508571D02*
X116166667Y-86460952D01*
X116166667Y-86460952D02*
X116261905Y-86460952D01*
X116595239Y-86460952D02*
X116595239Y-87127619D01*
X116595239Y-86556190D02*
X116642858Y-86508571D01*
X116642858Y-86508571D02*
X116738096Y-86460952D01*
X116738096Y-86460952D02*
X116880953Y-86460952D01*
X116880953Y-86460952D02*
X116976191Y-86508571D01*
X116976191Y-86508571D02*
X117023810Y-86603809D01*
X117023810Y-86603809D02*
X117023810Y-87127619D01*
X117880953Y-87080000D02*
X117785715Y-87127619D01*
X117785715Y-87127619D02*
X117595239Y-87127619D01*
X117595239Y-87127619D02*
X117500001Y-87080000D01*
X117500001Y-87080000D02*
X117452382Y-86984761D01*
X117452382Y-86984761D02*
X117452382Y-86603809D01*
X117452382Y-86603809D02*
X117500001Y-86508571D01*
X117500001Y-86508571D02*
X117595239Y-86460952D01*
X117595239Y-86460952D02*
X117785715Y-86460952D01*
X117785715Y-86460952D02*
X117880953Y-86508571D01*
X117880953Y-86508571D02*
X117928572Y-86603809D01*
X117928572Y-86603809D02*
X117928572Y-86699047D01*
X117928572Y-86699047D02*
X117452382Y-86794285D01*
X118214287Y-86460952D02*
X118595239Y-86460952D01*
X118357144Y-86127619D02*
X118357144Y-86984761D01*
X118357144Y-86984761D02*
X118404763Y-87080000D01*
X118404763Y-87080000D02*
X118500001Y-87127619D01*
X118500001Y-87127619D02*
X118595239Y-87127619D01*
X119690478Y-87127619D02*
X119690478Y-86127619D01*
X119690478Y-86508571D02*
X119785716Y-86460952D01*
X119785716Y-86460952D02*
X119976192Y-86460952D01*
X119976192Y-86460952D02*
X120071430Y-86508571D01*
X120071430Y-86508571D02*
X120119049Y-86556190D01*
X120119049Y-86556190D02*
X120166668Y-86651428D01*
X120166668Y-86651428D02*
X120166668Y-86937142D01*
X120166668Y-86937142D02*
X120119049Y-87032380D01*
X120119049Y-87032380D02*
X120071430Y-87080000D01*
X120071430Y-87080000D02*
X119976192Y-87127619D01*
X119976192Y-87127619D02*
X119785716Y-87127619D01*
X119785716Y-87127619D02*
X119690478Y-87080000D01*
X120738097Y-87127619D02*
X120642859Y-87080000D01*
X120642859Y-87080000D02*
X120595240Y-87032380D01*
X120595240Y-87032380D02*
X120547621Y-86937142D01*
X120547621Y-86937142D02*
X120547621Y-86651428D01*
X120547621Y-86651428D02*
X120595240Y-86556190D01*
X120595240Y-86556190D02*
X120642859Y-86508571D01*
X120642859Y-86508571D02*
X120738097Y-86460952D01*
X120738097Y-86460952D02*
X120880954Y-86460952D01*
X120880954Y-86460952D02*
X120976192Y-86508571D01*
X120976192Y-86508571D02*
X121023811Y-86556190D01*
X121023811Y-86556190D02*
X121071430Y-86651428D01*
X121071430Y-86651428D02*
X121071430Y-86937142D01*
X121071430Y-86937142D02*
X121023811Y-87032380D01*
X121023811Y-87032380D02*
X120976192Y-87080000D01*
X120976192Y-87080000D02*
X120880954Y-87127619D01*
X120880954Y-87127619D02*
X120738097Y-87127619D01*
X121928573Y-87127619D02*
X121928573Y-86603809D01*
X121928573Y-86603809D02*
X121880954Y-86508571D01*
X121880954Y-86508571D02*
X121785716Y-86460952D01*
X121785716Y-86460952D02*
X121595240Y-86460952D01*
X121595240Y-86460952D02*
X121500002Y-86508571D01*
X121928573Y-87080000D02*
X121833335Y-87127619D01*
X121833335Y-87127619D02*
X121595240Y-87127619D01*
X121595240Y-87127619D02*
X121500002Y-87080000D01*
X121500002Y-87080000D02*
X121452383Y-86984761D01*
X121452383Y-86984761D02*
X121452383Y-86889523D01*
X121452383Y-86889523D02*
X121500002Y-86794285D01*
X121500002Y-86794285D02*
X121595240Y-86746666D01*
X121595240Y-86746666D02*
X121833335Y-86746666D01*
X121833335Y-86746666D02*
X121928573Y-86699047D01*
X122404764Y-87127619D02*
X122404764Y-86460952D01*
X122404764Y-86651428D02*
X122452383Y-86556190D01*
X122452383Y-86556190D02*
X122500002Y-86508571D01*
X122500002Y-86508571D02*
X122595240Y-86460952D01*
X122595240Y-86460952D02*
X122690478Y-86460952D01*
X123452383Y-87127619D02*
X123452383Y-86127619D01*
X123452383Y-87080000D02*
X123357145Y-87127619D01*
X123357145Y-87127619D02*
X123166669Y-87127619D01*
X123166669Y-87127619D02*
X123071431Y-87080000D01*
X123071431Y-87080000D02*
X123023812Y-87032380D01*
X123023812Y-87032380D02*
X122976193Y-86937142D01*
X122976193Y-86937142D02*
X122976193Y-86651428D01*
X122976193Y-86651428D02*
X123023812Y-86556190D01*
X123023812Y-86556190D02*
X123071431Y-86508571D01*
X123071431Y-86508571D02*
X123166669Y-86460952D01*
X123166669Y-86460952D02*
X123357145Y-86460952D01*
X123357145Y-86460952D02*
X123452383Y-86508571D01*
X124547622Y-86460952D02*
X124928574Y-86460952D01*
X124690479Y-87127619D02*
X124690479Y-86270476D01*
X124690479Y-86270476D02*
X124738098Y-86175238D01*
X124738098Y-86175238D02*
X124833336Y-86127619D01*
X124833336Y-86127619D02*
X124928574Y-86127619D01*
X125404765Y-87127619D02*
X125309527Y-87080000D01*
X125309527Y-87080000D02*
X125261908Y-87032380D01*
X125261908Y-87032380D02*
X125214289Y-86937142D01*
X125214289Y-86937142D02*
X125214289Y-86651428D01*
X125214289Y-86651428D02*
X125261908Y-86556190D01*
X125261908Y-86556190D02*
X125309527Y-86508571D01*
X125309527Y-86508571D02*
X125404765Y-86460952D01*
X125404765Y-86460952D02*
X125547622Y-86460952D01*
X125547622Y-86460952D02*
X125642860Y-86508571D01*
X125642860Y-86508571D02*
X125690479Y-86556190D01*
X125690479Y-86556190D02*
X125738098Y-86651428D01*
X125738098Y-86651428D02*
X125738098Y-86937142D01*
X125738098Y-86937142D02*
X125690479Y-87032380D01*
X125690479Y-87032380D02*
X125642860Y-87080000D01*
X125642860Y-87080000D02*
X125547622Y-87127619D01*
X125547622Y-87127619D02*
X125404765Y-87127619D01*
X126166670Y-87127619D02*
X126166670Y-86460952D01*
X126166670Y-86651428D02*
X126214289Y-86556190D01*
X126214289Y-86556190D02*
X126261908Y-86508571D01*
X126261908Y-86508571D02*
X126357146Y-86460952D01*
X126357146Y-86460952D02*
X126452384Y-86460952D01*
X127547623Y-87127619D02*
X127547623Y-86127619D01*
X127547623Y-86127619D02*
X128119051Y-87127619D01*
X128119051Y-87127619D02*
X128119051Y-86127619D01*
X129023813Y-86460952D02*
X129023813Y-87127619D01*
X128595242Y-86460952D02*
X128595242Y-86984761D01*
X128595242Y-86984761D02*
X128642861Y-87080000D01*
X128642861Y-87080000D02*
X128738099Y-87127619D01*
X128738099Y-87127619D02*
X128880956Y-87127619D01*
X128880956Y-87127619D02*
X128976194Y-87080000D01*
X128976194Y-87080000D02*
X129023813Y-87032380D01*
X129928575Y-87080000D02*
X129833337Y-87127619D01*
X129833337Y-87127619D02*
X129642861Y-87127619D01*
X129642861Y-87127619D02*
X129547623Y-87080000D01*
X129547623Y-87080000D02*
X129500004Y-87032380D01*
X129500004Y-87032380D02*
X129452385Y-86937142D01*
X129452385Y-86937142D02*
X129452385Y-86651428D01*
X129452385Y-86651428D02*
X129500004Y-86556190D01*
X129500004Y-86556190D02*
X129547623Y-86508571D01*
X129547623Y-86508571D02*
X129642861Y-86460952D01*
X129642861Y-86460952D02*
X129833337Y-86460952D01*
X129833337Y-86460952D02*
X129928575Y-86508571D01*
X130500004Y-87127619D02*
X130404766Y-87080000D01*
X130404766Y-87080000D02*
X130357147Y-86984761D01*
X130357147Y-86984761D02*
X130357147Y-86127619D01*
X131261909Y-87080000D02*
X131166671Y-87127619D01*
X131166671Y-87127619D02*
X130976195Y-87127619D01*
X130976195Y-87127619D02*
X130880957Y-87080000D01*
X130880957Y-87080000D02*
X130833338Y-86984761D01*
X130833338Y-86984761D02*
X130833338Y-86603809D01*
X130833338Y-86603809D02*
X130880957Y-86508571D01*
X130880957Y-86508571D02*
X130976195Y-86460952D01*
X130976195Y-86460952D02*
X131166671Y-86460952D01*
X131166671Y-86460952D02*
X131261909Y-86508571D01*
X131261909Y-86508571D02*
X131309528Y-86603809D01*
X131309528Y-86603809D02*
X131309528Y-86699047D01*
X131309528Y-86699047D02*
X130833338Y-86794285D01*
X131880957Y-87127619D02*
X131785719Y-87080000D01*
X131785719Y-87080000D02*
X131738100Y-87032380D01*
X131738100Y-87032380D02*
X131690481Y-86937142D01*
X131690481Y-86937142D02*
X131690481Y-86651428D01*
X131690481Y-86651428D02*
X131738100Y-86556190D01*
X131738100Y-86556190D02*
X131785719Y-86508571D01*
X131785719Y-86508571D02*
X131880957Y-86460952D01*
X131880957Y-86460952D02*
X132023814Y-86460952D01*
X132023814Y-86460952D02*
X132119052Y-86508571D01*
X132119052Y-86508571D02*
X132166671Y-86556190D01*
X132166671Y-86556190D02*
X132214290Y-86651428D01*
X132214290Y-86651428D02*
X132214290Y-86937142D01*
X132214290Y-86937142D02*
X132166671Y-87032380D01*
X132166671Y-87032380D02*
X132119052Y-87080000D01*
X132119052Y-87080000D02*
X132023814Y-87127619D01*
X132023814Y-87127619D02*
X131880957Y-87127619D01*
X133928576Y-87127619D02*
X133357148Y-87127619D01*
X133642862Y-87127619D02*
X133642862Y-86127619D01*
X133642862Y-86127619D02*
X133547624Y-86270476D01*
X133547624Y-86270476D02*
X133452386Y-86365714D01*
X133452386Y-86365714D02*
X133357148Y-86413333D01*
X134785719Y-86460952D02*
X134785719Y-87127619D01*
X134547624Y-86080000D02*
X134309529Y-86794285D01*
X134309529Y-86794285D02*
X134928576Y-86794285D01*
X135738100Y-86460952D02*
X135738100Y-87127619D01*
X135500005Y-86080000D02*
X135261910Y-86794285D01*
X135261910Y-86794285D02*
X135880957Y-86794285D01*
X116284285Y-153547619D02*
X115808095Y-153547619D01*
X115808095Y-153547619D02*
X115808095Y-152547619D01*
X116617619Y-153547619D02*
X116617619Y-152547619D01*
X117093809Y-153547619D02*
X117093809Y-152547619D01*
X117093809Y-152547619D02*
X117665237Y-153547619D01*
X117665237Y-153547619D02*
X117665237Y-152547619D01*
X118141428Y-153547619D02*
X118141428Y-152547619D01*
X118712856Y-153547619D02*
X118284285Y-152976190D01*
X118712856Y-152547619D02*
X118141428Y-153119047D01*
X119855714Y-153261904D02*
X120331904Y-153261904D01*
X119760476Y-153547619D02*
X120093809Y-152547619D01*
X120093809Y-152547619D02*
X120427142Y-153547619D01*
X121331904Y-153452380D02*
X121284285Y-153500000D01*
X121284285Y-153500000D02*
X121141428Y-153547619D01*
X121141428Y-153547619D02*
X121046190Y-153547619D01*
X121046190Y-153547619D02*
X120903333Y-153500000D01*
X120903333Y-153500000D02*
X120808095Y-153404761D01*
X120808095Y-153404761D02*
X120760476Y-153309523D01*
X120760476Y-153309523D02*
X120712857Y-153119047D01*
X120712857Y-153119047D02*
X120712857Y-152976190D01*
X120712857Y-152976190D02*
X120760476Y-152785714D01*
X120760476Y-152785714D02*
X120808095Y-152690476D01*
X120808095Y-152690476D02*
X120903333Y-152595238D01*
X120903333Y-152595238D02*
X121046190Y-152547619D01*
X121046190Y-152547619D02*
X121141428Y-152547619D01*
X121141428Y-152547619D02*
X121284285Y-152595238D01*
X121284285Y-152595238D02*
X121331904Y-152642857D01*
X121617619Y-152547619D02*
X122189047Y-152547619D01*
X121903333Y-153547619D02*
X121903333Y-152547619D01*
X145351428Y-150483809D02*
X145018095Y-150483809D01*
X145018095Y-151007619D02*
X145018095Y-150007619D01*
X145018095Y-150007619D02*
X145494285Y-150007619D01*
X145875238Y-150007619D02*
X145875238Y-150817142D01*
X145875238Y-150817142D02*
X145922857Y-150912380D01*
X145922857Y-150912380D02*
X145970476Y-150960000D01*
X145970476Y-150960000D02*
X146065714Y-151007619D01*
X146065714Y-151007619D02*
X146256190Y-151007619D01*
X146256190Y-151007619D02*
X146351428Y-150960000D01*
X146351428Y-150960000D02*
X146399047Y-150912380D01*
X146399047Y-150912380D02*
X146446666Y-150817142D01*
X146446666Y-150817142D02*
X146446666Y-150007619D01*
X147399047Y-151007619D02*
X146922857Y-151007619D01*
X146922857Y-151007619D02*
X146922857Y-150007619D01*
X148208571Y-151007619D02*
X147732381Y-151007619D01*
X147732381Y-151007619D02*
X147732381Y-150007619D01*
X149303810Y-151007619D02*
X149303810Y-150007619D01*
X149303810Y-150007619D02*
X149541905Y-150007619D01*
X149541905Y-150007619D02*
X149684762Y-150055238D01*
X149684762Y-150055238D02*
X149780000Y-150150476D01*
X149780000Y-150150476D02*
X149827619Y-150245714D01*
X149827619Y-150245714D02*
X149875238Y-150436190D01*
X149875238Y-150436190D02*
X149875238Y-150579047D01*
X149875238Y-150579047D02*
X149827619Y-150769523D01*
X149827619Y-150769523D02*
X149780000Y-150864761D01*
X149780000Y-150864761D02*
X149684762Y-150960000D01*
X149684762Y-150960000D02*
X149541905Y-151007619D01*
X149541905Y-151007619D02*
X149303810Y-151007619D01*
X150303810Y-150007619D02*
X150303810Y-150817142D01*
X150303810Y-150817142D02*
X150351429Y-150912380D01*
X150351429Y-150912380D02*
X150399048Y-150960000D01*
X150399048Y-150960000D02*
X150494286Y-151007619D01*
X150494286Y-151007619D02*
X150684762Y-151007619D01*
X150684762Y-151007619D02*
X150780000Y-150960000D01*
X150780000Y-150960000D02*
X150827619Y-150912380D01*
X150827619Y-150912380D02*
X150875238Y-150817142D01*
X150875238Y-150817142D02*
X150875238Y-150007619D01*
X151351429Y-151007619D02*
X151351429Y-150007619D01*
X151351429Y-150007619D02*
X151732381Y-150007619D01*
X151732381Y-150007619D02*
X151827619Y-150055238D01*
X151827619Y-150055238D02*
X151875238Y-150102857D01*
X151875238Y-150102857D02*
X151922857Y-150198095D01*
X151922857Y-150198095D02*
X151922857Y-150340952D01*
X151922857Y-150340952D02*
X151875238Y-150436190D01*
X151875238Y-150436190D02*
X151827619Y-150483809D01*
X151827619Y-150483809D02*
X151732381Y-150531428D01*
X151732381Y-150531428D02*
X151351429Y-150531428D01*
X152827619Y-151007619D02*
X152351429Y-151007619D01*
X152351429Y-151007619D02*
X152351429Y-150007619D01*
X153160953Y-150483809D02*
X153494286Y-150483809D01*
X153637143Y-151007619D02*
X153160953Y-151007619D01*
X153160953Y-151007619D02*
X153160953Y-150007619D01*
X153160953Y-150007619D02*
X153637143Y-150007619D01*
X153970477Y-150007619D02*
X154637143Y-151007619D01*
X154637143Y-150007619D02*
X153970477Y-151007619D01*
X144892619Y-146579166D02*
X144416428Y-146912499D01*
X144892619Y-147150594D02*
X143892619Y-147150594D01*
X143892619Y-147150594D02*
X143892619Y-146769642D01*
X143892619Y-146769642D02*
X143940238Y-146674404D01*
X143940238Y-146674404D02*
X143987857Y-146626785D01*
X143987857Y-146626785D02*
X144083095Y-146579166D01*
X144083095Y-146579166D02*
X144225952Y-146579166D01*
X144225952Y-146579166D02*
X144321190Y-146626785D01*
X144321190Y-146626785D02*
X144368809Y-146674404D01*
X144368809Y-146674404D02*
X144416428Y-146769642D01*
X144416428Y-146769642D02*
X144416428Y-147150594D01*
X144892619Y-145626785D02*
X144892619Y-146198213D01*
X144892619Y-145912499D02*
X143892619Y-145912499D01*
X143892619Y-145912499D02*
X144035476Y-146007737D01*
X144035476Y-146007737D02*
X144130714Y-146102975D01*
X144130714Y-146102975D02*
X144178333Y-146198213D01*
X121212619Y-121642857D02*
X120736428Y-121976190D01*
X121212619Y-122214285D02*
X120212619Y-122214285D01*
X120212619Y-122214285D02*
X120212619Y-121833333D01*
X120212619Y-121833333D02*
X120260238Y-121738095D01*
X120260238Y-121738095D02*
X120307857Y-121690476D01*
X120307857Y-121690476D02*
X120403095Y-121642857D01*
X120403095Y-121642857D02*
X120545952Y-121642857D01*
X120545952Y-121642857D02*
X120641190Y-121690476D01*
X120641190Y-121690476D02*
X120688809Y-121738095D01*
X120688809Y-121738095D02*
X120736428Y-121833333D01*
X120736428Y-121833333D02*
X120736428Y-122214285D01*
X121212619Y-120690476D02*
X121212619Y-121261904D01*
X121212619Y-120976190D02*
X120212619Y-120976190D01*
X120212619Y-120976190D02*
X120355476Y-121071428D01*
X120355476Y-121071428D02*
X120450714Y-121166666D01*
X120450714Y-121166666D02*
X120498333Y-121261904D01*
X120212619Y-120071428D02*
X120212619Y-119976190D01*
X120212619Y-119976190D02*
X120260238Y-119880952D01*
X120260238Y-119880952D02*
X120307857Y-119833333D01*
X120307857Y-119833333D02*
X120403095Y-119785714D01*
X120403095Y-119785714D02*
X120593571Y-119738095D01*
X120593571Y-119738095D02*
X120831666Y-119738095D01*
X120831666Y-119738095D02*
X121022142Y-119785714D01*
X121022142Y-119785714D02*
X121117380Y-119833333D01*
X121117380Y-119833333D02*
X121165000Y-119880952D01*
X121165000Y-119880952D02*
X121212619Y-119976190D01*
X121212619Y-119976190D02*
X121212619Y-120071428D01*
X121212619Y-120071428D02*
X121165000Y-120166666D01*
X121165000Y-120166666D02*
X121117380Y-120214285D01*
X121117380Y-120214285D02*
X121022142Y-120261904D01*
X121022142Y-120261904D02*
X120831666Y-120309523D01*
X120831666Y-120309523D02*
X120593571Y-120309523D01*
X120593571Y-120309523D02*
X120403095Y-120261904D01*
X120403095Y-120261904D02*
X120307857Y-120214285D01*
X120307857Y-120214285D02*
X120260238Y-120166666D01*
X120260238Y-120166666D02*
X120212619Y-120071428D01*
X131238095Y-115042619D02*
X131238095Y-115852142D01*
X131238095Y-115852142D02*
X131285714Y-115947380D01*
X131285714Y-115947380D02*
X131333333Y-115995000D01*
X131333333Y-115995000D02*
X131428571Y-116042619D01*
X131428571Y-116042619D02*
X131619047Y-116042619D01*
X131619047Y-116042619D02*
X131714285Y-115995000D01*
X131714285Y-115995000D02*
X131761904Y-115947380D01*
X131761904Y-115947380D02*
X131809523Y-115852142D01*
X131809523Y-115852142D02*
X131809523Y-115042619D01*
X132809523Y-116042619D02*
X132238095Y-116042619D01*
X132523809Y-116042619D02*
X132523809Y-115042619D01*
X132523809Y-115042619D02*
X132428571Y-115185476D01*
X132428571Y-115185476D02*
X132333333Y-115280714D01*
X132333333Y-115280714D02*
X132238095Y-115328333D01*
X111212619Y-116829166D02*
X110736428Y-117162499D01*
X111212619Y-117400594D02*
X110212619Y-117400594D01*
X110212619Y-117400594D02*
X110212619Y-117019642D01*
X110212619Y-117019642D02*
X110260238Y-116924404D01*
X110260238Y-116924404D02*
X110307857Y-116876785D01*
X110307857Y-116876785D02*
X110403095Y-116829166D01*
X110403095Y-116829166D02*
X110545952Y-116829166D01*
X110545952Y-116829166D02*
X110641190Y-116876785D01*
X110641190Y-116876785D02*
X110688809Y-116924404D01*
X110688809Y-116924404D02*
X110736428Y-117019642D01*
X110736428Y-117019642D02*
X110736428Y-117400594D01*
X110641190Y-116257737D02*
X110593571Y-116352975D01*
X110593571Y-116352975D02*
X110545952Y-116400594D01*
X110545952Y-116400594D02*
X110450714Y-116448213D01*
X110450714Y-116448213D02*
X110403095Y-116448213D01*
X110403095Y-116448213D02*
X110307857Y-116400594D01*
X110307857Y-116400594D02*
X110260238Y-116352975D01*
X110260238Y-116352975D02*
X110212619Y-116257737D01*
X110212619Y-116257737D02*
X110212619Y-116067261D01*
X110212619Y-116067261D02*
X110260238Y-115972023D01*
X110260238Y-115972023D02*
X110307857Y-115924404D01*
X110307857Y-115924404D02*
X110403095Y-115876785D01*
X110403095Y-115876785D02*
X110450714Y-115876785D01*
X110450714Y-115876785D02*
X110545952Y-115924404D01*
X110545952Y-115924404D02*
X110593571Y-115972023D01*
X110593571Y-115972023D02*
X110641190Y-116067261D01*
X110641190Y-116067261D02*
X110641190Y-116257737D01*
X110641190Y-116257737D02*
X110688809Y-116352975D01*
X110688809Y-116352975D02*
X110736428Y-116400594D01*
X110736428Y-116400594D02*
X110831666Y-116448213D01*
X110831666Y-116448213D02*
X111022142Y-116448213D01*
X111022142Y-116448213D02*
X111117380Y-116400594D01*
X111117380Y-116400594D02*
X111165000Y-116352975D01*
X111165000Y-116352975D02*
X111212619Y-116257737D01*
X111212619Y-116257737D02*
X111212619Y-116067261D01*
X111212619Y-116067261D02*
X111165000Y-115972023D01*
X111165000Y-115972023D02*
X111117380Y-115924404D01*
X111117380Y-115924404D02*
X111022142Y-115876785D01*
X111022142Y-115876785D02*
X110831666Y-115876785D01*
X110831666Y-115876785D02*
X110736428Y-115924404D01*
X110736428Y-115924404D02*
X110688809Y-115972023D01*
X110688809Y-115972023D02*
X110641190Y-116067261D01*
X113988095Y-118712619D02*
X113988095Y-119522142D01*
X113988095Y-119522142D02*
X114035714Y-119617380D01*
X114035714Y-119617380D02*
X114083333Y-119665000D01*
X114083333Y-119665000D02*
X114178571Y-119712619D01*
X114178571Y-119712619D02*
X114369047Y-119712619D01*
X114369047Y-119712619D02*
X114464285Y-119665000D01*
X114464285Y-119665000D02*
X114511904Y-119617380D01*
X114511904Y-119617380D02*
X114559523Y-119522142D01*
X114559523Y-119522142D02*
X114559523Y-118712619D01*
X114988095Y-118807857D02*
X115035714Y-118760238D01*
X115035714Y-118760238D02*
X115130952Y-118712619D01*
X115130952Y-118712619D02*
X115369047Y-118712619D01*
X115369047Y-118712619D02*
X115464285Y-118760238D01*
X115464285Y-118760238D02*
X115511904Y-118807857D01*
X115511904Y-118807857D02*
X115559523Y-118903095D01*
X115559523Y-118903095D02*
X115559523Y-118998333D01*
X115559523Y-118998333D02*
X115511904Y-119141190D01*
X115511904Y-119141190D02*
X114940476Y-119712619D01*
X114940476Y-119712619D02*
X115559523Y-119712619D01*
X138962619Y-121009523D02*
X139962619Y-120342857D01*
X138962619Y-120342857D02*
X139962619Y-121009523D01*
X139962619Y-119438095D02*
X139962619Y-120009523D01*
X139962619Y-119723809D02*
X138962619Y-119723809D01*
X138962619Y-119723809D02*
X139105476Y-119819047D01*
X139105476Y-119819047D02*
X139200714Y-119914285D01*
X139200714Y-119914285D02*
X139248333Y-120009523D01*
X153282619Y-146788094D02*
X152282619Y-146788094D01*
X152282619Y-146788094D02*
X152282619Y-146549999D01*
X152282619Y-146549999D02*
X152330238Y-146407142D01*
X152330238Y-146407142D02*
X152425476Y-146311904D01*
X152425476Y-146311904D02*
X152520714Y-146264285D01*
X152520714Y-146264285D02*
X152711190Y-146216666D01*
X152711190Y-146216666D02*
X152854047Y-146216666D01*
X152854047Y-146216666D02*
X153044523Y-146264285D01*
X153044523Y-146264285D02*
X153139761Y-146311904D01*
X153139761Y-146311904D02*
X153235000Y-146407142D01*
X153235000Y-146407142D02*
X153282619Y-146549999D01*
X153282619Y-146549999D02*
X153282619Y-146788094D01*
X153282619Y-145264285D02*
X153282619Y-145835713D01*
X153282619Y-145549999D02*
X152282619Y-145549999D01*
X152282619Y-145549999D02*
X152425476Y-145645237D01*
X152425476Y-145645237D02*
X152520714Y-145740475D01*
X152520714Y-145740475D02*
X152568333Y-145835713D01*
X142166666Y-133962619D02*
X142166666Y-134676904D01*
X142166666Y-134676904D02*
X142119047Y-134819761D01*
X142119047Y-134819761D02*
X142023809Y-134915000D01*
X142023809Y-134915000D02*
X141880952Y-134962619D01*
X141880952Y-134962619D02*
X141785714Y-134962619D01*
X142547619Y-133962619D02*
X143166666Y-133962619D01*
X143166666Y-133962619D02*
X142833333Y-134343571D01*
X142833333Y-134343571D02*
X142976190Y-134343571D01*
X142976190Y-134343571D02*
X143071428Y-134391190D01*
X143071428Y-134391190D02*
X143119047Y-134438809D01*
X143119047Y-134438809D02*
X143166666Y-134534047D01*
X143166666Y-134534047D02*
X143166666Y-134772142D01*
X143166666Y-134772142D02*
X143119047Y-134867380D01*
X143119047Y-134867380D02*
X143071428Y-134915000D01*
X143071428Y-134915000D02*
X142976190Y-134962619D01*
X142976190Y-134962619D02*
X142690476Y-134962619D01*
X142690476Y-134962619D02*
X142595238Y-134915000D01*
X142595238Y-134915000D02*
X142547619Y-134867380D01*
X127483000Y-137052619D02*
X127483000Y-137290714D01*
X127244905Y-137195476D02*
X127483000Y-137290714D01*
X127483000Y-137290714D02*
X127721095Y-137195476D01*
X127340143Y-137481190D02*
X127483000Y-137290714D01*
X127483000Y-137290714D02*
X127625857Y-137481190D01*
X122392619Y-146666666D02*
X121916428Y-146999999D01*
X122392619Y-147238094D02*
X121392619Y-147238094D01*
X121392619Y-147238094D02*
X121392619Y-146857142D01*
X121392619Y-146857142D02*
X121440238Y-146761904D01*
X121440238Y-146761904D02*
X121487857Y-146714285D01*
X121487857Y-146714285D02*
X121583095Y-146666666D01*
X121583095Y-146666666D02*
X121725952Y-146666666D01*
X121725952Y-146666666D02*
X121821190Y-146714285D01*
X121821190Y-146714285D02*
X121868809Y-146761904D01*
X121868809Y-146761904D02*
X121916428Y-146857142D01*
X121916428Y-146857142D02*
X121916428Y-147238094D01*
X121487857Y-146285713D02*
X121440238Y-146238094D01*
X121440238Y-146238094D02*
X121392619Y-146142856D01*
X121392619Y-146142856D02*
X121392619Y-145904761D01*
X121392619Y-145904761D02*
X121440238Y-145809523D01*
X121440238Y-145809523D02*
X121487857Y-145761904D01*
X121487857Y-145761904D02*
X121583095Y-145714285D01*
X121583095Y-145714285D02*
X121678333Y-145714285D01*
X121678333Y-145714285D02*
X121821190Y-145761904D01*
X121821190Y-145761904D02*
X122392619Y-146333332D01*
X122392619Y-146333332D02*
X122392619Y-145714285D01*
X115695833Y-112617380D02*
X115648214Y-112665000D01*
X115648214Y-112665000D02*
X115505357Y-112712619D01*
X115505357Y-112712619D02*
X115410119Y-112712619D01*
X115410119Y-112712619D02*
X115267262Y-112665000D01*
X115267262Y-112665000D02*
X115172024Y-112569761D01*
X115172024Y-112569761D02*
X115124405Y-112474523D01*
X115124405Y-112474523D02*
X115076786Y-112284047D01*
X115076786Y-112284047D02*
X115076786Y-112141190D01*
X115076786Y-112141190D02*
X115124405Y-111950714D01*
X115124405Y-111950714D02*
X115172024Y-111855476D01*
X115172024Y-111855476D02*
X115267262Y-111760238D01*
X115267262Y-111760238D02*
X115410119Y-111712619D01*
X115410119Y-111712619D02*
X115505357Y-111712619D01*
X115505357Y-111712619D02*
X115648214Y-111760238D01*
X115648214Y-111760238D02*
X115695833Y-111807857D01*
X116600595Y-111712619D02*
X116124405Y-111712619D01*
X116124405Y-111712619D02*
X116076786Y-112188809D01*
X116076786Y-112188809D02*
X116124405Y-112141190D01*
X116124405Y-112141190D02*
X116219643Y-112093571D01*
X116219643Y-112093571D02*
X116457738Y-112093571D01*
X116457738Y-112093571D02*
X116552976Y-112141190D01*
X116552976Y-112141190D02*
X116600595Y-112188809D01*
X116600595Y-112188809D02*
X116648214Y-112284047D01*
X116648214Y-112284047D02*
X116648214Y-112522142D01*
X116648214Y-112522142D02*
X116600595Y-112617380D01*
X116600595Y-112617380D02*
X116552976Y-112665000D01*
X116552976Y-112665000D02*
X116457738Y-112712619D01*
X116457738Y-112712619D02*
X116219643Y-112712619D01*
X116219643Y-112712619D02*
X116124405Y-112665000D01*
X116124405Y-112665000D02*
X116076786Y-112617380D01*
X124462619Y-118833333D02*
X125176904Y-118833333D01*
X125176904Y-118833333D02*
X125319761Y-118880952D01*
X125319761Y-118880952D02*
X125415000Y-118976190D01*
X125415000Y-118976190D02*
X125462619Y-119119047D01*
X125462619Y-119119047D02*
X125462619Y-119214285D01*
X125462619Y-118357142D02*
X124462619Y-118357142D01*
X124462619Y-118357142D02*
X124462619Y-117976190D01*
X124462619Y-117976190D02*
X124510238Y-117880952D01*
X124510238Y-117880952D02*
X124557857Y-117833333D01*
X124557857Y-117833333D02*
X124653095Y-117785714D01*
X124653095Y-117785714D02*
X124795952Y-117785714D01*
X124795952Y-117785714D02*
X124891190Y-117833333D01*
X124891190Y-117833333D02*
X124938809Y-117880952D01*
X124938809Y-117880952D02*
X124986428Y-117976190D01*
X124986428Y-117976190D02*
X124986428Y-118357142D01*
X125462619Y-116833333D02*
X125462619Y-117404761D01*
X125462619Y-117119047D02*
X124462619Y-117119047D01*
X124462619Y-117119047D02*
X124605476Y-117214285D01*
X124605476Y-117214285D02*
X124700714Y-117309523D01*
X124700714Y-117309523D02*
X124748333Y-117404761D01*
X156832619Y-147050357D02*
X156356428Y-147383690D01*
X156832619Y-147621785D02*
X155832619Y-147621785D01*
X155832619Y-147621785D02*
X155832619Y-147240833D01*
X155832619Y-147240833D02*
X155880238Y-147145595D01*
X155880238Y-147145595D02*
X155927857Y-147097976D01*
X155927857Y-147097976D02*
X156023095Y-147050357D01*
X156023095Y-147050357D02*
X156165952Y-147050357D01*
X156165952Y-147050357D02*
X156261190Y-147097976D01*
X156261190Y-147097976D02*
X156308809Y-147145595D01*
X156308809Y-147145595D02*
X156356428Y-147240833D01*
X156356428Y-147240833D02*
X156356428Y-147621785D01*
X156832619Y-146097976D02*
X156832619Y-146669404D01*
X156832619Y-146383690D02*
X155832619Y-146383690D01*
X155832619Y-146383690D02*
X155975476Y-146478928D01*
X155975476Y-146478928D02*
X156070714Y-146574166D01*
X156070714Y-146574166D02*
X156118333Y-146669404D01*
X155927857Y-145717023D02*
X155880238Y-145669404D01*
X155880238Y-145669404D02*
X155832619Y-145574166D01*
X155832619Y-145574166D02*
X155832619Y-145336071D01*
X155832619Y-145336071D02*
X155880238Y-145240833D01*
X155880238Y-145240833D02*
X155927857Y-145193214D01*
X155927857Y-145193214D02*
X156023095Y-145145595D01*
X156023095Y-145145595D02*
X156118333Y-145145595D01*
X156118333Y-145145595D02*
X156261190Y-145193214D01*
X156261190Y-145193214D02*
X156832619Y-145764642D01*
X156832619Y-145764642D02*
X156832619Y-145145595D01*
X119437380Y-133142857D02*
X119485000Y-133190476D01*
X119485000Y-133190476D02*
X119532619Y-133333333D01*
X119532619Y-133333333D02*
X119532619Y-133428571D01*
X119532619Y-133428571D02*
X119485000Y-133571428D01*
X119485000Y-133571428D02*
X119389761Y-133666666D01*
X119389761Y-133666666D02*
X119294523Y-133714285D01*
X119294523Y-133714285D02*
X119104047Y-133761904D01*
X119104047Y-133761904D02*
X118961190Y-133761904D01*
X118961190Y-133761904D02*
X118770714Y-133714285D01*
X118770714Y-133714285D02*
X118675476Y-133666666D01*
X118675476Y-133666666D02*
X118580238Y-133571428D01*
X118580238Y-133571428D02*
X118532619Y-133428571D01*
X118532619Y-133428571D02*
X118532619Y-133333333D01*
X118532619Y-133333333D02*
X118580238Y-133190476D01*
X118580238Y-133190476D02*
X118627857Y-133142857D01*
X119532619Y-132190476D02*
X119532619Y-132761904D01*
X119532619Y-132476190D02*
X118532619Y-132476190D01*
X118532619Y-132476190D02*
X118675476Y-132571428D01*
X118675476Y-132571428D02*
X118770714Y-132666666D01*
X118770714Y-132666666D02*
X118818333Y-132761904D01*
X119532619Y-131714285D02*
X119532619Y-131523809D01*
X119532619Y-131523809D02*
X119485000Y-131428571D01*
X119485000Y-131428571D02*
X119437380Y-131380952D01*
X119437380Y-131380952D02*
X119294523Y-131285714D01*
X119294523Y-131285714D02*
X119104047Y-131238095D01*
X119104047Y-131238095D02*
X118723095Y-131238095D01*
X118723095Y-131238095D02*
X118627857Y-131285714D01*
X118627857Y-131285714D02*
X118580238Y-131333333D01*
X118580238Y-131333333D02*
X118532619Y-131428571D01*
X118532619Y-131428571D02*
X118532619Y-131619047D01*
X118532619Y-131619047D02*
X118580238Y-131714285D01*
X118580238Y-131714285D02*
X118627857Y-131761904D01*
X118627857Y-131761904D02*
X118723095Y-131809523D01*
X118723095Y-131809523D02*
X118961190Y-131809523D01*
X118961190Y-131809523D02*
X119056428Y-131761904D01*
X119056428Y-131761904D02*
X119104047Y-131714285D01*
X119104047Y-131714285D02*
X119151666Y-131619047D01*
X119151666Y-131619047D02*
X119151666Y-131428571D01*
X119151666Y-131428571D02*
X119104047Y-131333333D01*
X119104047Y-131333333D02*
X119056428Y-131285714D01*
X119056428Y-131285714D02*
X118961190Y-131238095D01*
X119532619Y-137579166D02*
X119056428Y-137912499D01*
X119532619Y-138150594D02*
X118532619Y-138150594D01*
X118532619Y-138150594D02*
X118532619Y-137769642D01*
X118532619Y-137769642D02*
X118580238Y-137674404D01*
X118580238Y-137674404D02*
X118627857Y-137626785D01*
X118627857Y-137626785D02*
X118723095Y-137579166D01*
X118723095Y-137579166D02*
X118865952Y-137579166D01*
X118865952Y-137579166D02*
X118961190Y-137626785D01*
X118961190Y-137626785D02*
X119008809Y-137674404D01*
X119008809Y-137674404D02*
X119056428Y-137769642D01*
X119056428Y-137769642D02*
X119056428Y-138150594D01*
X118532619Y-137245832D02*
X118532619Y-136626785D01*
X118532619Y-136626785D02*
X118913571Y-136960118D01*
X118913571Y-136960118D02*
X118913571Y-136817261D01*
X118913571Y-136817261D02*
X118961190Y-136722023D01*
X118961190Y-136722023D02*
X119008809Y-136674404D01*
X119008809Y-136674404D02*
X119104047Y-136626785D01*
X119104047Y-136626785D02*
X119342142Y-136626785D01*
X119342142Y-136626785D02*
X119437380Y-136674404D01*
X119437380Y-136674404D02*
X119485000Y-136722023D01*
X119485000Y-136722023D02*
X119532619Y-136817261D01*
X119532619Y-136817261D02*
X119532619Y-137102975D01*
X119532619Y-137102975D02*
X119485000Y-137198213D01*
X119485000Y-137198213D02*
X119437380Y-137245832D01*
X118462619Y-123916666D02*
X117986428Y-124249999D01*
X118462619Y-124488094D02*
X117462619Y-124488094D01*
X117462619Y-124488094D02*
X117462619Y-124107142D01*
X117462619Y-124107142D02*
X117510238Y-124011904D01*
X117510238Y-124011904D02*
X117557857Y-123964285D01*
X117557857Y-123964285D02*
X117653095Y-123916666D01*
X117653095Y-123916666D02*
X117795952Y-123916666D01*
X117795952Y-123916666D02*
X117891190Y-123964285D01*
X117891190Y-123964285D02*
X117938809Y-124011904D01*
X117938809Y-124011904D02*
X117986428Y-124107142D01*
X117986428Y-124107142D02*
X117986428Y-124488094D01*
X118462619Y-123440475D02*
X118462619Y-123249999D01*
X118462619Y-123249999D02*
X118415000Y-123154761D01*
X118415000Y-123154761D02*
X118367380Y-123107142D01*
X118367380Y-123107142D02*
X118224523Y-123011904D01*
X118224523Y-123011904D02*
X118034047Y-122964285D01*
X118034047Y-122964285D02*
X117653095Y-122964285D01*
X117653095Y-122964285D02*
X117557857Y-123011904D01*
X117557857Y-123011904D02*
X117510238Y-123059523D01*
X117510238Y-123059523D02*
X117462619Y-123154761D01*
X117462619Y-123154761D02*
X117462619Y-123345237D01*
X117462619Y-123345237D02*
X117510238Y-123440475D01*
X117510238Y-123440475D02*
X117557857Y-123488094D01*
X117557857Y-123488094D02*
X117653095Y-123535713D01*
X117653095Y-123535713D02*
X117891190Y-123535713D01*
X117891190Y-123535713D02*
X117986428Y-123488094D01*
X117986428Y-123488094D02*
X118034047Y-123440475D01*
X118034047Y-123440475D02*
X118081666Y-123345237D01*
X118081666Y-123345237D02*
X118081666Y-123154761D01*
X118081666Y-123154761D02*
X118034047Y-123059523D01*
X118034047Y-123059523D02*
X117986428Y-123011904D01*
X117986428Y-123011904D02*
X117891190Y-122964285D01*
D12*
X143522500Y-146157776D02*
X143522500Y-146667224D01*
X142477500Y-146157776D02*
X142477500Y-146667224D01*
X121272500Y-117495276D02*
X121272500Y-118004724D01*
X120227500Y-117495276D02*
X120227500Y-118004724D01*
X136110000Y-106150000D02*
X136110000Y-106625000D01*
X135635000Y-114370000D02*
X136110000Y-114370000D01*
X135635000Y-106150000D02*
X136110000Y-106150000D01*
X128365000Y-114370000D02*
X127890000Y-114370000D01*
X128365000Y-106150000D02*
X127890000Y-106150000D01*
X127890000Y-114370000D02*
X127890000Y-113895000D01*
X127890000Y-106150000D02*
X127890000Y-106625000D01*
X113022500Y-116495276D02*
X113022500Y-117004724D01*
X111977500Y-116495276D02*
X111977500Y-117004724D01*
X116750000Y-115190000D02*
X114950000Y-115190000D01*
X116750000Y-115190000D02*
X117550000Y-115190000D01*
X116750000Y-118310000D02*
X115950000Y-118310000D01*
X116750000Y-118310000D02*
X117550000Y-118310000D01*
X137000000Y-123200000D02*
X137000000Y-122900000D01*
X137000000Y-122900000D02*
X135800000Y-122900000D01*
X134600000Y-121300000D02*
X134600000Y-119100000D01*
X138200000Y-121300000D02*
X138600000Y-121300000D01*
X138200000Y-119100000D02*
X138200000Y-121300000D01*
X135800000Y-117500000D02*
X137000000Y-117500000D01*
X151096000Y-144490000D02*
X150940000Y-144490000D01*
X148780000Y-144490000D02*
X148624000Y-144490000D01*
X150938608Y-147722334D02*
G75*
G03*
X151095515Y-144490001I-1078608J1672334D01*
G01*
X150939836Y-147091129D02*
G75*
G03*
X150939999Y-145009040I-1079836J1041129D01*
G01*
X148780001Y-145009040D02*
G75*
G03*
X148780164Y-147091129I1079999J-1040960D01*
G01*
X148624485Y-144490001D02*
G75*
G03*
X148781392Y-147722334I1235515J-1559999D01*
G01*
X140183000Y-154867000D02*
X140183000Y-150290000D01*
X140183000Y-150231237D02*
X140183000Y-142223763D01*
X140183000Y-139556237D02*
X140183000Y-133023000D01*
X140183000Y-133023000D02*
X123673000Y-133023000D01*
X123673000Y-154867000D02*
X140183000Y-154867000D01*
X123673000Y-150231237D02*
X123673000Y-154867000D01*
X123673000Y-142223763D02*
X123673000Y-150231237D01*
X123673000Y-133023000D02*
X123673000Y-139556237D01*
X125959000Y-137595000D02*
G75*
G03*
X125959000Y-137595000I-381000J0D01*
G01*
X121022500Y-146245276D02*
X121022500Y-146754724D01*
X119977500Y-146245276D02*
X119977500Y-146754724D01*
X116008767Y-114260000D02*
X115716233Y-114260000D01*
X116008767Y-113240000D02*
X115716233Y-113240000D01*
X128250000Y-116600000D02*
X128250000Y-119400000D01*
X126250000Y-116600000D02*
X128250000Y-116600000D01*
X128250000Y-119400000D02*
X126250000Y-119400000D01*
X126250000Y-119400000D02*
X126250000Y-116600000D01*
X155462500Y-146152776D02*
X155462500Y-146662224D01*
X154417500Y-146152776D02*
X154417500Y-146662224D01*
X119990000Y-132646267D02*
X119990000Y-132353733D01*
X121010000Y-132646267D02*
X121010000Y-132353733D01*
X119977500Y-137667224D02*
X119977500Y-137157776D01*
X121022500Y-137667224D02*
X121022500Y-137157776D01*
X117477500Y-121167224D02*
X117477500Y-120657776D01*
X118522500Y-121167224D02*
X118522500Y-120657776D01*
M02*
