%TF.GenerationSoftware,KiCad,Pcbnew,7.0.1-3b83917a11~172~ubuntu22.04.1*%
%TF.CreationDate,2023-03-26T14:08:46+09:00*%
%TF.ProjectId,Akashi-13,416b6173-6869-42d3-9133-2e6b69636164,rev?*%
%TF.SameCoordinates,Original*%
%TF.FileFunction,Paste,Bot*%
%TF.FilePolarity,Positive*%
%FSLAX46Y46*%
G04 Gerber Fmt 4.6, Leading zero omitted, Abs format (unit mm)*
G04 Created by KiCad (PCBNEW 7.0.1-3b83917a11~172~ubuntu22.04.1) date 2023-03-26 14:08:46*
%MOMM*%
%LPD*%
G01*
G04 APERTURE LIST*
G04 Aperture macros list*
%AMRoundRect*
0 Rectangle with rounded corners*
0 $1 Rounding radius*
0 $2 $3 $4 $5 $6 $7 $8 $9 X,Y pos of 4 corners*
0 Add a 4 corners polygon primitive as box body*
4,1,4,$2,$3,$4,$5,$6,$7,$8,$9,$2,$3,0*
0 Add four circle primitives for the rounded corners*
1,1,$1+$1,$2,$3*
1,1,$1+$1,$4,$5*
1,1,$1+$1,$6,$7*
1,1,$1+$1,$8,$9*
0 Add four rect primitives between the rounded corners*
20,1,$1+$1,$2,$3,$4,$5,0*
20,1,$1+$1,$4,$5,$6,$7,0*
20,1,$1+$1,$6,$7,$8,$9,0*
20,1,$1+$1,$8,$9,$2,$3,0*%
G04 Aperture macros list end*
%ADD10RoundRect,0.237500X-0.250000X-0.237500X0.250000X-0.237500X0.250000X0.237500X-0.250000X0.237500X0*%
%ADD11RoundRect,0.237500X0.300000X0.237500X-0.300000X0.237500X-0.300000X-0.237500X0.300000X-0.237500X0*%
%ADD12RoundRect,0.237500X-0.237500X0.300000X-0.237500X-0.300000X0.237500X-0.300000X0.237500X0.300000X0*%
%ADD13RoundRect,0.237500X0.237500X-0.300000X0.237500X0.300000X-0.237500X0.300000X-0.237500X-0.300000X0*%
%ADD14RoundRect,0.237500X0.250000X0.237500X-0.250000X0.237500X-0.250000X-0.237500X0.250000X-0.237500X0*%
%ADD15RoundRect,0.237500X-0.237500X0.250000X-0.237500X-0.250000X0.237500X-0.250000X0.237500X0.250000X0*%
%ADD16RoundRect,0.237500X-0.300000X-0.237500X0.300000X-0.237500X0.300000X0.237500X-0.300000X0.237500X0*%
G04 APERTURE END LIST*
D10*
%TO.C,R5*%
X126087500Y-124000000D03*
X127912500Y-124000000D03*
%TD*%
D11*
%TO.C,C15*%
X125730000Y-107500000D03*
X124005000Y-107500000D03*
%TD*%
D12*
%TO.C,C13*%
X130250000Y-117137500D03*
X130250000Y-118862500D03*
%TD*%
D13*
%TO.C,C16*%
X130250000Y-101612500D03*
X130250000Y-99887500D03*
%TD*%
D14*
%TO.C,R6*%
X135825000Y-129000000D03*
X134000000Y-129000000D03*
%TD*%
D15*
%TO.C,R11*%
X132500000Y-117087500D03*
X132500000Y-118912500D03*
%TD*%
D16*
%TO.C,C1*%
X134050000Y-126000000D03*
X135775000Y-126000000D03*
%TD*%
%TO.C,C9*%
X138887500Y-113000000D03*
X140612500Y-113000000D03*
%TD*%
%TO.C,C12*%
X138887500Y-114750000D03*
X140612500Y-114750000D03*
%TD*%
D11*
%TO.C,C4*%
X127862500Y-131000000D03*
X126137500Y-131000000D03*
%TD*%
%TO.C,C10*%
X125095000Y-111000000D03*
X123370000Y-111000000D03*
%TD*%
D16*
%TO.C,C7*%
X138887500Y-111250000D03*
X140612500Y-111250000D03*
%TD*%
%TO.C,C6*%
X134637500Y-120750000D03*
X136362500Y-120750000D03*
%TD*%
%TO.C,C11*%
X106025000Y-83750000D03*
X107750000Y-83750000D03*
%TD*%
%TO.C,C3*%
X134050000Y-131000000D03*
X135775000Y-131000000D03*
%TD*%
D14*
%TO.C,R4*%
X135825000Y-124000000D03*
X134000000Y-124000000D03*
%TD*%
D11*
%TO.C,C2*%
X127862500Y-126000000D03*
X126137500Y-126000000D03*
%TD*%
D12*
%TO.C,C8*%
X134500000Y-117137500D03*
X134500000Y-118862500D03*
%TD*%
%TO.C,C14*%
X136250000Y-117137500D03*
X136250000Y-118862500D03*
%TD*%
D10*
%TO.C,R7*%
X126087500Y-129000000D03*
X127912500Y-129000000D03*
%TD*%
D13*
%TO.C,C17*%
X134250000Y-101725000D03*
X134250000Y-100000000D03*
%TD*%
M02*
